<svg xmlns="http://www.w3.org/2000/svg" xmlns:xlink="http://www.w3.org/1999/xlink" contentStyleType="text/css" data-diagram-type="DESCRIPTION" height="9384.375px" preserveAspectRatio="none" style="width:10354px;height:9384px;background:#FFFFFF;" version="1.1" viewBox="0 0 10354 9384" width="10354.6875px" zoomAndPan="magnify"><title>Modular Component Diagram - Strategy Framework</title><defs/><g><g class="title" data-source-line="8"><text fill="#000000" font-family="sans-serif" font-size="65.625" font-weight="bold" lengthAdjust="spacing" textLength="1917.9611" x="4187.4726" y="107.7896">Modular Component Diagram - Strategy Framework</text></g><!--cluster Core Framework--><g class="cluster" data-entity="Core Framework" data-source-line="11" data-uid="ent0002" id="cluster_Core Framework"><path d="M39.8438,6263.8916 L653.5812,6263.8916 A17.5781,17.5781 0 0 1 665.3,6275.6104 L698.1125,6368.4082 L1732.2656,6368.4082 A11.7188,11.7188 0 0 1 1743.9844,6380.127 L1743.9844,7658.4229 A11.7188,11.7188 0 0 1 1732.2656,7670.1416 L39.8438,7670.1416 A11.7188,11.7188 0 0 1 28.125,7658.4229 L28.125,6275.6104 A11.7188,11.7188 0 0 1 39.8438,6263.8916" fill="none" style="stroke:#000000;stroke-width:7.0313;"/><line style="stroke:#000000;stroke-width:7.0313;" x1="28.125" x2="698.1125" y1="6368.4082" y2="6368.4082"/><text fill="#000000" font-family="sans-serif" font-size="65.625" font-weight="bold" lengthAdjust="spacing" textLength="609.05" x="46.875" y="6334.1812">Core Framework</text></g><!--cluster Strategy Layer--><g class="cluster" data-entity="Strategy Layer" data-source-line="25" data-uid="ent0012" id="cluster_Strategy Layer"><path d="M1868.2031,202.9541 L2422.4039,202.9541 A17.5781,17.5781 0 0 1 2434.1226,214.6729 L2466.9351,307.4707 L10314,307.4707 A11.7188,11.7188 0 0 1 10325.7188,319.1895 L10325.7188,5877.1729 A11.7188,11.7188 0 0 1 10314,5888.8916 L1868.2031,5888.8916 A11.7188,11.7188 0 0 1 1856.4844,5877.1729 L1856.4844,214.6729 A11.7188,11.7188 0 0 1 1868.2031,202.9541" fill="none" style="stroke:#000000;stroke-width:7.0313;"/><line style="stroke:#000000;stroke-width:7.0313;" x1="1856.4844" x2="2466.9351" y1="307.4707" y2="307.4707"/><text fill="#000000" font-family="sans-serif" font-size="65.625" font-weight="bold" lengthAdjust="spacing" textLength="549.5132" x="1875.2344" y="273.2437">Strategy Layer</text></g><!--cluster TwoSumStrategies--><g class="cluster" data-entity="TwoSumStrategies" data-source-line="26" data-uid="ent0013" id="cluster_TwoSumStrategies"><path d="M2326.8281,4829.5166 L3028.5569,4829.5166 A17.5781,17.5781 0 0 1 3040.2757,4841.2354 L3073.0882,4934.0332 L3892.5,4934.0332 A11.7188,11.7188 0 0 1 3904.2188,4945.752 L3904.2188,5727.1729 A11.7188,11.7188 0 0 1 3892.5,5738.8916 L2326.8281,5738.8916 A11.7188,11.7188 0 0 1 2315.1094,5727.1729 L2315.1094,4841.2354 A11.7188,11.7188 0 0 1 2326.8281,4829.5166" fill="none" style="stroke:#000000;stroke-width:7.0313;"/><line style="stroke:#000000;stroke-width:7.0313;" x1="2315.1094" x2="3073.0882" y1="4934.0332" y2="4934.0332"/><text fill="#000000" font-family="sans-serif" font-size="65.625" font-weight="bold" lengthAdjust="spacing" textLength="697.0413" x="2333.8594" y="4899.8062">TwoSumStrategies</text></g><!--cluster TwoSumSortedStrategies--><g class="cluster" data-entity="TwoSumSortedStrategies" data-source-line="27" data-uid="ent0015" id="cluster_TwoSumSortedStrategies"><path d="M2360.625,3732.6416 L3309.9216,3732.6416 A17.5781,17.5781 0 0 1 3321.6403,3744.3604 L3354.4528,3837.1582 L3858.7031,3837.1582 A11.7188,11.7188 0 0 1 3870.4219,3848.877 L3870.4219,4630.2979 A11.7188,11.7188 0 0 1 3858.7031,4642.0166 L2360.625,4642.0166 A11.7188,11.7188 0 0 1 2348.9063,4630.2979 L2348.9063,3744.3604 A11.7188,11.7188 0 0 1 2360.625,3732.6416" fill="none" style="stroke:#000000;stroke-width:7.0313;"/><line style="stroke:#000000;stroke-width:7.0313;" x1="2348.9063" x2="3354.4528" y1="3837.1582" y2="3837.1582"/><text fill="#000000" font-family="sans-serif" font-size="65.625" font-weight="bold" lengthAdjust="spacing" textLength="944.6091" x="2367.6563" y="3802.9312">TwoSumSortedStrategies</text></g><!--cluster ThreeSumStrategies--><g class="cluster" data-entity="ThreeSumStrategies" data-source-line="28" data-uid="ent0017" id="cluster_ThreeSumStrategies"><path d="M2257.3125,2635.7666 L3021.4299,2635.7666 A17.5781,17.5781 0 0 1 3033.1487,2647.4854 L3065.9612,2740.2832 L6233.1563,2740.2832 A11.7188,11.7188 0 0 1 6244.875,2752.002 L6244.875,3533.4229 A11.7188,11.7188 0 0 1 6233.1563,3545.1416 L2257.3125,3545.1416 A11.7188,11.7188 0 0 1 2245.5938,3533.4229 L2245.5938,2647.4854 A11.7188,11.7188 0 0 1 2257.3125,2635.7666" fill="none" style="stroke:#000000;stroke-width:7.0313;"/><line style="stroke:#000000;stroke-width:7.0313;" x1="2245.5938" x2="3065.9612" y1="2740.2832" y2="2740.2832"/><text fill="#000000" font-family="sans-serif" font-size="65.625" font-weight="bold" lengthAdjust="spacing" textLength="759.4299" x="2264.3438" y="2706.0562">ThreeSumStrategies</text></g><!--cluster RotatedArrayStrategies--><g class="cluster" data-entity="RotatedArrayStrategies" data-source-line="29" data-uid="ent0019" id="cluster_RotatedArrayStrategies"><path d="M2329.7344,1538.8916 L3215.3286,1538.8916 A17.5781,17.5781 0 0 1 3227.0473,1550.6104 L3259.8598,1643.4082 L6056.25,1643.4082 A11.7188,11.7188 0 0 1 6067.9688,1655.127 L6067.9688,2436.5479 A11.7188,11.7188 0 0 1 6056.25,2448.2666 L2329.7344,2448.2666 A11.7188,11.7188 0 0 1 2318.0156,2436.5479 L2318.0156,1550.6104 A11.7188,11.7188 0 0 1 2329.7344,1538.8916" fill="none" style="stroke:#000000;stroke-width:7.0313;"/><line style="stroke:#000000;stroke-width:7.0313;" x1="2318.0156" x2="3259.8598" y1="1643.4082" y2="1643.4082"/><text fill="#000000" font-family="sans-serif" font-size="65.625" font-weight="bold" lengthAdjust="spacing" textLength="880.9067" x="2336.7656" y="1609.1812">RotatedArrayStrategies</text></g><!--cluster RemoveElementStrategies--><g class="cluster" data-entity="RemoveElementStrategies" data-source-line="30" data-uid="ent0021" id="cluster_RemoveElementStrategies"><path d="M6444.0938,3779.5166 L7431.5861,3779.5166 A17.5781,17.5781 0 0 1 7443.3049,3791.2354 L7476.1174,3884.0332 L10164,3884.0332 A11.7188,11.7188 0 0 1 10175.7188,3895.752 L10175.7188,4677.1729 A11.7188,11.7188 0 0 1 10164,4688.8916 L6444.0938,4688.8916 A11.7188,11.7188 0 0 1 6432.375,4677.1729 L6432.375,3791.2354 A11.7188,11.7188 0 0 1 6444.0938,3779.5166" fill="none" style="stroke:#000000;stroke-width:7.0313;"/><line style="stroke:#000000;stroke-width:7.0313;" x1="6432.375" x2="7476.1174" y1="3884.0332" y2="3884.0332"/><text fill="#000000" font-family="sans-serif" font-size="65.625" font-weight="bold" lengthAdjust="spacing" textLength="982.8049" x="6451.125" y="3849.8062">RemoveElementStrategies</text></g><!--cluster RemoveDuplicatesStrategies--><g class="cluster" data-entity="RemoveDuplicatesStrategies" data-source-line="31" data-uid="ent0023" id="cluster_RemoveDuplicatesStrategies"><path d="M2018.2031,442.0166 L3094.1675,442.0166 A17.5781,17.5781 0 0 1 3105.8862,453.7354 L3138.6987,546.5332 L4201.125,546.5332 A11.7188,11.7188 0 0 1 4212.8438,558.252 L4212.8438,1339.6729 A11.7188,11.7188 0 0 1 4201.125,1351.3916 L2018.2031,1351.3916 A11.7188,11.7188 0 0 1 2006.4844,1339.6729 L2006.4844,453.7354 A11.7188,11.7188 0 0 1 2018.2031,442.0166" fill="none" style="stroke:#000000;stroke-width:7.0313;"/><line style="stroke:#000000;stroke-width:7.0313;" x1="2006.4844" x2="3138.6987" y1="546.5332" y2="546.5332"/><text fill="#000000" font-family="sans-serif" font-size="65.625" font-weight="bold" lengthAdjust="spacing" textLength="1071.2769" x="2025.2344" y="512.3062">RemoveDuplicatesStrategies</text></g><!--cluster Test Case Layer--><g class="cluster" data-entity="Test Case Layer" data-source-line="69" data-uid="ent0041" id="cluster_Test Case Layer"><path d="M2296.3125,6095.1416 L2888.1643,6095.1416 A17.5781,17.5781 0 0 1 2899.8831,6106.8604 L2932.6956,6199.6582 L3923.0156,6199.6582 A11.7188,11.7188 0 0 1 3934.7344,6211.377 L3934.7344,8155.2979 A11.7188,11.7188 0 0 1 3923.0156,8167.0166 L2296.3125,8167.0166 A11.7188,11.7188 0 0 1 2284.5938,8155.2979 L2284.5938,6106.8604 A11.7188,11.7188 0 0 1 2296.3125,6095.1416" fill="none" style="stroke:#000000;stroke-width:7.0313;"/><line style="stroke:#000000;stroke-width:7.0313;" x1="2284.5938" x2="2932.6956" y1="6199.6582" y2="6199.6582"/><text fill="#000000" font-family="sans-serif" font-size="65.625" font-weight="bold" lengthAdjust="spacing" textLength="587.1643" x="2303.3438" y="6165.4312">Test Case Layer</text></g><!--cluster Execution Layer--><g class="cluster" data-entity="Execution Layer" data-source-line="79" data-uid="ent0054" id="cluster_Execution Layer"><path d="M2694.0938,8279.5166 L3290.3355,8279.5166 A17.5781,17.5781 0 0 1 3302.0543,8291.2354 L3334.8668,8384.0332 L5638.6875,8384.0332 A11.7188,11.7188 0 0 1 5650.4063,8395.752 L5650.4063,9341.2354 A11.7188,11.7188 0 0 1 5638.6875,9352.9541 L2694.0938,9352.9541 A11.7188,11.7188 0 0 1 2682.375,9341.2354 L2682.375,8291.2354 A11.7188,11.7188 0 0 1 2694.0938,8279.5166" fill="none" style="stroke:#000000;stroke-width:7.0313;"/><line style="stroke:#000000;stroke-width:7.0313;" x1="2682.375" x2="3334.8668" y1="8384.0332" y2="8384.0332"/><text fill="#000000" font-family="sans-serif" font-size="65.625" font-weight="bold" lengthAdjust="spacing" textLength="591.5543" x="2701.125" y="8349.8062">Execution Layer</text></g><!--entity Program--><g class="entity" data-entity="Program" data-source-line="12" data-uid="ent0003" id="entity_Program"><rect fill="#F1F1F1" height="170.1416" rx="11.7188" ry="11.7188" style="stroke:#181818;stroke-width:2.3438;" width="373.233" x="103.125" y="6928.8135"/><text fill="#000000" font-family="sans-serif" font-size="65.625" lengthAdjust="spacing" textLength="279.483" x="150" y="7036.6031">Program</text></g><!--entity ProblemStrategyFactory--><g class="entity" data-entity="ProblemStrategyFactory" data-source-line="13" data-uid="ent0004" id="entity_ProblemStrategyFactory"><rect fill="#F1F1F1" height="170.1416" rx="11.7188" ry="11.7188" style="stroke:#181818;stroke-width:2.3438;" width="891.568" x="767.5313" y="6427.251"/><text fill="#000000" font-family="sans-serif" font-size="65.625" lengthAdjust="spacing" textLength="797.818" x="814.4063" y="6535.0406">ProblemStrategyFactory</text></g><!--entity ProblemTestCaseFactory--><g class="entity" data-entity="ProblemTestCaseFactory" data-source-line="14" data-uid="ent0005" id="entity_ProblemTestCaseFactory"><rect fill="#F1F1F1" height="170.1416" rx="11.7188" ry="11.7188" style="stroke:#181818;stroke-width:2.3438;" width="911.3708" x="757.5938" y="6760.0635"/><text fill="#000000" font-family="sans-serif" font-size="65.625" lengthAdjust="spacing" textLength="817.6208" x="804.4688" y="6867.8531">ProblemTestCaseFactory</text></g><!--entity ProblemTest--><g class="entity" data-entity="ProblemTest" data-source-line="15" data-uid="ent0006" id="entity_ProblemTest"><rect fill="#F1F1F1" height="170.1416" rx="11.7188" ry="11.7188" style="stroke:#181818;stroke-width:2.3438;" width="505.0278" x="960.7969" y="7425.6885"/><text fill="#000000" font-family="sans-serif" font-size="65.625" lengthAdjust="spacing" textLength="411.2778" x="1007.6719" y="7533.4781">ProblemTest</text></g><!--entity StrategyBenchmark--><g class="entity" data-entity="StrategyBenchmark" data-source-line="16" data-uid="ent0007" id="entity_StrategyBenchmark"><rect fill="#F1F1F1" height="170.1416" rx="11.7188" ry="11.7188" style="stroke:#181818;stroke-width:2.3438;" width="748.7183" x="838.9219" y="7092.876"/><text fill="#000000" font-family="sans-serif" font-size="65.625" lengthAdjust="spacing" textLength="654.9683" x="885.7969" y="7200.6656">StrategyBenchmark</text></g><!--entity TwoSumOnOneLoopDictionarySolution--><g class="entity" data-entity="TwoSumOnOneLoopDictionarySolution" data-source-line="34" data-uid="ent0025" id="entity_TwoSumOnOneLoopDictionarySolution"><rect fill="#F1F1F1" height="170.1416" rx="11.7188" ry="11.7188" style="stroke:#181818;stroke-width:2.3438;" width="1364.1449" x="2427.6094" y="5456.9385"/><text fill="#000000" font-family="sans-serif" font-size="65.625" lengthAdjust="spacing" textLength="1270.3949" x="2474.4844" y="5564.7281">TwoSumOnOneLoopDictionarySolution</text></g><!--entity TwoSumOn2TwoLoopSolution--><g class="entity" data-entity="TwoSumOn2TwoLoopSolution" data-source-line="35" data-uid="ent0026" id="entity_TwoSumOn2TwoLoopSolution"><rect fill="#F1F1F1" height="170.1416" rx="11.7188" ry="11.7188" style="stroke:#181818;stroke-width:2.3438;" width="1069.6014" x="2574.8438" y="5124.126"/><text fill="#000000" font-family="sans-serif" font-size="65.625" lengthAdjust="spacing" textLength="975.8514" x="2621.7188" y="5231.9156">TwoSumOn2TwoLoopSolution</text></g><!--entity TwoSumSortedTwoPointerSolution--><g class="entity" data-entity="TwoSumSortedTwoPointerSolution" data-source-line="39" data-uid="ent0027" id="entity_TwoSumSortedTwoPointerSolution"><rect fill="#F1F1F1" height="170.1416" rx="11.7188" ry="11.7188" style="stroke:#181818;stroke-width:2.3438;" width="1225.2686" x="2497.0313" y="4360.0635"/><text fill="#000000" font-family="sans-serif" font-size="65.625" lengthAdjust="spacing" textLength="1131.5186" x="2543.9063" y="4467.8531">TwoSumSortedTwoPointerSolution</text></g><!--entity TwoSumSortedBinarySearchSolution--><g class="entity" data-entity="TwoSumSortedBinarySearchSolution" data-source-line="40" data-uid="ent0028" id="entity_TwoSumSortedBinarySearchSolution"><rect fill="#F1F1F1" height="170.1416" rx="11.7188" ry="11.7188" style="stroke:#181818;stroke-width:2.3438;" width="1296.5012" x="2461.4063" y="4027.251"/><text fill="#000000" font-family="sans-serif" font-size="65.625" lengthAdjust="spacing" textLength="1202.7512" x="2508.2813" y="4135.0406">TwoSumSortedBinarySearchSolution</text></g><!--entity ThreeSum0On2OneLoopDictionarySolution--><g class="entity" data-entity="ThreeSum0On2OneLoopDictionarySolution" data-source-line="44" data-uid="ent0029" id="entity_ThreeSum0On2OneLoopDictionarySolution"><rect fill="#F1F1F1" height="170.1416" rx="11.7188" ry="11.7188" style="stroke:#181818;stroke-width:2.3438;" width="1503.1494" x="2358.0937" y="3263.1885"/><text fill="#000000" font-family="sans-serif" font-size="65.625" lengthAdjust="spacing" textLength="1409.3994" x="2404.9687" y="3370.9781">ThreeSum0On2OneLoopDictionarySolution</text></g><!--entity ThreeSum0On2SortingTwoPointerSolution--><g class="entity" data-entity="ThreeSum0On2SortingTwoPointerSolution" data-source-line="45" data-uid="ent0030" id="entity_ThreeSum0On2SortingTwoPointerSolution"><rect fill="#F1F1F1" height="170.1416" rx="11.7188" ry="11.7188" style="stroke:#181818;stroke-width:2.3438;" width="1476.9699" x="2371.1719" y="2930.376"/><text fill="#000000" font-family="sans-serif" font-size="65.625" lengthAdjust="spacing" textLength="1383.2199" x="2418.0469" y="3038.1656">ThreeSum0On2SortingTwoPointerSolution</text></g><!--entity ThreeSum0On2Hashset2SumComplementSolution--><g class="entity" data-entity="ThreeSum0On2Hashset2SumComplementSolution" data-source-line="46" data-uid="ent0031" id="entity_ThreeSum0On2Hashset2SumComplementSolution"><rect fill="#F1F1F1" height="170.1416" rx="11.7188" ry="11.7188" style="stroke:#181818;stroke-width:2.3438;" width="1750.7813" x="4381.5938" y="3263.1885"/><text fill="#000000" font-family="sans-serif" font-size="65.625" lengthAdjust="spacing" textLength="1657.0313" x="4428.4688" y="3370.9781">ThreeSum0On2Hashset2SumComplementSolution</text></g><!--entity RotatedArrayOlognTwoPointerSolution--><g class="entity" data-entity="RotatedArrayOlognTwoPointerSolution" data-source-line="50" data-uid="ent0032" id="entity_RotatedArrayOlognTwoPointerSolution"><rect fill="#F1F1F1" height="170.1416" rx="11.7188" ry="11.7188" style="stroke:#181818;stroke-width:2.3438;" width="1358.2809" x="2430.5156" y="2166.3135"/><text fill="#000000" font-family="sans-serif" font-size="65.625" lengthAdjust="spacing" textLength="1264.5309" x="2477.3906" y="2274.1031">RotatedArrayOlognTwoPointerSolution</text></g><!--entity RotatedArrayOnBruteForceSolution--><g class="entity" data-entity="RotatedArrayOnBruteForceSolution" data-source-line="51" data-uid="ent0033" id="entity_RotatedArrayOnBruteForceSolution"><rect fill="#F1F1F1" height="170.1416" rx="11.7188" ry="11.7188" style="stroke:#181818;stroke-width:2.3438;" width="1252.7298" x="2483.2969" y="1833.501"/><text fill="#000000" font-family="sans-serif" font-size="65.625" lengthAdjust="spacing" textLength="1158.9798" x="2530.1719" y="1941.2906">RotatedArrayOnBruteForceSolution</text></g><!--entity RotatedArrayIIOlognTwoPointerSolution--><g class="entity" data-entity="RotatedArrayIIOlognTwoPointerSolution" data-source-line="52" data-uid="ent0034" id="entity_RotatedArrayIIOlognTwoPointerSolution"><rect fill="#F1F1F1" height="170.1416" rx="11.7188" ry="11.7188" style="stroke:#181818;stroke-width:2.3438;" width="1396.9894" x="4558.5" y="2166.3135"/><text fill="#000000" font-family="sans-serif" font-size="65.625" lengthAdjust="spacing" textLength="1303.2394" x="4605.375" y="2274.1031">RotatedArrayIIOlognTwoPointerSolution</text></g><!--entity RotatedArrayIIOnBruteForceSolution--><g class="entity" data-entity="RotatedArrayIIOnBruteForceSolution" data-source-line="53" data-uid="ent0035" id="entity_RotatedArrayIIOnBruteForceSolution"><rect fill="#F1F1F1" height="170.1416" rx="11.7188" ry="11.7188" style="stroke:#181818;stroke-width:2.3438;" width="1291.4383" x="4611.2813" y="1833.501"/><text fill="#000000" font-family="sans-serif" font-size="65.625" lengthAdjust="spacing" textLength="1197.6883" x="4658.1563" y="1941.2906">RotatedArrayIIOnBruteForceSolution</text></g><!--entity RemoveElementFwdPointerOverwriteSolution--><g class="entity" data-entity="RemoveElementFwdPointerOverwriteSolution" data-source-line="57" data-uid="ent0036" id="entity_RemoveElementFwdPointerOverwriteSolution"><rect fill="#F1F1F1" height="170.1416" rx="11.7188" ry="11.7188" style="stroke:#181818;stroke-width:2.3438;" width="1590.596" x="6544.875" y="4313.1885"/><text fill="#000000" font-family="sans-serif" font-size="65.625" lengthAdjust="spacing" textLength="1496.846" x="6591.75" y="4420.9781">RemoveElementFwdPointerOverwriteSolution</text></g><!--entity RemoveElementSwapWithEndPointerSolution--><g class="entity" data-entity="RemoveElementSwapWithEndPointerSolution" data-source-line="58" data-uid="ent0037" id="entity_RemoveElementSwapWithEndPointerSolution"><rect fill="#F1F1F1" height="170.1416" rx="11.7188" ry="11.7188" style="stroke:#181818;stroke-width:2.3438;" width="1587.0392" x="6546.6562" y="3980.376"/><text fill="#000000" font-family="sans-serif" font-size="65.625" lengthAdjust="spacing" textLength="1493.2892" x="6593.5312" y="4088.1656">RemoveElementSwapWithEndPointerSolution</text></g><!--entity RemoveElementTwoPointerPartitioningSolution--><g class="entity" data-entity="RemoveElementTwoPointerPartitioningSolution" data-source-line="59" data-uid="ent0038" id="entity_RemoveElementTwoPointerPartitioningSolution"><rect fill="#F1F1F1" height="170.1416" rx="11.7188" ry="11.7188" style="stroke:#181818;stroke-width:2.3438;" width="1646.5118" x="8416.7344" y="4313.1885"/><text fill="#000000" font-family="sans-serif" font-size="65.625" lengthAdjust="spacing" textLength="1552.7618" x="8463.6094" y="4420.9781">RemoveElementTwoPointerPartitioningSolution</text></g><!--entity RemoveDuplicatesSortedTwoPointerSolution--><g class="entity" data-entity="RemoveDuplicatesSortedTwoPointerSolution" data-source-line="63" data-uid="ent0039" id="entity_RemoveDuplicatesSortedTwoPointerSolution"><rect fill="#F1F1F1" height="170.1416" rx="11.7188" ry="11.7188" style="stroke:#181818;stroke-width:2.3438;" width="1560.2829" x="2329.5" y="1069.4385"/><text fill="#000000" font-family="sans-serif" font-size="65.625" lengthAdjust="spacing" textLength="1466.5329" x="2376.375" y="1177.2281">RemoveDuplicatesSortedTwoPointerSolution</text></g><!--entity RemoveDuplicatesAllowNTimesSortedTwoPointerSolution--><g class="entity" data-entity="RemoveDuplicatesAllowNTimesSortedTwoPointerSolution" data-source-line="64" data-uid="ent0040" id="entity_RemoveDuplicatesAllowNTimesSortedTwoPointerSolution"><rect fill="#F1F1F1" height="170.1416" rx="11.7188" ry="11.7188" style="stroke:#181818;stroke-width:2.3438;" width="1981.366" x="2118.9844" y="736.626"/><text fill="#000000" font-family="sans-serif" font-size="65.625" lengthAdjust="spacing" textLength="1887.616" x="2165.8594" y="844.4156">RemoveDuplicatesAllowNTimesSortedTwoPointerSolution</text></g><!--entity TwoSumTestCaseProvider--><g class="entity" data-entity="TwoSumTestCaseProvider" data-source-line="70" data-uid="ent0042" id="entity_TwoSumTestCaseProvider"><rect fill="#F1F1F1" height="170.1416" rx="11.7188" ry="11.7188" style="stroke:#181818;stroke-width:2.3438;" width="948.6053" x="2635.3594" y="7922.5635"/><text fill="#000000" font-family="sans-serif" font-size="65.625" lengthAdjust="spacing" textLength="854.8553" x="2682.2344" y="8030.3531">TwoSumTestCaseProvider</text></g><!--entity TwoSumSortedTestCaseProvider--><g class="entity" data-entity="TwoSumSortedTestCaseProvider" data-source-line="71" data-uid="ent0044" id="entity_TwoSumSortedTestCaseProvider"><rect fill="#F1F1F1" height="170.1416" rx="11.7188" ry="11.7188" style="stroke:#181818;stroke-width:2.3438;" width="1165.155" x="2527.0781" y="7589.751"/><text fill="#000000" font-family="sans-serif" font-size="65.625" lengthAdjust="spacing" textLength="1071.405" x="2573.9531" y="7697.5406">TwoSumSortedTestCaseProvider</text></g><!--entity ThreeSumTestCaseProvider--><g class="entity" data-entity="ThreeSumTestCaseProvider" data-source-line="72" data-uid="ent0046" id="entity_ThreeSumTestCaseProvider"><rect fill="#F1F1F1" height="170.1416" rx="11.7188" ry="11.7188" style="stroke:#181818;stroke-width:2.3438;" width="1004.1046" x="2607.6094" y="7256.9385"/><text fill="#000000" font-family="sans-serif" font-size="65.625" lengthAdjust="spacing" textLength="910.3546" x="2654.4844" y="7364.7281">ThreeSumTestCaseProvider</text></g><!--entity RotatedArrayTestCaseProvider--><g class="entity" data-entity="RotatedArrayTestCaseProvider" data-source-line="73" data-uid="ent0048" id="entity_RotatedArrayTestCaseProvider"><rect fill="#F1F1F1" height="170.1416" rx="11.7188" ry="11.7188" style="stroke:#181818;stroke-width:2.3438;" width="1104.8813" x="2557.2188" y="6924.126"/><text fill="#000000" font-family="sans-serif" font-size="65.625" lengthAdjust="spacing" textLength="1011.1313" x="2604.0938" y="7031.9156">RotatedArrayTestCaseProvider</text></g><!--entity RemoveElementTestCaseProvider--><g class="entity" data-entity="RemoveElementTestCaseProvider" data-source-line="74" data-uid="ent0050" id="entity_RemoveElementTestCaseProvider"><rect fill="#F1F1F1" height="170.1416" rx="11.7188" ry="11.7188" style="stroke:#181818;stroke-width:2.3438;" width="1208.4778" x="2505.4219" y="6591.3135"/><text fill="#000000" font-family="sans-serif" font-size="65.625" lengthAdjust="spacing" textLength="1114.7278" x="2552.2969" y="6699.1031">RemoveElementTestCaseProvider</text></g><!--entity RemoveDuplicatesSortedTestCaseProvider--><g class="entity" data-entity="RemoveDuplicatesSortedTestCaseProvider" data-source-line="75" data-uid="ent0052" id="entity_RemoveDuplicatesSortedTestCaseProvider"><rect fill="#F1F1F1" height="170.1416" rx="11.7188" ry="11.7188" style="stroke:#181818;stroke-width:2.3438;" width="1500.1694" x="2359.5938" y="6258.501"/><text fill="#000000" font-family="sans-serif" font-size="65.625" lengthAdjust="spacing" textLength="1406.4194" x="2406.4688" y="6366.2906">RemoveDuplicatesSortedTestCaseProvider</text></g><!--entity IProblemStrategy--><g class="entity" data-entity="IProblemStrategy" data-source-line="80" data-uid="ent0055" id="entity_IProblemStrategy"><rect fill="#F1F1F1" height="170.1416" rx="11.7188" ry="11.7188" style="stroke:#181818;stroke-width:2.3438;" width="665.181" x="2777.0625" y="8775.6885"/><text fill="#000000" font-family="sans-serif" font-size="65.625" lengthAdjust="spacing" textLength="571.431" x="2823.9375" y="8883.4781">IProblemStrategy</text></g><!--entity ComparerResolver--><g class="entity" data-entity="ComparerResolver" data-source-line="81" data-uid="ent0057" id="entity_ComparerResolver"><rect fill="#F1F1F1" height="170.1416" rx="11.7188" ry="11.7188" style="stroke:#181818;stroke-width:2.3438;" width="704.5944" x="2757.375" y="9108.501"/><text fill="#000000" font-family="sans-serif" font-size="65.625" lengthAdjust="spacing" textLength="610.8444" x="2804.25" y="9216.2906">ComparerResolver</text></g><!--entity ComparerHelper--><g class="entity" data-entity="ComparerHelper" data-source-line="82" data-uid="ent0059" id="entity_ComparerHelper"><rect fill="#F1F1F1" height="170.1416" rx="11.7188" ry="11.7188" style="stroke:#181818;stroke-width:2.3438;" width="636.8225" x="4938.5625" y="9108.501"/><text fill="#000000" font-family="sans-serif" font-size="65.625" lengthAdjust="spacing" textLength="543.0725" x="4985.4375" y="9216.2906">ComparerHelper</text></g><!--entity BenchmarkResult--><g class="entity" data-entity="BenchmarkResult" data-source-line="84" data-uid="ent0062" id="entity_BenchmarkResult"><rect fill="#F1F1F1" height="170.1416" rx="11.7188" ry="11.7188" style="stroke:#181818;stroke-width:2.3438;" width="673.2559" x="2773.0313" y="8442.876"/><text fill="#000000" font-family="sans-serif" font-size="65.625" lengthAdjust="spacing" textLength="579.5059" x="2819.9063" y="8550.6656">BenchmarkResult</text></g><!--link Program to ProblemStrategyFactory--><g class="link" data-entity-1="Program" data-entity-2="ProblemStrategyFactory" data-source-line="18" data-uid="lnk8" id="link_Program_ProblemStrategyFactory"><path d="M289.7812,6926.5166 C289.7812,6782.8447 289.7812,6512.3291 289.7812,6512.3291 C289.7812,6512.3291 502.5938,6512.3291 738.2813,6512.3291" fill="none" id="Program-to-ProblemStrategyFactory" style="stroke:#181818;stroke-width:4.6875;"/><polygon fill="#181818" points="766.4063,6512.3291,724.2188,6493.5791,742.9688,6512.3291,724.2188,6531.0791,766.4063,6512.3291" style="stroke:#181818;stroke-width:4.6875;"/></g><!--link Program to ProblemTestCaseFactory--><g class="link" data-entity-1="Program" data-entity-2="ProblemTestCaseFactory" data-source-line="19" data-uid="lnk9" id="link_Program_ProblemTestCaseFactory"><path d="M478.5469,6984.4541 C624.1406,6984.4541 800.7188,6984.4541 800.7188,6984.4541 C800.7188,6984.4541 800.7188,6987.7822 800.7188,6959.0947" fill="none" id="Program-to-ProblemTestCaseFactory" style="stroke:#181818;stroke-width:4.6875;"/><polygon fill="#181818" points="800.7188,6930.9697,781.9688,6973.1572,800.7188,6954.4072,819.4688,6973.1572,800.7188,6930.9697" style="stroke:#181818;stroke-width:4.6875;"/></g><!--link Program to ProblemTest--><g class="link" data-entity-1="Program" data-entity-2="ProblemTest" data-source-line="20" data-uid="lnk10" id="link_Program_ProblemTest"><path d="M228.8438,7100.4229 C228.8438,7242.7822 228.8438,7510.7666 228.8438,7510.7666 C228.8438,7510.7666 638.6719,7510.7666 930.375,7510.7666" fill="none" id="Program-to-ProblemTest" style="stroke:#181818;stroke-width:4.6875;"/><polygon fill="#181818" points="958.5,7510.7666,916.3125,7492.0166,935.0625,7510.7666,916.3125,7529.5166,958.5,7510.7666" style="stroke:#181818;stroke-width:4.6875;"/></g><!--link Program to StrategyBenchmark--><g class="link" data-entity-1="Program" data-entity-2="StrategyBenchmark" data-source-line="21" data-uid="lnk11" id="link_Program_StrategyBenchmark"><path d="M355.4062,7099.3916 C355.4062,7140.501 355.4062,7181.001 355.4062,7181.001 C355.4062,7181.001 578.3906,7181.001 808.875,7181.001" fill="none" id="Program-to-StrategyBenchmark" style="stroke:#181818;stroke-width:4.6875;"/><polygon fill="#181818" points="837,7181.001,794.8125,7162.251,813.5625,7181.001,794.8125,7199.751,837,7181.001" style="stroke:#181818;stroke-width:4.6875;"/></g><!--link ProblemStrategyFactory to TwoSumStrategies--><g class="link" data-entity-1="ProblemStrategyFactory" data-entity-2="TwoSumStrategies" data-source-line="26" data-uid="lnk14" id="link_ProblemStrategyFactory_TwoSumStrategies"><path d="M1513.2188,6426.4541 C1513.2188,6100.2041 1513.2188,4956.0791 1513.2188,4956.0791 C1513.2188,4956.0791 1893.8438,4956.0791 2283.3867,4956.0791 C2289.4733,4956.0791 2295.5621,4956.0791 2301.6517,4956.0791 C2304.6964,4956.0791 2279.6164,4956.0791 2282.6614,4956.0791" fill="none" id="ProblemStrategyFactory-to-TwoSumStrategies" style="stroke:#181818;stroke-width:4.6875;"/><polygon fill="#181818" points="2310.7864,4956.0791,2268.5989,4937.3291,2287.3489,4956.0791,2268.5989,4974.8291,2310.7864,4956.0791" style="stroke:#181818;stroke-width:4.6875;"/></g><!--link ProblemStrategyFactory to TwoSumSortedStrategies--><g class="link" data-entity-1="ProblemStrategyFactory" data-entity-2="TwoSumSortedStrategies" data-source-line="27" data-uid="lnk16" id="link_ProblemStrategyFactory_TwoSumSortedStrategies"><path d="M1363.2188,6425.5635 C1363.2188,5968.2979 1363.2188,3859.2041 1363.2188,3859.2041 C1363.2188,3859.2041 1779.5977,3859.2041 2205.7383,3859.2041 C2232.3721,3859.2041 2259.044,3859.2041 2285.6548,3859.2041 C2298.9602,3859.2041 2312.2503,3859.2041 2325.5127,3859.2041 C2332.1439,3859.2041 2310.6432,3859.2041 2317.259,3859.2041" fill="none" id="ProblemStrategyFactory-to-TwoSumSortedStrategies" style="stroke:#181818;stroke-width:4.6875;"/><polygon fill="#181818" points="2345.384,3859.2041,2303.1965,3840.4541,2321.9465,3859.2041,2303.1965,3877.9541,2345.384,3859.2041" style="stroke:#181818;stroke-width:4.6875;"/></g><!--link ProblemStrategyFactory to ThreeSumStrategies--><g class="link" data-entity-1="ProblemStrategyFactory" data-entity-2="ThreeSumStrategies" data-source-line="28" data-uid="lnk18" id="link_ProblemStrategyFactory_ThreeSumStrategies"><path d="M1217.9063,6425.1416 C1217.9063,5862.126 1217.9063,2762.3291 1217.9063,2762.3291 C1217.9063,2762.3291 1668.9375,2762.3291 2130.5391,2762.3291 C2159.3892,2762.3291 2188.2805,2762.3291 2217.1057,2762.3291 C2224.312,2762.3291 2203.3891,2762.3291 2210.5854,2762.3291" fill="none" id="ProblemStrategyFactory-to-ThreeSumStrategies" style="stroke:#181818;stroke-width:4.6875;"/><polygon fill="#181818" points="2238.7104,2762.3291,2196.5229,2743.5791,2215.2729,2762.3291,2196.5229,2781.0791,2238.7104,2762.3291" style="stroke:#181818;stroke-width:4.6875;"/></g><!--link ProblemStrategyFactory to RotatedArrayStrategies--><g class="link" data-entity-1="ProblemStrategyFactory" data-entity-2="RotatedArrayStrategies" data-source-line="29" data-uid="lnk20" id="link_ProblemStrategyFactory_RotatedArrayStrategies"><path d="M1067.9063,6426.126 C1067.9063,5775.876 1067.9063,1665.4541 1067.9063,1665.4541 C1067.9063,1665.4541 1554.7031,1665.4541 2052.9082,1665.4541 C2115.1838,1665.4541 2177.6377,1665.4541 2239.3414,1665.4541 C2254.7673,1665.4541 2270.1463,1665.4541 2285.4639,1665.4541 C2293.1227,1665.4541 2272.6412,1665.4541 2280.2675,1665.4541" fill="none" id="ProblemStrategyFactory-to-RotatedArrayStrategies" style="stroke:#181818;stroke-width:4.6875;"/><polygon fill="#181818" points="2308.3925,1665.4541,2266.205,1646.7041,2284.955,1665.4541,2266.205,1684.2041,2308.3925,1665.4541" style="stroke:#181818;stroke-width:4.6875;"/></g><!--link ProblemStrategyFactory to RemoveElementStrategies--><g class="link" data-entity-1="ProblemStrategyFactory" data-entity-2="RemoveElementStrategies" data-source-line="30" data-uid="lnk22" id="link_ProblemStrategyFactory_RemoveElementStrategies"><path d="M1660.4063,6509.9854 C3072.5625,6509.9854 7344.4688,6509.9854 7344.4688,6509.9854 C7344.4688,6509.9854 7344.4688,6052.5674 7344.4688,5591.5752 C7344.4688,5361.0791 7344.4688,5129.6895 7344.4688,4954.1367 C7344.4688,4866.3604 7344.4688,4792.5432 7344.4688,4739.7766 C7344.4688,4726.585 7344.4688,4714.709 7344.4688,4704.2594 C7344.4688,4699.0347 7344.4688,4722.2915 7344.4688,4717.7938" fill="none" id="ProblemStrategyFactory-to-RemoveElementStrategies" style="stroke:#181818;stroke-width:4.6875;"/><polygon fill="#181818" points="7344.4688,4689.6688,7325.7188,4731.8563,7344.4688,4713.1063,7363.2188,4731.8563,7344.4688,4689.6688" style="stroke:#181818;stroke-width:4.6875;"/></g><!--link ProblemStrategyFactory to RemoveDuplicatesStrategies--><g class="link" data-entity-1="ProblemStrategyFactory" data-entity-2="RemoveDuplicatesStrategies" data-source-line="31" data-uid="lnk24" id="link_ProblemStrategyFactory_RemoveDuplicatesStrategies"><path d="M917.9063,6426.0322 C917.9063,5695.1104 917.9063,568.5791 917.9063,568.5791 C917.9063,568.5791 1440.457,568.5791 1975.2598,568.5791 C1983.6161,568.5791 1963.8503,568.5791 1972.2107,568.5791" fill="none" id="ProblemStrategyFactory-to-RemoveDuplicatesStrategies" style="stroke:#181818;stroke-width:4.6875;"/><polygon fill="#181818" points="2000.3357,568.5791,1958.1482,549.8291,1976.8982,568.5791,1958.1482,587.3291,2000.3357,568.5791" style="stroke:#181818;stroke-width:4.6875;"/></g><!--link ProblemTestCaseFactory to TwoSumTestCaseProvider--><g class="link" data-entity-1="ProblemTestCaseFactory" data-entity-2="TwoSumTestCaseProvider" data-source-line="70" data-uid="lnk43" id="link_ProblemTestCaseFactory_TwoSumTestCaseProvider"><path d="M1606.9688,6932.5166 C1606.9688,7202.8916 1606.9688,8007.6416 1606.9688,8007.6416 C1606.9688,8007.6416 2165.8594,8007.6416 2606.0625,8007.6416" fill="none" id="ProblemTestCaseFactory-to-TwoSumTestCaseProvider" style="stroke:#181818;stroke-width:4.6875;"/><polygon fill="#181818" points="2634.1875,8007.6416,2592,7988.8916,2610.75,8007.6416,2592,8026.3916,2634.1875,8007.6416" style="stroke:#181818;stroke-width:4.6875;"/></g><!--link ProblemTestCaseFactory to TwoSumSortedTestCaseProvider--><g class="link" data-entity-1="ProblemTestCaseFactory" data-entity-2="TwoSumSortedTestCaseProvider" data-source-line="71" data-uid="lnk45" id="link_ProblemTestCaseFactory_TwoSumSortedTestCaseProvider"><path d="M1621.0313,6931.1104 C1621.0313,7143.876 1621.0313,7677.876 1621.0313,7677.876 C1621.0313,7677.876 2080.4063,7677.876 2497.4531,7677.876" fill="none" id="ProblemTestCaseFactory-to-TwoSumSortedTestCaseProvider" style="stroke:#181818;stroke-width:4.6875;"/><polygon fill="#181818" points="2525.5781,7677.876,2483.3906,7659.126,2502.1406,7677.876,2483.3906,7696.626,2525.5781,7677.876" style="stroke:#181818;stroke-width:4.6875;"/></g><!--link ProblemTestCaseFactory to ThreeSumTestCaseProvider--><g class="link" data-entity-1="ProblemTestCaseFactory" data-entity-2="ThreeSumTestCaseProvider" data-source-line="72" data-uid="lnk47" id="link_ProblemTestCaseFactory_ThreeSumTestCaseProvider"><path d="M1639.7813,6932.0947 C1639.7813,7075.1104 1639.7813,7344.3604 1639.7813,7344.3604 C1639.7813,7344.3604 2152.2656,7344.3604 2577.75,7344.3604" fill="none" id="ProblemTestCaseFactory-to-ThreeSumTestCaseProvider" style="stroke:#181818;stroke-width:4.6875;"/><polygon fill="#181818" points="2605.875,7344.3604,2563.6875,7325.6104,2582.4375,7344.3604,2563.6875,7363.1104,2605.875,7344.3604" style="stroke:#181818;stroke-width:4.6875;"/></g><!--link ProblemTestCaseFactory to RotatedArrayTestCaseProvider--><g class="link" data-entity-1="ProblemTestCaseFactory" data-entity-2="RotatedArrayTestCaseProvider" data-source-line="73" data-uid="lnk49" id="link_ProblemTestCaseFactory_RotatedArrayTestCaseProvider"><path d="M1653.8438,6930.5947 C1653.8438,6982.4385 1653.8438,7038.6416 1653.8438,7038.6416 C1653.8438,7038.6416 2115.6094,7038.6416 2526.9844,7038.6416" fill="none" id="ProblemTestCaseFactory-to-RotatedArrayTestCaseProvider" style="stroke:#181818;stroke-width:4.6875;"/><polygon fill="#181818" points="2555.1094,7038.6416,2512.9219,7019.8916,2531.6719,7038.6416,2512.9219,7057.3916,2555.1094,7038.6416" style="stroke:#181818;stroke-width:4.6875;"/></g><!--link ProblemTestCaseFactory to RemoveElementTestCaseProvider--><g class="link" data-entity-1="ProblemTestCaseFactory" data-entity-2="RemoveElementTestCaseProvider" data-source-line="74" data-uid="lnk51" id="link_ProblemTestCaseFactory_RemoveElementTestCaseProvider"><path d="M1217.9063,6758.0479 C1217.9063,6717.7822 1217.9063,6678.7354 1217.9063,6678.7354 C1217.9063,6678.7354 1921.8281,6678.7354 2475.1875,6678.7354" fill="none" id="ProblemTestCaseFactory-to-RemoveElementTestCaseProvider" style="stroke:#181818;stroke-width:4.6875;"/><polygon fill="#181818" points="2503.3125,6678.7354,2461.125,6659.9854,2479.875,6678.7354,2461.125,6697.4854,2503.3125,6678.7354" style="stroke:#181818;stroke-width:4.6875;"/></g><!--link ProblemTestCaseFactory to RemoveDuplicatesSortedTestCaseProvider--><g class="link" data-entity-1="ProblemTestCaseFactory" data-entity-2="RemoveDuplicatesSortedTestCaseProvider" data-source-line="75" data-uid="lnk53" id="link_ProblemTestCaseFactory_RemoveDuplicatesSortedTestCaseProvider"><path d="M1670.5781,6842.7979 C2018.0625,6842.7979 2436.6563,6842.7979 2436.6563,6842.7979 C2436.6563,6842.7979 2436.6563,6601.6729 2436.6563,6458.6572" fill="none" id="ProblemTestCaseFactory-to-RemoveDuplicatesSortedTestCaseProvider" style="stroke:#181818;stroke-width:4.6875;"/><polygon fill="#181818" points="2436.6563,6430.5322,2417.9063,6472.7197,2436.6563,6453.9697,2455.4063,6472.7197,2436.6563,6430.5322" style="stroke:#181818;stroke-width:4.6875;"/></g><!--link ProblemTest to IProblemStrategy--><g class="link" data-entity-1="ProblemTest" data-entity-2="IProblemStrategy" data-source-line="80" data-uid="lnk56" id="link_ProblemTest_IProblemStrategy"><path d="M1297.5938,7596.9697 C1297.5938,7898.751 1297.5938,8889.126 1297.5938,8889.126 C1297.5938,8889.126 2223.4688,8889.126 2747.0625,8889.126" fill="none" id="ProblemTest-to-IProblemStrategy" style="stroke:#181818;stroke-width:4.6875;"/><polygon fill="#181818" points="2775.1875,8889.126,2733,8870.376,2751.75,8889.126,2733,8907.876,2775.1875,8889.126" style="stroke:#181818;stroke-width:4.6875;"/></g><!--link ProblemTest to ComparerResolver--><g class="link" data-entity-1="ProblemTest" data-entity-2="ComparerResolver" data-source-line="81" data-uid="lnk58" id="link_ProblemTest_ComparerResolver"><path d="M1133.5313,7596.5479 C1133.5313,7939.4385 1133.5313,9193.5791 1133.5313,9193.5791 C1133.5313,9193.5791 2159.8594,9193.5791 2728.2656,9193.5791" fill="none" id="ProblemTest-to-ComparerResolver" style="stroke:#181818;stroke-width:4.6875;"/><polygon fill="#181818" points="2756.3906,9193.5791,2714.2031,9174.8291,2732.9531,9193.5791,2714.2031,9212.3291,2756.3906,9193.5791" style="stroke:#181818;stroke-width:4.6875;"/></g><!--link ComparerResolver to ComparerHelper--><g class="link" data-entity-1="ComparerResolver" data-entity-2="ComparerHelper" data-source-line="82" data-uid="lnk60" id="link_ComparerResolver_ComparerHelper"><path d="M3464.25,9193.5791 C3874.0313,9193.5791 4514.2969,9193.5791 4908.8438,9193.5791" fill="none" id="ComparerResolver-to-ComparerHelper" style="stroke:#181818;stroke-width:4.6875;"/><polygon fill="#181818" points="4936.9688,9193.5791,4894.7813,9174.8291,4913.5313,9193.5791,4894.7813,9212.3291,4936.9688,9193.5791" style="stroke:#181818;stroke-width:4.6875;"/></g><!--link StrategyBenchmark to IProblemStrategy--><g class="link" data-entity-1="StrategyBenchmark" data-entity-2="IProblemStrategy" data-source-line="83" data-uid="lnk61" id="link_StrategyBenchmark_IProblemStrategy"><path d="M1508.5313,7264.5791 C1508.5313,7604.9854 1508.5313,8832.4072 1508.5313,8832.4072 C1508.5313,8832.4072 2278.5938,8832.4072 2747.8594,8832.4072" fill="none" id="StrategyBenchmark-to-IProblemStrategy" style="stroke:#181818;stroke-width:4.6875;"/><polygon fill="#181818" points="2775.9844,8832.4072,2733.7969,8813.6572,2752.5469,8832.4072,2733.7969,8851.1572,2775.9844,8832.4072" style="stroke:#181818;stroke-width:4.6875;"/></g><!--link StrategyBenchmark to BenchmarkResult--><g class="link" data-entity-1="StrategyBenchmark" data-entity-2="BenchmarkResult" data-source-line="84" data-uid="lnk63" id="link_StrategyBenchmark_BenchmarkResult"><path d="M1550.7188,7264.4385 C1550.7188,7562.4229 1550.7188,8527.9541 1550.7188,8527.9541 C1550.7188,8527.9541 2284.7813,8527.9541 2743.2656,8527.9541" fill="none" id="StrategyBenchmark-to-BenchmarkResult" style="stroke:#181818;stroke-width:4.6875;"/><polygon fill="#181818" points="2771.3906,8527.9541,2729.2031,8509.2041,2747.9531,8527.9541,2729.2031,8546.7041,2771.3906,8527.9541" style="stroke:#181818;stroke-width:4.6875;"/></g><!--SRC=[dLPDZzem4BtdLrXxsHCLtQhNIii2MgHjGGjI3nK7DnaI2yUE78TiLF7VEywdoGUGlTbvR-QDPyOJFv8tcib44oeyea1ue9ZmoO5zGEp4HoOYgcX8N1b6Ke3GMvrnGAAhgV0vM1JE1EWi0YAL3gG5U14ZtwPJXyD14os9OdwWYSUC4oQ54xiKNNxzyjrnDDEu_2czX5D5NYfHCcVKDwucPAiLrU1dP8bxIAKwEiuZCfNHTGE83MwyHjGzKX_8GuxLx0Vopo7apqP9ut1Vhlzo22lFI-fggJ8Rsg7R5nh309JlA_CP23S8gJhk7Lk8J2O_RabrYGF2_SGUj2UeiybNdKKF3ammax2uoLYDOck0QZBM5tgXiqlbDgam1l7-NWli5V16sGKAOAJMkzJurNjMYcQZx22K9rWWdZV-MCDv4d7c8XpRjcXS9xgTjYBLfChEMgm5l4aPpLb-KwZAjf8dPhc_v3tXmX1j-DmdrSftIx20SRsHJ6XGlMe5QSRoS83YfRkYsgbMerX2Kup-vZ4jhf772JKSfCLzfN4GWtx2hPabPI47e-tlapfY6rvpwOl162wOOgOI3KkSJd25jbhTxnAv0qvRv-dlt-P0DhvClL9vVGALAgOxuLwuIsdqc-bW8Ro1W6rsSwmDnV8P6jRmLkHz5wWLl4Mvthjj-ZFdClsrO-5rotCnByru9IuEOX8fUM9n4NypCNFS3Eg-aTaUulO0hB2DSOl_tlsTTcNCuwtBsp7Uqcx0JrXVTCCdpJl5xlZ9YxNu03SlOFwcEL7ElDQJe64CbAkKNRMc_BwVPcOBLQ3U8PRyL9wdy_6I-meyAfdTd_GLzI5olKUzXEDRuFmV]--></g></svg>