<svg xmlns="http://www.w3.org/2000/svg" xmlns:xlink="http://www.w3.org/1999/xlink" contentStyleType="text/css" data-diagram-type="CLASS" height="2929.6875px" preserveAspectRatio="none" style="width:4232px;height:2929px;background:#FFFFFF;" version="1.1" viewBox="0 0 4232 2929" width="4232.8125px" zoomAndPan="magnify"><defs/><g><!--class IProblemSolution--><g class="entity" data-entity="IProblemSolution" data-source-line="9" data-uid="ent0002" id="entity_IProblemSolution"><rect fill="#F1F1F1" height="225" rx="11.7188" ry="11.7188" style="stroke:#181818;stroke-width:2.3438;" width="1171.8613" x="1588.5" y="1440.4219"/><ellipse cx="1658.8125" cy="1515.4219" fill="#B4A7E5" rx="51.5625" ry="51.5625" style="stroke:#181818;stroke-width:4.6875;"/><path d="M1639.6963,1495.5732 L1639.6963,1485.4658 L1674.3398,1485.4658 L1674.3398,1495.5732 L1662.7676,1495.5732 L1662.7676,1533.4395 L1674.3398,1533.4395 L1674.3398,1543.5469 L1639.6963,1543.5469 L1639.6963,1533.4395 L1651.2686,1533.4395 L1651.2686,1495.5732 L1639.6963,1495.5732 Z " fill="#000000"/><text fill="#000000" font-family="sans-serif" font-size="65.625" font-style="italic" lengthAdjust="spacing" textLength="557.5882" x="1724.4375" y="1538.1407">IProblemSolution</text><rect fill="#FFFFFF" height="74.8535" style="stroke:#181818;stroke-width:4.6875;stroke-dasharray:9.375,9.375;" width="454.8981" x="2319.5257" y="1426.3594"/><text fill="#000000" font-family="sans-serif" font-size="56.25" font-style="italic" lengthAdjust="spacing" textLength="445.5231" x="2324.2132" y="1483.2594">TInput, TOutput</text><line style="stroke:#181818;stroke-width:2.3438;" x1="1593.1875" x2="2755.6738" y1="1590.4219" y2="1590.4219"/><line style="stroke:#181818;stroke-width:2.3438;" x1="1593.1875" x2="2755.6738" y1="1627.9219" y2="1627.9219"/></g><g class="entity" data-entity="GMN3" data-source-line="11" data-uid="ent0004" id="entity_GMN3"><path d="M3108.6094,1494.0469 L3108.6094,1534.1719 L2761.8281,1552.9219 L3108.6094,1571.6719 L3108.6094,1611.8569 A0,0 0 0 0 3108.6094,1611.8569 L4201.8932,1611.8569 A0,0 0 0 0 4201.8932,1611.8569 L4201.8932,1540.9219 L4155.0182,1494.0469 L3108.6094,1494.0469 A0,0 0 0 0 3108.6094,1494.0469" fill="#FEFFDD" style="stroke:#181818;stroke-width:2.3438;"/><path d="M4155.0182,1494.0469 L4155.0182,1540.9219 L4201.8932,1540.9219 L4155.0182,1494.0469" fill="#FEFFDD" style="stroke:#181818;stroke-width:2.3438;"/><text fill="#000000" font-family="sans-serif" font-size="60.9375" lengthAdjust="spacing" textLength="994.8463" x="3136.7344" y="1574.0479">Defines the Solve(input) method</text></g><!--class IProblemStrategy--><g class="entity" data-entity="IProblemStrategy" data-source-line="14" data-uid="ent0006" id="entity_IProblemStrategy"><rect fill="#F1F1F1" height="225" rx="11.7188" ry="11.7188" style="stroke:#181818;stroke-width:2.3438;" width="1185.704" x="1581.5625" y="1051.3594"/><ellipse cx="1651.875" cy="1126.3594" fill="#B4A7E5" rx="51.5625" ry="51.5625" style="stroke:#181818;stroke-width:4.6875;"/><path d="M1632.7588,1106.5107 L1632.7588,1096.4033 L1667.4023,1096.4033 L1667.4023,1106.5107 L1655.8301,1106.5107 L1655.8301,1144.377 L1667.4023,1144.377 L1667.4023,1154.4844 L1632.7588,1154.4844 L1632.7588,1144.377 L1644.3311,1144.377 L1644.3311,1106.5107 L1632.7588,1106.5107 Z " fill="#000000"/><text fill="#000000" font-family="sans-serif" font-size="65.625" font-style="italic" lengthAdjust="spacing" textLength="571.431" x="1717.5" y="1149.0782">IProblemStrategy</text><rect fill="#FFFFFF" height="74.8535" style="stroke:#181818;stroke-width:4.6875;stroke-dasharray:9.375,9.375;" width="454.8981" x="2326.431" y="1037.2969"/><text fill="#000000" font-family="sans-serif" font-size="56.25" font-style="italic" lengthAdjust="spacing" textLength="445.5231" x="2331.1185" y="1094.1969">TInput, TOutput</text><line style="stroke:#181818;stroke-width:2.3438;" x1="1586.25" x2="2762.579" y1="1201.3594" y2="1201.3594"/><line style="stroke:#181818;stroke-width:2.3438;" x1="1586.25" x2="2762.579" y1="1238.8594" y2="1238.8594"/></g><g class="entity" data-entity="GMN7" data-source-line="16" data-uid="ent0008" id="entity_GMN7"><path d="M3119.1094,1104.9844 L3119.1094,1145.1094 L2768.2031,1163.8594 L3119.1094,1182.6094 L3119.1094,1222.7944 A0,0 0 0 0 3119.1094,1222.7944 L4191.3864,1222.7944 A0,0 0 0 0 4191.3864,1222.7944 L4191.3864,1151.8594 L4144.5114,1104.9844 L3119.1094,1104.9844 A0,0 0 0 0 3119.1094,1104.9844" fill="#FEFFDD" style="stroke:#181818;stroke-width:2.3438;"/><path d="M4144.5114,1104.9844 L4144.5114,1151.8594 L4191.3864,1151.8594 L4144.5114,1104.9844" fill="#FEFFDD" style="stroke:#181818;stroke-width:2.3438;"/><text fill="#000000" font-family="sans-serif" font-size="60.9375" lengthAdjust="spacing" textLength="973.8396" x="3147.2344" y="1184.9854">Wraps a solution with metadata</text></g><!--class ITestCaseProvider--><g class="entity" data-entity="ITestCaseProvider" data-source-line="19" data-uid="ent0010" id="entity_ITestCaseProvider"><rect fill="#F1F1F1" height="225" rx="11.7188" ry="11.7188" style="stroke:#181818;stroke-width:2.3438;" width="1207.3975" x="32.8125" y="587.2969"/><ellipse cx="103.125" cy="662.2969" fill="#B4A7E5" rx="51.5625" ry="51.5625" style="stroke:#181818;stroke-width:4.6875;"/><path d="M84.0088,642.4482 L84.0088,632.3408 L118.6523,632.3408 L118.6523,642.4482 L107.0801,642.4482 L107.0801,680.3145 L118.6523,680.3145 L118.6523,690.4219 L84.0088,690.4219 L84.0088,680.3145 L95.5811,680.3145 L95.5811,642.4482 L84.0088,642.4482 Z " fill="#000000"/><text fill="#000000" font-family="sans-serif" font-size="65.625" font-style="italic" lengthAdjust="spacing" textLength="593.1244" x="168.75" y="685.0157">ITestCaseProvider</text><rect fill="#FFFFFF" height="74.8535" style="stroke:#181818;stroke-width:4.6875;stroke-dasharray:9.375,9.375;" width="454.8981" x="799.3744" y="573.2344"/><text fill="#000000" font-family="sans-serif" font-size="56.25" font-style="italic" lengthAdjust="spacing" textLength="445.5231" x="804.0619" y="630.1344">TInput, TOutput</text><line style="stroke:#181818;stroke-width:2.3438;" x1="37.5" x2="1235.5225" y1="737.2969" y2="737.2969"/><line style="stroke:#181818;stroke-width:2.3438;" x1="37.5" x2="1235.5225" y1="774.7969" y2="774.7969"/></g><g class="entity" data-entity="GMN11" data-source-line="21" data-uid="ent0012" id="entity_GMN11"><path d="M1521.4688,640.9219 L1521.4688,681.0469 L1242.1406,699.7969 L1521.4688,718.5469 L1521.4688,758.7319 A0,0 0 0 0 1521.4688,758.7319 L2827.3792,758.7319 A0,0 0 0 0 2827.3792,758.7319 L2827.3792,687.7969 L2780.5042,640.9219 L1521.4688,640.9219 A0,0 0 0 0 1521.4688,640.9219" fill="#FEFFDD" style="stroke:#181818;stroke-width:2.3438;"/><path d="M2780.5042,640.9219 L2780.5042,687.7969 L2827.3792,687.7969 L2780.5042,640.9219" fill="#FEFFDD" style="stroke:#181818;stroke-width:2.3438;"/><text fill="#000000" font-family="sans-serif" font-size="60.9375" lengthAdjust="spacing" textLength="1207.473" x="1549.5938" y="720.9229">Provides test cases for a given problem</text></g><!--class ProblemStrategy--><g class="entity" data-entity="ProblemStrategy" data-source-line="25" data-uid="ent0014" id="entity_ProblemStrategy"><rect fill="#F1F1F1" height="377.7832" rx="11.7188" ry="11.7188" style="stroke:#181818;stroke-width:2.3438;" width="1201.5793" x="35.7188" y="975"/><ellipse cx="121.8845" cy="1050" fill="#ADD1B2" rx="51.5625" ry="51.5625" style="stroke:#181818;stroke-width:4.6875;"/><path d="M135.8005,1076.4404 Q133.0906,1077.832 130.0876,1078.4912 Q127.0847,1079.2236 123.7888,1079.2236 Q112.0701,1079.2236 105.8445,1071.5332 Q99.6921,1063.7695 99.6921,1049.1211 Q99.6921,1034.4727 105.8445,1026.709 Q112.0701,1018.9453 123.7888,1018.9453 Q127.0847,1018.9453 130.0876,1019.6777 Q133.1638,1020.4102 135.8005,1021.8018 L135.8005,1034.5459 Q132.8708,1031.8359 130.0876,1030.5908 Q127.3044,1029.2725 124.3748,1029.2725 Q118.0759,1029.2725 114.8533,1034.3262 Q111.6306,1039.3066 111.6306,1049.1211 Q111.6306,1058.9355 114.8533,1063.9893 Q118.0759,1068.9697 124.3748,1068.9697 Q127.3044,1068.9697 130.0876,1067.7246 Q132.8708,1066.4063 135.8005,1063.6963 L135.8005,1076.4404 Z " fill="#000000"/><text fill="#000000" font-family="sans-serif" font-size="65.625" lengthAdjust="spacing" textLength="552.0767" x="191.0325" y="1072.7188">ProblemStrategy</text><rect fill="#FFFFFF" height="74.8535" style="stroke:#181818;stroke-width:4.6875;stroke-dasharray:9.375,9.375;" width="454.8981" x="796.4625" y="960.9375"/><text fill="#000000" font-family="sans-serif" font-size="56.25" font-style="italic" lengthAdjust="spacing" textLength="445.5231" x="801.15" y="1017.8375">TInput, TOutput</text><line style="stroke:#181818;stroke-width:2.3438;" x1="40.4063" x2="1232.6105" y1="1125" y2="1125"/><text fill="#000000" font-family="sans-serif" font-size="65.625" lengthAdjust="spacing" textLength="448.6404" x="63.8438" y="1204.6646">-Name: string</text><text fill="#000000" font-family="sans-serif" font-size="65.625" lengthAdjust="spacing" textLength="1145.3293" x="63.8438" y="1281.0562">-Implementation: IProblemSolution</text><line style="stroke:#181818;stroke-width:2.3438;" x1="40.4063" x2="1232.6105" y1="1315.2832" y2="1315.2832"/></g><!--class ProblemInput--><g class="entity" data-entity="ProblemInput" data-source-line="34" data-uid="ent0018" id="entity_ProblemInput"><rect fill="#F1F1F1" height="377.7832" rx="11.7188" ry="11.7188" style="stroke:#181818;stroke-width:2.3438;" width="643.9316" x="314.5313" y="46.875"/><ellipse cx="384.8438" cy="121.875" fill="#A9DCDF" rx="51.5625" ry="51.5625" style="stroke:#181818;stroke-width:4.6875;"/><path d="M385.3564,100.0488 L379.9365,123.8525 L390.8496,123.8525 L385.3564,100.0488 Z M378.3984,89.5752 L392.3877,89.5752 L408.1348,147.6563 L396.6357,147.6563 L393.0469,133.3008 L377.666,133.3008 L374.1504,147.6563 L362.7246,147.6563 L378.3984,89.5752 Z " fill="#000000"/><text fill="#000000" font-family="sans-serif" font-size="65.625" font-style="italic" lengthAdjust="spacing" textLength="440.8218" x="450.4688" y="144.5938">ProblemInput</text><rect fill="#FFFFFF" height="74.8535" style="stroke:#181818;stroke-width:4.6875;stroke-dasharray:9.375,9.375;" width="43.7347" x="928.7906" y="32.8125"/><text fill="#000000" font-family="sans-serif" font-size="56.25" font-style="italic" lengthAdjust="spacing" textLength="34.3597" x="933.4781" y="89.7125">T</text><line style="stroke:#181818;stroke-width:2.3438;" x1="319.2188" x2="953.7753" y1="196.875" y2="196.875"/><text fill="#000000" font-family="sans-serif" font-size="65.625" lengthAdjust="spacing" textLength="276.6632" x="342.6563" y="276.5396">-Input: T</text><text fill="#000000" font-family="sans-serif" font-size="65.625" lengthAdjust="spacing" textLength="483.9203" x="342.6563" y="352.9312">-Target: object</text><line style="stroke:#181818;stroke-width:2.3438;" x1="319.2188" x2="953.7753" y1="387.1582" y2="387.1582"/></g><!--class TwoSumInput--><g class="entity" data-entity="TwoSumInput" data-source-line="39" data-uid="ent0019" id="entity_TwoSumInput"><rect fill="#F1F1F1" height="454.1748" rx="11.7188" ry="11.7188" style="stroke:#181818;stroke-width:2.3438;" width="669.8822" x="301.5469" y="1827.4219"/><ellipse cx="402.8511" cy="1902.4219" fill="#ADD1B2" rx="51.5625" ry="51.5625" style="stroke:#181818;stroke-width:4.6875;"/><path d="M416.7671,1928.8623 Q414.0572,1930.2539 411.0542,1930.9131 Q408.0513,1931.6455 404.7554,1931.6455 Q393.0367,1931.6455 386.8111,1923.9551 Q380.6587,1916.1914 380.6587,1901.543 Q380.6587,1886.8945 386.8111,1879.1309 Q393.0367,1871.3672 404.7554,1871.3672 Q408.0513,1871.3672 411.0542,1872.0996 Q414.1304,1872.832 416.7671,1874.2236 L416.7671,1886.9678 Q413.8374,1884.2578 411.0542,1883.0127 Q408.271,1881.6943 405.3414,1881.6943 Q399.0425,1881.6943 395.8199,1886.748 Q392.5972,1891.7285 392.5972,1901.543 Q392.5972,1911.3574 395.8199,1916.4111 Q399.0425,1921.3916 405.3414,1921.3916 Q408.271,1921.3916 411.0542,1920.1465 Q413.8374,1918.8281 416.7671,1916.1182 L416.7671,1928.8623 Z " fill="#000000"/><text fill="#000000" font-family="sans-serif" font-size="65.625" lengthAdjust="spacing" textLength="451.0117" x="475.3632" y="1925.1407">TwoSumInput</text><line style="stroke:#181818;stroke-width:2.3438;" x1="306.2344" x2="966.7416" y1="1977.4219" y2="1977.4219"/><text fill="#000000" font-family="sans-serif" font-size="65.625" lengthAdjust="spacing" textLength="501.2238" x="329.6719" y="2057.0865">-Numbers: int[]</text><text fill="#000000" font-family="sans-serif" font-size="65.625" lengthAdjust="spacing" textLength="367.2501" x="329.6719" y="2133.4781">-Target: int</text><line style="stroke:#181818;stroke-width:2.3438;" x1="306.2344" x2="966.7416" y1="2167.7051" y2="2167.7051"/><text fill="#000000" font-family="sans-serif" font-size="65.625" lengthAdjust="spacing" textLength="613.6322" x="329.6719" y="2247.3697">+ToString(): string</text></g><!--class TwoSumSortedInput--><g class="entity" data-entity="TwoSumSortedInput" data-source-line="45" data-uid="ent0020" id="entity_TwoSumSortedInput"><rect fill="#F1F1F1" height="454.1748" rx="11.7188" ry="11.7188" style="stroke:#181818;stroke-width:2.3438;" width="817.5613" x="227.7188" y="2446.1719"/><ellipse cx="298.0313" cy="2521.1719" fill="#ADD1B2" rx="51.5625" ry="51.5625" style="stroke:#181818;stroke-width:4.6875;"/><path d="M311.9473,2547.6123 Q309.2373,2549.0039 306.2344,2549.6631 Q303.2314,2550.3955 299.9355,2550.3955 Q288.2168,2550.3955 281.9912,2542.7051 Q275.8389,2534.9414 275.8389,2520.293 Q275.8389,2505.6445 281.9912,2497.8809 Q288.2168,2490.1172 299.9355,2490.1172 Q303.2314,2490.1172 306.2344,2490.8496 Q309.3105,2491.582 311.9473,2492.9736 L311.9473,2505.7178 Q309.0176,2503.0078 306.2344,2501.7627 Q303.4512,2500.4443 300.5215,2500.4443 Q294.2227,2500.4443 291,2505.498 Q287.7773,2510.4785 287.7773,2520.293 Q287.7773,2530.1074 291,2535.1611 Q294.2227,2540.1416 300.5215,2540.1416 Q303.4512,2540.1416 306.2344,2538.8965 Q309.0176,2537.5781 311.9473,2534.8682 L311.9473,2547.6123 Z " fill="#000000"/><text fill="#000000" font-family="sans-serif" font-size="65.625" lengthAdjust="spacing" textLength="667.5613" x="363.6563" y="2543.8907">TwoSumSortedInput</text><line style="stroke:#181818;stroke-width:2.3438;" x1="232.4063" x2="1040.5926" y1="2596.1719" y2="2596.1719"/><text fill="#000000" font-family="sans-serif" font-size="65.625" lengthAdjust="spacing" textLength="501.2238" x="255.8438" y="2675.8365">-Numbers: int[]</text><text fill="#000000" font-family="sans-serif" font-size="65.625" lengthAdjust="spacing" textLength="367.2501" x="255.8438" y="2752.2281">-Target: int</text><line style="stroke:#181818;stroke-width:2.3438;" x1="232.4063" x2="1040.5926" y1="2786.4551" y2="2786.4551"/><text fill="#000000" font-family="sans-serif" font-size="65.625" lengthAdjust="spacing" textLength="613.6322" x="255.8438" y="2866.1197">+ToString(): string</text></g><!--class ThreeSumInput--><g class="entity" data-entity="ThreeSumInput" data-source-line="51" data-uid="ent0021" id="entity_ThreeSumInput"><rect fill="#F1F1F1" height="454.1748" rx="11.7188" ry="11.7188" style="stroke:#181818;stroke-width:2.3438;" width="669.8822" x="1839.4688" y="1827.4219"/><ellipse cx="1915.7983" cy="1902.4219" fill="#ADD1B2" rx="51.5625" ry="51.5625" style="stroke:#181818;stroke-width:4.6875;"/><path d="M1929.7143,1928.8623 Q1927.0044,1930.2539 1924.0014,1930.9131 Q1920.9985,1931.6455 1917.7026,1931.6455 Q1905.9839,1931.6455 1899.7583,1923.9551 Q1893.6059,1916.1914 1893.6059,1901.543 Q1893.6059,1886.8945 1899.7583,1879.1309 Q1905.9839,1871.3672 1917.7026,1871.3672 Q1920.9985,1871.3672 1924.0014,1872.0996 Q1927.0776,1872.832 1929.7143,1874.2236 L1929.7143,1886.9678 Q1926.7847,1884.2578 1924.0014,1883.0127 Q1921.2182,1881.6943 1918.2886,1881.6943 Q1911.9897,1881.6943 1908.7671,1886.748 Q1905.5444,1891.7285 1905.5444,1901.543 Q1905.5444,1911.3574 1908.7671,1916.4111 Q1911.9897,1921.3916 1918.2886,1921.3916 Q1921.2182,1921.3916 1924.0014,1920.1465 Q1926.7847,1918.8281 1929.7143,1916.1182 L1929.7143,1928.8623 Z " fill="#000000"/><text fill="#000000" font-family="sans-serif" font-size="65.625" lengthAdjust="spacing" textLength="506.5109" x="1982.7605" y="1925.1407">ThreeSumInput</text><line style="stroke:#181818;stroke-width:2.3438;" x1="1844.1563" x2="2504.6635" y1="1977.4219" y2="1977.4219"/><text fill="#000000" font-family="sans-serif" font-size="65.625" lengthAdjust="spacing" textLength="501.2238" x="1867.5938" y="2057.0865">-Numbers: int[]</text><text fill="#000000" font-family="sans-serif" font-size="65.625" lengthAdjust="spacing" textLength="367.2501" x="1867.5938" y="2133.4781">-Target: int</text><line style="stroke:#181818;stroke-width:2.3438;" x1="1844.1563" x2="2504.6635" y1="2167.7051" y2="2167.7051"/><text fill="#000000" font-family="sans-serif" font-size="65.625" lengthAdjust="spacing" textLength="613.6322" x="1867.5938" y="2247.3697">+ToString(): string</text></g><!--class RotatedArrayInput--><g class="entity" data-entity="RotatedArrayInput" data-source-line="57" data-uid="ent0022" id="entity_RotatedArrayInput"><rect fill="#F1F1F1" height="377.7832" rx="11.7188" ry="11.7188" style="stroke:#181818;stroke-width:2.3438;" width="757.2876" x="1795.7813" y="46.875"/><ellipse cx="1866.0938" cy="121.875" fill="#ADD1B2" rx="51.5625" ry="51.5625" style="stroke:#181818;stroke-width:4.6875;"/><path d="M1880.0098,148.3154 Q1877.2998,149.707 1874.2969,150.3662 Q1871.2939,151.0986 1867.998,151.0986 Q1856.2793,151.0986 1850.0537,143.4082 Q1843.9014,135.6445 1843.9014,120.9961 Q1843.9014,106.3477 1850.0537,98.584 Q1856.2793,90.8203 1867.998,90.8203 Q1871.2939,90.8203 1874.2969,91.5527 Q1877.373,92.2852 1880.0098,93.6768 L1880.0098,106.4209 Q1877.0801,103.7109 1874.2969,102.4658 Q1871.5137,101.1475 1868.584,101.1475 Q1862.2852,101.1475 1859.0625,106.2012 Q1855.8398,111.1816 1855.8398,120.9961 Q1855.8398,130.8105 1859.0625,135.8643 Q1862.2852,140.8447 1868.584,140.8447 Q1871.5137,140.8447 1874.2969,139.5996 Q1877.0801,138.2813 1880.0098,135.5713 L1880.0098,148.3154 Z " fill="#000000"/><text fill="#000000" font-family="sans-serif" font-size="65.625" lengthAdjust="spacing" textLength="607.2876" x="1931.7188" y="144.5938">RotatedArrayInput</text><line style="stroke:#181818;stroke-width:2.3438;" x1="1800.4688" x2="2548.3813" y1="196.875" y2="196.875"/><text fill="#000000" font-family="sans-serif" font-size="65.625" lengthAdjust="spacing" textLength="501.2238" x="1823.9063" y="276.5396">-Numbers: int[]</text><text fill="#000000" font-family="sans-serif" font-size="65.625" lengthAdjust="spacing" textLength="367.2501" x="1823.9063" y="352.9312">-Target: int</text><line style="stroke:#181818;stroke-width:2.3438;" x1="1800.4688" x2="2548.3813" y1="387.1582" y2="387.1582"/></g><!--class RemoveElementInput--><g class="entity" data-entity="RemoveElementInput" data-source-line="62" data-uid="ent0024" id="entity_RemoveElementInput"><rect fill="#F1F1F1" height="377.7832" rx="11.7188" ry="11.7188" style="stroke:#181818;stroke-width:2.3438;" width="860.8841" x="1743.9844" y="2446.875"/><ellipse cx="1814.2969" cy="2521.875" fill="#ADD1B2" rx="51.5625" ry="51.5625" style="stroke:#181818;stroke-width:4.6875;"/><path d="M1828.2129,2548.3154 Q1825.5029,2549.707 1822.5,2550.3662 Q1819.4971,2551.0986 1816.2012,2551.0986 Q1804.4824,2551.0986 1798.2568,2543.4082 Q1792.1045,2535.6445 1792.1045,2520.9961 Q1792.1045,2506.3477 1798.2568,2498.584 Q1804.4824,2490.8203 1816.2012,2490.8203 Q1819.4971,2490.8203 1822.5,2491.5527 Q1825.5762,2492.2852 1828.2129,2493.6768 L1828.2129,2506.4209 Q1825.2832,2503.7109 1822.5,2502.4658 Q1819.7168,2501.1475 1816.7871,2501.1475 Q1810.4883,2501.1475 1807.2656,2506.2012 Q1804.043,2511.1816 1804.043,2520.9961 Q1804.043,2530.8105 1807.2656,2535.8643 Q1810.4883,2540.8447 1816.7871,2540.8447 Q1819.7168,2540.8447 1822.5,2539.5996 Q1825.2832,2538.2813 1828.2129,2535.5713 L1828.2129,2548.3154 Z " fill="#000000"/><text fill="#000000" font-family="sans-serif" font-size="65.625" lengthAdjust="spacing" textLength="710.8841" x="1879.9219" y="2544.5938">RemoveElementInput</text><line style="stroke:#181818;stroke-width:2.3438;" x1="1748.6719" x2="2600.181" y1="2596.875" y2="2596.875"/><text fill="#000000" font-family="sans-serif" font-size="65.625" lengthAdjust="spacing" textLength="501.2238" x="1772.1094" y="2676.5396">-Numbers: int[]</text><text fill="#000000" font-family="sans-serif" font-size="65.625" lengthAdjust="spacing" textLength="337.5137" x="1772.1094" y="2752.9312">-Value: int</text><line style="stroke:#181818;stroke-width:2.3438;" x1="1748.6719" x2="2600.181" y1="2787.1582" y2="2787.1582"/></g><!--reverse link IProblemStrategy to ProblemStrategy--><g class="link" data-entity-1="IProblemStrategy" data-entity-2="ProblemStrategy" data-source-line="26" data-uid="lnk15" id="link_IProblemStrategy_ProblemStrategy"><path d="M1495.4531,1201.3594 C1383.4688,1201.3594 1350.6094,1201.3594 1238.3906,1201.3594" fill="none" id="IProblemStrategy-backto-ProblemStrategy" style="stroke:#181818;stroke-width:4.6875;stroke-dasharray:32.8125,32.8125;"/><polygon fill="none" points="1579.8281,1201.3594,1495.4531,1173.2344,1495.4531,1229.4844,1579.8281,1201.3594" style="stroke:#181818;stroke-width:4.6875;"/></g><!--link ProblemStrategy to IProblemStrategy--><g class="link" data-entity-1="ProblemStrategy" data-entity-2="IProblemStrategy" data-source-line="31" data-uid="lnk17" id="link_ProblemStrategy_IProblemStrategy"><path codeLine="31" d="M1237.7344,1126.3594 C1350.1875,1126.3594 1439.5781,1126.3594 1551.7969,1126.3594" fill="none" id="ProblemStrategy-to-IProblemStrategy" style="stroke:#181818;stroke-width:4.6875;"/><polygon fill="#181818" points="1579.9219,1126.3594,1537.7344,1107.6094,1556.4844,1126.3594,1537.7344,1145.1094,1579.9219,1126.3594" style="stroke:#181818;stroke-width:4.6875;"/></g><!--link ProblemStrategy to IProblemSolution--><g class="link" data-entity-1="ProblemStrategy" data-entity-2="IProblemSolution" data-source-line="30" data-uid="lnk16" id="link_ProblemStrategy_IProblemSolution"><path codeLine="30" d="M1140.9844,1353.8438 C1140.9844,1452.6094 1140.9844,1552.9219 1140.9844,1552.9219 C1140.9844,1552.9219 1325.9531,1552.9219 1558.5938,1552.9219" fill="none" id="ProblemStrategy-to-IProblemSolution" style="stroke:#181818;stroke-width:4.6875;"/><polygon fill="#181818" points="1586.7188,1552.9219,1544.5313,1534.1719,1563.2813,1552.9219,1544.5313,1571.6719,1586.7188,1552.9219" style="stroke:#181818;stroke-width:4.6875;"/></g><!--reverse link ProblemInput to RotatedArrayInput--><g class="link" data-entity-1="ProblemInput" data-entity-2="RotatedArrayInput" data-source-line="58" data-uid="lnk23" id="link_ProblemInput_RotatedArrayInput"><path d="M1045.1719,298.7344 C1288.4063,298.7344 1537.6875,298.7344 1793.5781,298.7344" fill="none" id="ProblemInput-backto-RotatedArrayInput" style="stroke:#181818;stroke-width:4.6875;"/><polygon fill="none" points="960.7969,298.7344,1045.1719,326.8594,1045.1719,270.6094,960.7969,298.7344" style="stroke:#181818;stroke-width:4.6875;"/></g><!--reverse link ProblemInput to RotatedArrayInput--><g class="link" data-entity-1="ProblemInput" data-entity-2="RotatedArrayInput" data-source-line="67" data-uid="lnk25" id="link_ProblemInput_RotatedArrayInput"><path codeLine="67" d="M1045.1719,172.7813 C1288.4063,172.7813 1537.6875,172.7813 1793.5781,172.7813" fill="none" id="ProblemInput-backto-RotatedArrayInput-1" style="stroke:#181818;stroke-width:4.6875;"/><polygon fill="none" points="960.7969,172.7813,1045.1719,200.9063,1045.1719,144.6563,960.7969,172.7813" style="stroke:#181818;stroke-width:4.6875;"/></g><!--SRC=[jLF9ZjD04BttLzID6O5H4E8I9P560mSVM8GjE20EPNVPRh2xhUvoGbZ-dVAIJ8X7J0xWKzVstgl5uQknBNfi8AynX1jcRxAEASwTJSntWeKAnvHGeNOxOqiei0vq4gcD9Twt1CvpvKu2kZNmVB5GDHKCxC2RicBGnbFEnbaLSgm9dZrzeTGZMA_N45icNs1EeJULEPWGl_Ckgwb9NDtrfQiqjct7Jo1zsx4yDiewfed05RDyzP8AKHc0Am9nRkdAz03Nq91eregiXXv2tKVA7fdA_SMaKxxwwB4DW10c5R0pNFMCg97nViwK0jzY8C7Q6at-GTBp0ZKzf5U9G2wX08NpegCqMxBGZYfFwCVX7sH3BxibFwnWE0nuQ11WcbRYP3dCfW0_5CWNmHjiQ0b1RioMaoi-b64_dkLyRR-KEeUBeiqyxwz9XtLCVTuwJ_3QQQh7AyDCD67Ey4UlGuUhT7EKFpYMa4vcYhuaiLtsHQwv5pgMfpkNT6FrNUTTav4FIv0zV_fy1Y2-mVCOKfSCmxcwFexf33QHFupqlmUlFD7_KFtUoMP9ttYF-n6Slh7StTcK1uBDvSHt-DIuBRqQR-W2zH-mxkY8SQe1LZ-ZQAvN_GO0]--></g></svg>