<svg xmlns="http://www.w3.org/2000/svg" xmlns:xlink="http://www.w3.org/1999/xlink" contentStyleType="text/css" data-diagram-type="CLASS" height="4570.3125px" preserveAspectRatio="none" style="width:6670px;height:4570px;background:#FFFFFF;" version="1.1" viewBox="0 0 6670 4570" width="6670.3125px" zoomAndPan="magnify"><defs/><g><!--class ProblemStrategyFactory--><g class="entity" data-entity="ProblemStrategyFactory" data-source-line="9" data-uid="ent0002" id="entity_ProblemStrategyFactory"><rect fill="#F1F1F1" height="301.3916" rx="11.7188" ry="11.7188" style="stroke:#181818;stroke-width:2.3438;" width="2188.6139" x="32.8125" y="2774.2969"/><ellipse cx="708.2886" cy="2849.2969" fill="#ADD1B2" rx="51.5625" ry="51.5625" style="stroke:#181818;stroke-width:4.6875;"/><path d="M722.2046,2875.7373 Q719.4946,2877.1289 716.4917,2877.7881 Q713.4888,2878.5205 710.1929,2878.5205 Q698.4741,2878.5205 692.2485,2870.8301 Q686.0962,2863.0664 686.0962,2848.418 Q686.0962,2833.7695 692.2485,2826.0059 Q698.4741,2818.2422 710.1929,2818.2422 Q713.4888,2818.2422 716.4917,2818.9746 Q719.5679,2819.707 722.2046,2821.0986 L722.2046,2833.8428 Q719.2749,2831.1328 716.4917,2829.8877 Q713.7085,2828.5693 710.7788,2828.5693 Q704.48,2828.5693 701.2573,2833.623 Q698.0347,2838.6035 698.0347,2848.418 Q698.0347,2858.2324 701.2573,2863.2861 Q704.48,2868.2666 710.7788,2868.2666 Q713.7085,2868.2666 716.4917,2867.0215 Q719.2749,2865.7031 722.2046,2862.9932 L722.2046,2875.7373 Z " fill="#000000"/><text fill="#000000" font-family="sans-serif" font-size="65.625" lengthAdjust="spacing" textLength="797.818" x="804.3823" y="2872.0157">ProblemStrategyFactory</text><line style="stroke:#181818;stroke-width:2.3438;" x1="37.5" x2="2216.7389" y1="2924.2969" y2="2924.2969"/><line style="stroke:#181818;stroke-width:2.3438;" x1="37.5" x2="2216.7389" y1="2961.7969" y2="2961.7969"/><text fill="#000000" font-family="sans-serif" font-size="65.625" lengthAdjust="spacing" textLength="2132.3639" x="60.9375" y="3041.4615">+GetStrategies(problemType): IEnumerable&lt;IProblemStrategy&gt;</text></g><!--class StrategyRegistryBuilder--><g class="entity" data-entity="StrategyRegistryBuilder" data-source-line="12" data-uid="ent0003" id="entity_StrategyRegistryBuilder"><rect fill="#F1F1F1" height="301.3916" rx="11.7188" ry="11.7188" style="stroke:#181818;stroke-width:2.3438;" width="2032.6904" x="2502.6563" y="2774.2969"/><ellipse cx="3106.6434" cy="2849.2969" fill="#ADD1B2" rx="51.5625" ry="51.5625" style="stroke:#181818;stroke-width:4.6875;"/><path d="M3120.5594,2875.7373 Q3117.8494,2877.1289 3114.8465,2877.7881 Q3111.8436,2878.5205 3108.5477,2878.5205 Q3096.8289,2878.5205 3090.6033,2870.8301 Q3084.451,2863.0664 3084.451,2848.418 Q3084.451,2833.7695 3090.6033,2826.0059 Q3096.8289,2818.2422 3108.5477,2818.2422 Q3111.8436,2818.2422 3114.8465,2818.9746 Q3117.9227,2819.707 3120.5594,2821.0986 L3120.5594,2833.8428 Q3117.6297,2831.1328 3114.8465,2829.8877 Q3112.0633,2828.5693 3109.1336,2828.5693 Q3102.8348,2828.5693 3099.6121,2833.623 Q3096.3895,2838.6035 3096.3895,2848.418 Q3096.3895,2858.2324 3099.6121,2863.2861 Q3102.8348,2868.2666 3109.1336,2868.2666 Q3112.0633,2868.2666 3114.8465,2867.0215 Q3117.6297,2865.7031 3120.5594,2862.9932 L3120.5594,2875.7373 Z " fill="#000000"/><text fill="#000000" font-family="sans-serif" font-size="65.625" lengthAdjust="spacing" textLength="784.8724" x="3202.7371" y="2872.0157">StrategyRegistryBuilder</text><line style="stroke:#181818;stroke-width:2.3438;" x1="2507.3438" x2="4530.6592" y1="2924.2969" y2="2924.2969"/><line style="stroke:#181818;stroke-width:2.3438;" x1="2507.3438" x2="4530.6592" y1="2961.7969" y2="2961.7969"/><text fill="#000000" font-family="sans-serif" font-size="65.625" lengthAdjust="spacing" textLength="1976.4404" x="2530.7813" y="3041.4615">+RegisterAll(): Dictionary&lt;string, List&lt;IProblemStrategy&gt;&gt;</text></g><!--class ProblemTestCaseFactory--><g class="entity" data-entity="ProblemTestCaseFactory" data-source-line="19" data-uid="ent0005" id="entity_ProblemTestCaseFactory"><rect fill="#F1F1F1" height="301.3916" rx="11.7188" ry="11.7188" style="stroke:#181818;stroke-width:2.3438;" width="1684.6024" x="284.8125" y="1921.1719"/><ellipse cx="698.3814" cy="1996.1719" fill="#ADD1B2" rx="51.5625" ry="51.5625" style="stroke:#181818;stroke-width:4.6875;"/><path d="M712.2974,2022.6123 Q709.5874,2024.0039 706.5845,2024.6631 Q703.5816,2025.3955 700.2857,2025.3955 Q688.5669,2025.3955 682.3413,2017.7051 Q676.189,2009.9414 676.189,1995.293 Q676.189,1980.6445 682.3413,1972.8809 Q688.5669,1965.1172 700.2857,1965.1172 Q703.5816,1965.1172 706.5845,1965.8496 Q709.6607,1966.582 712.2974,1967.9736 L712.2974,1980.7178 Q709.3677,1978.0078 706.5845,1976.7627 Q703.8013,1975.4443 700.8716,1975.4443 Q694.5728,1975.4443 691.3501,1980.498 Q688.1275,1985.4785 688.1275,1995.293 Q688.1275,2005.1074 691.3501,2010.1611 Q694.5728,2015.1416 700.8716,2015.1416 Q703.8013,2015.1416 706.5845,2013.8965 Q709.3677,2012.5781 712.2974,2009.8682 L712.2974,2022.6123 Z " fill="#000000"/><text fill="#000000" font-family="sans-serif" font-size="65.625" lengthAdjust="spacing" textLength="817.6208" x="794.4751" y="2018.8907">ProblemTestCaseFactory</text><line style="stroke:#181818;stroke-width:2.3438;" x1="289.5" x2="1964.7274" y1="2071.1719" y2="2071.1719"/><line style="stroke:#181818;stroke-width:2.3438;" x1="289.5" x2="1964.7274" y1="2108.6719" y2="2108.6719"/><text fill="#000000" font-family="sans-serif" font-size="65.625" lengthAdjust="spacing" textLength="1628.3524" x="312.9375" y="2188.3365">+GetTestCases(problemType): ITestCaseProvider</text></g><!--class TestCaseProviderRegistryBuilder--><g class="entity" data-entity="TestCaseProviderRegistryBuilder" data-source-line="22" data-uid="ent0006" id="entity_TestCaseProviderRegistryBuilder"><rect fill="#F1F1F1" height="301.3916" rx="11.7188" ry="11.7188" style="stroke:#181818;stroke-width:2.3438;" width="1829.6951" x="2604.1875" y="1921.1719"/><ellipse cx="2960.3826" cy="1996.1719" fill="#ADD1B2" rx="51.5625" ry="51.5625" style="stroke:#181818;stroke-width:4.6875;"/><path d="M2974.2986,2022.6123 Q2971.5886,2024.0039 2968.5857,2024.6631 Q2965.5828,2025.3955 2962.2869,2025.3955 Q2950.5681,2025.3955 2944.3425,2017.7051 Q2938.1902,2009.9414 2938.1902,1995.293 Q2938.1902,1980.6445 2944.3425,1972.8809 Q2950.5681,1965.1172 2962.2869,1965.1172 Q2965.5828,1965.1172 2968.5857,1965.8496 Q2971.6619,1966.582 2974.2986,1967.9736 L2974.2986,1980.7178 Q2971.3689,1978.0078 2968.5857,1976.7627 Q2965.8025,1975.4443 2962.8728,1975.4443 Q2956.574,1975.4443 2953.3513,1980.498 Q2950.1287,1985.4785 2950.1287,1995.293 Q2950.1287,2005.1074 2953.3513,2010.1611 Q2956.574,2015.1416 2962.8728,2015.1416 Q2965.8025,2015.1416 2968.5857,2013.8965 Q2971.3689,2012.5781 2974.2986,2009.8682 L2974.2986,2022.6123 Z " fill="#000000"/><text fill="#000000" font-family="sans-serif" font-size="65.625" lengthAdjust="spacing" textLength="1077.4612" x="3056.4763" y="2018.8907">TestCaseProviderRegistryBuilder</text><line style="stroke:#181818;stroke-width:2.3438;" x1="2608.875" x2="4429.1951" y1="2071.1719" y2="2071.1719"/><line style="stroke:#181818;stroke-width:2.3438;" x1="2608.875" x2="4429.1951" y1="2108.6719" y2="2108.6719"/><text fill="#000000" font-family="sans-serif" font-size="65.625" lengthAdjust="spacing" textLength="1773.4451" x="2632.3125" y="2188.3365">+RegisterAll(): Dictionary&lt;string, ITestCaseProvider&gt;</text></g><!--class TwoSumTestCaseProvider--><g class="entity" data-entity="TwoSumTestCaseProvider" data-source-line="29" data-uid="ent0008" id="entity_TwoSumTestCaseProvider"><rect fill="#F1F1F1" height="225" rx="11.7188" ry="11.7188" style="stroke:#181818;stroke-width:2.3438;" width="1004.8553" x="5224.9688" y="2367.1875"/><ellipse cx="5295.2813" cy="2442.1875" fill="#ADD1B2" rx="51.5625" ry="51.5625" style="stroke:#181818;stroke-width:4.6875;"/><path d="M5309.1973,2468.6279 Q5306.4873,2470.0195 5303.4844,2470.6787 Q5300.4814,2471.4111 5297.1855,2471.4111 Q5285.4668,2471.4111 5279.2412,2463.7207 Q5273.0889,2455.957 5273.0889,2441.3086 Q5273.0889,2426.6602 5279.2412,2418.8965 Q5285.4668,2411.1328 5297.1855,2411.1328 Q5300.4814,2411.1328 5303.4844,2411.8652 Q5306.5605,2412.5977 5309.1973,2413.9893 L5309.1973,2426.7334 Q5306.2676,2424.0234 5303.4844,2422.7783 Q5300.7012,2421.46 5297.7715,2421.46 Q5291.4727,2421.46 5288.25,2426.5137 Q5285.0273,2431.4941 5285.0273,2441.3086 Q5285.0273,2451.123 5288.25,2456.1768 Q5291.4727,2461.1572 5297.7715,2461.1572 Q5300.7012,2461.1572 5303.4844,2459.9121 Q5306.2676,2458.5938 5309.1973,2455.8838 L5309.1973,2468.6279 Z " fill="#000000"/><text fill="#000000" font-family="sans-serif" font-size="65.625" lengthAdjust="spacing" textLength="854.8553" x="5360.9063" y="2464.9063">TwoSumTestCaseProvider</text><line style="stroke:#181818;stroke-width:2.3438;" x1="5229.6563" x2="6225.1366" y1="2517.1875" y2="2517.1875"/><line style="stroke:#181818;stroke-width:2.3438;" x1="5229.6563" x2="6225.1366" y1="2554.6875" y2="2554.6875"/></g><!--class ITestCaseProvider--><g class="entity" data-entity="ITestCaseProvider" data-source-line="29" data-uid="ent0009" id="entity_ITestCaseProvider"><rect fill="#F1F1F1" height="225" rx="11.7188" ry="11.7188" style="stroke:#181818;stroke-width:2.3438;" width="743.1244" x="3147.4688" y="2385.9375"/><ellipse cx="3217.7813" cy="2460.9375" fill="#B4A7E5" rx="51.5625" ry="51.5625" style="stroke:#181818;stroke-width:4.6875;"/><path d="M3198.665,2441.0889 L3198.665,2430.9814 L3233.3086,2430.9814 L3233.3086,2441.0889 L3221.7363,2441.0889 L3221.7363,2478.9551 L3233.3086,2478.9551 L3233.3086,2489.0625 L3198.665,2489.0625 L3198.665,2478.9551 L3210.2373,2478.9551 L3210.2373,2441.0889 L3198.665,2441.0889 Z " fill="#000000"/><text fill="#000000" font-family="sans-serif" font-size="65.625" font-style="italic" lengthAdjust="spacing" textLength="593.1244" x="3283.4063" y="2483.6563">ITestCaseProvider</text><line style="stroke:#181818;stroke-width:2.3438;" x1="3152.1563" x2="3885.9056" y1="2535.9375" y2="2535.9375"/><line style="stroke:#181818;stroke-width:2.3438;" x1="3152.1563" x2="3885.9056" y1="2573.4375" y2="2573.4375"/></g><!--class TwoSumSortedTestCaseProvider--><g class="entity" data-entity="TwoSumSortedTestCaseProvider" data-source-line="30" data-uid="ent0011" id="entity_TwoSumSortedTestCaseProvider"><rect fill="#F1F1F1" height="225" rx="11.7188" ry="11.7188" style="stroke:#181818;stroke-width:2.3438;" width="1221.405" x="5116.6875" y="2756.25"/><ellipse cx="5187" cy="2831.25" fill="#ADD1B2" rx="51.5625" ry="51.5625" style="stroke:#181818;stroke-width:4.6875;"/><path d="M5200.916,2857.6904 Q5198.2061,2859.082 5195.2031,2859.7412 Q5192.2002,2860.4736 5188.9043,2860.4736 Q5177.1855,2860.4736 5170.96,2852.7832 Q5164.8076,2845.0195 5164.8076,2830.3711 Q5164.8076,2815.7227 5170.96,2807.959 Q5177.1855,2800.1953 5188.9043,2800.1953 Q5192.2002,2800.1953 5195.2031,2800.9277 Q5198.2793,2801.6602 5200.916,2803.0518 L5200.916,2815.7959 Q5197.9863,2813.0859 5195.2031,2811.8408 Q5192.4199,2810.5225 5189.4902,2810.5225 Q5183.1914,2810.5225 5179.9688,2815.5762 Q5176.7461,2820.5566 5176.7461,2830.3711 Q5176.7461,2840.1855 5179.9688,2845.2393 Q5183.1914,2850.2197 5189.4902,2850.2197 Q5192.4199,2850.2197 5195.2031,2848.9746 Q5197.9863,2847.6563 5200.916,2844.9463 L5200.916,2857.6904 Z " fill="#000000"/><text fill="#000000" font-family="sans-serif" font-size="65.625" lengthAdjust="spacing" textLength="1071.405" x="5252.625" y="2853.9688">TwoSumSortedTestCaseProvider</text><line style="stroke:#181818;stroke-width:2.3438;" x1="5121.375" x2="6333.405" y1="2906.25" y2="2906.25"/><line style="stroke:#181818;stroke-width:2.3438;" x1="5121.375" x2="6333.405" y1="2943.75" y2="2943.75"/></g><!--class ThreeSumTestCaseProvider--><g class="entity" data-entity="ThreeSumTestCaseProvider" data-source-line="31" data-uid="ent0013" id="entity_ThreeSumTestCaseProvider"><rect fill="#F1F1F1" height="225" rx="11.7188" ry="11.7188" style="stroke:#181818;stroke-width:2.3438;" width="1060.3546" x="5197.2188" y="3145.3125"/><ellipse cx="5267.5313" cy="3220.3125" fill="#ADD1B2" rx="51.5625" ry="51.5625" style="stroke:#181818;stroke-width:4.6875;"/><path d="M5281.4473,3246.7529 Q5278.7373,3248.1445 5275.7344,3248.8037 Q5272.7314,3249.5361 5269.4355,3249.5361 Q5257.7168,3249.5361 5251.4912,3241.8457 Q5245.3389,3234.082 5245.3389,3219.4336 Q5245.3389,3204.7852 5251.4912,3197.0215 Q5257.7168,3189.2578 5269.4355,3189.2578 Q5272.7314,3189.2578 5275.7344,3189.9902 Q5278.8105,3190.7227 5281.4473,3192.1143 L5281.4473,3204.8584 Q5278.5176,3202.1484 5275.7344,3200.9033 Q5272.9512,3199.585 5270.0215,3199.585 Q5263.7227,3199.585 5260.5,3204.6387 Q5257.2773,3209.6191 5257.2773,3219.4336 Q5257.2773,3229.248 5260.5,3234.3018 Q5263.7227,3239.2822 5270.0215,3239.2822 Q5272.9512,3239.2822 5275.7344,3238.0371 Q5278.5176,3236.7188 5281.4473,3234.0088 L5281.4473,3246.7529 Z " fill="#000000"/><text fill="#000000" font-family="sans-serif" font-size="65.625" lengthAdjust="spacing" textLength="910.3546" x="5333.1563" y="3243.0313">ThreeSumTestCaseProvider</text><line style="stroke:#181818;stroke-width:2.3438;" x1="5201.9063" x2="6252.8859" y1="3295.3125" y2="3295.3125"/><line style="stroke:#181818;stroke-width:2.3438;" x1="5201.9063" x2="6252.8859" y1="3332.8125" y2="3332.8125"/></g><!--class RotatedArrayTestCaseProvider--><g class="entity" data-entity="RotatedArrayTestCaseProvider" data-source-line="32" data-uid="ent0015" id="entity_RotatedArrayTestCaseProvider"><rect fill="#F1F1F1" height="225" rx="11.7188" ry="11.7188" style="stroke:#181818;stroke-width:2.3438;" width="1161.1313" x="5146.8281" y="3534.375"/><ellipse cx="5217.1406" cy="3609.375" fill="#ADD1B2" rx="51.5625" ry="51.5625" style="stroke:#181818;stroke-width:4.6875;"/><path d="M5231.0566,3635.8154 Q5228.3467,3637.207 5225.3438,3637.8662 Q5222.3408,3638.5986 5219.0449,3638.5986 Q5207.3262,3638.5986 5201.1006,3630.9082 Q5194.9482,3623.1445 5194.9482,3608.4961 Q5194.9482,3593.8477 5201.1006,3586.084 Q5207.3262,3578.3203 5219.0449,3578.3203 Q5222.3408,3578.3203 5225.3438,3579.0527 Q5228.4199,3579.7852 5231.0566,3581.1768 L5231.0566,3593.9209 Q5228.127,3591.2109 5225.3438,3589.9658 Q5222.5605,3588.6475 5219.6309,3588.6475 Q5213.332,3588.6475 5210.1094,3593.7012 Q5206.8867,3598.6816 5206.8867,3608.4961 Q5206.8867,3618.3105 5210.1094,3623.3643 Q5213.332,3628.3447 5219.6309,3628.3447 Q5222.5605,3628.3447 5225.3438,3627.0996 Q5228.127,3625.7813 5231.0566,3623.0713 L5231.0566,3635.8154 Z " fill="#000000"/><text fill="#000000" font-family="sans-serif" font-size="65.625" lengthAdjust="spacing" textLength="1011.1313" x="5282.7656" y="3632.0938">RotatedArrayTestCaseProvider</text><line style="stroke:#181818;stroke-width:2.3438;" x1="5151.5156" x2="6303.2719" y1="3684.375" y2="3684.375"/><line style="stroke:#181818;stroke-width:2.3438;" x1="5151.5156" x2="6303.2719" y1="3721.875" y2="3721.875"/></g><!--class RemoveElementTestCaseProvider--><g class="entity" data-entity="RemoveElementTestCaseProvider" data-source-line="33" data-uid="ent0017" id="entity_RemoveElementTestCaseProvider"><rect fill="#F1F1F1" height="225" rx="11.7188" ry="11.7188" style="stroke:#181818;stroke-width:2.3438;" width="1264.7278" x="5095.0313" y="3923.4375"/><ellipse cx="5165.3438" cy="3998.4375" fill="#ADD1B2" rx="51.5625" ry="51.5625" style="stroke:#181818;stroke-width:4.6875;"/><path d="M5179.2598,4024.8779 Q5176.5498,4026.2695 5173.5469,4026.9287 Q5170.5439,4027.6611 5167.248,4027.6611 Q5155.5293,4027.6611 5149.3037,4019.9707 Q5143.1514,4012.207 5143.1514,3997.5586 Q5143.1514,3982.9102 5149.3037,3975.1465 Q5155.5293,3967.3828 5167.248,3967.3828 Q5170.5439,3967.3828 5173.5469,3968.1152 Q5176.623,3968.8477 5179.2598,3970.2393 L5179.2598,3982.9834 Q5176.3301,3980.2734 5173.5469,3979.0283 Q5170.7637,3977.71 5167.834,3977.71 Q5161.5352,3977.71 5158.3125,3982.7637 Q5155.0898,3987.7441 5155.0898,3997.5586 Q5155.0898,4007.373 5158.3125,4012.4268 Q5161.5352,4017.4072 5167.834,4017.4072 Q5170.7637,4017.4072 5173.5469,4016.1621 Q5176.3301,4014.8438 5179.2598,4012.1338 L5179.2598,4024.8779 Z " fill="#000000"/><text fill="#000000" font-family="sans-serif" font-size="65.625" lengthAdjust="spacing" textLength="1114.7278" x="5230.9688" y="4021.1563">RemoveElementTestCaseProvider</text><line style="stroke:#181818;stroke-width:2.3438;" x1="5099.7188" x2="6355.0715" y1="4073.4375" y2="4073.4375"/><line style="stroke:#181818;stroke-width:2.3438;" x1="5099.7188" x2="6355.0715" y1="4110.9375" y2="4110.9375"/></g><!--class RemoveDuplicatesSortedTestCaseProvider--><g class="entity" data-entity="RemoveDuplicatesSortedTestCaseProvider" data-source-line="34" data-uid="ent0019" id="entity_RemoveDuplicatesSortedTestCaseProvider"><rect fill="#F1F1F1" height="225" rx="11.7188" ry="11.7188" style="stroke:#181818;stroke-width:2.3438;" width="1556.4194" x="4949.2031" y="4312.5"/><ellipse cx="5019.5156" cy="4387.5" fill="#ADD1B2" rx="51.5625" ry="51.5625" style="stroke:#181818;stroke-width:4.6875;"/><path d="M5033.4316,4413.9404 Q5030.7217,4415.332 5027.7188,4415.9912 Q5024.7158,4416.7236 5021.4199,4416.7236 Q5009.7012,4416.7236 5003.4756,4409.0332 Q4997.3232,4401.2695 4997.3232,4386.6211 Q4997.3232,4371.9727 5003.4756,4364.209 Q5009.7012,4356.4453 5021.4199,4356.4453 Q5024.7158,4356.4453 5027.7188,4357.1777 Q5030.7949,4357.9102 5033.4316,4359.3018 L5033.4316,4372.0459 Q5030.502,4369.3359 5027.7188,4368.0908 Q5024.9355,4366.7725 5022.0059,4366.7725 Q5015.707,4366.7725 5012.4844,4371.8262 Q5009.2617,4376.8066 5009.2617,4386.6211 Q5009.2617,4396.4355 5012.4844,4401.4893 Q5015.707,4406.4697 5022.0059,4406.4697 Q5024.9355,4406.4697 5027.7188,4405.2246 Q5030.502,4403.9063 5033.4316,4401.1963 L5033.4316,4413.9404 Z " fill="#000000"/><text fill="#000000" font-family="sans-serif" font-size="65.625" lengthAdjust="spacing" textLength="1406.4194" x="5085.1406" y="4410.2188">RemoveDuplicatesSortedTestCaseProvider</text><line style="stroke:#181818;stroke-width:2.3438;" x1="4953.8906" x2="6500.935" y1="4462.5" y2="4462.5"/><line style="stroke:#181818;stroke-width:2.3438;" x1="4953.8906" x2="6500.935" y1="4500" y2="4500"/></g><!--class SearchInsertPositionTestCaseProvider--><g class="entity" data-entity="SearchInsertPositionTestCaseProvider" data-source-line="35" data-uid="ent0021" id="entity_SearchInsertPositionTestCaseProvider"><rect fill="#F1F1F1" height="225" rx="11.7188" ry="11.7188" style="stroke:#181818;stroke-width:2.3438;" width="1396.7468" x="5029.0312" y="32.8125"/><ellipse cx="5099.3437" cy="107.8125" fill="#ADD1B2" rx="51.5625" ry="51.5625" style="stroke:#181818;stroke-width:4.6875;"/><path d="M5113.2598,134.2529 Q5110.5498,135.6445 5107.5469,136.3037 Q5104.5439,137.0361 5101.248,137.0361 Q5089.5293,137.0361 5083.3037,129.3457 Q5077.1514,121.582 5077.1514,106.9336 Q5077.1514,92.2852 5083.3037,84.5215 Q5089.5293,76.7578 5101.248,76.7578 Q5104.5439,76.7578 5107.5469,77.4902 Q5110.623,78.2227 5113.2598,79.6143 L5113.2598,92.3584 Q5110.3301,89.6484 5107.5469,88.4033 Q5104.7637,87.085 5101.834,87.085 Q5095.5352,87.085 5092.3125,92.1387 Q5089.0898,97.1191 5089.0898,106.9336 Q5089.0898,116.748 5092.3125,121.8018 Q5095.5352,126.7822 5101.834,126.7822 Q5104.7637,126.7822 5107.5469,125.5371 Q5110.3301,124.2188 5113.2598,121.5088 L5113.2598,134.2529 Z " fill="#000000"/><text fill="#000000" font-family="sans-serif" font-size="65.625" lengthAdjust="spacing" textLength="1246.7468" x="5164.9687" y="130.5313">SearchInsertPositionTestCaseProvider</text><line style="stroke:#181818;stroke-width:2.3438;" x1="5033.7187" x2="6421.0906" y1="182.8125" y2="182.8125"/><line style="stroke:#181818;stroke-width:2.3438;" x1="5033.7187" x2="6421.0906" y1="220.3125" y2="220.3125"/></g><!--class MaxAvgSubArrayITestCaseProvider--><g class="entity" data-entity="MaxAvgSubArrayITestCaseProvider" data-source-line="36" data-uid="ent0023" id="entity_MaxAvgSubArrayITestCaseProvider"><rect fill="#F1F1F1" height="225" rx="11.7188" ry="11.7188" style="stroke:#181818;stroke-width:2.3438;" width="1306.9931" x="5073.8906" y="421.875"/><ellipse cx="5144.2031" cy="496.875" fill="#ADD1B2" rx="51.5625" ry="51.5625" style="stroke:#181818;stroke-width:4.6875;"/><path d="M5158.1191,523.3154 Q5155.4092,524.707 5152.4063,525.3662 Q5149.4033,526.0986 5146.1074,526.0986 Q5134.3887,526.0986 5128.1631,518.4082 Q5122.0107,510.6445 5122.0107,495.9961 Q5122.0107,481.3477 5128.1631,473.584 Q5134.3887,465.8203 5146.1074,465.8203 Q5149.4033,465.8203 5152.4063,466.5527 Q5155.4824,467.2852 5158.1191,468.6768 L5158.1191,481.4209 Q5155.1895,478.7109 5152.4063,477.4658 Q5149.623,476.1475 5146.6934,476.1475 Q5140.3945,476.1475 5137.1719,481.2012 Q5133.9492,486.1816 5133.9492,495.9961 Q5133.9492,505.8105 5137.1719,510.8643 Q5140.3945,515.8447 5146.6934,515.8447 Q5149.623,515.8447 5152.4063,514.5996 Q5155.1895,513.2813 5158.1191,510.5713 L5158.1191,523.3154 Z " fill="#000000"/><text fill="#000000" font-family="sans-serif" font-size="65.625" lengthAdjust="spacing" textLength="1156.9931" x="5209.8281" y="519.5938">MaxAvgSubArrayITestCaseProvider</text><line style="stroke:#181818;stroke-width:2.3438;" x1="5078.5781" x2="6376.1962" y1="571.875" y2="571.875"/><line style="stroke:#181818;stroke-width:2.3438;" x1="5078.5781" x2="6376.1962" y1="609.375" y2="609.375"/></g><!--class MaxConsecutive1sTestCaseProvider--><g class="entity" data-entity="MaxConsecutive1sTestCaseProvider" data-source-line="37" data-uid="ent0025" id="entity_MaxConsecutive1sTestCaseProvider"><rect fill="#F1F1F1" height="225" rx="11.7188" ry="11.7188" style="stroke:#181818;stroke-width:2.3438;" width="1338.3636" x="5058.1875" y="810.9375"/><ellipse cx="5128.5" cy="885.9375" fill="#ADD1B2" rx="51.5625" ry="51.5625" style="stroke:#181818;stroke-width:4.6875;"/><path d="M5142.416,912.3779 Q5139.7061,913.7695 5136.7031,914.4287 Q5133.7002,915.1611 5130.4043,915.1611 Q5118.6855,915.1611 5112.46,907.4707 Q5106.3076,899.707 5106.3076,885.0586 Q5106.3076,870.4102 5112.46,862.6465 Q5118.6855,854.8828 5130.4043,854.8828 Q5133.7002,854.8828 5136.7031,855.6152 Q5139.7793,856.3477 5142.416,857.7393 L5142.416,870.4834 Q5139.4863,867.7734 5136.7031,866.5283 Q5133.9199,865.21 5130.9902,865.21 Q5124.6914,865.21 5121.4688,870.2637 Q5118.2461,875.2441 5118.2461,885.0586 Q5118.2461,894.873 5121.4688,899.9268 Q5124.6914,904.9072 5130.9902,904.9072 Q5133.9199,904.9072 5136.7031,903.6621 Q5139.4863,902.3438 5142.416,899.6338 L5142.416,912.3779 Z " fill="#000000"/><text fill="#000000" font-family="sans-serif" font-size="65.625" lengthAdjust="spacing" textLength="1188.3636" x="5194.125" y="908.6563">MaxConsecutive1sTestCaseProvider</text><line style="stroke:#181818;stroke-width:2.3438;" x1="5062.875" x2="6391.8636" y1="960.9375" y2="960.9375"/><line style="stroke:#181818;stroke-width:2.3438;" x1="5062.875" x2="6391.8636" y1="998.4375" y2="998.4375"/></g><!--class ContainsDuplicateITestCaseProvider--><g class="entity" data-entity="ContainsDuplicateITestCaseProvider" data-source-line="38" data-uid="ent0027" id="entity_ContainsDuplicateITestCaseProvider"><rect fill="#F1F1F1" height="225" rx="11.7188" ry="11.7188" style="stroke:#181818;stroke-width:2.3438;" width="1343.2983" x="5055.75" y="1200"/><ellipse cx="5126.0625" cy="1275" fill="#ADD1B2" rx="51.5625" ry="51.5625" style="stroke:#181818;stroke-width:4.6875;"/><path d="M5139.9785,1301.4404 Q5137.2686,1302.832 5134.2656,1303.4912 Q5131.2627,1304.2236 5127.9668,1304.2236 Q5116.248,1304.2236 5110.0225,1296.5332 Q5103.8701,1288.7695 5103.8701,1274.1211 Q5103.8701,1259.4727 5110.0225,1251.709 Q5116.248,1243.9453 5127.9668,1243.9453 Q5131.2627,1243.9453 5134.2656,1244.6777 Q5137.3418,1245.4102 5139.9785,1246.8018 L5139.9785,1259.5459 Q5137.0488,1256.8359 5134.2656,1255.5908 Q5131.4824,1254.2725 5128.5527,1254.2725 Q5122.2539,1254.2725 5119.0313,1259.3262 Q5115.8086,1264.3066 5115.8086,1274.1211 Q5115.8086,1283.9355 5119.0313,1288.9893 Q5122.2539,1293.9697 5128.5527,1293.9697 Q5131.4824,1293.9697 5134.2656,1292.7246 Q5137.0488,1291.4063 5139.9785,1288.6963 L5139.9785,1301.4404 Z " fill="#000000"/><text fill="#000000" font-family="sans-serif" font-size="65.625" lengthAdjust="spacing" textLength="1193.2983" x="5191.6875" y="1297.7188">ContainsDuplicateITestCaseProvider</text><line style="stroke:#181818;stroke-width:2.3438;" x1="5060.4375" x2="6394.3608" y1="1350" y2="1350"/><line style="stroke:#181818;stroke-width:2.3438;" x1="5060.4375" x2="6394.3608" y1="1387.5" y2="1387.5"/></g><!--class ContainsDuplicateIITestCaseProvider--><g class="entity" data-entity="ContainsDuplicateIITestCaseProvider" data-source-line="39" data-uid="ent0029" id="entity_ContainsDuplicateIITestCaseProvider"><rect fill="#F1F1F1" height="225" rx="11.7188" ry="11.7188" style="stroke:#181818;stroke-width:2.3438;" width="1362.6526" x="5046.0469" y="1589.0625"/><ellipse cx="5116.3594" cy="1664.0625" fill="#ADD1B2" rx="51.5625" ry="51.5625" style="stroke:#181818;stroke-width:4.6875;"/><path d="M5130.2754,1690.5029 Q5127.5654,1691.8945 5124.5625,1692.5537 Q5121.5596,1693.2861 5118.2637,1693.2861 Q5106.5449,1693.2861 5100.3193,1685.5957 Q5094.167,1677.832 5094.167,1663.1836 Q5094.167,1648.5352 5100.3193,1640.7715 Q5106.5449,1633.0078 5118.2637,1633.0078 Q5121.5596,1633.0078 5124.5625,1633.7402 Q5127.6387,1634.4727 5130.2754,1635.8643 L5130.2754,1648.6084 Q5127.3457,1645.8984 5124.5625,1644.6533 Q5121.7793,1643.335 5118.8496,1643.335 Q5112.5508,1643.335 5109.3281,1648.3887 Q5106.1055,1653.3691 5106.1055,1663.1836 Q5106.1055,1672.998 5109.3281,1678.0518 Q5112.5508,1683.0322 5118.8496,1683.0322 Q5121.7793,1683.0322 5124.5625,1681.7871 Q5127.3457,1680.4688 5130.2754,1677.7588 L5130.2754,1690.5029 Z " fill="#000000"/><text fill="#000000" font-family="sans-serif" font-size="65.625" lengthAdjust="spacing" textLength="1212.6526" x="5181.9844" y="1686.7813">ContainsDuplicateIITestCaseProvider</text><line style="stroke:#181818;stroke-width:2.3438;" x1="5050.7344" x2="6404.012" y1="1739.0625" y2="1739.0625"/><line style="stroke:#181818;stroke-width:2.3438;" x1="5050.7344" x2="6404.012" y1="1776.5625" y2="1776.5625"/></g><!--class LongestHarmoniousSubsequenceTestCaseProvider--><g class="entity" data-entity="LongestHarmoniousSubsequenceTestCaseProvider" data-source-line="40" data-uid="ent0031" id="entity_LongestHarmoniousSubsequenceTestCaseProvider"><rect fill="#F1F1F1" height="225" rx="11.7188" ry="11.7188" style="stroke:#181818;stroke-width:2.3438;" width="1821.5469" x="4816.5938" y="1978.125"/><ellipse cx="4886.9063" cy="2053.125" fill="#ADD1B2" rx="51.5625" ry="51.5625" style="stroke:#181818;stroke-width:4.6875;"/><path d="M4900.8223,2079.5654 Q4898.1123,2080.957 4895.1094,2081.6162 Q4892.1064,2082.3486 4888.8105,2082.3486 Q4877.0918,2082.3486 4870.8662,2074.6582 Q4864.7139,2066.8945 4864.7139,2052.2461 Q4864.7139,2037.5977 4870.8662,2029.834 Q4877.0918,2022.0703 4888.8105,2022.0703 Q4892.1064,2022.0703 4895.1094,2022.8027 Q4898.1855,2023.5352 4900.8223,2024.9268 L4900.8223,2037.6709 Q4897.8926,2034.9609 4895.1094,2033.7158 Q4892.3262,2032.3975 4889.3965,2032.3975 Q4883.0977,2032.3975 4879.875,2037.4512 Q4876.6523,2042.4316 4876.6523,2052.2461 Q4876.6523,2062.0605 4879.875,2067.1143 Q4883.0977,2072.0947 4889.3965,2072.0947 Q4892.3262,2072.0947 4895.1094,2070.8496 Q4897.8926,2069.5313 4900.8223,2066.8213 L4900.8223,2079.5654 Z " fill="#000000"/><text fill="#000000" font-family="sans-serif" font-size="65.625" lengthAdjust="spacing" textLength="1671.5469" x="4952.5313" y="2075.8438">LongestHarmoniousSubsequenceTestCaseProvider</text><line style="stroke:#181818;stroke-width:2.3438;" x1="4821.2813" x2="6633.4532" y1="2128.125" y2="2128.125"/><line style="stroke:#181818;stroke-width:2.3438;" x1="4821.2813" x2="6633.4532" y1="2165.625" y2="2165.625"/></g><!--link ProblemStrategyFactory to StrategyRegistryBuilder--><g class="link" data-entity-1="ProblemStrategyFactory" data-entity-2="StrategyRegistryBuilder" data-source-line="16" data-uid="lnk4" id="link_ProblemStrategyFactory_StrategyRegistryBuilder"><path codeLine="16" d="M2223.3281,2925 C2316.0938,2925 2381.5781,2925 2473.7344,2925" fill="none" id="ProblemStrategyFactory-to-StrategyRegistryBuilder" style="stroke:#181818;stroke-width:4.6875;"/><polygon fill="#181818" points="2501.8594,2925,2459.6719,2906.25,2478.4219,2925,2459.6719,2943.75,2501.8594,2925" style="stroke:#181818;stroke-width:4.6875;"/></g><!--link ProblemTestCaseFactory to TestCaseProviderRegistryBuilder--><g class="link" data-entity-1="ProblemTestCaseFactory" data-entity-2="TestCaseProviderRegistryBuilder" data-source-line="26" data-uid="lnk7" id="link_ProblemTestCaseFactory_TestCaseProviderRegistryBuilder"><path codeLine="26" d="M1970.4375,2071.875 C2174.8594,2071.875 2366.25,2071.875 2573.9063,2071.875" fill="none" id="ProblemTestCaseFactory-to-TestCaseProviderRegistryBuilder" style="stroke:#181818;stroke-width:4.6875;"/><polygon fill="#181818" points="2602.0313,2071.875,2559.8438,2053.125,2578.5938,2071.875,2559.8438,2090.625,2602.0313,2071.875" style="stroke:#181818;stroke-width:4.6875;"/></g><!--reverse link ITestCaseProvider to TwoSumTestCaseProvider--><g class="link" data-entity-1="ITestCaseProvider" data-entity-2="TwoSumTestCaseProvider" data-source-line="29" data-uid="lnk10" id="link_ITestCaseProvider_TwoSumTestCaseProvider"><path d="M3976.7813,2503.7813 C4342.6875,2503.7813 4818.5156,2503.7813 5223.7031,2503.7813" fill="none" id="ITestCaseProvider-backto-TwoSumTestCaseProvider" style="stroke:#181818;stroke-width:4.6875;stroke-dasharray:32.8125,32.8125;"/><polygon fill="none" points="3892.4063,2503.7813,3976.7813,2531.9063,3976.7813,2475.6563,3892.4063,2503.7813" style="stroke:#181818;stroke-width:4.6875;"/></g><!--reverse link ITestCaseProvider to TwoSumSortedTestCaseProvider--><g class="link" data-entity-1="ITestCaseProvider" data-entity-2="TwoSumSortedTestCaseProvider" data-source-line="30" data-uid="lnk12" id="link_ITestCaseProvider_TwoSumSortedTestCaseProvider"><path d="M3976.1719,2518.5469 C4463.4375,2518.5469 5170.9688,2518.5469 5170.9688,2518.5469 C5170.9688,2518.5469 5170.9688,2651.9531 5170.9688,2754.0938" fill="none" id="ITestCaseProvider-backto-TwoSumSortedTestCaseProvider" style="stroke:#181818;stroke-width:4.6875;stroke-dasharray:32.8125,32.8125;"/><polygon fill="none" points="3891.7969,2518.5469,3976.1719,2546.6719,3976.1719,2490.4219,3891.7969,2518.5469" style="stroke:#181818;stroke-width:4.6875;"/></g><!--reverse link ITestCaseProvider to ThreeSumTestCaseProvider--><g class="link" data-entity-1="ITestCaseProvider" data-entity-2="ThreeSumTestCaseProvider" data-source-line="31" data-uid="lnk14" id="link_ITestCaseProvider_ThreeSumTestCaseProvider"><path d="M3976.3594,2533.2656 C4434.6563,2533.2656 5067.8438,2533.2656 5067.8438,2533.2656 C5067.8438,2533.2656 5067.8438,3220.3125 5067.8438,3220.3125 C5067.8438,3220.3125 5120.0156,3220.3125 5195.0156,3220.3125" fill="none" id="ITestCaseProvider-backto-ThreeSumTestCaseProvider" style="stroke:#181818;stroke-width:4.6875;stroke-dasharray:32.8125,32.8125;"/><polygon fill="none" points="3891.9844,2533.2656,3976.3594,2561.3906,3976.3594,2505.1406,3891.9844,2533.2656" style="stroke:#181818;stroke-width:4.6875;"/></g><!--reverse link ITestCaseProvider to RotatedArrayTestCaseProvider--><g class="link" data-entity-1="ITestCaseProvider" data-entity-2="RotatedArrayTestCaseProvider" data-source-line="32" data-uid="lnk16" id="link_ITestCaseProvider_RotatedArrayTestCaseProvider"><path d="M3976.2188,2547.9844 C4425.0938,2547.9844 5035.0313,2547.9844 5035.0313,2547.9844 C5035.0313,2547.9844 5035.0313,3609.375 5035.0313,3609.375 C5035.0313,3609.375 5079,3609.375 5144.7656,3609.375" fill="none" id="ITestCaseProvider-backto-RotatedArrayTestCaseProvider" style="stroke:#181818;stroke-width:4.6875;stroke-dasharray:32.8125,32.8125;"/><polygon fill="none" points="3891.8438,2547.9844,3976.2188,2576.1094,3976.2188,2519.8594,3891.8438,2547.9844" style="stroke:#181818;stroke-width:4.6875;"/></g><!--reverse link ITestCaseProvider to RemoveElementTestCaseProvider--><g class="link" data-entity-1="ITestCaseProvider" data-entity-2="RemoveElementTestCaseProvider" data-source-line="33" data-uid="lnk18" id="link_ITestCaseProvider_RemoveElementTestCaseProvider"><path d="M3976.9219,2562.7031 C4417.6875,2562.7031 5006.9063,2562.7031 5006.9063,2562.7031 C5006.9063,2562.7031 5006.9063,3998.4375 5006.9063,3998.4375 C5006.9063,3998.4375 5040.7969,3998.4375 5093.8125,3998.4375" fill="none" id="ITestCaseProvider-backto-RemoveElementTestCaseProvider" style="stroke:#181818;stroke-width:4.6875;stroke-dasharray:32.8125,32.8125;"/><polygon fill="none" points="3892.5469,2562.7031,3976.9219,2590.8281,3976.9219,2534.5781,3892.5469,2562.7031" style="stroke:#181818;stroke-width:4.6875;"/></g><!--reverse link ITestCaseProvider to RemoveDuplicatesSortedTestCaseProvider--><g class="link" data-entity-1="ITestCaseProvider" data-entity-2="RemoveDuplicatesSortedTestCaseProvider" data-source-line="34" data-uid="lnk20" id="link_ITestCaseProvider_RemoveDuplicatesSortedTestCaseProvider"><path d="M3975.5156,2577.4688 C4408.0313,2577.4688 4978.7813,2577.4688 4978.7813,2577.4688 C4978.7813,2577.4688 4978.7813,3908.0156 4978.7813,4310.8125" fill="none" id="ITestCaseProvider-backto-RemoveDuplicatesSortedTestCaseProvider" style="stroke:#181818;stroke-width:4.6875;stroke-dasharray:32.8125,32.8125;"/><polygon fill="none" points="3891.1406,2577.4688,3975.5156,2605.5938,3975.5156,2549.3438,3891.1406,2577.4688" style="stroke:#181818;stroke-width:4.6875;"/></g><!--reverse link ITestCaseProvider to SearchInsertPositionTestCaseProvider--><g class="link" data-entity-1="ITestCaseProvider" data-entity-2="SearchInsertPositionTestCaseProvider" data-source-line="35" data-uid="lnk22" id="link_ITestCaseProvider_SearchInsertPositionTestCaseProvider"><path d="M3977.25,2459.5781 C4279.5938,2459.5781 4570.9688,2459.5781 4570.9688,2459.5781 C4570.9688,2459.5781 4570.9688,182.8125 4570.9688,182.8125 C4570.9688,182.8125 4784.4844,182.8125 5028,182.8125" fill="none" id="ITestCaseProvider-backto-SearchInsertPositionTestCaseProvider" style="stroke:#181818;stroke-width:4.6875;stroke-dasharray:32.8125,32.8125;"/><polygon fill="none" points="3892.875,2459.5781,3977.25,2487.7031,3977.25,2431.4531,3892.875,2459.5781" style="stroke:#181818;stroke-width:4.6875;"/></g><!--reverse link ITestCaseProvider to MaxAvgSubArrayITestCaseProvider--><g class="link" data-entity-1="ITestCaseProvider" data-entity-2="MaxAvgSubArrayITestCaseProvider" data-source-line="36" data-uid="lnk24" id="link_ITestCaseProvider_MaxAvgSubArrayITestCaseProvider"><path d="M3977.1094,2474.3438 C4303.5469,2474.3438 4641.2813,2474.3438 4641.2813,2474.3438 C4641.2813,2474.3438 4641.2813,571.875 4641.2813,571.875 C4641.2813,571.875 4842.75,571.875 5072.1094,571.875" fill="none" id="ITestCaseProvider-backto-MaxAvgSubArrayITestCaseProvider" style="stroke:#181818;stroke-width:4.6875;stroke-dasharray:32.8125,32.8125;"/><polygon fill="none" points="3892.7344,2474.3438,3977.1094,2502.4688,3977.1094,2446.2188,3892.7344,2474.3438" style="stroke:#181818;stroke-width:4.6875;"/></g><!--reverse link ITestCaseProvider to MaxConsecutive1sTestCaseProvider--><g class="link" data-entity-1="ITestCaseProvider" data-entity-2="MaxConsecutive1sTestCaseProvider" data-source-line="37" data-uid="lnk26" id="link_ITestCaseProvider_MaxConsecutive1sTestCaseProvider"><path d="M3976.0313,2415.4219 C4238.3438,2415.4219 4458.4688,2415.4219 4458.4688,2415.4219 C4458.4688,2415.4219 4458.4688,960.9375 4458.4688,960.9375 C4458.4688,960.9375 4752.6094,960.9375 5057.625,960.9375" fill="none" id="ITestCaseProvider-backto-MaxConsecutive1sTestCaseProvider" style="stroke:#181818;stroke-width:4.6875;stroke-dasharray:32.8125,32.8125;"/><polygon fill="none" points="3891.6563,2415.4219,3976.0313,2443.5469,3976.0313,2387.2969,3891.6563,2415.4219" style="stroke:#181818;stroke-width:4.6875;"/></g><!--reverse link ITestCaseProvider to ContainsDuplicateITestCaseProvider--><g class="link" data-entity-1="ITestCaseProvider" data-entity-2="ContainsDuplicateITestCaseProvider" data-source-line="38" data-uid="lnk28" id="link_ITestCaseProvider_ContainsDuplicateITestCaseProvider"><path d="M3976.125,2430.1406 C4248.6563,2430.1406 4486.5938,2430.1406 4486.5938,2430.1406 C4486.5938,2430.1406 4486.5938,1350 4486.5938,1350 C4486.5938,1350 4762.6406,1350 5054.3438,1350" fill="none" id="ITestCaseProvider-backto-ContainsDuplicateITestCaseProvider" style="stroke:#181818;stroke-width:4.6875;stroke-dasharray:32.8125,32.8125;"/><polygon fill="none" points="3891.75,2430.1406,3976.125,2458.2656,3976.125,2402.0156,3891.75,2430.1406" style="stroke:#181818;stroke-width:4.6875;"/></g><!--reverse link ITestCaseProvider to ContainsDuplicateIITestCaseProvider--><g class="link" data-entity-1="ITestCaseProvider" data-entity-2="ContainsDuplicateIITestCaseProvider" data-source-line="39" data-uid="lnk30" id="link_ITestCaseProvider_ContainsDuplicateIITestCaseProvider"><path d="M3976.6406,2444.8594 C4257.5625,2444.8594 4510.0313,2444.8594 4510.0313,2444.8594 C4510.0313,2444.8594 4510.0313,1701.5625 4510.0313,1701.5625 C4510.0313,1701.5625 4766.4844,1701.5625 5043.9844,1701.5625" fill="none" id="ITestCaseProvider-backto-ContainsDuplicateIITestCaseProvider" style="stroke:#181818;stroke-width:4.6875;stroke-dasharray:32.8125,32.8125;"/><polygon fill="none" points="3892.2656,2444.8594,3976.6406,2472.9844,3976.6406,2416.7344,3892.2656,2444.8594" style="stroke:#181818;stroke-width:4.6875;"/></g><!--reverse link ITestCaseProvider to LongestHarmoniousSubsequenceTestCaseProvider--><g class="link" data-entity-1="ITestCaseProvider" data-entity-2="LongestHarmoniousSubsequenceTestCaseProvider" data-source-line="40" data-uid="lnk32" id="link_ITestCaseProvider_LongestHarmoniousSubsequenceTestCaseProvider"><path d="M3976.6875,2489.0625 C4381.125,2489.0625 4885.0313,2489.0625 4885.0313,2489.0625 C4885.0313,2489.0625 4885.0313,2321.5313 4885.0313,2203.7344" fill="none" id="ITestCaseProvider-backto-LongestHarmoniousSubsequenceTestCaseProvider" style="stroke:#181818;stroke-width:4.6875;stroke-dasharray:32.8125,32.8125;"/><polygon fill="none" points="3892.3125,2489.0625,3976.6875,2517.1875,3976.6875,2460.9375,3892.3125,2489.0625" style="stroke:#181818;stroke-width:4.6875;"/></g><!--link TestCaseProviderRegistryBuilder to TwoSumTestCaseProvider--><g class="link" data-entity-1="TestCaseProviderRegistryBuilder" data-entity-2="TwoSumTestCaseProvider" data-source-line="42" data-uid="lnk33" id="link_TestCaseProviderRegistryBuilder_TwoSumTestCaseProvider"><path codeLine="42" d="M4163.1563,2224.7344 C4163.1563,2310.5625 4163.1563,2400.6563 4163.1563,2400.6563 C4163.1563,2400.6563 4738.4531,2400.6563 5195.7188,2400.6563" fill="none" id="TestCaseProviderRegistryBuilder-to-TwoSumTestCaseProvider" style="stroke:#181818;stroke-width:4.6875;"/><polygon fill="#181818" points="5223.8438,2400.6563,5181.6563,2381.9063,5200.4063,2400.6563,5181.6563,2419.4063,5223.8438,2400.6563" style="stroke:#181818;stroke-width:4.6875;"/></g><!--link TestCaseProviderRegistryBuilder to TwoSumSortedTestCaseProvider--><g class="link" data-entity-1="TestCaseProviderRegistryBuilder" data-entity-2="TwoSumSortedTestCaseProvider" data-source-line="43" data-uid="lnk34" id="link_TestCaseProviderRegistryBuilder_TwoSumSortedTestCaseProvider"><path codeLine="43" d="M4435.1719,2042.3906 C4631.8594,2042.3906 4781.9063,2042.3906 4781.9063,2042.3906 C4781.9063,2042.3906 4781.9063,2877.7969 4781.9063,2877.7969 C4781.9063,2877.7969 4905.375,2877.7969 5087.1094,2877.7969" fill="none" id="TestCaseProviderRegistryBuilder-to-TwoSumSortedTestCaseProvider" style="stroke:#181818;stroke-width:4.6875;"/><polygon fill="#181818" points="5115.2344,2877.7969,5073.0469,2859.0469,5091.7969,2877.7969,5073.0469,2896.5469,5115.2344,2877.7969" style="stroke:#181818;stroke-width:4.6875;"/></g><!--link TestCaseProviderRegistryBuilder to ThreeSumTestCaseProvider--><g class="link" data-entity-1="TestCaseProviderRegistryBuilder" data-entity-2="ThreeSumTestCaseProvider" data-source-line="44" data-uid="lnk35" id="link_TestCaseProviderRegistryBuilder_ThreeSumTestCaseProvider"><path codeLine="44" d="M4435.2188,2074.5469 C4612.5,2074.5469 4744.4063,2074.5469 4744.4063,2074.5469 C4744.4063,2074.5469 4744.4063,3295.3125 4744.4063,3295.3125 C4744.4063,3295.3125 4935.8906,3295.3125 5167.5,3295.3125" fill="none" id="TestCaseProviderRegistryBuilder-to-ThreeSumTestCaseProvider" style="stroke:#181818;stroke-width:4.6875;"/><polygon fill="#181818" points="5195.625,3295.3125,5153.4375,3276.5625,5172.1875,3295.3125,5153.4375,3314.0625,5195.625,3295.3125" style="stroke:#181818;stroke-width:4.6875;"/></g><!--link TestCaseProviderRegistryBuilder to RotatedArrayTestCaseProvider--><g class="link" data-entity-1="TestCaseProviderRegistryBuilder" data-entity-2="RotatedArrayTestCaseProvider" data-source-line="45" data-uid="lnk36" id="link_TestCaseProviderRegistryBuilder_RotatedArrayTestCaseProvider"><path codeLine="45" d="M4434.9844,2106.7031 C4595.1563,2106.7031 4711.5938,2106.7031 4711.5938,2106.7031 C4711.5938,2106.7031 4711.5938,3684.375 4711.5938,3684.375 C4711.5938,3684.375 4890.2344,3684.375 5117.2031,3684.375" fill="none" id="TestCaseProviderRegistryBuilder-to-RotatedArrayTestCaseProvider" style="stroke:#181818;stroke-width:4.6875;"/><polygon fill="#181818" points="5145.3281,3684.375,5103.1406,3665.625,5121.8906,3684.375,5103.1406,3703.125,5145.3281,3684.375" style="stroke:#181818;stroke-width:4.6875;"/></g><!--link TestCaseProviderRegistryBuilder to RemoveElementTestCaseProvider--><g class="link" data-entity-1="TestCaseProviderRegistryBuilder" data-entity-2="RemoveElementTestCaseProvider" data-source-line="46" data-uid="lnk37" id="link_TestCaseProviderRegistryBuilder_RemoveElementTestCaseProvider"><path codeLine="46" d="M4436.1563,2138.8594 C4575.6094,2138.8594 4674.0938,2138.8594 4674.0938,2138.8594 C4674.0938,2138.8594 4674.0938,4073.4375 4674.0938,4073.4375 C4674.0938,4073.4375 4842.2344,4073.4375 5065.3125,4073.4375" fill="none" id="TestCaseProviderRegistryBuilder-to-RemoveElementTestCaseProvider" style="stroke:#181818;stroke-width:4.6875;"/><polygon fill="#181818" points="5093.4375,4073.4375,5051.25,4054.6875,5070,4073.4375,5051.25,4092.1875,5093.4375,4073.4375" style="stroke:#181818;stroke-width:4.6875;"/></g><!--link TestCaseProviderRegistryBuilder to RemoveDuplicatesSortedTestCaseProvider--><g class="link" data-entity-1="TestCaseProviderRegistryBuilder" data-entity-2="RemoveDuplicatesSortedTestCaseProvider" data-source-line="47" data-uid="lnk38" id="link_TestCaseProviderRegistryBuilder_RemoveDuplicatesSortedTestCaseProvider"><path codeLine="47" d="M4435.5,2170.9688 C4536.5156,2170.9688 4603.7813,2170.9688 4603.7813,2170.9688 C4603.7813,2170.9688 4603.7813,4425 4603.7813,4425 C4603.7813,4425 4727.1563,4425 4918.875,4425" fill="none" id="TestCaseProviderRegistryBuilder-to-RemoveDuplicatesSortedTestCaseProvider" style="stroke:#181818;stroke-width:4.6875;"/><polygon fill="#181818" points="4947,4425,4904.8125,4406.25,4923.5625,4425,4904.8125,4443.75,4947,4425" style="stroke:#181818;stroke-width:4.6875;"/></g><!--link TestCaseProviderRegistryBuilder to SearchInsertPositionTestCaseProvider--><g class="link" data-entity-1="TestCaseProviderRegistryBuilder" data-entity-2="SearchInsertPositionTestCaseProvider" data-source-line="48" data-uid="lnk39" id="link_TestCaseProviderRegistryBuilder_SearchInsertPositionTestCaseProvider"><path codeLine="48" d="M2967.8438,1919.3906 C2967.8438,1457.9063 2967.8438,107.8125 2967.8438,107.8125 C2967.8438,107.8125 4181.8125,107.8125 4999.3594,107.8125" fill="none" id="TestCaseProviderRegistryBuilder-to-SearchInsertPositionTestCaseProvider" style="stroke:#181818;stroke-width:4.6875;"/><polygon fill="#181818" points="5027.4844,107.8125,4985.2969,89.0625,5004.0469,107.8125,4985.2969,126.5625,5027.4844,107.8125" style="stroke:#181818;stroke-width:4.6875;"/></g><!--link TestCaseProviderRegistryBuilder to MaxAvgSubArrayITestCaseProvider--><g class="link" data-entity-1="TestCaseProviderRegistryBuilder" data-entity-2="MaxAvgSubArrayITestCaseProvider" data-source-line="49" data-uid="lnk40" id="link_TestCaseProviderRegistryBuilder_MaxAvgSubArrayITestCaseProvider"><path codeLine="49" d="M3338.1563,1919.4375 C3338.1563,1524.1406 3338.1563,496.875 3338.1563,496.875 C3338.1563,496.875 4337.4844,496.875 5044.8281,496.875" fill="none" id="TestCaseProviderRegistryBuilder-to-MaxAvgSubArrayITestCaseProvider" style="stroke:#181818;stroke-width:4.6875;"/><polygon fill="#181818" points="5072.9531,496.875,5030.7656,478.125,5049.5156,496.875,5030.7656,515.625,5072.9531,496.875" style="stroke:#181818;stroke-width:4.6875;"/></g><!--link TestCaseProviderRegistryBuilder to MaxConsecutive1sTestCaseProvider--><g class="link" data-entity-1="TestCaseProviderRegistryBuilder" data-entity-2="MaxConsecutive1sTestCaseProvider" data-source-line="50" data-uid="lnk41" id="link_TestCaseProviderRegistryBuilder_MaxConsecutive1sTestCaseProvider"><path codeLine="50" d="M3703.7813,1919.25 C3703.7813,1598.9531 3703.7813,885.9375 3703.7813,885.9375 C3703.7813,885.9375 4439.2031,885.9375 5028.2344,885.9375" fill="none" id="TestCaseProviderRegistryBuilder-to-MaxConsecutive1sTestCaseProvider" style="stroke:#181818;stroke-width:4.6875;"/><polygon fill="#181818" points="5056.3594,885.9375,5014.1719,867.1875,5032.9219,885.9375,5014.1719,904.6875,5056.3594,885.9375" style="stroke:#181818;stroke-width:4.6875;"/></g><!--link TestCaseProviderRegistryBuilder to ContainsDuplicateITestCaseProvider--><g class="link" data-entity-1="TestCaseProviderRegistryBuilder" data-entity-2="ContainsDuplicateITestCaseProvider" data-source-line="51" data-uid="lnk42" id="link_TestCaseProviderRegistryBuilder_ContainsDuplicateITestCaseProvider"><path codeLine="51" d="M4069.4063,1920.0938 C4069.4063,1688.9062 4069.4063,1275 4069.4063,1275 C4069.4063,1275 4566.7969,1275 5026.0781,1275" fill="none" id="TestCaseProviderRegistryBuilder-to-ContainsDuplicateITestCaseProvider" style="stroke:#181818;stroke-width:4.6875;"/><polygon fill="#181818" points="5054.2031,1275,5012.0156,1256.25,5030.7656,1275,5012.0156,1293.75,5054.2031,1275" style="stroke:#181818;stroke-width:4.6875;"/></g><!--link TestCaseProviderRegistryBuilder to ContainsDuplicateIITestCaseProvider--><g class="link" data-entity-1="TestCaseProviderRegistryBuilder" data-entity-2="ContainsDuplicateIITestCaseProvider" data-source-line="52" data-uid="lnk43" id="link_TestCaseProviderRegistryBuilder_ContainsDuplicateIITestCaseProvider"><path codeLine="52" d="M4435.3594,1949.6719 C5042.9063,1949.6719 5728.7813,1949.6719 5728.7813,1949.6719 C5728.7813,1949.6719 5728.7813,1908.7969 5728.7813,1843.5469" fill="none" id="TestCaseProviderRegistryBuilder-to-ContainsDuplicateIITestCaseProvider" style="stroke:#181818;stroke-width:4.6875;"/><polygon fill="#181818" points="5728.7813,1815.4219,5710.0313,1857.6094,5728.7813,1838.8594,5747.5313,1857.6094,5728.7813,1815.4219" style="stroke:#181818;stroke-width:4.6875;"/></g><!--link TestCaseProviderRegistryBuilder to LongestHarmoniousSubsequenceTestCaseProvider--><g class="link" data-entity-1="TestCaseProviderRegistryBuilder" data-entity-2="LongestHarmoniousSubsequenceTestCaseProvider" data-source-line="53" data-uid="lnk44" id="link_TestCaseProviderRegistryBuilder_LongestHarmoniousSubsequenceTestCaseProvider"><path codeLine="53" d="M4434.7969,2010.2813 C4560.4688,2010.2813 4661.3906,2010.2813 4787.0625,2010.2813" fill="none" id="TestCaseProviderRegistryBuilder-to-LongestHarmoniousSubsequenceTestCaseProvider" style="stroke:#181818;stroke-width:4.6875;"/><polygon fill="#181818" points="4815.1875,2010.2813,4773,1991.5313,4791.75,2010.2813,4773,2029.0313,4815.1875,2010.2813" style="stroke:#181818;stroke-width:4.6875;"/></g><!--SRC=[hPFBRjim44Nt_0hkcg9DuQ3efeW3k7cq0b8WYFm3j3IH1g58bJDqgXRzzr9sP0X-IIQYvJpE7LtmqZEQMZbLoKmheXcpmuLdI39hKlm3SY9eCqAbokqBca8-AKtGwsWqm4qDqZekRQ-HroW_JoP2mnDBjj9XKRBCqK76Q8sWJ6cG5v- -2F5EJgTJcR9J34KZxrJ6rZLjKQnkam_EBZHKtKGty5V8y7sGtu5VMmXqLg-7v-6ezrzbScjy1Kw5qcMonRaI_ru5kifZG12xvfj7dOFRAAphu6PQdmNe3Qx-GRdcCam7MpxA-z3V5MWLn87hpy-l3kbsbio1M5uhWiEUj2Fjn1vFkjQE9LqZ89ROodKsR3VYxTZHw3knVNFhn83qhYFT8FKycR_Or5VRA8bL7LJ1CEtvz_vc6Xunv57xfGE8r7wq71v1FdDEDL7xKDabtAx7uW4tljQOXKieteOKbClAn10uVh24xRE8uVnKlsVB8lMBbIb99EBQXaCopxY42ufX100hDBIn9daRIXJctfeYT7ueLrc3rbEmX-2N1vF1QJmnbFDL8FTcwOJL_Qze7E10caOj7ulJEC2nF9r060hKADIOH8q23KHgBEDefaP1XaCLYOdZd18hyHy0]--></g></svg>