<svg xmlns="http://www.w3.org/2000/svg" xmlns:xlink="http://www.w3.org/1999/xlink" contentStyleType="text/css" data-diagram-type="CLASS" height="4115.625px" preserveAspectRatio="none" style="width:6562px;height:4115px;background:#FFFFFF;" version="1.1" viewBox="0 0 6562 4115" width="6562.5px" zoomAndPan="magnify"><defs/><g><!--class ProblemTest--><g class="entity" data-entity="ProblemTest" data-source-line="9" data-uid="ent0002" id="entity_ProblemTest"><rect fill="#F1F1F1" height="530.5664" rx="11.7188" ry="11.7188" style="stroke:#181818;stroke-width:2.3438;" width="2089.151" x="258.1406" y="2052.4219"/><ellipse cx="845.0188" cy="2127.4219" fill="#ADD1B2" rx="51.5625" ry="51.5625" style="stroke:#181818;stroke-width:4.6875;"/><path d="M858.9348,2153.8623 Q856.2249,2155.2539 853.222,2155.9131 Q850.219,2156.6455 846.9231,2156.6455 Q835.2044,2156.6455 828.9788,2148.9551 Q822.8264,2141.1914 822.8264,2126.543 Q822.8264,2111.8945 828.9788,2104.1309 Q835.2044,2096.3672 846.9231,2096.3672 Q850.219,2096.3672 853.222,2097.0996 Q856.2981,2097.832 858.9348,2099.2236 L858.9348,2111.9678 Q856.0052,2109.2578 853.222,2108.0127 Q850.4388,2106.6943 847.5091,2106.6943 Q841.2102,2106.6943 837.9876,2111.748 Q834.7649,2116.7285 834.7649,2126.543 Q834.7649,2136.3574 837.9876,2141.4111 Q841.2102,2146.3916 847.5091,2146.3916 Q850.4388,2146.3916 853.222,2145.1465 Q856.0052,2143.8281 858.9348,2141.1182 L858.9348,2153.8623 Z " fill="#000000"/><text fill="#000000" font-family="sans-serif" font-size="65.625" lengthAdjust="spacing" textLength="411.2778" x="941.1126" y="2150.1407">ProblemTest</text><rect fill="#FFFFFF" height="74.8535" style="stroke:#181818;stroke-width:4.6875;stroke-dasharray:9.375,9.375;" width="454.8981" x="1906.4561" y="2038.3594"/><text fill="#000000" font-family="sans-serif" font-size="56.25" font-style="italic" lengthAdjust="spacing" textLength="445.5231" x="1911.1436" y="2095.2594">TInput, TOutput</text><line style="stroke:#181818;stroke-width:2.3438;" x1="262.8281" x2="2342.6041" y1="2202.4219" y2="2202.4219"/><text fill="#000000" font-family="sans-serif" font-size="65.625" lengthAdjust="spacing" textLength="455.2414" x="286.2656" y="2282.0865">-_solver: Func</text><text fill="#000000" font-family="sans-serif" font-size="65.625" lengthAdjust="spacing" textLength="572.8409" x="286.2656" y="2358.4781">-_comparer: Func</text><text fill="#000000" font-family="sans-serif" font-size="65.625" lengthAdjust="spacing" textLength="754.4312" x="286.2656" y="2434.8697">-_problemName: string</text><line style="stroke:#181818;stroke-width:2.3438;" x1="262.8281" x2="2342.6041" y1="2469.0967" y2="2469.0967"/><text fill="#000000" font-family="sans-serif" font-size="65.625" lengthAdjust="spacing" textLength="2032.901" x="286.2656" y="2548.7613">+RunTests(testCases: List&lt;TestCase&gt;): BenchmarkSummary</text></g><g class="entity" data-entity="GMN3" data-source-line="16" data-uid="ent0004" id="entity_GMN3"><path d="M2853.8906,1040.0625 L2853.8906,1157.8726 L5335.7342,1157.8726 L5335.7342,1086.9375 L5288.8592,1040.0625 L2853.8906,1040.0625" fill="#FEFFDD" style="stroke:#181818;stroke-width:2.3438;"/><path d="M5288.8592,1040.0625 L5288.8592,1086.9375 L5335.7342,1086.9375 L5288.8592,1040.0625" fill="#FEFFDD" style="stroke:#181818;stroke-width:4.6875;"/><text fill="#000000" font-family="sans-serif" font-size="60.9375" lengthAdjust="spacing" textLength="2383.4061" x="2882.0156" y="1120.0636">Executes test cases with optional validation and returns benchmark summary</text></g><!--class TestCase--><g class="entity" data-entity="TestCase" data-source-line="19" data-uid="ent0006" id="entity_TestCase"><rect fill="#F1F1F1" height="530.5664" rx="11.7188" ry="11.7188" style="stroke:#181818;stroke-width:2.3438;" width="811.3861" x="3689.1563" y="1321.1719"/><ellipse cx="3924.4353" cy="1396.1719" fill="#ADD1B2" rx="51.5625" ry="51.5625" style="stroke:#181818;stroke-width:4.6875;"/><path d="M3938.3513,1422.6123 Q3935.6414,1424.0039 3932.6385,1424.6631 Q3929.6355,1425.3955 3926.3396,1425.3955 Q3914.6209,1425.3955 3908.3953,1417.7051 Q3902.243,1409.9414 3902.243,1395.293 Q3902.243,1380.6445 3908.3953,1372.8809 Q3914.6209,1365.1172 3926.3396,1365.1172 Q3929.6355,1365.1172 3932.6385,1365.8496 Q3935.7146,1366.582 3938.3513,1367.9736 L3938.3513,1380.7178 Q3935.4217,1378.0078 3932.6385,1376.7627 Q3929.8553,1375.4443 3926.9256,1375.4443 Q3920.6267,1375.4443 3917.4041,1380.498 Q3914.1814,1385.4785 3914.1814,1395.293 Q3914.1814,1405.1074 3917.4041,1410.1611 Q3920.6267,1415.1416 3926.9256,1415.1416 Q3929.8553,1415.1416 3932.6385,1413.8965 Q3935.4217,1412.5781 3938.3513,1409.8682 L3938.3513,1422.6123 Z " fill="#000000"/><text fill="#000000" font-family="sans-serif" font-size="65.625" lengthAdjust="spacing" textLength="300.9842" x="4020.5291" y="1418.8907">TestCase</text><line style="stroke:#181818;stroke-width:2.3438;" x1="3693.8438" x2="4495.8549" y1="1471.1719" y2="1471.1719"/><text fill="#000000" font-family="sans-serif" font-size="65.625" lengthAdjust="spacing" textLength="446.5897" x="3717.2813" y="1550.8365">-Input: TInput</text><text fill="#000000" font-family="sans-serif" font-size="65.625" lengthAdjust="spacing" textLength="640.8691" x="3717.2813" y="1627.2281">-Expected: TOutput</text><text fill="#000000" font-family="sans-serif" font-size="65.625" lengthAdjust="spacing" textLength="707.4234" x="3717.2813" y="1703.6197">-ValidateBySum: bool</text><text fill="#000000" font-family="sans-serif" font-size="65.625" lengthAdjust="spacing" textLength="755.1361" x="3717.2813" y="1780.0113">-ValidateByCount: bool</text><line style="stroke:#181818;stroke-width:2.3438;" x1="3693.8438" x2="4495.8549" y1="1814.2383" y2="1814.2383"/></g><!--class TestResult--><g class="entity" data-entity="TestResult" data-source-line="26" data-uid="ent0007" id="entity_TestResult"><rect fill="#F1F1F1" height="606.958" rx="11.7188" ry="11.7188" style="stroke:#181818;stroke-width:2.3438;" width="721.4401" x="3734.1094" y="2014.2188"/><ellipse cx="3905.8243" cy="2089.2188" fill="#ADD1B2" rx="51.5625" ry="51.5625" style="stroke:#181818;stroke-width:4.6875;"/><path d="M3919.7403,2115.6592 Q3917.0304,2117.0508 3914.0274,2117.71 Q3911.0245,2118.4424 3907.7286,2118.4424 Q3896.0099,2118.4424 3889.7843,2110.752 Q3883.6319,2102.9883 3883.6319,2088.3398 Q3883.6319,2073.6914 3889.7843,2065.9277 Q3896.0099,2058.1641 3907.7286,2058.1641 Q3911.0245,2058.1641 3914.0274,2058.8965 Q3917.1036,2059.6289 3919.7403,2061.0205 L3919.7403,2073.7646 Q3916.8106,2071.0547 3914.0274,2069.8096 Q3911.2442,2068.4912 3908.3145,2068.4912 Q3902.0157,2068.4912 3898.7931,2073.5449 Q3895.5704,2078.5254 3895.5704,2088.3398 Q3895.5704,2098.1543 3898.7931,2103.208 Q3902.0157,2108.1885 3908.3145,2108.1885 Q3911.2442,2108.1885 3914.0274,2106.9434 Q3916.8106,2105.625 3919.7403,2102.915 L3919.7403,2115.6592 Z " fill="#000000"/><text fill="#000000" font-family="sans-serif" font-size="65.625" lengthAdjust="spacing" textLength="346.1014" x="3993.9832" y="2111.9376">TestResult</text><line style="stroke:#181818;stroke-width:2.3438;" x1="3738.7969" x2="4450.862" y1="2164.2188" y2="2164.2188"/><text fill="#000000" font-family="sans-serif" font-size="65.625" lengthAdjust="spacing" textLength="408.5541" x="3762.2344" y="2243.8834">-IsPass: bool</text><text fill="#000000" font-family="sans-serif" font-size="65.625" lengthAdjust="spacing" textLength="446.5897" x="3762.2344" y="2320.275">-Input: TInput</text><text fill="#000000" font-family="sans-serif" font-size="65.625" lengthAdjust="spacing" textLength="640.8691" x="3762.2344" y="2396.6666">-Expected: TOutput</text><text fill="#000000" font-family="sans-serif" font-size="65.625" lengthAdjust="spacing" textLength="541.4383" x="3762.2344" y="2473.0582">-Actual: TOutput</text><text fill="#000000" font-family="sans-serif" font-size="65.625" lengthAdjust="spacing" textLength="665.1901" x="3762.2344" y="2549.4498">-TimeMicros: double</text><line style="stroke:#181818;stroke-width:2.3438;" x1="3738.7969" x2="4450.862" y1="2583.6768" y2="2583.6768"/></g><!--class IBenchmarkSummary--><g class="entity" data-entity="IBenchmarkSummary" data-source-line="35" data-uid="ent0008" id="entity_IBenchmarkSummary"><rect fill="#F1F1F1" height="683.3496" rx="11.7188" ry="11.7188" style="stroke:#181818;stroke-width:2.3438;" width="917.1616" x="5616.9844" y="2786.9531"/><ellipse cx="5712.8957" cy="2861.9531" fill="#B4A7E5" rx="51.5625" ry="51.5625" style="stroke:#181818;stroke-width:4.6875;"/><path d="M5693.7795,2842.1045 L5693.7795,2831.9971 L5728.423,2831.9971 L5728.423,2842.1045 L5716.8508,2842.1045 L5716.8508,2879.9707 L5728.423,2879.9707 L5728.423,2890.0781 L5693.7795,2890.0781 L5693.7795,2879.9707 L5705.3518,2879.9707 L5705.3518,2842.1045 L5693.7795,2842.1045 Z " fill="#000000"/><text fill="#000000" font-family="sans-serif" font-size="65.625" font-style="italic" lengthAdjust="spacing" textLength="710.2753" x="5784.2093" y="2884.6719">IBenchmarkSummary</text><line style="stroke:#181818;stroke-width:2.3438;" x1="5621.6719" x2="6529.4584" y1="2936.9531" y2="2936.9531"/><text fill="#000000" font-family="sans-serif" font-size="65.625" lengthAdjust="spacing" textLength="750.8423" x="5645.1094" y="3016.6177">+ProblemName: string</text><text fill="#000000" font-family="sans-serif" font-size="65.625" lengthAdjust="spacing" textLength="761.1282" x="5645.1094" y="3093.0093">+StrategyName: string</text><text fill="#000000" font-family="sans-serif" font-size="65.625" lengthAdjust="spacing" textLength="413.7131" x="5645.1094" y="3169.4009">+Passed: int</text><text fill="#000000" font-family="sans-serif" font-size="65.625" lengthAdjust="spacing" textLength="347.9279" x="5645.1094" y="3245.7925">+Total: int</text><text fill="#000000" font-family="sans-serif" font-size="65.625" lengthAdjust="spacing" textLength="821.8826" x="5645.1094" y="3322.1841">+AvgTimeMicros: double</text><text fill="#000000" font-family="sans-serif" font-size="65.625" lengthAdjust="spacing" textLength="860.9116" x="5645.1094" y="3398.5757">+TotalTimeMicros: double</text><line style="stroke:#181818;stroke-width:2.3438;" x1="5621.6719" x2="6529.4584" y1="3432.8027" y2="3432.8027"/></g><!--class BenchmarkSummary--><g class="entity" data-entity="BenchmarkSummary" data-source-line="44" data-uid="ent0009" id="entity_BenchmarkSummary"><rect fill="#F1F1F1" height="683.3496" rx="11.7188" ry="11.7188" style="stroke:#181818;stroke-width:2.3438;" width="917.1616" x="3636.2344" y="2786.9531"/><ellipse cx="3740.8551" cy="2861.9531" fill="#ADD1B2" rx="51.5625" ry="51.5625" style="stroke:#181818;stroke-width:4.6875;"/><path d="M3754.7711,2888.3936 Q3752.0612,2889.7852 3749.0582,2890.4443 Q3746.0553,2891.1768 3742.7594,2891.1768 Q3731.0407,2891.1768 3724.8151,2883.4863 Q3718.6627,2875.7227 3718.6627,2861.0742 Q3718.6627,2846.4258 3724.8151,2838.6621 Q3731.0407,2830.8984 3742.7594,2830.8984 Q3746.0553,2830.8984 3749.0582,2831.6309 Q3752.1344,2832.3633 3754.7711,2833.7549 L3754.7711,2846.499 Q3751.8414,2843.7891 3749.0582,2842.5439 Q3746.275,2841.2256 3743.3454,2841.2256 Q3737.0465,2841.2256 3733.8239,2846.2793 Q3730.6012,2851.2598 3730.6012,2861.0742 Q3730.6012,2870.8887 3733.8239,2875.9424 Q3737.0465,2880.9229 3743.3454,2880.9229 Q3746.275,2880.9229 3749.0582,2879.6777 Q3751.8414,2878.3594 3754.7711,2875.6494 L3754.7711,2888.3936 Z " fill="#000000"/><text fill="#000000" font-family="sans-serif" font-size="65.625" lengthAdjust="spacing" textLength="690.921" x="3814.1042" y="2884.6719">BenchmarkSummary</text><line style="stroke:#181818;stroke-width:2.3438;" x1="3640.9219" x2="4548.7084" y1="2936.9531" y2="2936.9531"/><text fill="#000000" font-family="sans-serif" font-size="65.625" lengthAdjust="spacing" textLength="750.8423" x="3664.3594" y="3016.6177">+ProblemName: string</text><text fill="#000000" font-family="sans-serif" font-size="65.625" lengthAdjust="spacing" textLength="761.1282" x="3664.3594" y="3093.0093">+StrategyName: string</text><text fill="#000000" font-family="sans-serif" font-size="65.625" lengthAdjust="spacing" textLength="413.7131" x="3664.3594" y="3169.4009">+Passed: int</text><text fill="#000000" font-family="sans-serif" font-size="65.625" lengthAdjust="spacing" textLength="347.9279" x="3664.3594" y="3245.7925">+Total: int</text><text fill="#000000" font-family="sans-serif" font-size="65.625" lengthAdjust="spacing" textLength="821.8826" x="3664.3594" y="3322.1841">+AvgTimeMicros: double</text><text fill="#000000" font-family="sans-serif" font-size="65.625" lengthAdjust="spacing" textLength="860.9116" x="3664.3594" y="3398.5757">+TotalTimeMicros: double</text><line style="stroke:#181818;stroke-width:2.3438;" x1="3640.9219" x2="4548.7084" y1="3432.8027" y2="3432.8027"/></g><!--class StrategyBenchmark--><g class="entity" data-entity="StrategyBenchmark" data-source-line="53" data-uid="ent0011" id="entity_StrategyBenchmark"><rect fill="#F1F1F1" height="301.3916" rx="11.7188" ry="11.7188" style="stroke:#181818;stroke-width:2.3438;" width="2539.8422" x="32.8125" y="362.3437"/><ellipse cx="723.1911" cy="437.3437" fill="#ADD1B2" rx="51.5625" ry="51.5625" style="stroke:#181818;stroke-width:4.6875;"/><path d="M737.1071,463.7842 Q734.3971,465.1758 731.3942,465.835 Q728.3913,466.5674 725.0954,466.5674 Q713.3766,466.5674 707.151,458.877 Q700.9987,451.1133 700.9987,436.4648 Q700.9987,421.8164 707.151,414.0527 Q713.3766,406.2891 725.0954,406.2891 Q728.3913,406.2891 731.3942,407.0215 Q734.4704,407.7539 737.1071,409.1455 L737.1071,421.8896 Q734.1774,419.1797 731.3942,417.9346 Q728.611,416.6162 725.6813,416.6162 Q719.3825,416.6162 716.1598,421.6699 Q712.9372,426.6504 712.9372,436.4648 Q712.9372,446.2793 716.1598,451.333 Q719.3825,456.3135 725.6813,456.3135 Q728.611,456.3135 731.3942,455.0684 Q734.1774,453.75 737.1071,451.04 L737.1071,463.7842 Z " fill="#000000"/><text fill="#000000" font-family="sans-serif" font-size="65.625" lengthAdjust="spacing" textLength="654.9683" x="819.2848" y="460.0626">StrategyBenchmark</text><rect fill="#FFFFFF" height="74.8535" style="stroke:#181818;stroke-width:4.6875;stroke-dasharray:9.375,9.375;" width="454.8981" x="2131.8192" y="348.2812"/><text fill="#000000" font-family="sans-serif" font-size="56.25" font-style="italic" lengthAdjust="spacing" textLength="445.5231" x="2136.5067" y="405.1813">TInput, TOutput</text><line style="stroke:#181818;stroke-width:2.3438;" x1="37.5" x2="2567.9672" y1="512.3437" y2="512.3437"/><line style="stroke:#181818;stroke-width:2.3438;" x1="37.5" x2="2567.9672" y1="549.8437" y2="549.8437"/><text fill="#000000" font-family="sans-serif" font-size="65.625" lengthAdjust="spacing" textLength="2483.5922" x="60.9375" y="629.5084">+Run(strategies, testCases, comparer, iterations): List&lt;BenchmarkResult&gt;</text></g><!--class BenchmarkResult--><g class="entity" data-entity="BenchmarkResult" data-source-line="57" data-uid="ent0012" id="entity_BenchmarkResult"><rect fill="#F1F1F1" height="454.1748" rx="11.7188" ry="11.7188" style="stroke:#181818;stroke-width:2.3438;" width="918.251" x="3635.7188" y="32.8125"/><ellipse cx="3790.9666" cy="107.8125" fill="#ADD1B2" rx="51.5625" ry="51.5625" style="stroke:#181818;stroke-width:4.6875;"/><path d="M3804.8826,134.2529 Q3802.1726,135.6445 3799.1697,136.3037 Q3796.1667,137.0361 3792.8708,137.0361 Q3781.1521,137.0361 3774.9265,129.3457 Q3768.7742,121.582 3768.7742,106.9336 Q3768.7742,92.2852 3774.9265,84.5215 Q3781.1521,76.7578 3792.8708,76.7578 Q3796.1667,76.7578 3799.1697,77.4902 Q3802.2458,78.2227 3804.8826,79.6143 L3804.8826,92.3584 Q3801.9529,89.6484 3799.1697,88.4033 Q3796.3865,87.085 3793.4568,87.085 Q3787.158,87.085 3783.9353,92.1387 Q3780.7126,97.1191 3780.7126,106.9336 Q3780.7126,116.748 3783.9353,121.8018 Q3787.158,126.7822 3793.4568,126.7822 Q3796.3865,126.7822 3799.1697,125.5371 Q3801.9529,124.2188 3804.8826,121.5088 L3804.8826,134.2529 Z " fill="#000000"/><text fill="#000000" font-family="sans-serif" font-size="65.625" lengthAdjust="spacing" textLength="579.5059" x="3875.4661" y="130.5313">BenchmarkResult</text><line style="stroke:#181818;stroke-width:2.3438;" x1="3640.4063" x2="4549.2823" y1="182.8125" y2="182.8125"/><text fill="#000000" font-family="sans-serif" font-size="65.625" lengthAdjust="spacing" textLength="729.8218" x="3663.8438" y="262.4771">-StrategyName: string</text><text fill="#000000" font-family="sans-serif" font-size="65.625" lengthAdjust="spacing" textLength="862.001" x="3663.8438" y="338.8687">-AvgMicroseconds: double</text><text fill="#000000" font-family="sans-serif" font-size="65.625" lengthAdjust="spacing" textLength="502.5055" x="3663.8438" y="415.2603">-IsCorrect: bool</text><line style="stroke:#181818;stroke-width:2.3438;" x1="3640.4063" x2="4549.2823" y1="449.4873" y2="449.4873"/></g><!--class ComparerResolver--><g class="entity" data-entity="ComparerResolver" data-source-line="64" data-uid="ent0013" id="entity_ComparerResolver"><rect fill="#F1F1F1" height="301.3916" rx="11.7188" ry="11.7188" style="stroke:#181818;stroke-width:2.3438;" width="2109.1141" x="3040.2656" y="3671.7188"/><ellipse cx="3769.4786" cy="3746.7188" fill="#ADD1B2" rx="51.5625" ry="51.5625" style="stroke:#181818;stroke-width:4.6875;"/><path d="M3783.3946,3773.1592 Q3780.6846,3774.5508 3777.6817,3775.21 Q3774.6788,3775.9424 3771.3829,3775.9424 Q3759.6641,3775.9424 3753.4385,3768.252 Q3747.2862,3760.4883 3747.2862,3745.8398 Q3747.2862,3731.1914 3753.4385,3723.4277 Q3759.6641,3715.6641 3771.3829,3715.6641 Q3774.6788,3715.6641 3777.6817,3716.3965 Q3780.7579,3717.1289 3783.3946,3718.5205 L3783.3946,3731.2646 Q3780.4649,3728.5547 3777.6817,3727.3096 Q3774.8985,3725.9912 3771.9688,3725.9912 Q3765.67,3725.9912 3762.4473,3731.0449 Q3759.2247,3736.0254 3759.2247,3745.8398 Q3759.2247,3755.6543 3762.4473,3760.708 Q3765.67,3765.6885 3771.9688,3765.6885 Q3774.8985,3765.6885 3777.6817,3764.4434 Q3780.4649,3763.125 3783.3946,3760.415 L3783.3946,3773.1592 Z " fill="#000000"/><text fill="#000000" font-family="sans-serif" font-size="65.625" lengthAdjust="spacing" textLength="610.8444" x="3865.5723" y="3769.4376">ComparerResolver</text><line style="stroke:#181818;stroke-width:2.3438;" x1="3044.9531" x2="5144.6922" y1="3821.7188" y2="3821.7188"/><line style="stroke:#181818;stroke-width:2.3438;" x1="3044.9531" x2="5144.6922" y1="3859.2188" y2="3859.2188"/><text fill="#000000" font-family="sans-serif" font-size="65.625" lengthAdjust="spacing" textLength="2052.8641" x="3068.3906" y="3938.8834">+GetComparer(problemType): Func&lt;TOutput, TOutput, bool&gt;</text></g><!--class ComparerHelper--><g class="entity" data-entity="ComparerHelper" data-source-line="68" data-uid="ent0014" id="entity_ComparerHelper"><rect fill="#F1F1F1" height="454.1748" rx="11.7188" ry="11.7188" style="stroke:#181818;stroke-width:2.3438;" width="698.8495" x="5726.1563" y="3632.8125"/><ellipse cx="5799.0684" cy="3707.8125" fill="#ADD1B2" rx="51.5625" ry="51.5625" style="stroke:#181818;stroke-width:4.6875;"/><path d="M5812.9844,3734.2529 Q5810.2744,3735.6445 5807.2715,3736.3037 Q5804.2686,3737.0361 5800.9727,3737.0361 Q5789.2539,3737.0361 5783.0284,3729.3457 Q5776.876,3721.582 5776.876,3706.9336 Q5776.876,3692.2852 5783.0284,3684.5215 Q5789.2539,3676.7578 5800.9727,3676.7578 Q5804.2686,3676.7578 5807.2715,3677.4902 Q5810.3477,3678.2227 5812.9844,3679.6143 L5812.9844,3692.3584 Q5810.0547,3689.6484 5807.2715,3688.4033 Q5804.4883,3687.085 5801.5586,3687.085 Q5795.2598,3687.085 5792.0371,3692.1387 Q5788.8145,3697.1191 5788.8145,3706.9336 Q5788.8145,3716.748 5792.0371,3721.8018 Q5795.2598,3726.7822 5801.5586,3726.7822 Q5804.4883,3726.7822 5807.2715,3725.5371 Q5810.0547,3724.2188 5812.9844,3721.5088 L5812.9844,3734.2529 Z " fill="#000000"/><text fill="#000000" font-family="sans-serif" font-size="65.625" lengthAdjust="spacing" textLength="543.0725" x="5865.2711" y="3730.5313">ComparerHelper</text><line style="stroke:#181818;stroke-width:2.3438;" x1="5730.8438" x2="6420.3182" y1="3782.8125" y2="3782.8125"/><line style="stroke:#181818;stroke-width:2.3438;" x1="5730.8438" x2="6420.3182" y1="3820.3125" y2="3820.3125"/><text fill="#000000" font-family="sans-serif" font-size="65.625" lengthAdjust="spacing" textLength="501.4481" x="5754.2813" y="3899.9771">+ArraysEqual()</text><text fill="#000000" font-family="sans-serif" font-size="65.625" lengthAdjust="spacing" textLength="642.5995" x="5754.2813" y="3976.3687">+TripletSetsEqual()</text><text fill="#000000" font-family="sans-serif" font-size="65.625" lengthAdjust="spacing" textLength="606.7749" x="5754.2813" y="4052.7603">+ValidateBySum()</text></g><!--class IProblemStrategy--><g class="entity" data-entity="IProblemStrategy" data-source-line="83" data-uid="ent0022" id="entity_IProblemStrategy"><rect fill="#F1F1F1" height="225" rx="11.7188" ry="11.7188" style="stroke:#181818;stroke-width:2.3438;" width="721.431" x="3734.1094" y="648.9375"/><ellipse cx="3804.4219" cy="723.9375" fill="#ADD1B2" rx="51.5625" ry="51.5625" style="stroke:#181818;stroke-width:4.6875;"/><path d="M3818.3379,750.3779 Q3815.6279,751.7695 3812.625,752.4287 Q3809.6221,753.1611 3806.3262,753.1611 Q3794.6074,753.1611 3788.3818,745.4707 Q3782.2295,737.707 3782.2295,723.0586 Q3782.2295,708.4102 3788.3818,700.6465 Q3794.6074,692.8828 3806.3262,692.8828 Q3809.6221,692.8828 3812.625,693.6152 Q3815.7012,694.3477 3818.3379,695.7393 L3818.3379,708.4834 Q3815.4082,705.7734 3812.625,704.5283 Q3809.8418,703.21 3806.9121,703.21 Q3800.6133,703.21 3797.3906,708.2637 Q3794.168,713.2441 3794.168,723.0586 Q3794.168,732.873 3797.3906,737.9268 Q3800.6133,742.9072 3806.9121,742.9072 Q3809.8418,742.9072 3812.625,741.6621 Q3815.4082,740.3437 3818.3379,737.6338 L3818.3379,750.3779 Z " fill="#000000"/><text fill="#000000" font-family="sans-serif" font-size="65.625" lengthAdjust="spacing" textLength="571.431" x="3870.0469" y="746.6563">IProblemStrategy</text><line style="stroke:#181818;stroke-width:2.3438;" x1="3738.7969" x2="4450.8528" y1="798.9375" y2="798.9375"/><line style="stroke:#181818;stroke-width:2.3438;" x1="3738.7969" x2="4450.8528" y1="836.4375" y2="836.4375"/></g><!--link ProblemTest to GMN3--><g class="link" data-entity-1="ProblemTest" data-entity-2="GMN3" data-source-line="16" data-uid="lnk5" id="link_ProblemTest_GMN3"><path d="M2349.5156,2140.875 C2674.0313,2140.875 2948.2031,2140.875 2948.2031,2140.875 C2948.2031,2140.875 2948.2031,1381.8281 2948.2031,1159.5" fill="none" id="ProblemTest-GMN3" style="stroke:#181818;stroke-width:4.6875;stroke-dasharray:32.8125,32.8125;"/></g><!--reverse link IBenchmarkSummary to BenchmarkSummary--><g class="link" data-entity-1="IBenchmarkSummary" data-entity-2="BenchmarkSummary" data-source-line="45" data-uid="lnk10" id="link_IBenchmarkSummary_BenchmarkSummary"><path d="M5530.5469,3242.5313 C5211.6563,3242.5313 4873.3125,3242.5313 4554.6094,3242.5313" fill="none" id="IBenchmarkSummary-backto-BenchmarkSummary" style="stroke:#181818;stroke-width:4.6875;stroke-dasharray:32.8125,32.8125;"/><polygon fill="none" points="5614.9219,3242.5313,5530.5469,3214.4063,5530.5469,3270.6563,5614.9219,3242.5313" style="stroke:#181818;stroke-width:4.6875;"/></g><!--link BenchmarkSummary to IBenchmarkSummary--><g class="link" data-entity-1="BenchmarkSummary" data-entity-2="IBenchmarkSummary" data-source-line="78" data-uid="lnk18" id="link_BenchmarkSummary_IBenchmarkSummary"><path codeLine="78" d="M4555.5,3014.7656 C4874.3906,3014.7656 5268.9844,3014.7656 5587.6875,3014.7656" fill="none" id="BenchmarkSummary-to-IBenchmarkSummary" style="stroke:#181818;stroke-width:4.6875;"/><polygon fill="#181818" points="5615.8125,3014.7656,5573.625,2996.0156,5592.375,3014.7656,5573.625,3033.5156,5615.8125,3014.7656" style="stroke:#181818;stroke-width:4.6875;"/></g><!--link ProblemTest to TestCase--><g class="link" data-entity-1="ProblemTest" data-entity-2="TestCase" data-source-line="75" data-uid="lnk15" id="link_ProblemTest_TestCase"><path codeLine="75" d="M2349.0938,2229.2813 C2999.3438,2229.2813 3712.2656,2229.2813 3712.2656,2229.2813 C3712.2656,2229.2813 3712.2656,2058.2344 3712.2656,1881.6094" fill="none" id="ProblemTest-to-TestCase" style="stroke:#181818;stroke-width:4.6875;"/><polygon fill="#181818" points="3712.2656,1853.4844,3693.5156,1895.6719,3712.2656,1876.9219,3731.0156,1895.6719,3712.2656,1853.4844" style="stroke:#181818;stroke-width:4.6875;"/></g><!--link ProblemTest to TestResult--><g class="link" data-entity-1="ProblemTest" data-entity-2="TestResult" data-source-line="76" data-uid="lnk16" id="link_ProblemTest_TestResult"><path codeLine="76" d="M2348.3438,2317.6875 C2835.2813,2317.6875 3354.8438,2317.6875 3704.9063,2317.6875" fill="none" id="ProblemTest-to-TestResult" style="stroke:#181818;stroke-width:4.6875;"/><polygon fill="#181818" points="3733.0313,2317.6875,3690.8438,2298.9375,3709.5938,2317.6875,3690.8438,2336.4375,3733.0313,2317.6875" style="stroke:#181818;stroke-width:4.6875;"/></g><!--link ProblemTest to BenchmarkSummary--><g class="link" data-entity-1="ProblemTest" data-entity-2="BenchmarkSummary" data-source-line="77" data-uid="lnk17" id="link_ProblemTest_BenchmarkSummary"><path codeLine="77" d="M2349,2406.1406 C2979.2344,2406.1406 3660.7031,2406.1406 3660.7031,2406.1406 C3660.7031,2406.1406 3660.7031,2571.5625 3660.7031,2758.3125" fill="none" id="ProblemTest-to-BenchmarkSummary" style="stroke:#181818;stroke-width:4.6875;"/><polygon fill="#181818" points="3660.7031,2786.4375,3679.4531,2744.25,3660.7031,2763,3641.9531,2744.25,3660.7031,2786.4375" style="stroke:#181818;stroke-width:4.6875;"/></g><!--link ProblemTest to ComparerResolver--><g class="link" data-entity-1="ProblemTest" data-entity-2="ComparerResolver" data-source-line="79" data-uid="lnk19" id="link_ProblemTest_ComparerResolver"><path codeLine="79" d="M2348.2969,2494.5469 C2847.3281,2494.5469 3337.2656,2494.5469 3337.2656,2494.5469 C3337.2656,2494.5469 3337.2656,3293.1563 3337.2656,3641.9531" fill="none" id="ProblemTest-to-ComparerResolver" style="stroke:#181818;stroke-width:4.6875;"/><polygon fill="#181818" points="3337.2656,3670.0781,3356.0156,3627.8906,3337.2656,3646.6406,3318.5156,3627.8906,3337.2656,3670.0781" style="stroke:#181818;stroke-width:4.6875;"/></g><!--link ComparerResolver to ComparerHelper--><g class="link" data-entity-1="ComparerResolver" data-entity-2="ComparerHelper" data-source-line="80" data-uid="lnk20" id="link_ComparerResolver_ComparerHelper"><path codeLine="80" d="M5150.4375,3822.375 C5358.0938,3822.375 5533.7813,3822.375 5697,3822.375" fill="none" id="ComparerResolver-to-ComparerHelper" style="stroke:#181818;stroke-width:4.6875;"/><polygon fill="#181818" points="5725.125,3822.375,5682.9375,3803.625,5701.6875,3822.375,5682.9375,3841.125,5725.125,3822.375" style="stroke:#181818;stroke-width:4.6875;"/></g><!--link StrategyBenchmark to BenchmarkResult--><g class="link" data-entity-1="StrategyBenchmark" data-entity-2="BenchmarkResult" data-source-line="82" data-uid="lnk21" id="link_StrategyBenchmark_BenchmarkResult"><path codeLine="82" d="M2574.1875,424.6406 C2952.75,424.6406 3315.5156,424.6406 3606.1875,424.6406" fill="none" id="StrategyBenchmark-to-BenchmarkResult" style="stroke:#181818;stroke-width:4.6875;"/><polygon fill="#181818" points="3634.3125,424.6406,3592.125,405.8906,3610.875,424.6406,3592.125,443.3906,3634.3125,424.6406" style="stroke:#181818;stroke-width:4.6875;"/></g><!--link StrategyBenchmark to IProblemStrategy--><g class="link" data-entity-1="StrategyBenchmark" data-entity-2="IProblemStrategy" data-source-line="83" data-uid="lnk23" id="link_StrategyBenchmark_IProblemStrategy"><path codeLine="83" d="M2460.7031,664.7812 C2460.7031,719.8594 2460.7031,768.8437 2460.7031,768.8437 C2460.7031,768.8437 3222.6094,768.8437 3704.0625,768.8437" fill="none" id="StrategyBenchmark-to-IProblemStrategy" style="stroke:#181818;stroke-width:4.6875;"/><polygon fill="#181818" points="3732.1875,768.8437,3690,750.0937,3708.75,768.8437,3690,787.5937,3732.1875,768.8437" style="stroke:#181818;stroke-width:4.6875;"/></g><!--SRC=[rLJ1Rjim3BthAtXRWYP3Xs4NemsG1jqQeDkA9jXrK6Gc4IfBdYYtpOR- -oHBTftOFUou79AOJoRVUo993rANtF82XE94S-Uit5GEbyBebVoDSCweFK9xdfidgNUmvOgmWoYfqHrA16FTtdI0l9JmyVoSATmwS0QitEqTvDAYSD9eHe8hX0_lFp7s3YulBs6DvE26Mur4i30MGvJLvE3Ecet28XovM2zrMRa9hBzNpl-PmHy6_ZE5dsJK8zeCFbTQD35X2i_dD5h6VDzuWHcGLwvtDNG6zvKELMZa_FU24r86jpAKJS-pSGPNgCM-uFPXLHN-vy1Uc3OEaqQpxV9bryyelAy48IE8a1AUfDk3AOCHNC4ZLpBduG6upi6Ygwmcs3HLW58Pz6Wen98j3QVMWjgQ3A95ANRzN7hBCSyQnrByHwoALmUl8eEDCQg7B4obNS9UkbNlaIhbNklIdKUEalmBbRbm5LUdqRKiyAiKrlZ4kQcyeO53R9Rs1a9FXZwHsg7TSe6mFBsTnFAikPM1Mryvw_Nk3WDG41OO-m8fiZOka7qDp1zt0rmxXuULH3TxR6LHUfAe7VrlKfhIBUktPhKUin75un9f0ksqJQ2Ps0b8VwNrMD0u3M6REVRVRC36ayvyquvfq1gLe5zv-R7QqD9-1uLbzTh-iVKMYH_ScfqKdINL09v1lOXQiL_GDTWeRPwrNvdZk9CkaZcjIvEwO4TRy_8DghAJTcujFz3rBpywet5pHrRwxd4hT2V0qRJxQ2ld7bNqU2zBgjLqbXTCfxDsomm2qUuUrDkGlKuEfthztSjpwYdhcTmz5GrYhDU8nvmIv-5JoqIXGTbV]--></g></svg>