<svg xmlns="http://www.w3.org/2000/svg" xmlns:xlink="http://www.w3.org/1999/xlink" contentStyleType="text/css" data-diagram-type="CLASS" height="9239.0625px" preserveAspectRatio="none" style="width:4514px;height:9239px;background:#FFFFFF;" version="1.1" viewBox="0 0 4514 9239" width="4514.0625px" zoomAndPan="magnify"><defs/><g><!--class ProblemStrategyFactory--><g class="entity" data-entity="ProblemStrategyFactory" data-source-line="9" data-uid="ent0002" id="entity_ProblemStrategyFactory"><rect fill="#F1F1F1" height="1141.6992" rx="11.7188" ry="11.7188" style="stroke:#181818;stroke-width:2.3438;" width="2171.0541" x="121.5" y="6380.7188"/><ellipse cx="788.1962" cy="6455.7188" fill="#ADD1B2" rx="51.5625" ry="51.5625" style="stroke:#181818;stroke-width:4.6875;"/><path d="M802.1122,6482.1592 Q799.4022,6483.5508 796.3993,6484.21 Q793.3964,6484.9424 790.1005,6484.9424 Q778.3817,6484.9424 772.1561,6477.252 Q766.0038,6469.4883 766.0038,6454.8398 Q766.0038,6440.1914 772.1561,6432.4277 Q778.3817,6424.6641 790.1005,6424.6641 Q793.3964,6424.6641 796.3993,6425.3965 Q799.4755,6426.1289 802.1122,6427.5205 L802.1122,6440.2646 Q799.1825,6437.5547 796.3993,6436.3096 Q793.6161,6434.9912 790.6864,6434.9912 Q784.3876,6434.9912 781.1649,6440.0449 Q777.9423,6445.0254 777.9423,6454.8398 Q777.9423,6464.6543 781.1649,6469.708 Q784.3876,6474.6885 790.6864,6474.6885 Q793.6161,6474.6885 796.3993,6473.4434 Q799.1825,6472.125 802.1122,6469.415 L802.1122,6482.1592 Z " fill="#000000"/><text fill="#000000" font-family="sans-serif" font-size="65.625" lengthAdjust="spacing" textLength="797.818" x="884.2899" y="6478.4376">ProblemStrategyFactory</text><line style="stroke:#181818;stroke-width:2.3438;" x1="126.1875" x2="2287.8666" y1="6530.7188" y2="6530.7188"/><line style="stroke:#181818;stroke-width:2.3438;" x1="126.1875" x2="2287.8666" y1="6568.2188" y2="6568.2188"/><text fill="#000000" font-family="sans-serif" font-size="65.625" lengthAdjust="spacing" textLength="1298.1125" x="149.625" y="6647.8834">+GetTwoSumStrategies(): IEnumerable</text><text fill="#000000" font-family="sans-serif" font-size="65.625" lengthAdjust="spacing" textLength="1514.6622" x="149.625" y="6724.275">+GetTwoSumSortedStrategies(): IEnumerable</text><text fill="#000000" font-family="sans-serif" font-size="65.625" lengthAdjust="spacing" textLength="1353.6118" x="149.625" y="6800.6666">+GetThreeSumStrategies(): IEnumerable</text><text fill="#000000" font-family="sans-serif" font-size="65.625" lengthAdjust="spacing" textLength="1454.3884" x="149.625" y="6877.0582">+GetRotatedArrayStrategies(): IEnumerable</text><text fill="#000000" font-family="sans-serif" font-size="65.625" lengthAdjust="spacing" textLength="1557.9849" x="149.625" y="6953.4498">+GetRemoveElementStrategies(): IEnumerable</text><text fill="#000000" font-family="sans-serif" font-size="65.625" lengthAdjust="spacing" textLength="1633.1268" x="149.625" y="7029.8414">+GetRemoveDuplicatesStrategies(): IEnumerable</text><text fill="#000000" font-family="sans-serif" font-size="65.625" lengthAdjust="spacing" textLength="1690.004" x="149.625" y="7106.233">+GetSearchInsertPositionStrategies(): IEnumerable</text><text fill="#000000" font-family="sans-serif" font-size="65.625" lengthAdjust="spacing" textLength="1600.2502" x="149.625" y="7182.6246">+GetMaxAvgSubArrayIStrategies(): IEnumerable</text><text fill="#000000" font-family="sans-serif" font-size="65.625" lengthAdjust="spacing" textLength="1631.6208" x="149.625" y="7259.0162">+GetMaxConsecutive1sStrategies(): IEnumerable</text><text fill="#000000" font-family="sans-serif" font-size="65.625" lengthAdjust="spacing" textLength="1636.5555" x="149.625" y="7335.4078">+GetContainsDuplicateIStrategies(): IEnumerable</text><text fill="#000000" font-family="sans-serif" font-size="65.625" lengthAdjust="spacing" textLength="1655.9097" x="149.625" y="7411.7994">+GetContainsDuplicateIIStrategies(): IEnumerable</text><text fill="#000000" font-family="sans-serif" font-size="65.625" lengthAdjust="spacing" textLength="2114.8041" x="149.625" y="7488.191">+GetLongestHarmoniousSubsequenceStrategies(): IEnumerable</text></g><!--class TwoSumStrategies--><g class="entity" data-entity="TwoSumStrategies" data-source-line="25" data-uid="ent0003" id="entity_TwoSumStrategies"><rect fill="#F1F1F1" height="225" rx="11.7188" ry="11.7188" style="stroke:#181818;stroke-width:2.3438;" width="766.2277" x="3190.1719" y="4701.5625"/><ellipse cx="3260.4844" cy="4776.5625" fill="#ADD1B2" rx="51.5625" ry="51.5625" style="stroke:#181818;stroke-width:4.6875;"/><path d="M3274.4004,4803.0029 Q3271.6904,4804.3945 3268.6875,4805.0537 Q3265.6846,4805.7861 3262.3887,4805.7861 Q3250.6699,4805.7861 3244.4443,4798.0957 Q3238.292,4790.332 3238.292,4775.6836 Q3238.292,4761.0352 3244.4443,4753.2715 Q3250.6699,4745.5078 3262.3887,4745.5078 Q3265.6846,4745.5078 3268.6875,4746.2402 Q3271.7637,4746.9727 3274.4004,4748.3643 L3274.4004,4761.1084 Q3271.4707,4758.3984 3268.6875,4757.1533 Q3265.9043,4755.835 3262.9746,4755.835 Q3256.6758,4755.835 3253.4531,4760.8887 Q3250.2305,4765.8691 3250.2305,4775.6836 Q3250.2305,4785.498 3253.4531,4790.5518 Q3256.6758,4795.5322 3262.9746,4795.5322 Q3265.9043,4795.5322 3268.6875,4794.2871 Q3271.4707,4792.9688 3274.4004,4790.2588 L3274.4004,4803.0029 Z " fill="#000000"/><text fill="#000000" font-family="sans-serif" font-size="65.625" lengthAdjust="spacing" textLength="616.2277" x="3326.1094" y="4799.2813">TwoSumStrategies</text><line style="stroke:#181818;stroke-width:2.3438;" x1="3194.8594" x2="3951.7121" y1="4851.5625" y2="4851.5625"/><line style="stroke:#181818;stroke-width:2.3438;" x1="3194.8594" x2="3951.7121" y1="4889.0625" y2="4889.0625"/></g><!--class TwoSumSortedStrategies--><g class="entity" data-entity="TwoSumSortedStrategies" data-source-line="26" data-uid="ent0004" id="entity_TwoSumSortedStrategies"><rect fill="#F1F1F1" height="225" rx="11.7188" ry="11.7188" style="stroke:#181818;stroke-width:2.3438;" width="982.7774" x="3081.8906" y="5090.625"/><ellipse cx="3152.2031" cy="5165.625" fill="#ADD1B2" rx="51.5625" ry="51.5625" style="stroke:#181818;stroke-width:4.6875;"/><path d="M3166.1191,5192.0654 Q3163.4092,5193.457 3160.4063,5194.1162 Q3157.4033,5194.8486 3154.1074,5194.8486 Q3142.3887,5194.8486 3136.1631,5187.1582 Q3130.0107,5179.3945 3130.0107,5164.7461 Q3130.0107,5150.0977 3136.1631,5142.334 Q3142.3887,5134.5703 3154.1074,5134.5703 Q3157.4033,5134.5703 3160.4063,5135.3027 Q3163.4824,5136.0352 3166.1191,5137.4268 L3166.1191,5150.1709 Q3163.1895,5147.4609 3160.4063,5146.2158 Q3157.623,5144.8975 3154.6934,5144.8975 Q3148.3945,5144.8975 3145.1719,5149.9512 Q3141.9492,5154.9316 3141.9492,5164.7461 Q3141.9492,5174.5605 3145.1719,5179.6143 Q3148.3945,5184.5947 3154.6934,5184.5947 Q3157.623,5184.5947 3160.4063,5183.3496 Q3163.1895,5182.0313 3166.1191,5179.3213 L3166.1191,5192.0654 Z " fill="#000000"/><text fill="#000000" font-family="sans-serif" font-size="65.625" lengthAdjust="spacing" textLength="832.7774" x="3217.8281" y="5188.3438">TwoSumSortedStrategies</text><line style="stroke:#181818;stroke-width:2.3438;" x1="3086.5781" x2="4059.9805" y1="5240.625" y2="5240.625"/><line style="stroke:#181818;stroke-width:2.3438;" x1="3086.5781" x2="4059.9805" y1="5278.125" y2="5278.125"/></g><!--class ThreeSumStrategies--><g class="entity" data-entity="ThreeSumStrategies" data-source-line="27" data-uid="ent0005" id="entity_ThreeSumStrategies"><rect fill="#F1F1F1" height="225" rx="11.7188" ry="11.7188" style="stroke:#181818;stroke-width:2.3438;" width="821.727" x="3162.4219" y="5479.6875"/><ellipse cx="3232.7344" cy="5554.6875" fill="#ADD1B2" rx="51.5625" ry="51.5625" style="stroke:#181818;stroke-width:4.6875;"/><path d="M3246.6504,5581.1279 Q3243.9404,5582.5195 3240.9375,5583.1787 Q3237.9346,5583.9111 3234.6387,5583.9111 Q3222.9199,5583.9111 3216.6943,5576.2207 Q3210.542,5568.457 3210.542,5553.8086 Q3210.542,5539.1602 3216.6943,5531.3965 Q3222.9199,5523.6328 3234.6387,5523.6328 Q3237.9346,5523.6328 3240.9375,5524.3652 Q3244.0137,5525.0977 3246.6504,5526.4893 L3246.6504,5539.2334 Q3243.7207,5536.5234 3240.9375,5535.2783 Q3238.1543,5533.96 3235.2246,5533.96 Q3228.9258,5533.96 3225.7031,5539.0137 Q3222.4805,5543.9941 3222.4805,5553.8086 Q3222.4805,5563.623 3225.7031,5568.6768 Q3228.9258,5573.6572 3235.2246,5573.6572 Q3238.1543,5573.6572 3240.9375,5572.4121 Q3243.7207,5571.0938 3246.6504,5568.3838 L3246.6504,5581.1279 Z " fill="#000000"/><text fill="#000000" font-family="sans-serif" font-size="65.625" lengthAdjust="spacing" textLength="671.727" x="3298.3594" y="5577.4063">ThreeSumStrategies</text><line style="stroke:#181818;stroke-width:2.3438;" x1="3167.1094" x2="3979.4614" y1="5629.6875" y2="5629.6875"/><line style="stroke:#181818;stroke-width:2.3438;" x1="3167.1094" x2="3979.4614" y1="5667.1875" y2="5667.1875"/></g><!--class RotatedArrayStrategies--><g class="entity" data-entity="RotatedArrayStrategies" data-source-line="28" data-uid="ent0006" id="entity_RotatedArrayStrategies"><rect fill="#F1F1F1" height="225" rx="11.7188" ry="11.7188" style="stroke:#181818;stroke-width:2.3438;" width="922.5037" x="3112.0313" y="5868.75"/><ellipse cx="3182.3438" cy="5943.75" fill="#ADD1B2" rx="51.5625" ry="51.5625" style="stroke:#181818;stroke-width:4.6875;"/><path d="M3196.2598,5970.1904 Q3193.5498,5971.582 3190.5469,5972.2412 Q3187.5439,5972.9736 3184.248,5972.9736 Q3172.5293,5972.9736 3166.3037,5965.2832 Q3160.1514,5957.5195 3160.1514,5942.8711 Q3160.1514,5928.2227 3166.3037,5920.459 Q3172.5293,5912.6953 3184.248,5912.6953 Q3187.5439,5912.6953 3190.5469,5913.4277 Q3193.623,5914.1602 3196.2598,5915.5518 L3196.2598,5928.2959 Q3193.3301,5925.5859 3190.5469,5924.3408 Q3187.7637,5923.0225 3184.834,5923.0225 Q3178.5352,5923.0225 3175.3125,5928.0762 Q3172.0898,5933.0566 3172.0898,5942.8711 Q3172.0898,5952.6855 3175.3125,5957.7393 Q3178.5352,5962.7197 3184.834,5962.7197 Q3187.7637,5962.7197 3190.5469,5961.4746 Q3193.3301,5960.1563 3196.2598,5957.4463 L3196.2598,5970.1904 Z " fill="#000000"/><text fill="#000000" font-family="sans-serif" font-size="65.625" lengthAdjust="spacing" textLength="772.5037" x="3247.9688" y="5966.4688">RotatedArrayStrategies</text><line style="stroke:#181818;stroke-width:2.3438;" x1="3116.7188" x2="4029.8474" y1="6018.75" y2="6018.75"/><line style="stroke:#181818;stroke-width:2.3438;" x1="3116.7188" x2="4029.8474" y1="6056.25" y2="6056.25"/></g><!--class RemoveElementStrategies--><g class="entity" data-entity="RemoveElementStrategies" data-source-line="29" data-uid="ent0007" id="entity_RemoveElementStrategies"><rect fill="#F1F1F1" height="225" rx="11.7188" ry="11.7188" style="stroke:#181818;stroke-width:2.3438;" width="1026.1002" x="3060.2344" y="6257.8125"/><ellipse cx="3130.5469" cy="6332.8125" fill="#ADD1B2" rx="51.5625" ry="51.5625" style="stroke:#181818;stroke-width:4.6875;"/><path d="M3144.4629,6359.2529 Q3141.7529,6360.6445 3138.75,6361.3037 Q3135.7471,6362.0361 3132.4512,6362.0361 Q3120.7324,6362.0361 3114.5068,6354.3457 Q3108.3545,6346.582 3108.3545,6331.9336 Q3108.3545,6317.2852 3114.5068,6309.5215 Q3120.7324,6301.7578 3132.4512,6301.7578 Q3135.7471,6301.7578 3138.75,6302.4902 Q3141.8262,6303.2227 3144.4629,6304.6143 L3144.4629,6317.3584 Q3141.5332,6314.6484 3138.75,6313.4033 Q3135.9668,6312.085 3133.0371,6312.085 Q3126.7383,6312.085 3123.5156,6317.1387 Q3120.293,6322.1191 3120.293,6331.9336 Q3120.293,6341.748 3123.5156,6346.8018 Q3126.7383,6351.7822 3133.0371,6351.7822 Q3135.9668,6351.7822 3138.75,6350.5371 Q3141.5332,6349.2188 3144.4629,6346.5088 L3144.4629,6359.2529 Z " fill="#000000"/><text fill="#000000" font-family="sans-serif" font-size="65.625" lengthAdjust="spacing" textLength="876.1002" x="3196.1719" y="6355.5313">RemoveElementStrategies</text><line style="stroke:#181818;stroke-width:2.3438;" x1="3064.9219" x2="4081.647" y1="6407.8125" y2="6407.8125"/><line style="stroke:#181818;stroke-width:2.3438;" x1="3064.9219" x2="4081.647" y1="6445.3125" y2="6445.3125"/></g><!--class RemoveDuplicatesStrategies--><g class="entity" data-entity="RemoveDuplicatesStrategies" data-source-line="30" data-uid="ent0008" id="entity_RemoveDuplicatesStrategies"><rect fill="#F1F1F1" height="225" rx="11.7188" ry="11.7188" style="stroke:#181818;stroke-width:2.3438;" width="1101.2421" x="3022.6406" y="6646.875"/><ellipse cx="3092.9531" cy="6721.875" fill="#ADD1B2" rx="51.5625" ry="51.5625" style="stroke:#181818;stroke-width:4.6875;"/><path d="M3106.8691,6748.3154 Q3104.1592,6749.707 3101.1563,6750.3662 Q3098.1533,6751.0986 3094.8574,6751.0986 Q3083.1387,6751.0986 3076.9131,6743.4082 Q3070.7607,6735.6445 3070.7607,6720.9961 Q3070.7607,6706.3477 3076.9131,6698.584 Q3083.1387,6690.8203 3094.8574,6690.8203 Q3098.1533,6690.8203 3101.1563,6691.5527 Q3104.2324,6692.2852 3106.8691,6693.6768 L3106.8691,6706.4209 Q3103.9395,6703.7109 3101.1563,6702.4658 Q3098.373,6701.1475 3095.4434,6701.1475 Q3089.1445,6701.1475 3085.9219,6706.2012 Q3082.6992,6711.1816 3082.6992,6720.9961 Q3082.6992,6730.8105 3085.9219,6735.8643 Q3089.1445,6740.8447 3095.4434,6740.8447 Q3098.373,6740.8447 3101.1563,6739.5996 Q3103.9395,6738.2813 3106.8691,6735.5713 L3106.8691,6748.3154 Z " fill="#000000"/><text fill="#000000" font-family="sans-serif" font-size="65.625" lengthAdjust="spacing" textLength="951.2421" x="3158.5781" y="6744.5938">RemoveDuplicatesStrategies</text><line style="stroke:#181818;stroke-width:2.3438;" x1="3027.3281" x2="4119.1952" y1="6796.875" y2="6796.875"/><line style="stroke:#181818;stroke-width:2.3438;" x1="3027.3281" x2="4119.1952" y1="6834.375" y2="6834.375"/></g><!--class SearchInsertPositionStrategies--><g class="entity" data-entity="SearchInsertPositionStrategies" data-source-line="31" data-uid="ent0009" id="entity_SearchInsertPositionStrategies"><rect fill="#F1F1F1" height="225" rx="11.7188" ry="11.7188" style="stroke:#181818;stroke-width:2.3438;" width="1158.1192" x="2994.2344" y="7035.9375"/><ellipse cx="3064.5469" cy="7110.9375" fill="#ADD1B2" rx="51.5625" ry="51.5625" style="stroke:#181818;stroke-width:4.6875;"/><path d="M3078.4629,7137.3779 Q3075.7529,7138.7695 3072.75,7139.4287 Q3069.7471,7140.1611 3066.4512,7140.1611 Q3054.7324,7140.1611 3048.5068,7132.4707 Q3042.3545,7124.707 3042.3545,7110.0586 Q3042.3545,7095.4102 3048.5068,7087.6465 Q3054.7324,7079.8828 3066.4512,7079.8828 Q3069.7471,7079.8828 3072.75,7080.6152 Q3075.8262,7081.3477 3078.4629,7082.7393 L3078.4629,7095.4834 Q3075.5332,7092.7734 3072.75,7091.5283 Q3069.9668,7090.21 3067.0371,7090.21 Q3060.7383,7090.21 3057.5156,7095.2637 Q3054.293,7100.2441 3054.293,7110.0586 Q3054.293,7119.873 3057.5156,7124.9268 Q3060.7383,7129.9072 3067.0371,7129.9072 Q3069.9668,7129.9072 3072.75,7128.6621 Q3075.5332,7127.3438 3078.4629,7124.6338 L3078.4629,7137.3779 Z " fill="#000000"/><text fill="#000000" font-family="sans-serif" font-size="65.625" lengthAdjust="spacing" textLength="1008.1192" x="3130.1719" y="7133.6563">SearchInsertPositionStrategies</text><line style="stroke:#181818;stroke-width:2.3438;" x1="2998.9219" x2="4147.6661" y1="7185.9375" y2="7185.9375"/><line style="stroke:#181818;stroke-width:2.3438;" x1="2998.9219" x2="4147.6661" y1="7223.4375" y2="7223.4375"/></g><!--class MaxAvgSubArrayIStrategies--><g class="entity" data-entity="MaxAvgSubArrayIStrategies" data-source-line="32" data-uid="ent0010" id="entity_MaxAvgSubArrayIStrategies"><rect fill="#F1F1F1" height="225" rx="11.7188" ry="11.7188" style="stroke:#181818;stroke-width:2.3438;" width="1068.3655" x="3039.0938" y="7425"/><ellipse cx="3109.4063" cy="7500" fill="#ADD1B2" rx="51.5625" ry="51.5625" style="stroke:#181818;stroke-width:4.6875;"/><path d="M3123.3223,7526.4404 Q3120.6123,7527.832 3117.6094,7528.4912 Q3114.6064,7529.2236 3111.3105,7529.2236 Q3099.5918,7529.2236 3093.3662,7521.5332 Q3087.2139,7513.7695 3087.2139,7499.1211 Q3087.2139,7484.4727 3093.3662,7476.709 Q3099.5918,7468.9453 3111.3105,7468.9453 Q3114.6064,7468.9453 3117.6094,7469.6777 Q3120.6855,7470.4102 3123.3223,7471.8018 L3123.3223,7484.5459 Q3120.3926,7481.8359 3117.6094,7480.5908 Q3114.8262,7479.2725 3111.8965,7479.2725 Q3105.5977,7479.2725 3102.375,7484.3262 Q3099.1523,7489.3066 3099.1523,7499.1211 Q3099.1523,7508.9355 3102.375,7513.9893 Q3105.5977,7518.9697 3111.8965,7518.9697 Q3114.8262,7518.9697 3117.6094,7517.7246 Q3120.3926,7516.4063 3123.3223,7513.6963 L3123.3223,7526.4404 Z " fill="#000000"/><text fill="#000000" font-family="sans-serif" font-size="65.625" lengthAdjust="spacing" textLength="918.3655" x="3175.0313" y="7522.7188">MaxAvgSubArrayIStrategies</text><line style="stroke:#181818;stroke-width:2.3438;" x1="3043.7813" x2="4102.7717" y1="7575" y2="7575"/><line style="stroke:#181818;stroke-width:2.3438;" x1="3043.7813" x2="4102.7717" y1="7612.5" y2="7612.5"/></g><!--class MaxConsecutive1sStrategies--><g class="entity" data-entity="MaxConsecutive1sStrategies" data-source-line="33" data-uid="ent0011" id="entity_MaxConsecutive1sStrategies"><rect fill="#F1F1F1" height="225" rx="11.7188" ry="11.7188" style="stroke:#181818;stroke-width:2.3438;" width="1099.736" x="3023.4375" y="7814.0625"/><ellipse cx="3093.75" cy="7889.0625" fill="#ADD1B2" rx="51.5625" ry="51.5625" style="stroke:#181818;stroke-width:4.6875;"/><path d="M3107.666,7915.5029 Q3104.9561,7916.8945 3101.9531,7917.5537 Q3098.9502,7918.2861 3095.6543,7918.2861 Q3083.9355,7918.2861 3077.71,7910.5957 Q3071.5576,7902.832 3071.5576,7888.1836 Q3071.5576,7873.5352 3077.71,7865.7715 Q3083.9355,7858.0078 3095.6543,7858.0078 Q3098.9502,7858.0078 3101.9531,7858.7402 Q3105.0293,7859.4727 3107.666,7860.8643 L3107.666,7873.6084 Q3104.7363,7870.8984 3101.9531,7869.6533 Q3099.1699,7868.335 3096.2402,7868.335 Q3089.9414,7868.335 3086.7188,7873.3887 Q3083.4961,7878.3691 3083.4961,7888.1836 Q3083.4961,7897.998 3086.7188,7903.0518 Q3089.9414,7908.0322 3096.2402,7908.0322 Q3099.1699,7908.0322 3101.9531,7906.7871 Q3104.7363,7905.4688 3107.666,7902.7588 L3107.666,7915.5029 Z " fill="#000000"/><text fill="#000000" font-family="sans-serif" font-size="65.625" lengthAdjust="spacing" textLength="949.736" x="3159.375" y="7911.7813">MaxConsecutive1sStrategies</text><line style="stroke:#181818;stroke-width:2.3438;" x1="3028.125" x2="4118.486" y1="7964.0625" y2="7964.0625"/><line style="stroke:#181818;stroke-width:2.3438;" x1="3028.125" x2="4118.486" y1="8001.5625" y2="8001.5625"/></g><!--class ContainsDuplicateIStrategies--><g class="entity" data-entity="ContainsDuplicateIStrategies" data-source-line="34" data-uid="ent0012" id="entity_ContainsDuplicateIStrategies"><rect fill="#F1F1F1" height="225" rx="11.7188" ry="11.7188" style="stroke:#181818;stroke-width:2.3438;" width="1104.6707" x="3020.9531" y="8203.125"/><ellipse cx="3091.2656" cy="8278.125" fill="#ADD1B2" rx="51.5625" ry="51.5625" style="stroke:#181818;stroke-width:4.6875;"/><path d="M3105.1816,8304.5654 Q3102.4717,8305.957 3099.4688,8306.6162 Q3096.4658,8307.3486 3093.1699,8307.3486 Q3081.4512,8307.3486 3075.2256,8299.6582 Q3069.0732,8291.8945 3069.0732,8277.2461 Q3069.0732,8262.5977 3075.2256,8254.834 Q3081.4512,8247.0703 3093.1699,8247.0703 Q3096.4658,8247.0703 3099.4688,8247.8027 Q3102.5449,8248.5352 3105.1816,8249.9268 L3105.1816,8262.6709 Q3102.252,8259.9609 3099.4688,8258.7158 Q3096.6855,8257.3975 3093.7559,8257.3975 Q3087.457,8257.3975 3084.2344,8262.4512 Q3081.0117,8267.4316 3081.0117,8277.2461 Q3081.0117,8287.0605 3084.2344,8292.1143 Q3087.457,8297.0947 3093.7559,8297.0947 Q3096.6855,8297.0947 3099.4688,8295.8496 Q3102.252,8294.5313 3105.1816,8291.8213 L3105.1816,8304.5654 Z " fill="#000000"/><text fill="#000000" font-family="sans-serif" font-size="65.625" lengthAdjust="spacing" textLength="954.6707" x="3156.8906" y="8300.8438">ContainsDuplicateIStrategies</text><line style="stroke:#181818;stroke-width:2.3438;" x1="3025.6406" x2="4120.9363" y1="8353.125" y2="8353.125"/><line style="stroke:#181818;stroke-width:2.3438;" x1="3025.6406" x2="4120.9363" y1="8390.625" y2="8390.625"/></g><!--class ContainsDuplicateIIStrategies--><g class="entity" data-entity="ContainsDuplicateIIStrategies" data-source-line="35" data-uid="ent0013" id="entity_ContainsDuplicateIIStrategies"><rect fill="#F1F1F1" height="225" rx="11.7188" ry="11.7188" style="stroke:#181818;stroke-width:2.3438;" width="1124.025" x="3011.25" y="8592.1875"/><ellipse cx="3081.5625" cy="8667.1875" fill="#ADD1B2" rx="51.5625" ry="51.5625" style="stroke:#181818;stroke-width:4.6875;"/><path d="M3095.4785,8693.6279 Q3092.7686,8695.0195 3089.7656,8695.6787 Q3086.7627,8696.4111 3083.4668,8696.4111 Q3071.748,8696.4111 3065.5225,8688.7207 Q3059.3701,8680.957 3059.3701,8666.3086 Q3059.3701,8651.6602 3065.5225,8643.8965 Q3071.748,8636.1328 3083.4668,8636.1328 Q3086.7627,8636.1328 3089.7656,8636.8652 Q3092.8418,8637.5977 3095.4785,8638.9893 L3095.4785,8651.7334 Q3092.5488,8649.0234 3089.7656,8647.7783 Q3086.9824,8646.46 3084.0527,8646.46 Q3077.7539,8646.46 3074.5313,8651.5137 Q3071.3086,8656.4941 3071.3086,8666.3086 Q3071.3086,8676.123 3074.5313,8681.1768 Q3077.7539,8686.1572 3084.0527,8686.1572 Q3086.9824,8686.1572 3089.7656,8684.9121 Q3092.5488,8683.5938 3095.4785,8680.8838 L3095.4785,8693.6279 Z " fill="#000000"/><text fill="#000000" font-family="sans-serif" font-size="65.625" lengthAdjust="spacing" textLength="974.025" x="3147.1875" y="8689.9063">ContainsDuplicateIIStrategies</text><line style="stroke:#181818;stroke-width:2.3438;" x1="3015.9375" x2="4130.5875" y1="8742.1875" y2="8742.1875"/><line style="stroke:#181818;stroke-width:2.3438;" x1="3015.9375" x2="4130.5875" y1="8779.6875" y2="8779.6875"/></g><!--class LongestHarmoniousSubsequenceStrategies--><g class="entity" data-entity="LongestHarmoniousSubsequenceStrategies" data-source-line="36" data-uid="ent0014" id="entity_LongestHarmoniousSubsequenceStrategies"><rect fill="#F1F1F1" height="225" rx="11.7188" ry="11.7188" style="stroke:#181818;stroke-width:2.3438;" width="1582.9193" x="2781.8438" y="8981.25"/><ellipse cx="2852.1563" cy="9056.25" fill="#ADD1B2" rx="51.5625" ry="51.5625" style="stroke:#181818;stroke-width:4.6875;"/><path d="M2866.0723,9082.6904 Q2863.3623,9084.082 2860.3594,9084.7412 Q2857.3564,9085.4736 2854.0605,9085.4736 Q2842.3418,9085.4736 2836.1162,9077.7832 Q2829.9639,9070.0195 2829.9639,9055.3711 Q2829.9639,9040.7227 2836.1162,9032.959 Q2842.3418,9025.1953 2854.0605,9025.1953 Q2857.3564,9025.1953 2860.3594,9025.9277 Q2863.4355,9026.6602 2866.0723,9028.0518 L2866.0723,9040.7959 Q2863.1426,9038.0859 2860.3594,9036.8408 Q2857.5762,9035.5225 2854.6465,9035.5225 Q2848.3477,9035.5225 2845.125,9040.5762 Q2841.9023,9045.5566 2841.9023,9055.3711 Q2841.9023,9065.1855 2845.125,9070.2393 Q2848.3477,9075.2197 2854.6465,9075.2197 Q2857.5762,9075.2197 2860.3594,9073.9746 Q2863.1426,9072.6563 2866.0723,9069.9463 L2866.0723,9082.6904 Z " fill="#000000"/><text fill="#000000" font-family="sans-serif" font-size="65.625" lengthAdjust="spacing" textLength="1432.9193" x="2917.7813" y="9078.9688">LongestHarmoniousSubsequenceStrategies</text><line style="stroke:#181818;stroke-width:2.3438;" x1="2786.5313" x2="4360.0756" y1="9131.25" y2="9131.25"/><line style="stroke:#181818;stroke-width:2.3438;" x1="2786.5313" x2="4360.0756" y1="9168.75" y2="9168.75"/></g><!--class ProblemTestCaseFactory--><g class="entity" data-entity="ProblemTestCaseFactory" data-source-line="52" data-uid="ent0027" id="entity_ProblemTestCaseFactory"><rect fill="#F1F1F1" height="1141.6992" rx="11.7188" ry="11.7188" style="stroke:#181818;stroke-width:2.3438;" width="2348.4467" x="32.8125" y="1290.0938"/><ellipse cx="778.3035" cy="1365.0938" fill="#ADD1B2" rx="51.5625" ry="51.5625" style="stroke:#181818;stroke-width:4.6875;"/><path d="M792.2195,1391.5342 Q789.5096,1392.9258 786.5067,1393.585 Q783.5037,1394.3174 780.2078,1394.3174 Q768.4891,1394.3174 762.2635,1386.627 Q756.1111,1378.8633 756.1111,1364.2148 Q756.1111,1349.5664 762.2635,1341.8027 Q768.4891,1334.0391 780.2078,1334.0391 Q783.5037,1334.0391 786.5067,1334.7715 Q789.5828,1335.5039 792.2195,1336.8955 L792.2195,1349.6396 Q789.2899,1346.9297 786.5067,1345.6846 Q783.7234,1344.3662 780.7938,1344.3662 Q774.4949,1344.3662 771.2723,1349.4199 Q768.0496,1354.4004 768.0496,1364.2148 Q768.0496,1374.0293 771.2723,1379.083 Q774.4949,1384.0635 780.7938,1384.0635 Q783.7234,1384.0635 786.5067,1382.8184 Q789.2899,1381.5 792.2195,1378.79 L792.2195,1391.5342 Z " fill="#000000"/><text fill="#000000" font-family="sans-serif" font-size="65.625" lengthAdjust="spacing" textLength="817.6208" x="874.3973" y="1387.8126">ProblemTestCaseFactory</text><line style="stroke:#181818;stroke-width:2.3438;" x1="37.5" x2="2376.5717" y1="1440.0938" y2="1440.0938"/><line style="stroke:#181818;stroke-width:2.3438;" x1="37.5" x2="2376.5717" y1="1477.5938" y2="1477.5938"/><text fill="#000000" font-family="sans-serif" font-size="65.625" lengthAdjust="spacing" textLength="1475.5051" x="60.9375" y="1557.2584">+GetTwoSumTestCases(): ITestCaseProvider</text><text fill="#000000" font-family="sans-serif" font-size="65.625" lengthAdjust="spacing" textLength="1692.0547" x="60.9375" y="1633.65">+GetTwoSumSortedTestCases(): ITestCaseProvider</text><text fill="#000000" font-family="sans-serif" font-size="65.625" lengthAdjust="spacing" textLength="1531.0043" x="60.9375" y="1710.0416">+GetThreeSumTestCases(): ITestCaseProvider</text><text fill="#000000" font-family="sans-serif" font-size="65.625" lengthAdjust="spacing" textLength="1631.781" x="60.9375" y="1786.4332">+GetRotatedArrayTestCases(): ITestCaseProvider</text><text fill="#000000" font-family="sans-serif" font-size="65.625" lengthAdjust="spacing" textLength="1735.3775" x="60.9375" y="1862.8248">+GetRemoveElementTestCases(): ITestCaseProvider</text><text fill="#000000" font-family="sans-serif" font-size="65.625" lengthAdjust="spacing" textLength="1810.5194" x="60.9375" y="1939.2164">+GetRemoveDuplicatesTestCases(): ITestCaseProvider</text><text fill="#000000" font-family="sans-serif" font-size="65.625" lengthAdjust="spacing" textLength="1867.3965" x="60.9375" y="2015.608">+GetSearchInsertPositionTestCases(): ITestCaseProvider</text><text fill="#000000" font-family="sans-serif" font-size="65.625" lengthAdjust="spacing" textLength="1777.6428" x="60.9375" y="2091.9996">+GetMaxAvgSubArrayITestCases(): ITestCaseProvider</text><text fill="#000000" font-family="sans-serif" font-size="65.625" lengthAdjust="spacing" textLength="1809.0134" x="60.9375" y="2168.3912">+GetMaxConsecutive1sTestCases(): ITestCaseProvider</text><text fill="#000000" font-family="sans-serif" font-size="65.625" lengthAdjust="spacing" textLength="1813.9481" x="60.9375" y="2244.7828">+GetContainsDuplicateITestCases(): ITestCaseProvider</text><text fill="#000000" font-family="sans-serif" font-size="65.625" lengthAdjust="spacing" textLength="1833.3023" x="60.9375" y="2321.1744">+GetContainsDuplicateIITestCases(): ITestCaseProvider</text><text fill="#000000" font-family="sans-serif" font-size="65.625" lengthAdjust="spacing" textLength="2292.1967" x="60.9375" y="2397.566">+GetLongestHarmoniousSubsequenceTestCases(): ITestCaseProvider</text></g><!--class TwoSumTestCaseProvider--><g class="entity" data-entity="TwoSumTestCaseProvider" data-source-line="68" data-uid="ent0028" id="entity_TwoSumTestCaseProvider"><rect fill="#F1F1F1" height="225" rx="11.7188" ry="11.7188" style="stroke:#181818;stroke-width:2.3438;" width="1004.8553" x="3070.875" y="2367.1875"/><ellipse cx="3141.1875" cy="2442.1875" fill="#ADD1B2" rx="51.5625" ry="51.5625" style="stroke:#181818;stroke-width:4.6875;"/><path d="M3155.1035,2468.6279 Q3152.3936,2470.0195 3149.3906,2470.6787 Q3146.3877,2471.4111 3143.0918,2471.4111 Q3131.373,2471.4111 3125.1475,2463.7207 Q3118.9951,2455.957 3118.9951,2441.3086 Q3118.9951,2426.6602 3125.1475,2418.8965 Q3131.373,2411.1328 3143.0918,2411.1328 Q3146.3877,2411.1328 3149.3906,2411.8652 Q3152.4668,2412.5977 3155.1035,2413.9893 L3155.1035,2426.7334 Q3152.1738,2424.0234 3149.3906,2422.7783 Q3146.6074,2421.46 3143.6777,2421.46 Q3137.3789,2421.46 3134.1563,2426.5137 Q3130.9336,2431.4941 3130.9336,2441.3086 Q3130.9336,2451.123 3134.1563,2456.1768 Q3137.3789,2461.1572 3143.6777,2461.1572 Q3146.6074,2461.1572 3149.3906,2459.9121 Q3152.1738,2458.5938 3155.1035,2455.8838 L3155.1035,2468.6279 Z " fill="#000000"/><text fill="#000000" font-family="sans-serif" font-size="65.625" lengthAdjust="spacing" textLength="854.8553" x="3206.8125" y="2464.9063">TwoSumTestCaseProvider</text><line style="stroke:#181818;stroke-width:2.3438;" x1="3075.5625" x2="4071.0428" y1="2517.1875" y2="2517.1875"/><line style="stroke:#181818;stroke-width:2.3438;" x1="3075.5625" x2="4071.0428" y1="2554.6875" y2="2554.6875"/></g><!--class ITestCaseProvider--><g class="entity" data-entity="ITestCaseProvider" data-source-line="68" data-uid="ent0029" id="entity_ITestCaseProvider"><rect fill="#F1F1F1" height="225" rx="11.7188" ry="11.7188" style="stroke:#181818;stroke-width:2.3438;" width="743.1244" x="835.4531" y="2596.875"/><ellipse cx="905.7656" cy="2671.875" fill="#B4A7E5" rx="51.5625" ry="51.5625" style="stroke:#181818;stroke-width:4.6875;"/><path d="M886.6494,2652.0264 L886.6494,2641.9189 L921.293,2641.9189 L921.293,2652.0264 L909.7207,2652.0264 L909.7207,2689.8926 L921.293,2689.8926 L921.293,2700 L886.6494,2700 L886.6494,2689.8926 L898.2217,2689.8926 L898.2217,2652.0264 L886.6494,2652.0264 Z " fill="#000000"/><text fill="#000000" font-family="sans-serif" font-size="65.625" font-style="italic" lengthAdjust="spacing" textLength="593.1244" x="971.3906" y="2694.5938">ITestCaseProvider</text><line style="stroke:#181818;stroke-width:2.3438;" x1="840.1406" x2="1573.89" y1="2746.875" y2="2746.875"/><line style="stroke:#181818;stroke-width:2.3438;" x1="840.1406" x2="1573.89" y1="2784.375" y2="2784.375"/></g><!--class TwoSumSortedTestCaseProvider--><g class="entity" data-entity="TwoSumSortedTestCaseProvider" data-source-line="69" data-uid="ent0031" id="entity_TwoSumSortedTestCaseProvider"><rect fill="#F1F1F1" height="225" rx="11.7188" ry="11.7188" style="stroke:#181818;stroke-width:2.3438;" width="1221.405" x="2962.5938" y="2756.25"/><ellipse cx="3032.9063" cy="2831.25" fill="#ADD1B2" rx="51.5625" ry="51.5625" style="stroke:#181818;stroke-width:4.6875;"/><path d="M3046.8223,2857.6904 Q3044.1123,2859.082 3041.1094,2859.7412 Q3038.1064,2860.4736 3034.8105,2860.4736 Q3023.0918,2860.4736 3016.8662,2852.7832 Q3010.7139,2845.0195 3010.7139,2830.3711 Q3010.7139,2815.7227 3016.8662,2807.959 Q3023.0918,2800.1953 3034.8105,2800.1953 Q3038.1064,2800.1953 3041.1094,2800.9277 Q3044.1855,2801.6602 3046.8223,2803.0518 L3046.8223,2815.7959 Q3043.8926,2813.0859 3041.1094,2811.8408 Q3038.3262,2810.5225 3035.3965,2810.5225 Q3029.0977,2810.5225 3025.875,2815.5762 Q3022.6523,2820.5566 3022.6523,2830.3711 Q3022.6523,2840.1855 3025.875,2845.2393 Q3029.0977,2850.2197 3035.3965,2850.2197 Q3038.3262,2850.2197 3041.1094,2848.9746 Q3043.8926,2847.6563 3046.8223,2844.9463 L3046.8223,2857.6904 Z " fill="#000000"/><text fill="#000000" font-family="sans-serif" font-size="65.625" lengthAdjust="spacing" textLength="1071.405" x="3098.5313" y="2853.9688">TwoSumSortedTestCaseProvider</text><line style="stroke:#181818;stroke-width:2.3438;" x1="2967.2813" x2="4179.3113" y1="2906.25" y2="2906.25"/><line style="stroke:#181818;stroke-width:2.3438;" x1="2967.2813" x2="4179.3113" y1="2943.75" y2="2943.75"/></g><!--class ThreeSumTestCaseProvider--><g class="entity" data-entity="ThreeSumTestCaseProvider" data-source-line="70" data-uid="ent0033" id="entity_ThreeSumTestCaseProvider"><rect fill="#F1F1F1" height="225" rx="11.7188" ry="11.7188" style="stroke:#181818;stroke-width:2.3438;" width="1060.3546" x="3043.125" y="3145.3125"/><ellipse cx="3113.4375" cy="3220.3125" fill="#ADD1B2" rx="51.5625" ry="51.5625" style="stroke:#181818;stroke-width:4.6875;"/><path d="M3127.3535,3246.7529 Q3124.6436,3248.1445 3121.6406,3248.8037 Q3118.6377,3249.5361 3115.3418,3249.5361 Q3103.623,3249.5361 3097.3975,3241.8457 Q3091.2451,3234.082 3091.2451,3219.4336 Q3091.2451,3204.7852 3097.3975,3197.0215 Q3103.623,3189.2578 3115.3418,3189.2578 Q3118.6377,3189.2578 3121.6406,3189.9902 Q3124.7168,3190.7227 3127.3535,3192.1143 L3127.3535,3204.8584 Q3124.4238,3202.1484 3121.6406,3200.9033 Q3118.8574,3199.585 3115.9277,3199.585 Q3109.6289,3199.585 3106.4063,3204.6387 Q3103.1836,3209.6191 3103.1836,3219.4336 Q3103.1836,3229.248 3106.4063,3234.3018 Q3109.6289,3239.2822 3115.9277,3239.2822 Q3118.8574,3239.2822 3121.6406,3238.0371 Q3124.4238,3236.7188 3127.3535,3234.0088 L3127.3535,3246.7529 Z " fill="#000000"/><text fill="#000000" font-family="sans-serif" font-size="65.625" lengthAdjust="spacing" textLength="910.3546" x="3179.0625" y="3243.0313">ThreeSumTestCaseProvider</text><line style="stroke:#181818;stroke-width:2.3438;" x1="3047.8125" x2="4098.7921" y1="3295.3125" y2="3295.3125"/><line style="stroke:#181818;stroke-width:2.3438;" x1="3047.8125" x2="4098.7921" y1="3332.8125" y2="3332.8125"/></g><!--class RotatedArrayTestCaseProvider--><g class="entity" data-entity="RotatedArrayTestCaseProvider" data-source-line="71" data-uid="ent0035" id="entity_RotatedArrayTestCaseProvider"><rect fill="#F1F1F1" height="225" rx="11.7188" ry="11.7188" style="stroke:#181818;stroke-width:2.3438;" width="1161.1313" x="2992.7344" y="3534.375"/><ellipse cx="3063.0469" cy="3609.375" fill="#ADD1B2" rx="51.5625" ry="51.5625" style="stroke:#181818;stroke-width:4.6875;"/><path d="M3076.9629,3635.8154 Q3074.2529,3637.207 3071.25,3637.8662 Q3068.2471,3638.5986 3064.9512,3638.5986 Q3053.2324,3638.5986 3047.0068,3630.9082 Q3040.8545,3623.1445 3040.8545,3608.4961 Q3040.8545,3593.8477 3047.0068,3586.084 Q3053.2324,3578.3203 3064.9512,3578.3203 Q3068.2471,3578.3203 3071.25,3579.0527 Q3074.3262,3579.7852 3076.9629,3581.1768 L3076.9629,3593.9209 Q3074.0332,3591.2109 3071.25,3589.9658 Q3068.4668,3588.6475 3065.5371,3588.6475 Q3059.2383,3588.6475 3056.0156,3593.7012 Q3052.793,3598.6816 3052.793,3608.4961 Q3052.793,3618.3105 3056.0156,3623.3643 Q3059.2383,3628.3447 3065.5371,3628.3447 Q3068.4668,3628.3447 3071.25,3627.0996 Q3074.0332,3625.7813 3076.9629,3623.0713 L3076.9629,3635.8154 Z " fill="#000000"/><text fill="#000000" font-family="sans-serif" font-size="65.625" lengthAdjust="spacing" textLength="1011.1313" x="3128.6719" y="3632.0938">RotatedArrayTestCaseProvider</text><line style="stroke:#181818;stroke-width:2.3438;" x1="2997.4219" x2="4149.1782" y1="3684.375" y2="3684.375"/><line style="stroke:#181818;stroke-width:2.3438;" x1="2997.4219" x2="4149.1782" y1="3721.875" y2="3721.875"/></g><!--class RemoveElementTestCaseProvider--><g class="entity" data-entity="RemoveElementTestCaseProvider" data-source-line="72" data-uid="ent0037" id="entity_RemoveElementTestCaseProvider"><rect fill="#F1F1F1" height="225" rx="11.7188" ry="11.7188" style="stroke:#181818;stroke-width:2.3438;" width="1264.7278" x="2940.9375" y="3923.4375"/><ellipse cx="3011.25" cy="3998.4375" fill="#ADD1B2" rx="51.5625" ry="51.5625" style="stroke:#181818;stroke-width:4.6875;"/><path d="M3025.166,4024.8779 Q3022.4561,4026.2695 3019.4531,4026.9287 Q3016.4502,4027.6611 3013.1543,4027.6611 Q3001.4355,4027.6611 2995.21,4019.9707 Q2989.0576,4012.207 2989.0576,3997.5586 Q2989.0576,3982.9102 2995.21,3975.1465 Q3001.4355,3967.3828 3013.1543,3967.3828 Q3016.4502,3967.3828 3019.4531,3968.1152 Q3022.5293,3968.8477 3025.166,3970.2393 L3025.166,3982.9834 Q3022.2363,3980.2734 3019.4531,3979.0283 Q3016.6699,3977.71 3013.7402,3977.71 Q3007.4414,3977.71 3004.2188,3982.7637 Q3000.9961,3987.7441 3000.9961,3997.5586 Q3000.9961,4007.373 3004.2188,4012.4268 Q3007.4414,4017.4072 3013.7402,4017.4072 Q3016.6699,4017.4072 3019.4531,4016.1621 Q3022.2363,4014.8438 3025.166,4012.1338 L3025.166,4024.8779 Z " fill="#000000"/><text fill="#000000" font-family="sans-serif" font-size="65.625" lengthAdjust="spacing" textLength="1114.7278" x="3076.875" y="4021.1563">RemoveElementTestCaseProvider</text><line style="stroke:#181818;stroke-width:2.3438;" x1="2945.625" x2="4200.9778" y1="4073.4375" y2="4073.4375"/><line style="stroke:#181818;stroke-width:2.3438;" x1="2945.625" x2="4200.9778" y1="4110.9375" y2="4110.9375"/></g><!--class RemoveDuplicatesSortedTestCaseProvider--><g class="entity" data-entity="RemoveDuplicatesSortedTestCaseProvider" data-source-line="73" data-uid="ent0039" id="entity_RemoveDuplicatesSortedTestCaseProvider"><rect fill="#F1F1F1" height="225" rx="11.7188" ry="11.7188" style="stroke:#181818;stroke-width:2.3438;" width="1556.4194" x="2795.0625" y="4312.5"/><ellipse cx="2865.375" cy="4387.5" fill="#ADD1B2" rx="51.5625" ry="51.5625" style="stroke:#181818;stroke-width:4.6875;"/><path d="M2879.291,4413.9404 Q2876.5811,4415.332 2873.5781,4415.9912 Q2870.5752,4416.7236 2867.2793,4416.7236 Q2855.5605,4416.7236 2849.335,4409.0332 Q2843.1826,4401.2695 2843.1826,4386.6211 Q2843.1826,4371.9727 2849.335,4364.209 Q2855.5605,4356.4453 2867.2793,4356.4453 Q2870.5752,4356.4453 2873.5781,4357.1777 Q2876.6543,4357.9102 2879.291,4359.3018 L2879.291,4372.0459 Q2876.3613,4369.3359 2873.5781,4368.0908 Q2870.7949,4366.7725 2867.8652,4366.7725 Q2861.5664,4366.7725 2858.3438,4371.8262 Q2855.1211,4376.8066 2855.1211,4386.6211 Q2855.1211,4396.4355 2858.3438,4401.4893 Q2861.5664,4406.4697 2867.8652,4406.4697 Q2870.7949,4406.4697 2873.5781,4405.2246 Q2876.3613,4403.9063 2879.291,4401.1963 L2879.291,4413.9404 Z " fill="#000000"/><text fill="#000000" font-family="sans-serif" font-size="65.625" lengthAdjust="spacing" textLength="1406.4194" x="2931" y="4410.2188">RemoveDuplicatesSortedTestCaseProvider</text><line style="stroke:#181818;stroke-width:2.3438;" x1="2799.75" x2="4346.7944" y1="4462.5" y2="4462.5"/><line style="stroke:#181818;stroke-width:2.3438;" x1="2799.75" x2="4346.7944" y1="4500" y2="4500"/></g><!--class SearchInsertPositionTestCaseProvider--><g class="entity" data-entity="SearchInsertPositionTestCaseProvider" data-source-line="74" data-uid="ent0041" id="entity_SearchInsertPositionTestCaseProvider"><rect fill="#F1F1F1" height="225" rx="11.7188" ry="11.7188" style="stroke:#181818;stroke-width:2.3438;" width="1396.7468" x="2874.8906" y="32.8125"/><ellipse cx="2945.2031" cy="107.8125" fill="#ADD1B2" rx="51.5625" ry="51.5625" style="stroke:#181818;stroke-width:4.6875;"/><path d="M2959.1191,134.2529 Q2956.4092,135.6445 2953.4062,136.3037 Q2950.4033,137.0361 2947.1074,137.0361 Q2935.3887,137.0361 2929.1631,129.3457 Q2923.0107,121.582 2923.0107,106.9336 Q2923.0107,92.2852 2929.1631,84.5215 Q2935.3887,76.7578 2947.1074,76.7578 Q2950.4033,76.7578 2953.4062,77.4902 Q2956.4824,78.2227 2959.1191,79.6143 L2959.1191,92.3584 Q2956.1895,89.6484 2953.4062,88.4033 Q2950.623,87.085 2947.6934,87.085 Q2941.3945,87.085 2938.1719,92.1387 Q2934.9492,97.1191 2934.9492,106.9336 Q2934.9492,116.748 2938.1719,121.8018 Q2941.3945,126.7822 2947.6934,126.7822 Q2950.623,126.7822 2953.4062,125.5371 Q2956.1895,124.2188 2959.1191,121.5088 L2959.1191,134.2529 Z " fill="#000000"/><text fill="#000000" font-family="sans-serif" font-size="65.625" lengthAdjust="spacing" textLength="1246.7468" x="3010.8281" y="130.5313">SearchInsertPositionTestCaseProvider</text><line style="stroke:#181818;stroke-width:2.3438;" x1="2879.5781" x2="4266.95" y1="182.8125" y2="182.8125"/><line style="stroke:#181818;stroke-width:2.3438;" x1="2879.5781" x2="4266.95" y1="220.3125" y2="220.3125"/></g><!--class MaxAvgSubArrayITestCaseProvider--><g class="entity" data-entity="MaxAvgSubArrayITestCaseProvider" data-source-line="75" data-uid="ent0043" id="entity_MaxAvgSubArrayITestCaseProvider"><rect fill="#F1F1F1" height="225" rx="11.7188" ry="11.7188" style="stroke:#181818;stroke-width:2.3438;" width="1306.9931" x="2919.7969" y="421.875"/><ellipse cx="2990.1094" cy="496.875" fill="#ADD1B2" rx="51.5625" ry="51.5625" style="stroke:#181818;stroke-width:4.6875;"/><path d="M3004.0254,523.3154 Q3001.3154,524.707 2998.3125,525.3662 Q2995.3096,526.0986 2992.0137,526.0986 Q2980.2949,526.0986 2974.0693,518.4082 Q2967.917,510.6445 2967.917,495.9961 Q2967.917,481.3477 2974.0693,473.584 Q2980.2949,465.8203 2992.0137,465.8203 Q2995.3096,465.8203 2998.3125,466.5527 Q3001.3887,467.2852 3004.0254,468.6768 L3004.0254,481.4209 Q3001.0957,478.7109 2998.3125,477.4658 Q2995.5293,476.1475 2992.5996,476.1475 Q2986.3008,476.1475 2983.0781,481.2012 Q2979.8555,486.1816 2979.8555,495.9961 Q2979.8555,505.8105 2983.0781,510.8643 Q2986.3008,515.8447 2992.5996,515.8447 Q2995.5293,515.8447 2998.3125,514.5996 Q3001.0957,513.2813 3004.0254,510.5713 L3004.0254,523.3154 Z " fill="#000000"/><text fill="#000000" font-family="sans-serif" font-size="65.625" lengthAdjust="spacing" textLength="1156.9931" x="3055.7344" y="519.5938">MaxAvgSubArrayITestCaseProvider</text><line style="stroke:#181818;stroke-width:2.3438;" x1="2924.4844" x2="4222.1025" y1="571.875" y2="571.875"/><line style="stroke:#181818;stroke-width:2.3438;" x1="2924.4844" x2="4222.1025" y1="609.375" y2="609.375"/></g><!--class MaxConsecutive1sTestCaseProvider--><g class="entity" data-entity="MaxConsecutive1sTestCaseProvider" data-source-line="76" data-uid="ent0045" id="entity_MaxConsecutive1sTestCaseProvider"><rect fill="#F1F1F1" height="225" rx="11.7188" ry="11.7188" style="stroke:#181818;stroke-width:2.3438;" width="1338.3636" x="2904.0938" y="810.9375"/><ellipse cx="2974.4063" cy="885.9375" fill="#ADD1B2" rx="51.5625" ry="51.5625" style="stroke:#181818;stroke-width:4.6875;"/><path d="M2988.3223,912.3779 Q2985.6123,913.7695 2982.6094,914.4287 Q2979.6064,915.1611 2976.3105,915.1611 Q2964.5918,915.1611 2958.3662,907.4707 Q2952.2139,899.707 2952.2139,885.0586 Q2952.2139,870.4102 2958.3662,862.6465 Q2964.5918,854.8828 2976.3105,854.8828 Q2979.6064,854.8828 2982.6094,855.6152 Q2985.6855,856.3477 2988.3223,857.7393 L2988.3223,870.4834 Q2985.3926,867.7734 2982.6094,866.5283 Q2979.8262,865.21 2976.8965,865.21 Q2970.5977,865.21 2967.375,870.2637 Q2964.1523,875.2441 2964.1523,885.0586 Q2964.1523,894.873 2967.375,899.9268 Q2970.5977,904.9072 2976.8965,904.9072 Q2979.8262,904.9072 2982.6094,903.6621 Q2985.3926,902.3438 2988.3223,899.6338 L2988.3223,912.3779 Z " fill="#000000"/><text fill="#000000" font-family="sans-serif" font-size="65.625" lengthAdjust="spacing" textLength="1188.3636" x="3040.0313" y="908.6563">MaxConsecutive1sTestCaseProvider</text><line style="stroke:#181818;stroke-width:2.3438;" x1="2908.7813" x2="4237.7699" y1="960.9375" y2="960.9375"/><line style="stroke:#181818;stroke-width:2.3438;" x1="2908.7813" x2="4237.7699" y1="998.4375" y2="998.4375"/></g><!--class ContainsDuplicateITestCaseProvider--><g class="entity" data-entity="ContainsDuplicateITestCaseProvider" data-source-line="77" data-uid="ent0047" id="entity_ContainsDuplicateITestCaseProvider"><rect fill="#F1F1F1" height="225" rx="11.7188" ry="11.7188" style="stroke:#181818;stroke-width:2.3438;" width="1343.2983" x="2901.6563" y="1200"/><ellipse cx="2971.9688" cy="1275" fill="#ADD1B2" rx="51.5625" ry="51.5625" style="stroke:#181818;stroke-width:4.6875;"/><path d="M2985.8848,1301.4404 Q2983.1748,1302.832 2980.1719,1303.4912 Q2977.1689,1304.2236 2973.873,1304.2236 Q2962.1543,1304.2236 2955.9287,1296.5332 Q2949.7764,1288.7695 2949.7764,1274.1211 Q2949.7764,1259.4727 2955.9287,1251.709 Q2962.1543,1243.9453 2973.873,1243.9453 Q2977.1689,1243.9453 2980.1719,1244.6777 Q2983.248,1245.4102 2985.8848,1246.8018 L2985.8848,1259.5459 Q2982.9551,1256.8359 2980.1719,1255.5908 Q2977.3887,1254.2725 2974.459,1254.2725 Q2968.1602,1254.2725 2964.9375,1259.3262 Q2961.7148,1264.3066 2961.7148,1274.1211 Q2961.7148,1283.9355 2964.9375,1288.9893 Q2968.1602,1293.9697 2974.459,1293.9697 Q2977.3887,1293.9697 2980.1719,1292.7246 Q2982.9551,1291.4063 2985.8848,1288.6963 L2985.8848,1301.4404 Z " fill="#000000"/><text fill="#000000" font-family="sans-serif" font-size="65.625" lengthAdjust="spacing" textLength="1193.2983" x="3037.5938" y="1297.7188">ContainsDuplicateITestCaseProvider</text><line style="stroke:#181818;stroke-width:2.3438;" x1="2906.3438" x2="4240.2671" y1="1350" y2="1350"/><line style="stroke:#181818;stroke-width:2.3438;" x1="2906.3438" x2="4240.2671" y1="1387.5" y2="1387.5"/></g><!--class ContainsDuplicateIITestCaseProvider--><g class="entity" data-entity="ContainsDuplicateIITestCaseProvider" data-source-line="78" data-uid="ent0049" id="entity_ContainsDuplicateIITestCaseProvider"><rect fill="#F1F1F1" height="225" rx="11.7188" ry="11.7188" style="stroke:#181818;stroke-width:2.3438;" width="1362.6526" x="2891.9531" y="1589.0625"/><ellipse cx="2962.2656" cy="1664.0625" fill="#ADD1B2" rx="51.5625" ry="51.5625" style="stroke:#181818;stroke-width:4.6875;"/><path d="M2976.1816,1690.5029 Q2973.4717,1691.8945 2970.4688,1692.5537 Q2967.4658,1693.2861 2964.1699,1693.2861 Q2952.4512,1693.2861 2946.2256,1685.5957 Q2940.0732,1677.832 2940.0732,1663.1836 Q2940.0732,1648.5352 2946.2256,1640.7715 Q2952.4512,1633.0078 2964.1699,1633.0078 Q2967.4658,1633.0078 2970.4688,1633.7402 Q2973.5449,1634.4727 2976.1816,1635.8643 L2976.1816,1648.6084 Q2973.252,1645.8984 2970.4688,1644.6533 Q2967.6855,1643.335 2964.7559,1643.335 Q2958.457,1643.335 2955.2344,1648.3887 Q2952.0117,1653.3691 2952.0117,1663.1836 Q2952.0117,1672.998 2955.2344,1678.0518 Q2958.457,1683.0322 2964.7559,1683.0322 Q2967.6855,1683.0322 2970.4688,1681.7871 Q2973.252,1680.4688 2976.1816,1677.7588 L2976.1816,1690.5029 Z " fill="#000000"/><text fill="#000000" font-family="sans-serif" font-size="65.625" lengthAdjust="spacing" textLength="1212.6526" x="3027.8906" y="1686.7813">ContainsDuplicateIITestCaseProvider</text><line style="stroke:#181818;stroke-width:2.3438;" x1="2896.6406" x2="4249.9182" y1="1739.0625" y2="1739.0625"/><line style="stroke:#181818;stroke-width:2.3438;" x1="2896.6406" x2="4249.9182" y1="1776.5625" y2="1776.5625"/></g><!--class LongestHarmoniousSubsequenceTestCaseProvider--><g class="entity" data-entity="LongestHarmoniousSubsequenceTestCaseProvider" data-source-line="79" data-uid="ent0051" id="entity_LongestHarmoniousSubsequenceTestCaseProvider"><rect fill="#F1F1F1" height="225" rx="11.7188" ry="11.7188" style="stroke:#181818;stroke-width:2.3438;" width="1821.5469" x="2662.5" y="1978.125"/><ellipse cx="2732.8125" cy="2053.125" fill="#ADD1B2" rx="51.5625" ry="51.5625" style="stroke:#181818;stroke-width:4.6875;"/><path d="M2746.7285,2079.5654 Q2744.0186,2080.957 2741.0156,2081.6162 Q2738.0127,2082.3486 2734.7168,2082.3486 Q2722.998,2082.3486 2716.7725,2074.6582 Q2710.6201,2066.8945 2710.6201,2052.2461 Q2710.6201,2037.5977 2716.7725,2029.834 Q2722.998,2022.0703 2734.7168,2022.0703 Q2738.0127,2022.0703 2741.0156,2022.8027 Q2744.0918,2023.5352 2746.7285,2024.9268 L2746.7285,2037.6709 Q2743.7988,2034.9609 2741.0156,2033.7158 Q2738.2324,2032.3975 2735.3027,2032.3975 Q2729.0039,2032.3975 2725.7813,2037.4512 Q2722.5586,2042.4316 2722.5586,2052.2461 Q2722.5586,2062.0605 2725.7813,2067.1143 Q2729.0039,2072.0947 2735.3027,2072.0947 Q2738.2324,2072.0947 2741.0156,2070.8496 Q2743.7988,2069.5313 2746.7285,2066.8213 L2746.7285,2079.5654 Z " fill="#000000"/><text fill="#000000" font-family="sans-serif" font-size="65.625" lengthAdjust="spacing" textLength="1671.5469" x="2798.4375" y="2075.8438">LongestHarmoniousSubsequenceTestCaseProvider</text><line style="stroke:#181818;stroke-width:2.3438;" x1="2667.1875" x2="4479.3594" y1="2128.125" y2="2128.125"/><line style="stroke:#181818;stroke-width:2.3438;" x1="2667.1875" x2="4479.3594" y1="2165.625" y2="2165.625"/></g><!--link ProblemStrategyFactory to TwoSumStrategies--><g class="link" data-entity-1="ProblemStrategyFactory" data-entity-2="TwoSumStrategies" data-source-line="38" data-uid="lnk15" id="link_ProblemStrategyFactory_TwoSumStrategies"><path codeLine="38" d="M1723.125,6378.75 C1723.125,5745.6094 1723.125,4814.0625 1723.125,4814.0625 C1723.125,4814.0625 2619.8906,4814.0625 3161.8125,4814.0625" fill="none" id="ProblemStrategyFactory-to-TwoSumStrategies" style="stroke:#181818;stroke-width:4.6875;"/><polygon fill="#181818" points="3189.9375,4814.0625,3147.75,4795.3125,3166.5,4814.0625,3147.75,4832.8125,3189.9375,4814.0625" style="stroke:#181818;stroke-width:4.6875;"/></g><!--link ProblemStrategyFactory to TwoSumSortedStrategies--><g class="link" data-entity-1="ProblemStrategyFactory" data-entity-2="TwoSumSortedStrategies" data-source-line="39" data-uid="lnk16" id="link_ProblemStrategyFactory_TwoSumSortedStrategies"><path codeLine="39" d="M1863.75,6379.0781 C1863.75,5869.125 1863.75,5203.125 1863.75,5203.125 C1863.75,5203.125 2547.9375,5203.125 3052.9688,5203.125" fill="none" id="ProblemStrategyFactory-to-TwoSumSortedStrategies" style="stroke:#181818;stroke-width:4.6875;"/><polygon fill="#181818" points="3081.0938,5203.125,3038.9063,5184.375,3057.6563,5203.125,3038.9063,5221.875,3081.0938,5203.125" style="stroke:#181818;stroke-width:4.6875;"/></g><!--link ProblemStrategyFactory to ThreeSumStrategies--><g class="link" data-entity-1="ProblemStrategyFactory" data-entity-2="ThreeSumStrategies" data-source-line="40" data-uid="lnk17" id="link_ProblemStrategyFactory_ThreeSumStrategies"><path codeLine="40" d="M2009.0625,6378.9844 C2009.0625,6007.5 2009.0625,5592.1875 2009.0625,5592.1875 C2009.0625,5592.1875 2668.6875,5592.1875 3132.1406,5592.1875" fill="none" id="ProblemStrategyFactory-to-ThreeSumStrategies" style="stroke:#181818;stroke-width:4.6875;"/><polygon fill="#181818" points="3160.2656,5592.1875,3118.0781,5573.4375,3136.8281,5592.1875,3118.0781,5610.9375,3160.2656,5592.1875" style="stroke:#181818;stroke-width:4.6875;"/></g><!--link ProblemStrategyFactory to RotatedArrayStrategies--><g class="link" data-entity-1="ProblemStrategyFactory" data-entity-2="RotatedArrayStrategies" data-source-line="41" data-uid="lnk18" id="link_ProblemStrategyFactory_RotatedArrayStrategies"><path codeLine="41" d="M2149.6875,6378.7031 C2149.6875,6168.6563 2149.6875,5981.25 2149.6875,5981.25 C2149.6875,5981.25 2667.2813,5981.25 3082.9688,5981.25" fill="none" id="ProblemStrategyFactory-to-RotatedArrayStrategies" style="stroke:#181818;stroke-width:4.6875;"/><polygon fill="#181818" points="3111.0938,5981.25,3068.9063,5962.5,3087.6563,5981.25,3068.9063,6000,3111.0938,5981.25" style="stroke:#181818;stroke-width:4.6875;"/></g><!--link ProblemStrategyFactory to RemoveElementStrategies--><g class="link" data-entity-1="ProblemStrategyFactory" data-entity-2="RemoveElementStrategies" data-source-line="42" data-uid="lnk19" id="link_ProblemStrategyFactory_RemoveElementStrategies"><path codeLine="42" d="M2293.2188,6431.7656 C2559.8906,6431.7656 2805.0469,6431.7656 3030.2813,6431.7656" fill="none" id="ProblemStrategyFactory-to-RemoveElementStrategies" style="stroke:#181818;stroke-width:4.6875;"/><polygon fill="#181818" points="3058.4063,6431.7656,3016.2188,6413.0156,3034.9688,6431.7656,3016.2188,6450.5156,3058.4063,6431.7656" style="stroke:#181818;stroke-width:4.6875;"/></g><!--link ProblemStrategyFactory to RemoveDuplicatesStrategies--><g class="link" data-entity-1="ProblemStrategyFactory" data-entity-2="RemoveDuplicatesStrategies" data-source-line="43" data-uid="lnk20" id="link_ProblemStrategyFactory_RemoveDuplicatesStrategies"><path codeLine="43" d="M2293.2188,6759.375 C2545.3125,6759.375 2775.1875,6759.375 2992.9219,6759.375" fill="none" id="ProblemStrategyFactory-to-RemoveDuplicatesStrategies" style="stroke:#181818;stroke-width:4.6875;"/><polygon fill="#181818" points="3021.0469,6759.375,2978.8594,6740.625,2997.6094,6759.375,2978.8594,6778.125,3021.0469,6759.375" style="stroke:#181818;stroke-width:4.6875;"/></g><!--link ProblemStrategyFactory to SearchInsertPositionStrategies--><g class="link" data-entity-1="ProblemStrategyFactory" data-entity-2="SearchInsertPositionStrategies" data-source-line="44" data-uid="lnk21" id="link_ProblemStrategyFactory_SearchInsertPositionStrategies"><path codeLine="44" d="M2293.2188,7148.4375 C2534.3906,7148.4375 2752.8281,7148.4375 2964.375,7148.4375" fill="none" id="ProblemStrategyFactory-to-SearchInsertPositionStrategies" style="stroke:#181818;stroke-width:4.6875;"/><polygon fill="#181818" points="2992.5,7148.4375,2950.3125,7129.6875,2969.0625,7148.4375,2950.3125,7167.1875,2992.5,7148.4375" style="stroke:#181818;stroke-width:4.6875;"/></g><!--link ProblemStrategyFactory to MaxAvgSubArrayIStrategies--><g class="link" data-entity-1="ProblemStrategyFactory" data-entity-2="MaxAvgSubArrayIStrategies" data-source-line="45" data-uid="lnk22" id="link_ProblemStrategyFactory_MaxAvgSubArrayIStrategies"><path codeLine="45" d="M2293.2188,7457.4844 C2551.9688,7457.4844 2788.875,7457.4844 3010.125,7457.4844" fill="none" id="ProblemStrategyFactory-to-MaxAvgSubArrayIStrategies" style="stroke:#181818;stroke-width:4.6875;"/><polygon fill="#181818" points="3038.25,7457.4844,2996.0625,7438.7344,3014.8125,7457.4844,2996.0625,7476.2344,3038.25,7457.4844" style="stroke:#181818;stroke-width:4.6875;"/></g><!--link ProblemStrategyFactory to MaxConsecutive1sStrategies--><g class="link" data-entity-1="ProblemStrategyFactory" data-entity-2="MaxConsecutive1sStrategies" data-source-line="46" data-uid="lnk23" id="link_ProblemStrategyFactory_MaxConsecutive1sStrategies"><path codeLine="46" d="M1751.25,7524.375 C1751.25,7736.5781 1751.25,7926.5625 1751.25,7926.5625 C1751.25,7926.5625 2457.2813,7926.5625 2993.5313,7926.5625" fill="none" id="ProblemStrategyFactory-to-MaxConsecutive1sStrategies" style="stroke:#181818;stroke-width:4.6875;"/><polygon fill="#181818" points="3021.6563,7926.5625,2979.4688,7907.8125,2998.2188,7926.5625,2979.4688,7945.3125,3021.6563,7926.5625" style="stroke:#181818;stroke-width:4.6875;"/></g><!--link ProblemStrategyFactory to ContainsDuplicateIStrategies--><g class="link" data-entity-1="ProblemStrategyFactory" data-entity-2="ContainsDuplicateIStrategies" data-source-line="47" data-uid="lnk24" id="link_ProblemStrategyFactory_ContainsDuplicateIStrategies"><path codeLine="47" d="M1207.5,7524.1406 C1207.5,7897.4063 1207.5,8315.625 1207.5,8315.625 C1207.5,8315.625 2291.25,8315.625 2990.4844,8315.625" fill="none" id="ProblemStrategyFactory-to-ContainsDuplicateIStrategies" style="stroke:#181818;stroke-width:4.6875;"/><polygon fill="#181818" points="3018.6094,8315.625,2976.4219,8296.875,2995.1719,8315.625,2976.4219,8334.375,3018.6094,8315.625" style="stroke:#181818;stroke-width:4.6875;"/></g><!--link ProblemStrategyFactory to ContainsDuplicateIIStrategies--><g class="link" data-entity-1="ProblemStrategyFactory" data-entity-2="ContainsDuplicateIIStrategies" data-source-line="48" data-uid="lnk25" id="link_ProblemStrategyFactory_ContainsDuplicateIIStrategies"><path codeLine="48" d="M663.75,7524.375 C663.75,8035.8281 663.75,8704.6875 663.75,8704.6875 C663.75,8704.6875 2136.6563,8704.6875 2982.4219,8704.6875" fill="none" id="ProblemStrategyFactory-to-ContainsDuplicateIIStrategies" style="stroke:#181818;stroke-width:4.6875;"/><polygon fill="#181818" points="3010.5469,8704.6875,2968.3594,8685.9375,2987.1094,8704.6875,2968.3594,8723.4375,3010.5469,8704.6875" style="stroke:#181818;stroke-width:4.6875;"/></g><!--link ProblemStrategyFactory to LongestHarmoniousSubsequenceStrategies--><g class="link" data-entity-1="ProblemStrategyFactory" data-entity-2="LongestHarmoniousSubsequenceStrategies" data-source-line="49" data-uid="lnk26" id="link_ProblemStrategyFactory_LongestHarmoniousSubsequenceStrategies"><path codeLine="49" d="M2293.9219,7489.9219 C2621.0625,7489.9219 2895,7489.9219 2895,7489.9219 C2895,7489.9219 2895,8585.1563 2895,8951.5781" fill="none" id="ProblemStrategyFactory-to-LongestHarmoniousSubsequenceStrategies" style="stroke:#181818;stroke-width:4.6875;"/><polygon fill="#181818" points="2895,8979.7031,2913.75,8937.5156,2895,8956.2656,2876.25,8937.5156,2895,8979.7031" style="stroke:#181818;stroke-width:4.6875;"/></g><!--reverse link ITestCaseProvider to TwoSumTestCaseProvider--><g class="link" data-entity-1="ITestCaseProvider" data-entity-2="TwoSumTestCaseProvider" data-source-line="68" data-uid="lnk30" id="link_ITestCaseProvider_TwoSumTestCaseProvider"><path d="M1207.5,2510.1563 C1207.5,2510.1563 2373.8438,2511.9844 3068.6719,2511.9844" fill="none" id="ITestCaseProvider-backto-TwoSumTestCaseProvider" style="stroke:#181818;stroke-width:4.6875;stroke-dasharray:32.8125,32.8125;"/><polygon fill="none" points="1207.5,2594.5313,1235.625,2510.1563,1179.375,2510.1563,1207.5,2594.5313" style="stroke:#181818;stroke-width:4.6875;"/></g><!--reverse link ITestCaseProvider to TwoSumSortedTestCaseProvider--><g class="link" data-entity-1="ITestCaseProvider" data-entity-2="TwoSumSortedTestCaseProvider" data-source-line="69" data-uid="lnk32" id="link_ITestCaseProvider_TwoSumSortedTestCaseProvider"><path d="M1665.0469,2789.0625 C2035.5469,2789.0625 2525.1563,2789.0625 2962.125,2789.0625" fill="none" id="ITestCaseProvider-backto-TwoSumSortedTestCaseProvider" style="stroke:#181818;stroke-width:4.6875;stroke-dasharray:32.8125,32.8125;"/><polygon fill="none" points="1580.6719,2789.0625,1665.0469,2817.1875,1665.0469,2760.9375,1580.6719,2789.0625" style="stroke:#181818;stroke-width:4.6875;"/></g><!--reverse link ITestCaseProvider to ThreeSumTestCaseProvider--><g class="link" data-entity-1="ITestCaseProvider" data-entity-2="ThreeSumTestCaseProvider" data-source-line="70" data-uid="lnk34" id="link_ITestCaseProvider_ThreeSumTestCaseProvider"><path d="M1395,2908.125 C1395,3078.6563 1395,3295.3125 1395,3295.3125 C1395,3295.3125 2396.9531,3295.3125 3041.8125,3295.3125" fill="none" id="ITestCaseProvider-backto-ThreeSumTestCaseProvider" style="stroke:#181818;stroke-width:4.6875;stroke-dasharray:32.8125,32.8125;"/><polygon fill="none" points="1395,2823.75,1366.875,2908.125,1423.125,2908.125,1395,2823.75" style="stroke:#181818;stroke-width:4.6875;"/></g><!--reverse link ITestCaseProvider to RotatedArrayTestCaseProvider--><g class="link" data-entity-1="ITestCaseProvider" data-entity-2="RotatedArrayTestCaseProvider" data-source-line="71" data-uid="lnk36" id="link_ITestCaseProvider_RotatedArrayTestCaseProvider"><path d="M1207.5,2907.5156 C1207.5,3164.7188 1207.5,3684.375 1207.5,3684.375 C1207.5,3684.375 2291.0156,3684.375 2991.5156,3684.375" fill="none" id="ITestCaseProvider-backto-RotatedArrayTestCaseProvider" style="stroke:#181818;stroke-width:4.6875;stroke-dasharray:32.8125,32.8125;"/><polygon fill="none" points="1207.5,2823.1406,1179.375,2907.5156,1235.625,2907.5156,1207.5,2823.1406" style="stroke:#181818;stroke-width:4.6875;"/></g><!--reverse link ITestCaseProvider to RemoveElementTestCaseProvider--><g class="link" data-entity-1="ITestCaseProvider" data-entity-2="RemoveElementTestCaseProvider" data-source-line="72" data-uid="lnk38" id="link_ITestCaseProvider_RemoveElementTestCaseProvider"><path d="M1020,2907.7031 C1020,3235.5469 1020,4073.4375 1020,4073.4375 C1020,4073.4375 2182.6406,4073.4375 2938.875,4073.4375" fill="none" id="ITestCaseProvider-backto-RemoveElementTestCaseProvider" style="stroke:#181818;stroke-width:4.6875;stroke-dasharray:32.8125,32.8125;"/><polygon fill="none" points="1020,2823.3281,991.875,2907.7031,1048.125,2907.7031,1020,2823.3281" style="stroke:#181818;stroke-width:4.6875;"/></g><!--reverse link ITestCaseProvider to RemoveDuplicatesSortedTestCaseProvider--><g class="link" data-entity-1="ITestCaseProvider" data-entity-2="RemoveDuplicatesSortedTestCaseProvider" data-source-line="73" data-uid="lnk40" id="link_ITestCaseProvider_RemoveDuplicatesSortedTestCaseProvider"><path d="M1664.7656,2805.4688 C2147.7656,2805.4688 2843.4375,2805.4688 2843.4375,2805.4688 C2843.4375,2805.4688 2843.4375,3942.4687 2843.4375,4311.1406" fill="none" id="ITestCaseProvider-backto-RemoveDuplicatesSortedTestCaseProvider" style="stroke:#181818;stroke-width:4.6875;stroke-dasharray:32.8125,32.8125;"/><polygon fill="none" points="1580.3906,2805.4688,1664.7656,2833.5938,1664.7656,2777.3438,1580.3906,2805.4688" style="stroke:#181818;stroke-width:4.6875;"/></g><!--reverse link ITestCaseProvider to SearchInsertPositionTestCaseProvider--><g class="link" data-entity-1="ITestCaseProvider" data-entity-2="SearchInsertPositionTestCaseProvider" data-source-line="74" data-uid="lnk42" id="link_ITestCaseProvider_SearchInsertPositionTestCaseProvider"><path d="M1663.8281,2619.6562 C2022.375,2619.6562 2426.25,2619.6562 2426.25,2619.6562 C2426.25,2619.6562 2426.25,182.8125 2426.25,182.8125 C2426.25,182.8125 2634.1875,182.8125 2873.0156,182.8125" fill="none" id="ITestCaseProvider-backto-SearchInsertPositionTestCaseProvider" style="stroke:#181818;stroke-width:4.6875;stroke-dasharray:32.8125,32.8125;"/><polygon fill="none" points="1579.4531,2619.6562,1663.8281,2647.7812,1663.8281,2591.5312,1579.4531,2619.6562" style="stroke:#181818;stroke-width:4.6875;"/></g><!--reverse link ITestCaseProvider to MaxAvgSubArrayITestCaseProvider--><g class="link" data-entity-1="ITestCaseProvider" data-entity-2="MaxAvgSubArrayITestCaseProvider" data-source-line="75" data-uid="lnk44" id="link_ITestCaseProvider_MaxAvgSubArrayITestCaseProvider"><path d="M1664.4375,2642.3906 C2037.8906,2642.3906 2473.125,2642.3906 2473.125,2642.3906 C2473.125,2642.3906 2473.125,571.875 2473.125,571.875 C2473.125,571.875 2682.75,571.875 2919,571.875" fill="none" id="ITestCaseProvider-backto-MaxAvgSubArrayITestCaseProvider" style="stroke:#181818;stroke-width:4.6875;stroke-dasharray:32.8125,32.8125;"/><polygon fill="none" points="1580.0625,2642.3906,1664.4375,2670.5156,1664.4375,2614.2656,1580.0625,2642.3906" style="stroke:#181818;stroke-width:4.6875;"/></g><!--reverse link ITestCaseProvider to MaxConsecutive1sTestCaseProvider--><g class="link" data-entity-1="ITestCaseProvider" data-entity-2="MaxConsecutive1sTestCaseProvider" data-source-line="76" data-uid="lnk46" id="link_ITestCaseProvider_MaxConsecutive1sTestCaseProvider"><path d="M1664.1563,2665.1719 C2052.3281,2665.1719 2520,2665.1719 2520,2665.1719 C2520,2665.1719 2520,960.9375 2520,960.9375 C2520,960.9375 2695.5,960.9375 2903.25,960.9375" fill="none" id="ITestCaseProvider-backto-MaxConsecutive1sTestCaseProvider" style="stroke:#181818;stroke-width:4.6875;stroke-dasharray:32.8125,32.8125;"/><polygon fill="none" points="1579.7813,2665.1719,1664.1563,2693.2969,1664.1563,2637.0469,1579.7813,2665.1719" style="stroke:#181818;stroke-width:4.6875;"/></g><!--reverse link ITestCaseProvider to ContainsDuplicateITestCaseProvider--><g class="link" data-entity-1="ITestCaseProvider" data-entity-2="ContainsDuplicateITestCaseProvider" data-source-line="77" data-uid="lnk48" id="link_ITestCaseProvider_ContainsDuplicateITestCaseProvider"><path d="M1664.8125,2687.9531 C2067.375,2687.9531 2566.875,2687.9531 2566.875,2687.9531 C2566.875,2687.9531 2566.875,1380.0469 2566.875,1380.0469 C2566.875,1380.0469 2716.6406,1380.0469 2900.5781,1380.0469" fill="none" id="ITestCaseProvider-backto-ContainsDuplicateITestCaseProvider" style="stroke:#181818;stroke-width:4.6875;stroke-dasharray:32.8125,32.8125;"/><polygon fill="none" points="1580.4375,2687.9531,1664.8125,2716.0781,1664.8125,2659.8281,1580.4375,2687.9531" style="stroke:#181818;stroke-width:4.6875;"/></g><!--reverse link ITestCaseProvider to ContainsDuplicateIITestCaseProvider--><g class="link" data-entity-1="ITestCaseProvider" data-entity-2="ContainsDuplicateIITestCaseProvider" data-source-line="78" data-uid="lnk50" id="link_ITestCaseProvider_ContainsDuplicateIITestCaseProvider"><path d="M1664.6719,2710.7344 C2081.4375,2710.7344 2613.75,2710.7344 2613.75,2710.7344 C2613.75,2710.7344 2613.75,1739.0625 2613.75,1739.0625 C2613.75,1739.0625 2734.3125,1739.0625 2889.9844,1739.0625" fill="none" id="ITestCaseProvider-backto-ContainsDuplicateIITestCaseProvider" style="stroke:#181818;stroke-width:4.6875;stroke-dasharray:32.8125,32.8125;"/><polygon fill="none" points="1580.2969,2710.7344,1664.6719,2738.8594,1664.6719,2682.6094,1580.2969,2710.7344" style="stroke:#181818;stroke-width:4.6875;"/></g><!--reverse link ITestCaseProvider to LongestHarmoniousSubsequenceTestCaseProvider--><g class="link" data-entity-1="ITestCaseProvider" data-entity-2="LongestHarmoniousSubsequenceTestCaseProvider" data-source-line="79" data-uid="lnk52" id="link_ITestCaseProvider_LongestHarmoniousSubsequenceTestCaseProvider"><path d="M1663.8281,2733.4688 C2112.2813,2733.4688 2721.5625,2733.4688 2721.5625,2733.4688 C2721.5625,2733.4688 2721.5625,2388.6094 2721.5625,2204.0625" fill="none" id="ITestCaseProvider-backto-LongestHarmoniousSubsequenceTestCaseProvider" style="stroke:#181818;stroke-width:4.6875;stroke-dasharray:32.8125,32.8125;"/><polygon fill="none" points="1579.4531,2733.4688,1663.8281,2761.5938,1663.8281,2705.3438,1579.4531,2733.4688" style="stroke:#181818;stroke-width:4.6875;"/></g><!--link ProblemTestCaseFactory to TwoSumTestCaseProvider--><g class="link" data-entity-1="ProblemTestCaseFactory" data-entity-2="TwoSumTestCaseProvider" data-source-line="81" data-uid="lnk53" id="link_ProblemTestCaseFactory_TwoSumTestCaseProvider"><path codeLine="81" d="M2383.2188,2388.7031 C2625.0469,2388.7031 2839.1719,2388.7031 3041.3438,2388.7031" fill="none" id="ProblemTestCaseFactory-to-TwoSumTestCaseProvider" style="stroke:#181818;stroke-width:4.6875;"/><polygon fill="#181818" points="3069.4688,2388.7031,3027.2813,2369.9531,3046.0313,2388.7031,3027.2813,2407.4531,3069.4688,2388.7031" style="stroke:#181818;stroke-width:4.6875;"/></g><!--link ProblemTestCaseFactory to TwoSumSortedTestCaseProvider--><g class="link" data-entity-1="ProblemTestCaseFactory" data-entity-2="TwoSumSortedTestCaseProvider" data-source-line="82" data-uid="lnk54" id="link_ProblemTestCaseFactory_TwoSumSortedTestCaseProvider"><path codeLine="82" d="M2365.3125,2433.1875 C2365.3125,2616.3281 2365.3125,2772.6563 2365.3125,2772.6563 C2365.3125,2772.6563 2633.2969,2772.6563 2932.3125,2772.6563" fill="none" id="ProblemTestCaseFactory-to-TwoSumSortedTestCaseProvider" style="stroke:#181818;stroke-width:4.6875;"/><polygon fill="#181818" points="2960.4375,2772.6563,2918.25,2753.9063,2937,2772.6563,2918.25,2791.4063,2960.4375,2772.6563" style="stroke:#181818;stroke-width:4.6875;"/></g><!--link ProblemTestCaseFactory to ThreeSumTestCaseProvider--><g class="link" data-entity-1="ProblemTestCaseFactory" data-entity-2="ThreeSumTestCaseProvider" data-source-line="83" data-uid="lnk55" id="link_ProblemTestCaseFactory_ThreeSumTestCaseProvider"><path codeLine="83" d="M2346.5625,2433.5156 C2346.5625,2805 2346.5625,3220.3125 2346.5625,3220.3125 C2346.5625,3220.3125 2682.7031,3220.3125 3014.25,3220.3125" fill="none" id="ProblemTestCaseFactory-to-ThreeSumTestCaseProvider" style="stroke:#181818;stroke-width:4.6875;"/><polygon fill="#181818" points="3042.375,3220.3125,3000.1875,3201.5625,3018.9375,3220.3125,3000.1875,3239.0625,3042.375,3220.3125" style="stroke:#181818;stroke-width:4.6875;"/></g><!--link ProblemTestCaseFactory to RotatedArrayTestCaseProvider--><g class="link" data-entity-1="ProblemTestCaseFactory" data-entity-2="RotatedArrayTestCaseProvider" data-source-line="84" data-uid="lnk56" id="link_ProblemTestCaseFactory_RotatedArrayTestCaseProvider"><path codeLine="84" d="M2327.8125,2433.4219 C2327.8125,2943.375 2327.8125,3609.375 2327.8125,3609.375 C2327.8125,3609.375 2638.4063,3609.375 2962.5469,3609.375" fill="none" id="ProblemTestCaseFactory-to-RotatedArrayTestCaseProvider" style="stroke:#181818;stroke-width:4.6875;"/><polygon fill="#181818" points="2990.6719,3609.375,2948.4844,3590.625,2967.2344,3609.375,2948.4844,3628.125,2990.6719,3609.375" style="stroke:#181818;stroke-width:4.6875;"/></g><!--link ProblemTestCaseFactory to RemoveElementTestCaseProvider--><g class="link" data-entity-1="ProblemTestCaseFactory" data-entity-2="RemoveElementTestCaseProvider" data-source-line="85" data-uid="lnk57" id="link_ProblemTestCaseFactory_RemoveElementTestCaseProvider"><path codeLine="85" d="M2309.0625,2433.75 C2309.0625,3066.8906 2309.0625,3998.4375 2309.0625,3998.4375 C2309.0625,3998.4375 2595.75,3998.4375 2911.1719,3998.4375" fill="none" id="ProblemTestCaseFactory-to-RemoveElementTestCaseProvider" style="stroke:#181818;stroke-width:4.6875;"/><polygon fill="#181818" points="2939.2969,3998.4375,2897.1094,3979.6875,2915.8594,3998.4375,2897.1094,4017.1875,2939.2969,3998.4375" style="stroke:#181818;stroke-width:4.6875;"/></g><!--link ProblemTestCaseFactory to RemoveDuplicatesSortedTestCaseProvider--><g class="link" data-entity-1="ProblemTestCaseFactory" data-entity-2="RemoveDuplicatesSortedTestCaseProvider" data-source-line="86" data-uid="lnk58" id="link_ProblemTestCaseFactory_RemoveDuplicatesSortedTestCaseProvider"><path codeLine="86" d="M2382.9844,2410.2656 C2666.9531,2410.2656 2890.3125,2410.2656 2890.3125,2410.2656 C2890.3125,2410.2656 2890.3125,3856.5938 2890.3125,4282.7813" fill="none" id="ProblemTestCaseFactory-to-RemoveDuplicatesSortedTestCaseProvider" style="stroke:#181818;stroke-width:4.6875;"/><polygon fill="#181818" points="2890.3125,4310.9063,2909.0625,4268.7188,2890.3125,4287.4688,2871.5625,4268.7188,2890.3125,4310.9063" style="stroke:#181818;stroke-width:4.6875;"/></g><!--link ProblemTestCaseFactory to SearchInsertPositionTestCaseProvider--><g class="link" data-entity-1="ProblemTestCaseFactory" data-entity-2="SearchInsertPositionTestCaseProvider" data-source-line="87" data-uid="lnk59" id="link_ProblemTestCaseFactory_SearchInsertPositionTestCaseProvider"><path codeLine="87" d="M621.5625,1288.125 C621.5625,776.6719 621.5625,107.8125 621.5625,107.8125 C621.5625,107.8125 1972.7813,107.8125 2845.6406,107.8125" fill="none" id="ProblemTestCaseFactory-to-SearchInsertPositionTestCaseProvider" style="stroke:#181818;stroke-width:4.6875;"/><polygon fill="#181818" points="2873.7656,107.8125,2831.5781,89.0625,2850.3281,107.8125,2831.5781,126.5625,2873.7656,107.8125" style="stroke:#181818;stroke-width:4.6875;"/></g><!--link ProblemTestCaseFactory to MaxAvgSubArrayITestCaseProvider--><g class="link" data-entity-1="ProblemTestCaseFactory" data-entity-2="MaxAvgSubArrayITestCaseProvider" data-source-line="88" data-uid="lnk60" id="link_ProblemTestCaseFactory_MaxAvgSubArrayITestCaseProvider"><path codeLine="88" d="M1207.5,1288.3594 C1207.5,915.0938 1207.5,496.875 1207.5,496.875 C1207.5,496.875 2190.6563,496.875 2890.875,496.875" fill="none" id="ProblemTestCaseFactory-to-MaxAvgSubArrayITestCaseProvider" style="stroke:#181818;stroke-width:4.6875;"/><polygon fill="#181818" points="2919,496.875,2876.8125,478.125,2895.5625,496.875,2876.8125,515.625,2919,496.875" style="stroke:#181818;stroke-width:4.6875;"/></g><!--link ProblemTestCaseFactory to MaxConsecutive1sTestCaseProvider--><g class="link" data-entity-1="ProblemTestCaseFactory" data-entity-2="MaxConsecutive1sTestCaseProvider" data-source-line="89" data-uid="lnk61" id="link_ProblemTestCaseFactory_MaxConsecutive1sTestCaseProvider"><path codeLine="89" d="M1793.4375,1288.125 C1793.4375,1075.9219 1793.4375,885.9375 1793.4375,885.9375 C1793.4375,885.9375 2370.2813,885.9375 2874.7969,885.9375" fill="none" id="ProblemTestCaseFactory-to-MaxConsecutive1sTestCaseProvider" style="stroke:#181818;stroke-width:4.6875;"/><polygon fill="#181818" points="2902.9219,885.9375,2860.7344,867.1875,2879.4844,885.9375,2860.7344,904.6875,2902.9219,885.9375" style="stroke:#181818;stroke-width:4.6875;"/></g><!--link ProblemTestCaseFactory to ContainsDuplicateITestCaseProvider--><g class="link" data-entity-1="ProblemTestCaseFactory" data-entity-2="ContainsDuplicateITestCaseProvider" data-source-line="90" data-uid="lnk62" id="link_ProblemTestCaseFactory_ContainsDuplicateITestCaseProvider"><path codeLine="90" d="M2383.2188,1335.0469 C2560.6875,1335.0469 2710.2187,1335.0469 2872.125,1335.0469" fill="none" id="ProblemTestCaseFactory-to-ContainsDuplicateITestCaseProvider" style="stroke:#181818;stroke-width:4.6875;"/><polygon fill="#181818" points="2900.25,1335.0469,2858.0625,1316.2969,2876.8125,1335.0469,2858.0625,1353.7969,2900.25,1335.0469" style="stroke:#181818;stroke-width:4.6875;"/></g><!--link ProblemTestCaseFactory to ContainsDuplicateIITestCaseProvider--><g class="link" data-entity-1="ProblemTestCaseFactory" data-entity-2="ContainsDuplicateIITestCaseProvider" data-source-line="91" data-uid="lnk63" id="link_ProblemTestCaseFactory_ContainsDuplicateIITestCaseProvider"><path codeLine="91" d="M2383.2188,1664.0625 C2557.2188,1664.0625 2703.2813,1664.0625 2862.6094,1664.0625" fill="none" id="ProblemTestCaseFactory-to-ContainsDuplicateIITestCaseProvider" style="stroke:#181818;stroke-width:4.6875;"/><polygon fill="#181818" points="2890.7344,1664.0625,2848.5469,1645.3125,2867.2969,1664.0625,2848.5469,1682.8125,2890.7344,1664.0625" style="stroke:#181818;stroke-width:4.6875;"/></g><!--link ProblemTestCaseFactory to LongestHarmoniousSubsequenceTestCaseProvider--><g class="link" data-entity-1="ProblemTestCaseFactory" data-entity-2="LongestHarmoniousSubsequenceTestCaseProvider" data-source-line="92" data-uid="lnk64" id="link_ProblemTestCaseFactory_LongestHarmoniousSubsequenceTestCaseProvider"><path codeLine="92" d="M2383.2188,2090.625 C2476.5938,2090.625 2541.8906,2090.625 2633.0625,2090.625" fill="none" id="ProblemTestCaseFactory-to-LongestHarmoniousSubsequenceTestCaseProvider" style="stroke:#181818;stroke-width:4.6875;"/><polygon fill="#181818" points="2661.1875,2090.625,2619,2071.875,2637.75,2090.625,2619,2109.375,2661.1875,2090.625" style="stroke:#181818;stroke-width:4.6875;"/></g><!--SRC=[fPRHRjCm58Rl_HI-0uI6EY5ka8fKZJ4gWJIjUm4tEMij4hkpdOw2zkwuQxAciNroN7gN-lzEavplsBM_fDe88sfULCBQcND6BXi7yqAhXVm3VCBiQyIkHQcVf5hn1r5PwArKKe7RRO1huzQwjr1k9FyucR0A7XntcXkvMZjUIWE5arenMuWA-EM7JuozuTFfb2-S4GvME_vD54wRtVvBzd9l_DRePGLrb-W2Vndtd_Vy1jpzaruqNK22VVlkCvzVgwO68pmQ1FtTGac9hmq0hVATTZvIpemHEqeSQhs5Q_zOe1mv_xNPLBBmMKj05Y1CiPuh2yRTQYltxvs0_HI_PzlLebc-FCgSHbnf_pD5u-GMBYdtvlDEI6LV7sX-5aIXVcYr0kk-2rDh9NLZ_QDPU6n05P36dmClxtpE-WjZUseEnJlzUg1PjnX8rIx45UeMuyAShCRqQ0Eu36qesVhZUgBHRG1hQp8IPcWjOoonCLnSV0aRCvuTTWiZmXOYwKHVCIBHx54aQW12ZMY1a6bNS2Wb44AXLcLnH93gts67kFTHVYKif8-kVMIVI1vTNU2m3tLNdjxA4apy_28phQpKV5zNCjCNDWywAalbOj9IsO6s6TY9k5GkLF1yaenY-exKU0wbxjR2Osz8Srbl3WROIEdmP3oB7yYSmyR4pk9ZakSNwEtHPxy6R0HowYJ68RD4T3HoQgJ7vF-gd5M6CZwqUYon_H__T0J8A15t1kKI8uCnsAYW73OYu-3OQ60LA2E1yIEZC8AY8u2nu-hdqLbuZkhi7m00]--></g></svg>