<svg xmlns="http://www.w3.org/2000/svg" xmlns:xlink="http://www.w3.org/1999/xlink" contentStyleType="text/css" data-diagram-type="CLASS" height="3778.125px" preserveAspectRatio="none" style="width:4232px;height:3778px;background:#FFFFFF;" version="1.1" viewBox="0 0 4232 3778" width="4232.8125px" zoomAndPan="magnify"><defs/><g><!--class IProblemSolution--><g class="entity" data-entity="IProblemSolution" data-source-line="9" data-uid="ent0002" id="entity_IProblemSolution"><rect fill="#F1F1F1" height="225" rx="11.7188" ry="11.7188" style="stroke:#181818;stroke-width:2.3438;" width="1171.8613" x="1588.5" y="2288.8594"/><ellipse cx="1658.8125" cy="2363.8594" fill="#B4A7E5" rx="51.5625" ry="51.5625" style="stroke:#181818;stroke-width:4.6875;"/><path d="M1639.6963,2344.0107 L1639.6963,2333.9033 L1674.3398,2333.9033 L1674.3398,2344.0107 L1662.7676,2344.0107 L1662.7676,2381.877 L1674.3398,2381.877 L1674.3398,2391.9844 L1639.6963,2391.9844 L1639.6963,2381.877 L1651.2686,2381.877 L1651.2686,2344.0107 L1639.6963,2344.0107 Z " fill="#000000"/><text fill="#000000" font-family="sans-serif" font-size="65.625" font-style="italic" lengthAdjust="spacing" textLength="557.5882" x="1724.4375" y="2386.5782">IProblemSolution</text><rect fill="#FFFFFF" height="74.8535" style="stroke:#181818;stroke-width:4.6875;stroke-dasharray:9.375,9.375;" width="454.8981" x="2319.5257" y="2274.7969"/><text fill="#000000" font-family="sans-serif" font-size="56.25" font-style="italic" lengthAdjust="spacing" textLength="445.5231" x="2324.2132" y="2331.6969">TInput, TOutput</text><line style="stroke:#181818;stroke-width:2.3438;" x1="1593.1875" x2="2755.6738" y1="2438.8594" y2="2438.8594"/><line style="stroke:#181818;stroke-width:2.3438;" x1="1593.1875" x2="2755.6738" y1="2476.3594" y2="2476.3594"/></g><g class="entity" data-entity="GMN3" data-source-line="11" data-uid="ent0004" id="entity_GMN3"><path d="M3108.6094,2342.4844 L3108.6094,2382.6094 L2761.8281,2401.3594 L3108.6094,2420.1094 L3108.6094,2460.2944 A0,0 0 0 0 3108.6094,2460.2944 L4201.8932,2460.2944 A0,0 0 0 0 4201.8932,2460.2944 L4201.8932,2389.3594 L4155.0182,2342.4844 L3108.6094,2342.4844 A0,0 0 0 0 3108.6094,2342.4844" fill="#FEFFDD" style="stroke:#181818;stroke-width:2.3438;"/><path d="M4155.0182,2342.4844 L4155.0182,2389.3594 L4201.8932,2389.3594 L4155.0182,2342.4844" fill="#FEFFDD" style="stroke:#181818;stroke-width:2.3438;"/><text fill="#000000" font-family="sans-serif" font-size="60.9375" lengthAdjust="spacing" textLength="994.8463" x="3136.7344" y="2422.4854">Defines the Solve(input) method</text></g><!--class IProblemStrategy--><g class="entity" data-entity="IProblemStrategy" data-source-line="14" data-uid="ent0006" id="entity_IProblemStrategy"><rect fill="#F1F1F1" height="225" rx="11.7188" ry="11.7188" style="stroke:#181818;stroke-width:2.3438;" width="1185.704" x="1581.5625" y="1899.7969"/><ellipse cx="1651.875" cy="1974.7969" fill="#B4A7E5" rx="51.5625" ry="51.5625" style="stroke:#181818;stroke-width:4.6875;"/><path d="M1632.7588,1954.9482 L1632.7588,1944.8408 L1667.4023,1944.8408 L1667.4023,1954.9482 L1655.8301,1954.9482 L1655.8301,1992.8145 L1667.4023,1992.8145 L1667.4023,2002.9219 L1632.7588,2002.9219 L1632.7588,1992.8145 L1644.3311,1992.8145 L1644.3311,1954.9482 L1632.7588,1954.9482 Z " fill="#000000"/><text fill="#000000" font-family="sans-serif" font-size="65.625" font-style="italic" lengthAdjust="spacing" textLength="571.431" x="1717.5" y="1997.5157">IProblemStrategy</text><rect fill="#FFFFFF" height="74.8535" style="stroke:#181818;stroke-width:4.6875;stroke-dasharray:9.375,9.375;" width="454.8981" x="2326.431" y="1885.7344"/><text fill="#000000" font-family="sans-serif" font-size="56.25" font-style="italic" lengthAdjust="spacing" textLength="445.5231" x="2331.1185" y="1942.6344">TInput, TOutput</text><line style="stroke:#181818;stroke-width:2.3438;" x1="1586.25" x2="2762.579" y1="2049.7969" y2="2049.7969"/><line style="stroke:#181818;stroke-width:2.3438;" x1="1586.25" x2="2762.579" y1="2087.2969" y2="2087.2969"/></g><g class="entity" data-entity="GMN7" data-source-line="16" data-uid="ent0008" id="entity_GMN7"><path d="M3119.1094,1953.4219 L3119.1094,1993.5469 L2768.2031,2012.2969 L3119.1094,2031.0469 L3119.1094,2071.2319 A0,0 0 0 0 3119.1094,2071.2319 L4191.3864,2071.2319 A0,0 0 0 0 4191.3864,2071.2319 L4191.3864,2000.2969 L4144.5114,1953.4219 L3119.1094,1953.4219 A0,0 0 0 0 3119.1094,1953.4219" fill="#FEFFDD" style="stroke:#181818;stroke-width:2.3438;"/><path d="M4144.5114,1953.4219 L4144.5114,2000.2969 L4191.3864,2000.2969 L4144.5114,1953.4219" fill="#FEFFDD" style="stroke:#181818;stroke-width:2.3438;"/><text fill="#000000" font-family="sans-serif" font-size="60.9375" lengthAdjust="spacing" textLength="973.8396" x="3147.2344" y="2033.4229">Wraps a solution with metadata</text></g><!--class ITestCaseProvider--><g class="entity" data-entity="ITestCaseProvider" data-source-line="19" data-uid="ent0010" id="entity_ITestCaseProvider"><rect fill="#F1F1F1" height="225" rx="11.7188" ry="11.7188" style="stroke:#181818;stroke-width:2.3438;" width="1207.3975" x="32.8125" y="1435.7344"/><ellipse cx="103.125" cy="1510.7344" fill="#B4A7E5" rx="51.5625" ry="51.5625" style="stroke:#181818;stroke-width:4.6875;"/><path d="M84.0088,1490.8857 L84.0088,1480.7783 L118.6523,1480.7783 L118.6523,1490.8857 L107.0801,1490.8857 L107.0801,1528.752 L118.6523,1528.752 L118.6523,1538.8594 L84.0088,1538.8594 L84.0088,1528.752 L95.5811,1528.752 L95.5811,1490.8857 L84.0088,1490.8857 Z " fill="#000000"/><text fill="#000000" font-family="sans-serif" font-size="65.625" font-style="italic" lengthAdjust="spacing" textLength="593.1244" x="168.75" y="1533.4532">ITestCaseProvider</text><rect fill="#FFFFFF" height="74.8535" style="stroke:#181818;stroke-width:4.6875;stroke-dasharray:9.375,9.375;" width="454.8981" x="799.3744" y="1421.6719"/><text fill="#000000" font-family="sans-serif" font-size="56.25" font-style="italic" lengthAdjust="spacing" textLength="445.5231" x="804.0619" y="1478.5719">TInput, TOutput</text><line style="stroke:#181818;stroke-width:2.3438;" x1="37.5" x2="1235.5225" y1="1585.7344" y2="1585.7344"/><line style="stroke:#181818;stroke-width:2.3438;" x1="37.5" x2="1235.5225" y1="1623.2344" y2="1623.2344"/></g><g class="entity" data-entity="GMN11" data-source-line="21" data-uid="ent0012" id="entity_GMN11"><path d="M1521.4688,1489.3594 L1521.4688,1529.4844 L1242.1406,1548.2344 L1521.4688,1566.9844 L1521.4688,1607.1694 A0,0 0 0 0 1521.4688,1607.1694 L2827.3792,1607.1694 A0,0 0 0 0 2827.3792,1607.1694 L2827.3792,1536.2344 L2780.5042,1489.3594 L1521.4688,1489.3594 A0,0 0 0 0 1521.4688,1489.3594" fill="#FEFFDD" style="stroke:#181818;stroke-width:2.3438;"/><path d="M2780.5042,1489.3594 L2780.5042,1536.2344 L2827.3792,1536.2344 L2780.5042,1489.3594" fill="#FEFFDD" style="stroke:#181818;stroke-width:2.3438;"/><text fill="#000000" font-family="sans-serif" font-size="60.9375" lengthAdjust="spacing" textLength="1207.473" x="1549.5938" y="1569.3604">Provides test cases for a given problem</text></g><!--class IBenchmarkSummary--><g class="entity" data-entity="IBenchmarkSummary" data-source-line="24" data-uid="ent0014" id="entity_IBenchmarkSummary"><rect fill="#F1F1F1" height="683.3496" rx="11.7188" ry="11.7188" style="stroke:#181818;stroke-width:2.3438;" width="917.1616" x="177.9375" y="587.8125"/><ellipse cx="273.8488" cy="662.8125" fill="#B4A7E5" rx="51.5625" ry="51.5625" style="stroke:#181818;stroke-width:4.6875;"/><path d="M254.7326,642.9639 L254.7326,632.8564 L289.3762,632.8564 L289.3762,642.9639 L277.8039,642.9639 L277.8039,680.8301 L289.3762,680.8301 L289.3762,690.9375 L254.7326,690.9375 L254.7326,680.8301 L266.3049,680.8301 L266.3049,642.9639 L254.7326,642.9639 Z " fill="#000000"/><text fill="#000000" font-family="sans-serif" font-size="65.625" font-style="italic" lengthAdjust="spacing" textLength="710.2753" x="345.1625" y="685.5313">IBenchmarkSummary</text><line style="stroke:#181818;stroke-width:2.3438;" x1="182.625" x2="1090.4116" y1="737.8125" y2="737.8125"/><text fill="#000000" font-family="sans-serif" font-size="65.625" lengthAdjust="spacing" textLength="750.8423" x="206.0625" y="817.4771">+ProblemName: string</text><text fill="#000000" font-family="sans-serif" font-size="65.625" lengthAdjust="spacing" textLength="761.1282" x="206.0625" y="893.8687">+StrategyName: string</text><text fill="#000000" font-family="sans-serif" font-size="65.625" lengthAdjust="spacing" textLength="413.7131" x="206.0625" y="970.2603">+Passed: int</text><text fill="#000000" font-family="sans-serif" font-size="65.625" lengthAdjust="spacing" textLength="347.9279" x="206.0625" y="1046.6519">+Total: int</text><text fill="#000000" font-family="sans-serif" font-size="65.625" lengthAdjust="spacing" textLength="821.8826" x="206.0625" y="1123.0435">+AvgTimeMicros: double</text><text fill="#000000" font-family="sans-serif" font-size="65.625" lengthAdjust="spacing" textLength="860.9116" x="206.0625" y="1199.4351">+TotalTimeMicros: double</text><line style="stroke:#181818;stroke-width:2.3438;" x1="182.625" x2="1090.4116" y1="1233.6621" y2="1233.6621"/></g><!--class ProblemStrategy--><g class="entity" data-entity="ProblemStrategy" data-source-line="34" data-uid="ent0015" id="entity_ProblemStrategy"><rect fill="#F1F1F1" height="377.7832" rx="11.7188" ry="11.7188" style="stroke:#181818;stroke-width:2.3438;" width="1201.5793" x="35.7188" y="1823.4375"/><ellipse cx="121.8845" cy="1898.4375" fill="#ADD1B2" rx="51.5625" ry="51.5625" style="stroke:#181818;stroke-width:4.6875;"/><path d="M135.8005,1924.8779 Q133.0906,1926.2695 130.0876,1926.9287 Q127.0847,1927.6611 123.7888,1927.6611 Q112.0701,1927.6611 105.8445,1919.9707 Q99.6921,1912.207 99.6921,1897.5586 Q99.6921,1882.9102 105.8445,1875.1465 Q112.0701,1867.3828 123.7888,1867.3828 Q127.0847,1867.3828 130.0876,1868.1152 Q133.1638,1868.8477 135.8005,1870.2393 L135.8005,1882.9834 Q132.8708,1880.2734 130.0876,1879.0283 Q127.3044,1877.71 124.3748,1877.71 Q118.0759,1877.71 114.8533,1882.7637 Q111.6306,1887.7441 111.6306,1897.5586 Q111.6306,1907.373 114.8533,1912.4268 Q118.0759,1917.4072 124.3748,1917.4072 Q127.3044,1917.4072 130.0876,1916.1621 Q132.8708,1914.8438 135.8005,1912.1338 L135.8005,1924.8779 Z " fill="#000000"/><text fill="#000000" font-family="sans-serif" font-size="65.625" lengthAdjust="spacing" textLength="552.0767" x="191.0325" y="1921.1563">ProblemStrategy</text><rect fill="#FFFFFF" height="74.8535" style="stroke:#181818;stroke-width:4.6875;stroke-dasharray:9.375,9.375;" width="454.8981" x="796.4625" y="1809.375"/><text fill="#000000" font-family="sans-serif" font-size="56.25" font-style="italic" lengthAdjust="spacing" textLength="445.5231" x="801.15" y="1866.275">TInput, TOutput</text><line style="stroke:#181818;stroke-width:2.3438;" x1="40.4063" x2="1232.6105" y1="1973.4375" y2="1973.4375"/><text fill="#000000" font-family="sans-serif" font-size="65.625" lengthAdjust="spacing" textLength="448.6404" x="63.8438" y="2053.1021">-Name: string</text><text fill="#000000" font-family="sans-serif" font-size="65.625" lengthAdjust="spacing" textLength="1145.3293" x="63.8438" y="2129.4937">-Implementation: IProblemSolution</text><line style="stroke:#181818;stroke-width:2.3438;" x1="40.4063" x2="1232.6105" y1="2163.7207" y2="2163.7207"/></g><!--class BenchmarkSummary--><g class="entity" data-entity="BenchmarkSummary" data-source-line="43" data-uid="ent0019" id="entity_BenchmarkSummary"><rect fill="#F1F1F1" height="683.3496" rx="11.7188" ry="11.7188" style="stroke:#181818;stroke-width:2.3438;" width="917.1616" x="1715.8125" y="587.8125"/><ellipse cx="1820.4332" cy="662.8125" fill="#ADD1B2" rx="51.5625" ry="51.5625" style="stroke:#181818;stroke-width:4.6875;"/><path d="M1834.3493,689.2529 Q1831.6393,690.6445 1828.6364,691.3037 Q1825.6334,692.0361 1822.3375,692.0361 Q1810.6188,692.0361 1804.3932,684.3457 Q1798.2409,676.582 1798.2409,661.9336 Q1798.2409,647.2852 1804.3932,639.5215 Q1810.6188,631.7578 1822.3375,631.7578 Q1825.6334,631.7578 1828.6364,632.4902 Q1831.7125,633.2227 1834.3493,634.6143 L1834.3493,647.3584 Q1831.4196,644.6484 1828.6364,643.4033 Q1825.8532,642.085 1822.9235,642.085 Q1816.6246,642.085 1813.402,647.1387 Q1810.1793,652.1191 1810.1793,661.9336 Q1810.1793,671.748 1813.402,676.8018 Q1816.6246,681.7822 1822.9235,681.7822 Q1825.8532,681.7822 1828.6364,680.5371 Q1831.4196,679.2187 1834.3493,676.5088 L1834.3493,689.2529 Z " fill="#000000"/><text fill="#000000" font-family="sans-serif" font-size="65.625" lengthAdjust="spacing" textLength="690.921" x="1893.6823" y="685.5313">BenchmarkSummary</text><line style="stroke:#181818;stroke-width:2.3438;" x1="1720.5" x2="2628.2866" y1="737.8125" y2="737.8125"/><text fill="#000000" font-family="sans-serif" font-size="65.625" lengthAdjust="spacing" textLength="750.8423" x="1743.9375" y="817.4771">+ProblemName: string</text><text fill="#000000" font-family="sans-serif" font-size="65.625" lengthAdjust="spacing" textLength="761.1282" x="1743.9375" y="893.8687">+StrategyName: string</text><text fill="#000000" font-family="sans-serif" font-size="65.625" lengthAdjust="spacing" textLength="413.7131" x="1743.9375" y="970.2603">+Passed: int</text><text fill="#000000" font-family="sans-serif" font-size="65.625" lengthAdjust="spacing" textLength="347.9279" x="1743.9375" y="1046.6519">+Total: int</text><text fill="#000000" font-family="sans-serif" font-size="65.625" lengthAdjust="spacing" textLength="821.8826" x="1743.9375" y="1123.0435">+AvgTimeMicros: double</text><text fill="#000000" font-family="sans-serif" font-size="65.625" lengthAdjust="spacing" textLength="860.9116" x="1743.9375" y="1199.4351">+TotalTimeMicros: double</text><line style="stroke:#181818;stroke-width:2.3438;" x1="1720.5" x2="2628.2866" y1="1233.6621" y2="1233.6621"/></g><!--class ProblemInput--><g class="entity" data-entity="ProblemInput" data-source-line="55" data-uid="ent0022" id="entity_ProblemInput"><rect fill="#F1F1F1" height="377.7832" rx="11.7188" ry="11.7188" style="stroke:#181818;stroke-width:2.3438;" width="643.9316" x="314.5313" y="46.875"/><ellipse cx="384.8438" cy="121.875" fill="#A9DCDF" rx="51.5625" ry="51.5625" style="stroke:#181818;stroke-width:4.6875;"/><path d="M385.3564,100.0488 L379.9365,123.8525 L390.8496,123.8525 L385.3564,100.0488 Z M378.3984,89.5752 L392.3877,89.5752 L408.1348,147.6563 L396.6357,147.6563 L393.0469,133.3008 L377.666,133.3008 L374.1504,147.6563 L362.7246,147.6563 L378.3984,89.5752 Z " fill="#000000"/><text fill="#000000" font-family="sans-serif" font-size="65.625" font-style="italic" lengthAdjust="spacing" textLength="440.8218" x="450.4688" y="144.5938">ProblemInput</text><rect fill="#FFFFFF" height="74.8535" style="stroke:#181818;stroke-width:4.6875;stroke-dasharray:9.375,9.375;" width="43.7347" x="928.7906" y="32.8125"/><text fill="#000000" font-family="sans-serif" font-size="56.25" font-style="italic" lengthAdjust="spacing" textLength="34.3597" x="933.4781" y="89.7125">T</text><line style="stroke:#181818;stroke-width:2.3438;" x1="319.2188" x2="953.7753" y1="196.875" y2="196.875"/><text fill="#000000" font-family="sans-serif" font-size="65.625" lengthAdjust="spacing" textLength="276.6632" x="342.6563" y="276.5396">-Input: T</text><text fill="#000000" font-family="sans-serif" font-size="65.625" lengthAdjust="spacing" textLength="483.9203" x="342.6563" y="352.9312">-Target: object</text><line style="stroke:#181818;stroke-width:2.3438;" x1="319.2188" x2="953.7753" y1="387.1582" y2="387.1582"/></g><!--class TwoSumInput--><g class="entity" data-entity="TwoSumInput" data-source-line="60" data-uid="ent0023" id="entity_TwoSumInput"><rect fill="#F1F1F1" height="454.1748" rx="11.7188" ry="11.7188" style="stroke:#181818;stroke-width:2.3438;" width="669.8822" x="301.5469" y="2675.8594"/><ellipse cx="402.8511" cy="2750.8594" fill="#ADD1B2" rx="51.5625" ry="51.5625" style="stroke:#181818;stroke-width:4.6875;"/><path d="M416.7671,2777.2998 Q414.0572,2778.6914 411.0542,2779.3506 Q408.0513,2780.083 404.7554,2780.083 Q393.0367,2780.083 386.8111,2772.3926 Q380.6587,2764.6289 380.6587,2749.9805 Q380.6587,2735.332 386.8111,2727.5684 Q393.0367,2719.8047 404.7554,2719.8047 Q408.0513,2719.8047 411.0542,2720.5371 Q414.1304,2721.2695 416.7671,2722.6611 L416.7671,2735.4053 Q413.8374,2732.6953 411.0542,2731.4502 Q408.271,2730.1318 405.3414,2730.1318 Q399.0425,2730.1318 395.8199,2735.1855 Q392.5972,2740.166 392.5972,2749.9805 Q392.5972,2759.7949 395.8199,2764.8486 Q399.0425,2769.8291 405.3414,2769.8291 Q408.271,2769.8291 411.0542,2768.584 Q413.8374,2767.2656 416.7671,2764.5557 L416.7671,2777.2998 Z " fill="#000000"/><text fill="#000000" font-family="sans-serif" font-size="65.625" lengthAdjust="spacing" textLength="451.0117" x="475.3632" y="2773.5782">TwoSumInput</text><line style="stroke:#181818;stroke-width:2.3438;" x1="306.2344" x2="966.7416" y1="2825.8594" y2="2825.8594"/><text fill="#000000" font-family="sans-serif" font-size="65.625" lengthAdjust="spacing" textLength="501.2238" x="329.6719" y="2905.524">-Numbers: int[]</text><text fill="#000000" font-family="sans-serif" font-size="65.625" lengthAdjust="spacing" textLength="367.2501" x="329.6719" y="2981.9156">-Target: int</text><line style="stroke:#181818;stroke-width:2.3438;" x1="306.2344" x2="966.7416" y1="3016.1426" y2="3016.1426"/><text fill="#000000" font-family="sans-serif" font-size="65.625" lengthAdjust="spacing" textLength="613.6322" x="329.6719" y="3095.8072">+ToString(): string</text></g><!--class TwoSumSortedInput--><g class="entity" data-entity="TwoSumSortedInput" data-source-line="66" data-uid="ent0024" id="entity_TwoSumSortedInput"><rect fill="#F1F1F1" height="454.1748" rx="11.7188" ry="11.7188" style="stroke:#181818;stroke-width:2.3438;" width="817.5613" x="227.7188" y="3294.6094"/><ellipse cx="298.0313" cy="3369.6094" fill="#ADD1B2" rx="51.5625" ry="51.5625" style="stroke:#181818;stroke-width:4.6875;"/><path d="M311.9473,3396.0498 Q309.2373,3397.4414 306.2344,3398.1006 Q303.2314,3398.833 299.9355,3398.833 Q288.2168,3398.833 281.9912,3391.1426 Q275.8389,3383.3789 275.8389,3368.7305 Q275.8389,3354.082 281.9912,3346.3184 Q288.2168,3338.5547 299.9355,3338.5547 Q303.2314,3338.5547 306.2344,3339.2871 Q309.3105,3340.0195 311.9473,3341.4111 L311.9473,3354.1553 Q309.0176,3351.4453 306.2344,3350.2002 Q303.4512,3348.8818 300.5215,3348.8818 Q294.2227,3348.8818 291,3353.9355 Q287.7773,3358.916 287.7773,3368.7305 Q287.7773,3378.5449 291,3383.5986 Q294.2227,3388.5791 300.5215,3388.5791 Q303.4512,3388.5791 306.2344,3387.334 Q309.0176,3386.0156 311.9473,3383.3057 L311.9473,3396.0498 Z " fill="#000000"/><text fill="#000000" font-family="sans-serif" font-size="65.625" lengthAdjust="spacing" textLength="667.5613" x="363.6563" y="3392.3282">TwoSumSortedInput</text><line style="stroke:#181818;stroke-width:2.3438;" x1="232.4063" x2="1040.5926" y1="3444.6094" y2="3444.6094"/><text fill="#000000" font-family="sans-serif" font-size="65.625" lengthAdjust="spacing" textLength="501.2238" x="255.8438" y="3524.274">-Numbers: int[]</text><text fill="#000000" font-family="sans-serif" font-size="65.625" lengthAdjust="spacing" textLength="367.2501" x="255.8438" y="3600.6656">-Target: int</text><line style="stroke:#181818;stroke-width:2.3438;" x1="232.4063" x2="1040.5926" y1="3634.8926" y2="3634.8926"/><text fill="#000000" font-family="sans-serif" font-size="65.625" lengthAdjust="spacing" textLength="613.6322" x="255.8438" y="3714.5572">+ToString(): string</text></g><!--class ThreeSumInput--><g class="entity" data-entity="ThreeSumInput" data-source-line="72" data-uid="ent0025" id="entity_ThreeSumInput"><rect fill="#F1F1F1" height="454.1748" rx="11.7188" ry="11.7188" style="stroke:#181818;stroke-width:2.3438;" width="669.8822" x="1839.4688" y="2675.8594"/><ellipse cx="1915.7983" cy="2750.8594" fill="#ADD1B2" rx="51.5625" ry="51.5625" style="stroke:#181818;stroke-width:4.6875;"/><path d="M1929.7143,2777.2998 Q1927.0044,2778.6914 1924.0014,2779.3506 Q1920.9985,2780.083 1917.7026,2780.083 Q1905.9839,2780.083 1899.7583,2772.3926 Q1893.6059,2764.6289 1893.6059,2749.9805 Q1893.6059,2735.332 1899.7583,2727.5684 Q1905.9839,2719.8047 1917.7026,2719.8047 Q1920.9985,2719.8047 1924.0014,2720.5371 Q1927.0776,2721.2695 1929.7143,2722.6611 L1929.7143,2735.4053 Q1926.7847,2732.6953 1924.0014,2731.4502 Q1921.2182,2730.1318 1918.2886,2730.1318 Q1911.9897,2730.1318 1908.7671,2735.1855 Q1905.5444,2740.166 1905.5444,2749.9805 Q1905.5444,2759.7949 1908.7671,2764.8486 Q1911.9897,2769.8291 1918.2886,2769.8291 Q1921.2182,2769.8291 1924.0014,2768.584 Q1926.7847,2767.2656 1929.7143,2764.5557 L1929.7143,2777.2998 Z " fill="#000000"/><text fill="#000000" font-family="sans-serif" font-size="65.625" lengthAdjust="spacing" textLength="506.5109" x="1982.7605" y="2773.5782">ThreeSumInput</text><line style="stroke:#181818;stroke-width:2.3438;" x1="1844.1563" x2="2504.6635" y1="2825.8594" y2="2825.8594"/><text fill="#000000" font-family="sans-serif" font-size="65.625" lengthAdjust="spacing" textLength="501.2238" x="1867.5938" y="2905.524">-Numbers: int[]</text><text fill="#000000" font-family="sans-serif" font-size="65.625" lengthAdjust="spacing" textLength="367.2501" x="1867.5938" y="2981.9156">-Target: int</text><line style="stroke:#181818;stroke-width:2.3438;" x1="1844.1563" x2="2504.6635" y1="3016.1426" y2="3016.1426"/><text fill="#000000" font-family="sans-serif" font-size="65.625" lengthAdjust="spacing" textLength="613.6322" x="1867.5938" y="3095.8072">+ToString(): string</text></g><!--class RotatedArrayInput--><g class="entity" data-entity="RotatedArrayInput" data-source-line="78" data-uid="ent0026" id="entity_RotatedArrayInput"><rect fill="#F1F1F1" height="377.7832" rx="11.7188" ry="11.7188" style="stroke:#181818;stroke-width:2.3438;" width="757.2876" x="1795.7813" y="46.875"/><ellipse cx="1866.0938" cy="121.875" fill="#ADD1B2" rx="51.5625" ry="51.5625" style="stroke:#181818;stroke-width:4.6875;"/><path d="M1880.0098,148.3154 Q1877.2998,149.707 1874.2969,150.3662 Q1871.2939,151.0986 1867.998,151.0986 Q1856.2793,151.0986 1850.0537,143.4082 Q1843.9014,135.6445 1843.9014,120.9961 Q1843.9014,106.3477 1850.0537,98.584 Q1856.2793,90.8203 1867.998,90.8203 Q1871.2939,90.8203 1874.2969,91.5527 Q1877.373,92.2852 1880.0098,93.6768 L1880.0098,106.4209 Q1877.0801,103.7109 1874.2969,102.4658 Q1871.5137,101.1475 1868.584,101.1475 Q1862.2852,101.1475 1859.0625,106.2012 Q1855.8398,111.1816 1855.8398,120.9961 Q1855.8398,130.8105 1859.0625,135.8643 Q1862.2852,140.8447 1868.584,140.8447 Q1871.5137,140.8447 1874.2969,139.5996 Q1877.0801,138.2813 1880.0098,135.5713 L1880.0098,148.3154 Z " fill="#000000"/><text fill="#000000" font-family="sans-serif" font-size="65.625" lengthAdjust="spacing" textLength="607.2876" x="1931.7188" y="144.5938">RotatedArrayInput</text><line style="stroke:#181818;stroke-width:2.3438;" x1="1800.4688" x2="2548.3813" y1="196.875" y2="196.875"/><text fill="#000000" font-family="sans-serif" font-size="65.625" lengthAdjust="spacing" textLength="501.2238" x="1823.9063" y="276.5396">-Numbers: int[]</text><text fill="#000000" font-family="sans-serif" font-size="65.625" lengthAdjust="spacing" textLength="367.2501" x="1823.9063" y="352.9312">-Target: int</text><line style="stroke:#181818;stroke-width:2.3438;" x1="1800.4688" x2="2548.3813" y1="387.1582" y2="387.1582"/></g><!--class RemoveElementInput--><g class="entity" data-entity="RemoveElementInput" data-source-line="83" data-uid="ent0028" id="entity_RemoveElementInput"><rect fill="#F1F1F1" height="377.7832" rx="11.7188" ry="11.7188" style="stroke:#181818;stroke-width:2.3438;" width="860.8841" x="1743.9844" y="3295.3125"/><ellipse cx="1814.2969" cy="3370.3125" fill="#ADD1B2" rx="51.5625" ry="51.5625" style="stroke:#181818;stroke-width:4.6875;"/><path d="M1828.2129,3396.7529 Q1825.5029,3398.1445 1822.5,3398.8037 Q1819.4971,3399.5361 1816.2012,3399.5361 Q1804.4824,3399.5361 1798.2568,3391.8457 Q1792.1045,3384.082 1792.1045,3369.4336 Q1792.1045,3354.7852 1798.2568,3347.0215 Q1804.4824,3339.2578 1816.2012,3339.2578 Q1819.4971,3339.2578 1822.5,3339.9902 Q1825.5762,3340.7227 1828.2129,3342.1143 L1828.2129,3354.8584 Q1825.2832,3352.1484 1822.5,3350.9033 Q1819.7168,3349.585 1816.7871,3349.585 Q1810.4883,3349.585 1807.2656,3354.6387 Q1804.043,3359.6191 1804.043,3369.4336 Q1804.043,3379.248 1807.2656,3384.3018 Q1810.4883,3389.2822 1816.7871,3389.2822 Q1819.7168,3389.2822 1822.5,3388.0371 Q1825.2832,3386.7188 1828.2129,3384.0088 L1828.2129,3396.7529 Z " fill="#000000"/><text fill="#000000" font-family="sans-serif" font-size="65.625" lengthAdjust="spacing" textLength="710.8841" x="1879.9219" y="3393.0313">RemoveElementInput</text><line style="stroke:#181818;stroke-width:2.3438;" x1="1748.6719" x2="2600.181" y1="3445.3125" y2="3445.3125"/><text fill="#000000" font-family="sans-serif" font-size="65.625" lengthAdjust="spacing" textLength="501.2238" x="1772.1094" y="3524.9771">-Numbers: int[]</text><text fill="#000000" font-family="sans-serif" font-size="65.625" lengthAdjust="spacing" textLength="337.5137" x="1772.1094" y="3601.3687">-Value: int</text><line style="stroke:#181818;stroke-width:2.3438;" x1="1748.6719" x2="2600.181" y1="3635.5957" y2="3635.5957"/></g><!--reverse link IProblemStrategy to ProblemStrategy--><g class="link" data-entity-1="IProblemStrategy" data-entity-2="ProblemStrategy" data-source-line="35" data-uid="lnk16" id="link_IProblemStrategy_ProblemStrategy"><path d="M1495.4531,2049.7969 C1383.4688,2049.7969 1350.6094,2049.7969 1238.3906,2049.7969" fill="none" id="IProblemStrategy-backto-ProblemStrategy" style="stroke:#181818;stroke-width:4.6875;stroke-dasharray:32.8125,32.8125;"/><polygon fill="none" points="1579.8281,2049.7969,1495.4531,2021.6719,1495.4531,2077.9219,1579.8281,2049.7969" style="stroke:#181818;stroke-width:4.6875;"/></g><!--link ProblemStrategy to IProblemStrategy--><g class="link" data-entity-1="ProblemStrategy" data-entity-2="IProblemStrategy" data-source-line="40" data-uid="lnk18" id="link_ProblemStrategy_IProblemStrategy"><path codeLine="40" d="M1237.7344,1974.7969 C1350.1875,1974.7969 1439.5781,1974.7969 1551.7969,1974.7969" fill="none" id="ProblemStrategy-to-IProblemStrategy" style="stroke:#181818;stroke-width:4.6875;"/><polygon fill="#181818" points="1579.9219,1974.7969,1537.7344,1956.0469,1556.4844,1974.7969,1537.7344,1993.5469,1579.9219,1974.7969" style="stroke:#181818;stroke-width:4.6875;"/></g><!--link ProblemStrategy to IProblemSolution--><g class="link" data-entity-1="ProblemStrategy" data-entity-2="IProblemSolution" data-source-line="39" data-uid="lnk17" id="link_ProblemStrategy_IProblemSolution"><path codeLine="39" d="M1140.9844,2202.2813 C1140.9844,2301.0469 1140.9844,2401.3594 1140.9844,2401.3594 C1140.9844,2401.3594 1325.9531,2401.3594 1558.5938,2401.3594" fill="none" id="ProblemStrategy-to-IProblemSolution" style="stroke:#181818;stroke-width:4.6875;"/><polygon fill="#181818" points="1586.7188,2401.3594,1544.5313,2382.6094,1563.2813,2401.3594,1544.5313,2420.1094,1586.7188,2401.3594" style="stroke:#181818;stroke-width:4.6875;"/></g><!--reverse link IBenchmarkSummary to BenchmarkSummary--><g class="link" data-entity-1="IBenchmarkSummary" data-entity-2="BenchmarkSummary" data-source-line="44" data-uid="lnk20" id="link_IBenchmarkSummary_BenchmarkSummary"><path d="M1180.2188,1043.3906 C1375.8281,1043.3906 1519.1719,1043.3906 1714.7813,1043.3906" fill="none" id="IBenchmarkSummary-backto-BenchmarkSummary" style="stroke:#181818;stroke-width:4.6875;stroke-dasharray:32.8125,32.8125;"/><polygon fill="none" points="1095.8438,1043.3906,1180.2188,1071.5156,1180.2188,1015.2656,1095.8438,1043.3906" style="stroke:#181818;stroke-width:4.6875;"/></g><!--link BenchmarkSummary to IBenchmarkSummary--><g class="link" data-entity-1="BenchmarkSummary" data-entity-2="IBenchmarkSummary" data-source-line="52" data-uid="lnk21" id="link_BenchmarkSummary_IBenchmarkSummary"><path codeLine="52" d="M1715.0625,815.625 C1519.4531,815.625 1319.9063,815.625 1124.25,815.625" fill="none" id="BenchmarkSummary-to-IBenchmarkSummary" style="stroke:#181818;stroke-width:4.6875;"/><polygon fill="#181818" points="1096.125,815.625,1138.3125,834.375,1119.5625,815.625,1138.3125,796.875,1096.125,815.625" style="stroke:#181818;stroke-width:4.6875;"/></g><!--reverse link ProblemInput to RotatedArrayInput--><g class="link" data-entity-1="ProblemInput" data-entity-2="RotatedArrayInput" data-source-line="79" data-uid="lnk27" id="link_ProblemInput_RotatedArrayInput"><path d="M1045.1719,298.7344 C1288.4063,298.7344 1537.6875,298.7344 1793.5781,298.7344" fill="none" id="ProblemInput-backto-RotatedArrayInput" style="stroke:#181818;stroke-width:4.6875;"/><polygon fill="none" points="960.7969,298.7344,1045.1719,326.8594,1045.1719,270.6094,960.7969,298.7344" style="stroke:#181818;stroke-width:4.6875;"/></g><!--reverse link ProblemInput to RotatedArrayInput--><g class="link" data-entity-1="ProblemInput" data-entity-2="RotatedArrayInput" data-source-line="88" data-uid="lnk29" id="link_ProblemInput_RotatedArrayInput"><path codeLine="88" d="M1045.1719,172.7813 C1288.4063,172.7813 1537.6875,172.7813 1793.5781,172.7813" fill="none" id="ProblemInput-backto-RotatedArrayInput-1" style="stroke:#181818;stroke-width:4.6875;"/><polygon fill="none" points="960.7969,172.7813,1045.1719,200.9063,1045.1719,144.6563,960.7969,172.7813" style="stroke:#181818;stroke-width:4.6875;"/></g><!--SRC=[rLHDZzD03BtFh_2DNK5G4U9IjPNAmg67XHMDs0FYu2PECcmo4yquBUNZl-EaIHkIYkq13lJIZErvxzdF6l-WJOaE2uXoz7x9xFIcObf5rgprDuA9yiSIds5iTzgaa63kgPV9jI7UbmJMSMPxYRZKy78oKJab36p1wJHZYBMZYBKroaUO4xnu_agf9p2Vps5bc5o24Vdwg7HtXDMTivkSYhNDg_hgB5oPik9d4BwlM3uMobYcbi0cethrXX9HwO4p0WbkwKhN0DTGa6YE5PaOQWXrZfGTCgNxYqdRUdNliFI0u5iLiDESrOmO8-Dvpf0ytw0dmThgcDoZfCCBglsGNYK3aQGy9DQ9ZbHloK1vK7cU_ZMPA2lGFQohGlxsy5s1_9v2szixB6WANXR5f6scQ_TCwawsYk8f244R2IrZtWyijsce2xhLaRD-2h6jXAPVV2RxizkNZXhgIPVacgrfTXaUymvqKKgU3FkHSMtJ0OnQ2c3LNSFQqUbuqqJS42u85kEwFnPr6zJsUNG5EbjEZOuSwpVslzWvqjbCOnZjnd5Z7S6jZIa_l1Eu4PaOCVncVMFuB5mStMm2KmZROuWk9JdRpHTvZseLX-lXpWfVKtnQXAhOaFDDfvy-3m3wurWtyxgwFavk0BkMDvBYlm-UEQ9_eVg3U2Q2byxX_W1ENrbUZi6K6uB5vSGdV2hibjuU5lO2zHynh-Y8qTS0inz1CDQhVW40]--></g></svg>