<svg xmlns="http://www.w3.org/2000/svg" xmlns:xlink="http://www.w3.org/1999/xlink" contentStyleType="text/css" data-diagram-type="CLASS" height="3192.1875px" preserveAspectRatio="none" style="width:5971px;height:3192px;background:#FFFFFF;" version="1.1" viewBox="0 0 5971 3192" width="5971.875px" zoomAndPan="magnify"><defs/><g><!--class ProblemTest--><g class="entity" data-entity="ProblemTest" data-source-line="9" data-uid="ent0002" id="entity_ProblemTest"><rect fill="#F1F1F1" height="454.1748" rx="11.7188" ry="11.7188" style="stroke:#181818;stroke-width:2.3438;" width="1355.2597" x="625.125" y="1725"/><ellipse cx="845.0576" cy="1800" fill="#ADD1B2" rx="51.5625" ry="51.5625" style="stroke:#181818;stroke-width:4.6875;"/><path d="M858.9736,1826.4404 Q856.2636,1827.832 853.2607,1828.4912 Q850.2578,1829.2236 846.9619,1829.2236 Q835.2431,1829.2236 829.0175,1821.5332 Q822.8652,1813.7695 822.8652,1799.1211 Q822.8652,1784.4727 829.0175,1776.709 Q835.2431,1768.9453 846.9619,1768.9453 Q850.2578,1768.9453 853.2607,1769.6777 Q856.3369,1770.4102 858.9736,1771.8018 L858.9736,1784.5459 Q856.0439,1781.8359 853.2607,1780.5908 Q850.4775,1779.2725 847.5478,1779.2725 Q841.249,1779.2725 838.0263,1784.3262 Q834.8036,1789.3066 834.8036,1799.1211 Q834.8036,1808.9355 838.0263,1813.9893 Q841.249,1818.9697 847.5478,1818.9697 Q850.4775,1818.9697 853.2607,1817.7246 Q856.0439,1816.4063 858.9736,1813.6963 L858.9736,1826.4404 Z " fill="#000000"/><text fill="#000000" font-family="sans-serif" font-size="65.625" lengthAdjust="spacing" textLength="411.2778" x="941.1513" y="1822.7188">ProblemTest</text><rect fill="#FFFFFF" height="74.8535" style="stroke:#181818;stroke-width:4.6875;stroke-dasharray:9.375,9.375;" width="454.8981" x="1539.5491" y="1710.9375"/><text fill="#000000" font-family="sans-serif" font-size="56.25" font-style="italic" lengthAdjust="spacing" textLength="445.5231" x="1544.2366" y="1767.8375">TInput, TOutput</text><line style="stroke:#181818;stroke-width:2.3438;" x1="629.8125" x2="1975.6972" y1="1875" y2="1875"/><text fill="#000000" font-family="sans-serif" font-size="65.625" lengthAdjust="spacing" textLength="455.2414" x="653.25" y="1954.6646">-_solver: Func</text><text fill="#000000" font-family="sans-serif" font-size="65.625" lengthAdjust="spacing" textLength="572.8409" x="653.25" y="2031.0562">-_comparer: Func</text><line style="stroke:#181818;stroke-width:2.3438;" x1="629.8125" x2="1975.6972" y1="2065.2832" y2="2065.2832"/><text fill="#000000" font-family="sans-serif" font-size="65.625" lengthAdjust="spacing" textLength="1299.0097" x="653.25" y="2144.9478">+RunTests(testCases: List&lt;TestCase&gt;)</text></g><g class="entity" data-entity="GMN3" data-source-line="15" data-uid="ent0004" id="entity_GMN3"><path d="M3189.6094,1040.0625 L3189.6094,1157.8726 L4627.3329,1157.8726 L4627.3329,1086.9375 L4580.4579,1040.0625 L3189.6094,1040.0625" fill="#FEFFDD" style="stroke:#181818;stroke-width:2.3438;"/><path d="M4580.4579,1040.0625 L4580.4579,1086.9375 L4627.3329,1086.9375 L4580.4579,1040.0625" fill="#FEFFDD" style="stroke:#181818;stroke-width:4.6875;"/><text fill="#000000" font-family="sans-serif" font-size="60.9375" lengthAdjust="spacing" textLength="1339.286" x="3217.7344" y="1120.0636">Executes test cases with optional validation</text></g><!--class TestCase--><g class="entity" data-entity="TestCase" data-source-line="18" data-uid="ent0006" id="entity_TestCase"><rect fill="#F1F1F1" height="530.5664" rx="11.7188" ry="11.7188" style="stroke:#181818;stroke-width:2.3438;" width="811.3861" x="3502.7813" y="1321.1719"/><ellipse cx="3738.0603" cy="1396.1719" fill="#ADD1B2" rx="51.5625" ry="51.5625" style="stroke:#181818;stroke-width:4.6875;"/><path d="M3751.9763,1422.6123 Q3749.2664,1424.0039 3746.2635,1424.6631 Q3743.2605,1425.3955 3739.9646,1425.3955 Q3728.2459,1425.3955 3722.0203,1417.7051 Q3715.868,1409.9414 3715.868,1395.293 Q3715.868,1380.6445 3722.0203,1372.8809 Q3728.2459,1365.1172 3739.9646,1365.1172 Q3743.2605,1365.1172 3746.2635,1365.8496 Q3749.3396,1366.582 3751.9763,1367.9736 L3751.9763,1380.7178 Q3749.0467,1378.0078 3746.2635,1376.7627 Q3743.4803,1375.4443 3740.5506,1375.4443 Q3734.2517,1375.4443 3731.0291,1380.498 Q3727.8064,1385.4785 3727.8064,1395.293 Q3727.8064,1405.1074 3731.0291,1410.1611 Q3734.2517,1415.1416 3740.5506,1415.1416 Q3743.4803,1415.1416 3746.2635,1413.8965 Q3749.0467,1412.5781 3751.9763,1409.8682 L3751.9763,1422.6123 Z " fill="#000000"/><text fill="#000000" font-family="sans-serif" font-size="65.625" lengthAdjust="spacing" textLength="300.9842" x="3834.1541" y="1418.8907">TestCase</text><line style="stroke:#181818;stroke-width:2.3438;" x1="3507.4688" x2="4309.4799" y1="1471.1719" y2="1471.1719"/><text fill="#000000" font-family="sans-serif" font-size="65.625" lengthAdjust="spacing" textLength="446.5897" x="3530.9063" y="1550.8365">-Input: TInput</text><text fill="#000000" font-family="sans-serif" font-size="65.625" lengthAdjust="spacing" textLength="640.8691" x="3530.9063" y="1627.2281">-Expected: TOutput</text><text fill="#000000" font-family="sans-serif" font-size="65.625" lengthAdjust="spacing" textLength="707.4234" x="3530.9063" y="1703.6197">-ValidateBySum: bool</text><text fill="#000000" font-family="sans-serif" font-size="65.625" lengthAdjust="spacing" textLength="755.1361" x="3530.9063" y="1780.0113">-ValidateByCount: bool</text><line style="stroke:#181818;stroke-width:2.3438;" x1="3507.4688" x2="4309.4799" y1="1814.2383" y2="1814.2383"/></g><!--class TestResult--><g class="entity" data-entity="TestResult" data-source-line="25" data-uid="ent0007" id="entity_TestResult"><rect fill="#F1F1F1" height="606.958" rx="11.7188" ry="11.7188" style="stroke:#181818;stroke-width:2.3438;" width="721.4401" x="3547.7344" y="2014.2188"/><ellipse cx="3719.4493" cy="2089.2188" fill="#ADD1B2" rx="51.5625" ry="51.5625" style="stroke:#181818;stroke-width:4.6875;"/><path d="M3733.3653,2115.6592 Q3730.6554,2117.0508 3727.6524,2117.71 Q3724.6495,2118.4424 3721.3536,2118.4424 Q3709.6349,2118.4424 3703.4093,2110.752 Q3697.2569,2102.9883 3697.2569,2088.3398 Q3697.2569,2073.6914 3703.4093,2065.9277 Q3709.6349,2058.1641 3721.3536,2058.1641 Q3724.6495,2058.1641 3727.6524,2058.8965 Q3730.7286,2059.6289 3733.3653,2061.0205 L3733.3653,2073.7646 Q3730.4356,2071.0547 3727.6524,2069.8096 Q3724.8692,2068.4912 3721.9395,2068.4912 Q3715.6407,2068.4912 3712.4181,2073.5449 Q3709.1954,2078.5254 3709.1954,2088.3398 Q3709.1954,2098.1543 3712.4181,2103.208 Q3715.6407,2108.1885 3721.9395,2108.1885 Q3724.8692,2108.1885 3727.6524,2106.9434 Q3730.4356,2105.625 3733.3653,2102.915 L3733.3653,2115.6592 Z " fill="#000000"/><text fill="#000000" font-family="sans-serif" font-size="65.625" lengthAdjust="spacing" textLength="346.1014" x="3807.6082" y="2111.9376">TestResult</text><line style="stroke:#181818;stroke-width:2.3438;" x1="3552.4219" x2="4264.487" y1="2164.2188" y2="2164.2188"/><text fill="#000000" font-family="sans-serif" font-size="65.625" lengthAdjust="spacing" textLength="408.5541" x="3575.8594" y="2243.8834">-IsPass: bool</text><text fill="#000000" font-family="sans-serif" font-size="65.625" lengthAdjust="spacing" textLength="446.5897" x="3575.8594" y="2320.275">-Input: TInput</text><text fill="#000000" font-family="sans-serif" font-size="65.625" lengthAdjust="spacing" textLength="640.8691" x="3575.8594" y="2396.6666">-Expected: TOutput</text><text fill="#000000" font-family="sans-serif" font-size="65.625" lengthAdjust="spacing" textLength="541.4383" x="3575.8594" y="2473.0582">-Actual: TOutput</text><text fill="#000000" font-family="sans-serif" font-size="65.625" lengthAdjust="spacing" textLength="665.1901" x="3575.8594" y="2549.4498">-TimeMicros: double</text><line style="stroke:#181818;stroke-width:2.3438;" x1="3552.4219" x2="4264.487" y1="2583.6768" y2="2583.6768"/></g><!--class StrategyBenchmark--><g class="entity" data-entity="StrategyBenchmark" data-source-line="34" data-uid="ent0008" id="entity_StrategyBenchmark"><rect fill="#F1F1F1" height="301.3916" rx="11.7188" ry="11.7188" style="stroke:#181818;stroke-width:2.3438;" width="2539.8422" x="32.8125" y="362.3437"/><ellipse cx="723.1911" cy="437.3437" fill="#ADD1B2" rx="51.5625" ry="51.5625" style="stroke:#181818;stroke-width:4.6875;"/><path d="M737.1071,463.7842 Q734.3971,465.1758 731.3942,465.835 Q728.3913,466.5674 725.0954,466.5674 Q713.3766,466.5674 707.151,458.877 Q700.9987,451.1133 700.9987,436.4648 Q700.9987,421.8164 707.151,414.0527 Q713.3766,406.2891 725.0954,406.2891 Q728.3913,406.2891 731.3942,407.0215 Q734.4704,407.7539 737.1071,409.1455 L737.1071,421.8896 Q734.1774,419.1797 731.3942,417.9346 Q728.611,416.6162 725.6813,416.6162 Q719.3825,416.6162 716.1598,421.6699 Q712.9372,426.6504 712.9372,436.4648 Q712.9372,446.2793 716.1598,451.333 Q719.3825,456.3135 725.6813,456.3135 Q728.611,456.3135 731.3942,455.0684 Q734.1774,453.75 737.1071,451.04 L737.1071,463.7842 Z " fill="#000000"/><text fill="#000000" font-family="sans-serif" font-size="65.625" lengthAdjust="spacing" textLength="654.9683" x="819.2848" y="460.0626">StrategyBenchmark</text><rect fill="#FFFFFF" height="74.8535" style="stroke:#181818;stroke-width:4.6875;stroke-dasharray:9.375,9.375;" width="454.8981" x="2131.8192" y="348.2812"/><text fill="#000000" font-family="sans-serif" font-size="56.25" font-style="italic" lengthAdjust="spacing" textLength="445.5231" x="2136.5067" y="405.1813">TInput, TOutput</text><line style="stroke:#181818;stroke-width:2.3438;" x1="37.5" x2="2567.9672" y1="512.3437" y2="512.3437"/><line style="stroke:#181818;stroke-width:2.3438;" x1="37.5" x2="2567.9672" y1="549.8437" y2="549.8437"/><text fill="#000000" font-family="sans-serif" font-size="65.625" lengthAdjust="spacing" textLength="2483.5922" x="60.9375" y="629.5084">+Run(strategies, testCases, comparer, iterations): List&lt;BenchmarkResult&gt;</text></g><!--class BenchmarkResult--><g class="entity" data-entity="BenchmarkResult" data-source-line="38" data-uid="ent0009" id="entity_BenchmarkResult"><rect fill="#F1F1F1" height="454.1748" rx="11.7188" ry="11.7188" style="stroke:#181818;stroke-width:2.3438;" width="918.251" x="3449.3438" y="32.8125"/><ellipse cx="3604.5916" cy="107.8125" fill="#ADD1B2" rx="51.5625" ry="51.5625" style="stroke:#181818;stroke-width:4.6875;"/><path d="M3618.5076,134.2529 Q3615.7976,135.6445 3612.7947,136.3037 Q3609.7917,137.0361 3606.4958,137.0361 Q3594.7771,137.0361 3588.5515,129.3457 Q3582.3992,121.582 3582.3992,106.9336 Q3582.3992,92.2852 3588.5515,84.5215 Q3594.7771,76.7578 3606.4958,76.7578 Q3609.7917,76.7578 3612.7947,77.4902 Q3615.8708,78.2227 3618.5076,79.6143 L3618.5076,92.3584 Q3615.5779,89.6484 3612.7947,88.4033 Q3610.0115,87.085 3607.0818,87.085 Q3600.783,87.085 3597.5603,92.1387 Q3594.3376,97.1191 3594.3376,106.9336 Q3594.3376,116.748 3597.5603,121.8018 Q3600.783,126.7822 3607.0818,126.7822 Q3610.0115,126.7822 3612.7947,125.5371 Q3615.5779,124.2188 3618.5076,121.5088 L3618.5076,134.2529 Z " fill="#000000"/><text fill="#000000" font-family="sans-serif" font-size="65.625" lengthAdjust="spacing" textLength="579.5059" x="3689.0911" y="130.5313">BenchmarkResult</text><line style="stroke:#181818;stroke-width:2.3438;" x1="3454.0313" x2="4362.9073" y1="182.8125" y2="182.8125"/><text fill="#000000" font-family="sans-serif" font-size="65.625" lengthAdjust="spacing" textLength="729.8218" x="3477.4688" y="262.4771">-StrategyName: string</text><text fill="#000000" font-family="sans-serif" font-size="65.625" lengthAdjust="spacing" textLength="862.001" x="3477.4688" y="338.8687">-AvgMicroseconds: double</text><text fill="#000000" font-family="sans-serif" font-size="65.625" lengthAdjust="spacing" textLength="502.5055" x="3477.4688" y="415.2603">-IsCorrect: bool</text><line style="stroke:#181818;stroke-width:2.3438;" x1="3454.0313" x2="4362.9073" y1="449.4873" y2="449.4873"/></g><!--class ComparerResolver--><g class="entity" data-entity="ComparerResolver" data-source-line="45" data-uid="ent0010" id="entity_ComparerResolver"><rect fill="#F1F1F1" height="301.3916" rx="11.7188" ry="11.7188" style="stroke:#181818;stroke-width:2.3438;" width="2109.1141" x="2853.8906" y="2785.7813"/><ellipse cx="3583.1036" cy="2860.7813" fill="#ADD1B2" rx="51.5625" ry="51.5625" style="stroke:#181818;stroke-width:4.6875;"/><path d="M3597.0196,2887.2217 Q3594.3096,2888.6133 3591.3067,2889.2725 Q3588.3038,2890.0049 3585.0079,2890.0049 Q3573.2891,2890.0049 3567.0635,2882.3145 Q3560.9112,2874.5508 3560.9112,2859.9023 Q3560.9112,2845.2539 3567.0635,2837.4902 Q3573.2891,2829.7266 3585.0079,2829.7266 Q3588.3038,2829.7266 3591.3067,2830.459 Q3594.3829,2831.1914 3597.0196,2832.583 L3597.0196,2845.3271 Q3594.0899,2842.6172 3591.3067,2841.3721 Q3588.5235,2840.0537 3585.5938,2840.0537 Q3579.295,2840.0537 3576.0723,2845.1074 Q3572.8497,2850.0879 3572.8497,2859.9023 Q3572.8497,2869.7168 3576.0723,2874.7705 Q3579.295,2879.751 3585.5938,2879.751 Q3588.5235,2879.751 3591.3067,2878.5059 Q3594.0899,2877.1875 3597.0196,2874.4775 L3597.0196,2887.2217 Z " fill="#000000"/><text fill="#000000" font-family="sans-serif" font-size="65.625" lengthAdjust="spacing" textLength="610.8444" x="3679.1973" y="2883.5001">ComparerResolver</text><line style="stroke:#181818;stroke-width:2.3438;" x1="2858.5781" x2="4958.3172" y1="2935.7813" y2="2935.7813"/><line style="stroke:#181818;stroke-width:2.3438;" x1="2858.5781" x2="4958.3172" y1="2973.2813" y2="2973.2813"/><text fill="#000000" font-family="sans-serif" font-size="65.625" lengthAdjust="spacing" textLength="2052.8641" x="2882.0156" y="3052.9459">+GetComparer(problemType): Func&lt;TOutput, TOutput, bool&gt;</text></g><!--class ComparerHelper--><g class="entity" data-entity="ComparerHelper" data-source-line="49" data-uid="ent0011" id="entity_ComparerHelper"><rect fill="#F1F1F1" height="454.1748" rx="11.7188" ry="11.7188" style="stroke:#181818;stroke-width:2.3438;" width="698.8495" x="5244.2813" y="2709.375"/><ellipse cx="5317.1934" cy="2784.375" fill="#ADD1B2" rx="51.5625" ry="51.5625" style="stroke:#181818;stroke-width:4.6875;"/><path d="M5331.1094,2810.8154 Q5328.3994,2812.207 5325.3965,2812.8662 Q5322.3936,2813.5986 5319.0977,2813.5986 Q5307.3789,2813.5986 5301.1534,2805.9082 Q5295.001,2798.1445 5295.001,2783.4961 Q5295.001,2768.8477 5301.1534,2761.084 Q5307.3789,2753.3203 5319.0977,2753.3203 Q5322.3936,2753.3203 5325.3965,2754.0527 Q5328.4727,2754.7852 5331.1094,2756.1768 L5331.1094,2768.9209 Q5328.1797,2766.2109 5325.3965,2764.9658 Q5322.6133,2763.6475 5319.6836,2763.6475 Q5313.3848,2763.6475 5310.1621,2768.7012 Q5306.9395,2773.6816 5306.9395,2783.4961 Q5306.9395,2793.3105 5310.1621,2798.3643 Q5313.3848,2803.3447 5319.6836,2803.3447 Q5322.6133,2803.3447 5325.3965,2802.0996 Q5328.1797,2800.7813 5331.1094,2798.0713 L5331.1094,2810.8154 Z " fill="#000000"/><text fill="#000000" font-family="sans-serif" font-size="65.625" lengthAdjust="spacing" textLength="543.0725" x="5383.3961" y="2807.0938">ComparerHelper</text><line style="stroke:#181818;stroke-width:2.3438;" x1="5248.9688" x2="5938.4432" y1="2859.375" y2="2859.375"/><line style="stroke:#181818;stroke-width:2.3438;" x1="5248.9688" x2="5938.4432" y1="2896.875" y2="2896.875"/><text fill="#000000" font-family="sans-serif" font-size="65.625" lengthAdjust="spacing" textLength="501.4481" x="5272.4063" y="2976.5396">+ArraysEqual()</text><text fill="#000000" font-family="sans-serif" font-size="65.625" lengthAdjust="spacing" textLength="642.5995" x="5272.4063" y="3052.9312">+TripletSetsEqual()</text><text fill="#000000" font-family="sans-serif" font-size="65.625" lengthAdjust="spacing" textLength="606.7749" x="5272.4063" y="3129.3228">+ValidateBySum()</text></g><!--class IProblemStrategy--><g class="entity" data-entity="IProblemStrategy" data-source-line="62" data-uid="ent0017" id="entity_IProblemStrategy"><rect fill="#F1F1F1" height="225" rx="11.7188" ry="11.7188" style="stroke:#181818;stroke-width:2.3438;" width="721.431" x="3547.7344" y="648.9375"/><ellipse cx="3618.0469" cy="723.9375" fill="#ADD1B2" rx="51.5625" ry="51.5625" style="stroke:#181818;stroke-width:4.6875;"/><path d="M3631.9629,750.3779 Q3629.2529,751.7695 3626.25,752.4287 Q3623.2471,753.1611 3619.9512,753.1611 Q3608.2324,753.1611 3602.0068,745.4707 Q3595.8545,737.707 3595.8545,723.0586 Q3595.8545,708.4102 3602.0068,700.6465 Q3608.2324,692.8828 3619.9512,692.8828 Q3623.2471,692.8828 3626.25,693.6152 Q3629.3262,694.3477 3631.9629,695.7393 L3631.9629,708.4834 Q3629.0332,705.7734 3626.25,704.5283 Q3623.4668,703.21 3620.5371,703.21 Q3614.2383,703.21 3611.0156,708.2637 Q3607.793,713.2441 3607.793,723.0586 Q3607.793,732.873 3611.0156,737.9268 Q3614.2383,742.9072 3620.5371,742.9072 Q3623.4668,742.9072 3626.25,741.6621 Q3629.0332,740.3437 3631.9629,737.6338 L3631.9629,750.3779 Z " fill="#000000"/><text fill="#000000" font-family="sans-serif" font-size="65.625" lengthAdjust="spacing" textLength="571.431" x="3683.6719" y="746.6563">IProblemStrategy</text><line style="stroke:#181818;stroke-width:2.3438;" x1="3552.4219" x2="4264.4778" y1="798.9375" y2="798.9375"/><line style="stroke:#181818;stroke-width:2.3438;" x1="3552.4219" x2="4264.4778" y1="836.4375" y2="836.4375"/></g><!--link ProblemTest to GMN3--><g class="link" data-entity-1="ProblemTest" data-entity-2="GMN3" data-source-line="15" data-uid="lnk5" id="link_ProblemTest_GMN3"><path d="M1981.7812,1767.2344 C2576.4375,1767.2344 3346.2656,1767.2344 3346.2656,1767.2344 C3346.2656,1767.2344 3346.2656,1321.8281 3346.2656,1158.2812" fill="none" id="ProblemTest-GMN3" style="stroke:#181818;stroke-width:4.6875;stroke-dasharray:32.8125,32.8125;"/></g><!--link ProblemTest to TestCase--><g class="link" data-entity-1="ProblemTest" data-entity-2="TestCase" data-source-line="56" data-uid="lnk12" id="link_ProblemTest_TestCase"><path codeLine="56" d="M1982.25,1809.5156 C2464.0313,1809.5156 3066.4687,1809.5156 3472.5469,1809.5156" fill="none" id="ProblemTest-to-TestCase" style="stroke:#181818;stroke-width:4.6875;"/><polygon fill="#181818" points="3500.6719,1809.5156,3458.4844,1790.7656,3477.2344,1809.5156,3458.4844,1828.2656,3500.6719,1809.5156" style="stroke:#181818;stroke-width:4.6875;"/></g><!--link ProblemTest to TestResult--><g class="link" data-entity-1="ProblemTest" data-entity-2="TestResult" data-source-line="57" data-uid="lnk13" id="link_ProblemTest_TestResult"><path codeLine="57" d="M1982.25,2069.2031 C2482.125,2069.2031 3114.0469,2069.2031 3517.3125,2069.2031" fill="none" id="ProblemTest-to-TestResult" style="stroke:#181818;stroke-width:4.6875;"/><polygon fill="#181818" points="3545.4375,2069.2031,3503.25,2050.4531,3522,2069.2031,3503.25,2087.9531,3545.4375,2069.2031" style="stroke:#181818;stroke-width:4.6875;"/></g><!--link ProblemTest to ComparerResolver--><g class="link" data-entity-1="ProblemTest" data-entity-2="ComparerResolver" data-source-line="58" data-uid="lnk14" id="link_ProblemTest_ComparerResolver"><path codeLine="58" d="M1982.5313,2124.1875 C2463.3281,2124.1875 3022.8281,2124.1875 3022.8281,2124.1875 C3022.8281,2124.1875 3022.8281,2520.2813 3022.8281,2755.5469" fill="none" id="ProblemTest-to-ComparerResolver" style="stroke:#181818;stroke-width:4.6875;"/><polygon fill="#181818" points="3022.8281,2783.6719,3041.5781,2741.4844,3022.8281,2760.2344,3004.0781,2741.4844,3022.8281,2783.6719" style="stroke:#181818;stroke-width:4.6875;"/></g><!--link ComparerResolver to ComparerHelper--><g class="link" data-entity-1="ComparerResolver" data-entity-2="ComparerHelper" data-source-line="59" data-uid="lnk15" id="link_ComparerResolver_ComparerHelper"><path codeLine="59" d="M4965,2936.4375 C5063.6719,2936.4375 5130.0469,2936.4375 5214.4219,2936.4375" fill="none" id="ComparerResolver-to-ComparerHelper" style="stroke:#181818;stroke-width:4.6875;"/><polygon fill="#181818" points="5242.5469,2936.4375,5200.3594,2917.6875,5219.1094,2936.4375,5200.3594,2955.1875,5242.5469,2936.4375" style="stroke:#181818;stroke-width:4.6875;"/></g><!--link StrategyBenchmark to BenchmarkResult--><g class="link" data-entity-1="StrategyBenchmark" data-entity-2="BenchmarkResult" data-source-line="61" data-uid="lnk16" id="link_StrategyBenchmark_BenchmarkResult"><path codeLine="61" d="M2573.1563,424.6406 C2886.0938,424.6406 3173.3906,424.6406 3419.0156,424.6406" fill="none" id="StrategyBenchmark-to-BenchmarkResult" style="stroke:#181818;stroke-width:4.6875;"/><polygon fill="#181818" points="3447.1406,424.6406,3404.9531,405.8906,3423.7031,424.6406,3404.9531,443.3906,3447.1406,424.6406" style="stroke:#181818;stroke-width:4.6875;"/></g><!--link StrategyBenchmark to IProblemStrategy--><g class="link" data-entity-1="StrategyBenchmark" data-entity-2="IProblemStrategy" data-source-line="62" data-uid="lnk18" id="link_StrategyBenchmark_IProblemStrategy"><path codeLine="62" d="M2277.5156,664.7812 C2277.5156,719.8594 2277.5156,768.8437 2277.5156,768.8437 C2277.5156,768.8437 3037.875,768.8437 3518.3906,768.8437" fill="none" id="StrategyBenchmark-to-IProblemStrategy" style="stroke:#181818;stroke-width:4.6875;"/><polygon fill="#181818" points="3546.5156,768.8437,3504.3281,750.0937,3523.0781,768.8437,3504.3281,787.5937,3546.5156,768.8437" style="stroke:#181818;stroke-width:4.6875;"/></g><!--SRC=[bLDBZzem4BxxLyoje495LVKIBKWiebsaRRi2jDVAE0Enrh5JUy8khVQ_rqwS1z0zD0SKvfkClyVOFKbTSCjp48exDoUoSbSIheJH6_aROS9Ss-8odffdgG-mvyfX3r5I8vqA16CfCpqWBIHycaoOmZq16R3oa16aqg8WQJHpWYk4Zny-C_OEfjCfRD4Ht76hqJbO68kXoYfoy63DJc4UMcwsArsKD8BjZvByomp-CF3F67uweuve4_XIQj7KXCazdxFgUrYNEeno0_A_2-xG9N0lm-puVpPahqmRmaZRxFiKsF85XRVAGVWUH1W0pv8oC4NGnXKSkP8fhuIYJY6COb5BSqRBkzAJGAqhrfOlXVS9qwIH6UkFzLoyFMtAF86TCUeAMPXIKyHU-wUkqPMAkdFTWqVEXlmFbRcWaglBwbRc-4qAQ_pWr9JUii2XJlWMjSXoRf_28dNXRiXwteTJ2xyLSHNSmDNj4jq8sln6q0Gz0abeA-lTCCRQJguTc7MsN22jDmsdxpp71FoHddAZ-tYe1QA_AMadip7LhsxOyIw0MlmYyeDxSv2Y9xy1F8DgVrknNv4QR534xVCtRLYlyaqqftLfL1tOqzPyV8Ugw8sTMyjFRldBXpSOnjhMoa8XRP0kWBDz6mmxEMjKjSUPB5obfdT1O3oUjNl-Jw2s-mgwz89TcTFlgeKnThL0LTT5j6zqhIA51cL_0G00]--></g></svg>