<svg xmlns="http://www.w3.org/2000/svg" xmlns:xlink="http://www.w3.org/1999/xlink" contentStyleType="text/css" data-diagram-type="DESCRIPTION" height="4073.4375px" preserveAspectRatio="none" style="width:6192px;height:4073px;background:#FFFFFF;" version="1.1" viewBox="0 0 6192 4073" width="6192.1875px" zoomAndPan="magnify"><defs/><g><!--cluster Orchestration--><g class="cluster" data-entity="Orchestration" data-source-line="7" data-uid="ent0002" id="cluster_Orchestration"><path d="M39.8438,984.375 L555.5603,984.375 A17.5781,17.5781 0 0 1 567.2791,996.0938 L600.0916,1088.8916 L2008.0781,1088.8916 A11.7188,11.7188 0 0 1 2019.7969,1100.6104 L2019.7969,1807.0313 A11.7188,11.7188 0 0 1 2008.0781,1818.75 L39.8438,1818.75 A11.7188,11.7188 0 0 1 28.125,1807.0313 L28.125,996.0938 A11.7188,11.7188 0 0 1 39.8438,984.375" fill="none" style="stroke:#000000;stroke-width:7.0313;"/><line style="stroke:#000000;stroke-width:7.0313;" x1="28.125" x2="600.0916" y1="1088.8916" y2="1088.8916"/><text fill="#000000" font-family="sans-serif" font-size="65.625" font-weight="bold" lengthAdjust="spacing" textLength="511.0291" x="46.875" y="1054.6646">Orchestration</text></g><!--cluster Strategy Layer--><g class="cluster" data-entity="Strategy Layer" data-source-line="13" data-uid="ent0006" id="cluster_Strategy Layer"><path d="M2397.3281,28.125 L2951.5289,28.125 A17.5781,17.5781 0 0 1 2963.2476,39.8438 L2996.0601,132.6416 L6078.2344,132.6416 A11.7188,11.7188 0 0 1 6089.9531,144.3604 L6089.9531,850.7813 A11.7188,11.7188 0 0 1 6078.2344,862.5 L2397.3281,862.5 A11.7188,11.7188 0 0 1 2385.6094,850.7813 L2385.6094,39.8438 A11.7188,11.7188 0 0 1 2397.3281,28.125" fill="none" style="stroke:#000000;stroke-width:7.0313;"/><line style="stroke:#000000;stroke-width:7.0313;" x1="2385.6094" x2="2996.0601" y1="132.6416" y2="132.6416"/><text fill="#000000" font-family="sans-serif" font-size="65.625" font-weight="bold" lengthAdjust="spacing" textLength="549.5132" x="2404.3594" y="98.4146">Strategy Layer</text></g><!--cluster Test Harness--><g class="cluster" data-entity="Test Harness" data-source-line="20" data-uid="ent0011" id="cluster_Test Harness"><path d="M2251.0313,975 L2739.1904,975 A17.5781,17.5781 0 0 1 2750.9092,986.7188 L2783.7217,1079.5166 L6147.6563,1079.5166 A11.7188,11.7188 0 0 1 6159.375,1091.2354 L6159.375,2936.7188 A11.7188,11.7188 0 0 1 6147.6563,2948.4375 L2251.0313,2948.4375 A11.7188,11.7188 0 0 1 2239.3125,2936.7188 L2239.3125,986.7188 A11.7188,11.7188 0 0 1 2251.0313,975" fill="none" style="stroke:#000000;stroke-width:7.0313;"/><line style="stroke:#000000;stroke-width:7.0313;" x1="2239.3125" x2="2783.7217" y1="1079.5166" y2="1079.5166"/><text fill="#000000" font-family="sans-serif" font-size="65.625" font-weight="bold" lengthAdjust="spacing" textLength="483.4717" x="2258.0625" y="1045.2896">Test Harness</text></g><!--cluster Documentation & Helpers--><g class="cluster" data-entity="Documentation . Helpers" data-source-line="33" data-uid="ent0022" id="cluster_Documentation . Helpers"><path d="M788.0625,3206.25 L1746.6196,3206.25 A17.5781,17.5781 0 0 1 1758.3384,3217.9688 L1791.1509,3310.7666 L3633.5625,3310.7666 A11.7188,11.7188 0 0 1 3645.2813,3322.4854 L3645.2813,4028.9063 A11.7188,11.7188 0 0 1 3633.5625,4040.625 L788.0625,4040.625 A11.7188,11.7188 0 0 1 776.3438,4028.9063 L776.3438,3217.9688 A11.7188,11.7188 0 0 1 788.0625,3206.25" fill="none" style="stroke:#000000;stroke-width:7.0313;"/><line style="stroke:#000000;stroke-width:7.0313;" x1="776.3438" x2="1791.1509" y1="3310.7666" y2="3310.7666"/><text fill="#000000" font-family="sans-serif" font-size="65.625" font-weight="bold" lengthAdjust="spacing" textLength="953.8696" x="795.0938" y="3276.5396">Documentation &amp; Helpers</text></g><!--entity Program--><g class="entity" data-entity="Program" data-source-line="8" data-uid="ent0003" id="entity_Program"><rect fill="#F1F1F1" height="217.0166" rx="11.7188" ry="11.7188" style="stroke:#181818;stroke-width:2.3438;" width="466.983" x="103.125" y="1527.4219"/><rect fill="#F1F1F1" height="46.875" style="stroke:#181818;stroke-width:2.3438;" width="70.3125" x="476.358" y="1550.8594"/><rect fill="#F1F1F1" height="9.375" style="stroke:#181818;stroke-width:2.3438;" width="18.75" x="466.983" y="1560.2344"/><rect fill="#F1F1F1" height="9.375" style="stroke:#181818;stroke-width:2.3438;" width="18.75" x="466.983" y="1578.9844"/><text fill="#000000" font-family="sans-serif" font-size="65.625" lengthAdjust="spacing" textLength="279.483" x="173.4375" y="1682.0865">Program</text></g><!--entity ProblemStrategyFactory--><g class="entity" data-entity="ProblemStrategyFactory" data-source-line="9" data-uid="ent0004" id="entity_ProblemStrategyFactory"><rect fill="#F1F1F1" height="217.0166" rx="11.7188" ry="11.7188" style="stroke:#181818;stroke-width:2.3438;" width="985.318" x="949.5469" y="1147.7344"/><rect fill="#F1F1F1" height="46.875" style="stroke:#181818;stroke-width:2.3438;" width="70.3125" x="1841.1149" y="1171.1719"/><rect fill="#F1F1F1" height="9.375" style="stroke:#181818;stroke-width:2.3438;" width="18.75" x="1831.7399" y="1180.5469"/><rect fill="#F1F1F1" height="9.375" style="stroke:#181818;stroke-width:2.3438;" width="18.75" x="1831.7399" y="1199.2969"/><text fill="#000000" font-family="sans-serif" font-size="65.625" lengthAdjust="spacing" textLength="797.818" x="1019.8594" y="1302.399">ProblemStrategyFactory</text></g><!--entity ProblemTestCaseFactory--><g class="entity" data-entity="ProblemTestCaseFactory" data-source-line="10" data-uid="ent0005" id="entity_ProblemTestCaseFactory"><rect fill="#F1F1F1" height="217.0166" rx="11.7188" ry="11.7188" style="stroke:#181818;stroke-width:2.3438;" width="1005.1208" x="939.6563" y="1527.4219"/><rect fill="#F1F1F1" height="46.875" style="stroke:#181818;stroke-width:2.3438;" width="70.3125" x="1851.0271" y="1550.8594"/><rect fill="#F1F1F1" height="9.375" style="stroke:#181818;stroke-width:2.3438;" width="18.75" x="1841.6521" y="1560.2344"/><rect fill="#F1F1F1" height="9.375" style="stroke:#181818;stroke-width:2.3438;" width="18.75" x="1841.6521" y="1578.9844"/><text fill="#000000" font-family="sans-serif" font-size="65.625" lengthAdjust="spacing" textLength="817.6208" x="1009.9688" y="1682.0865">ProblemTestCaseFactory</text></g><!--entity StrategyRegistryBuilder--><g class="entity" data-entity="StrategyRegistryBuilder" data-source-line="14" data-uid="ent0007" id="entity_StrategyRegistryBuilder"><rect fill="#F1F1F1" height="217.0166" rx="11.7188" ry="11.7188" style="stroke:#181818;stroke-width:2.3438;" width="972.3724" x="2460.6094" y="500.8594"/><rect fill="#F1F1F1" height="46.875" style="stroke:#181818;stroke-width:2.3438;" width="70.3125" x="3339.2318" y="524.2969"/><rect fill="#F1F1F1" height="9.375" style="stroke:#181818;stroke-width:2.3438;" width="18.75" x="3329.8568" y="533.6719"/><rect fill="#F1F1F1" height="9.375" style="stroke:#181818;stroke-width:2.3438;" width="18.75" x="3329.8568" y="552.4219"/><text fill="#000000" font-family="sans-serif" font-size="65.625" lengthAdjust="spacing" textLength="784.8724" x="2530.9219" y="655.524">StrategyRegistryBuilder</text></g><!--entity Strategy Implementations--><g class="entity" data-entity="Strategy Implementations" data-source-line="15" data-uid="ent0008" id="entity_Strategy Implementations"><rect fill="#F1F1F1" height="217.0166" rx="11.7188" ry="11.7188" style="stroke:#181818;stroke-width:2.3438;" width="1044.8227" x="3860.5313" y="425.8594"/><rect fill="#F1F1F1" height="46.875" style="stroke:#181818;stroke-width:2.3438;" width="70.3125" x="4811.6039" y="449.2969"/><rect fill="#F1F1F1" height="9.375" style="stroke:#181818;stroke-width:2.3438;" width="18.75" x="4802.2289" y="458.6719"/><rect fill="#F1F1F1" height="9.375" style="stroke:#181818;stroke-width:2.3438;" width="18.75" x="4802.2289" y="477.4219"/><text fill="#000000" font-family="sans-serif" font-size="65.625" lengthAdjust="spacing" textLength="857.3227" x="3930.8438" y="580.524">Strategy Implementations</text></g><!--entity IProblemSolution--><g class="entity" data-entity="IProblemSolution" data-source-line="16" data-uid="ent0009" id="entity_IProblemSolution"><rect fill="#F1F1F1" height="217.0166" rx="11.7188" ry="11.7188" style="stroke:#181818;stroke-width:2.3438;" width="745.0882" x="5262.9375" y="191.4844"/><rect fill="#F1F1F1" height="46.875" style="stroke:#181818;stroke-width:2.3438;" width="70.3125" x="5914.2757" y="214.9219"/><rect fill="#F1F1F1" height="9.375" style="stroke:#181818;stroke-width:2.3438;" width="18.75" x="5904.9007" y="224.2969"/><rect fill="#F1F1F1" height="9.375" style="stroke:#181818;stroke-width:2.3438;" width="18.75" x="5904.9007" y="243.0469"/><text fill="#000000" font-family="sans-serif" font-size="65.625" lengthAdjust="spacing" textLength="557.5882" x="5333.25" y="346.149">IProblemSolution</text></g><!--entity IProblemStrategy--><g class="entity" data-entity="IProblemStrategy" data-source-line="17" data-uid="ent0010" id="entity_IProblemStrategy"><rect fill="#F1F1F1" height="217.0166" rx="11.7188" ry="11.7188" style="stroke:#181818;stroke-width:2.3438;" width="758.931" x="5256.0469" y="571.1719"/><rect fill="#F1F1F1" height="46.875" style="stroke:#181818;stroke-width:2.3438;" width="70.3125" x="5921.2278" y="594.6094"/><rect fill="#F1F1F1" height="9.375" style="stroke:#181818;stroke-width:2.3438;" width="18.75" x="5911.8528" y="603.9844"/><rect fill="#F1F1F1" height="9.375" style="stroke:#181818;stroke-width:2.3438;" width="18.75" x="5911.8528" y="622.7344"/><text fill="#000000" font-family="sans-serif" font-size="65.625" lengthAdjust="spacing" textLength="571.431" x="5326.3594" y="725.8365">IProblemStrategy</text></g><!--entity ProblemTest--><g class="entity" data-entity="ProblemTest" data-source-line="21" data-uid="ent0012" id="entity_ProblemTest"><rect fill="#F1F1F1" height="217.0166" rx="11.7188" ry="11.7188" style="stroke:#181818;stroke-width:2.3438;" width="598.7778" x="2647.4063" y="1897.7344"/><rect fill="#F1F1F1" height="46.875" style="stroke:#181818;stroke-width:2.3438;" width="70.3125" x="3152.434" y="1921.1719"/><rect fill="#F1F1F1" height="9.375" style="stroke:#181818;stroke-width:2.3438;" width="18.75" x="3143.059" y="1930.5469"/><rect fill="#F1F1F1" height="9.375" style="stroke:#181818;stroke-width:2.3438;" width="18.75" x="3143.059" y="1949.2969"/><text fill="#000000" font-family="sans-serif" font-size="65.625" lengthAdjust="spacing" textLength="411.2778" x="2717.7188" y="2052.399">ProblemTest</text></g><!--entity StrategyBenchmark--><g class="entity" data-entity="StrategyBenchmark" data-source-line="22" data-uid="ent0013" id="entity_StrategyBenchmark"><rect fill="#F1F1F1" height="217.0166" rx="11.7188" ry="11.7188" style="stroke:#181818;stroke-width:2.3438;" width="842.4683" x="2525.5781" y="1138.3594"/><rect fill="#F1F1F1" height="46.875" style="stroke:#181818;stroke-width:2.3438;" width="70.3125" x="3274.2964" y="1161.7969"/><rect fill="#F1F1F1" height="9.375" style="stroke:#181818;stroke-width:2.3438;" width="18.75" x="3264.9214" y="1171.1719"/><rect fill="#F1F1F1" height="9.375" style="stroke:#181818;stroke-width:2.3438;" width="18.75" x="3264.9214" y="1189.9219"/><text fill="#000000" font-family="sans-serif" font-size="65.625" lengthAdjust="spacing" textLength="654.9683" x="2595.8906" y="1293.024">StrategyBenchmark</text></g><!--entity TestCase--><g class="entity" data-entity="TestCase" data-source-line="23" data-uid="ent0014" id="entity_TestCase"><rect fill="#F1F1F1" height="217.0166" rx="11.7188" ry="11.7188" style="stroke:#181818;stroke-width:2.3438;" width="488.4842" x="4138.6875" y="1518.0469"/><rect fill="#F1F1F1" height="46.875" style="stroke:#181818;stroke-width:2.3438;" width="70.3125" x="4533.4217" y="1541.4844"/><rect fill="#F1F1F1" height="9.375" style="stroke:#181818;stroke-width:2.3438;" width="18.75" x="4524.0467" y="1550.8594"/><rect fill="#F1F1F1" height="9.375" style="stroke:#181818;stroke-width:2.3438;" width="18.75" x="4524.0467" y="1569.6094"/><text fill="#000000" font-family="sans-serif" font-size="65.625" lengthAdjust="spacing" textLength="300.9842" x="4209" y="1672.7115">TestCase</text></g><!--entity TestResult--><g class="entity" data-entity="TestResult" data-source-line="24" data-uid="ent0015" id="entity_TestResult"><rect fill="#F1F1F1" height="217.0166" rx="11.7188" ry="11.7188" style="stroke:#181818;stroke-width:2.3438;" width="533.6014" x="4116.1406" y="1897.7344"/><rect fill="#F1F1F1" height="46.875" style="stroke:#181818;stroke-width:2.3438;" width="70.3125" x="4555.992" y="1921.1719"/><rect fill="#F1F1F1" height="9.375" style="stroke:#181818;stroke-width:2.3438;" width="18.75" x="4546.617" y="1930.5469"/><rect fill="#F1F1F1" height="9.375" style="stroke:#181818;stroke-width:2.3438;" width="18.75" x="4546.617" y="1949.2969"/><text fill="#000000" font-family="sans-serif" font-size="65.625" lengthAdjust="spacing" textLength="346.1014" x="4186.4531" y="2052.399">TestResult</text></g><!--entity BenchmarkResult--><g class="entity" data-entity="BenchmarkResult" data-source-line="25" data-uid="ent0016" id="entity_BenchmarkResult"><rect fill="#F1F1F1" height="217.0166" rx="11.7188" ry="11.7188" style="stroke:#181818;stroke-width:2.3438;" width="767.0059" x="3999.4219" y="1138.3594"/><rect fill="#F1F1F1" height="46.875" style="stroke:#181818;stroke-width:2.3438;" width="70.3125" x="4672.6778" y="1161.7969"/><rect fill="#F1F1F1" height="9.375" style="stroke:#181818;stroke-width:2.3438;" width="18.75" x="4663.3028" y="1171.1719"/><rect fill="#F1F1F1" height="9.375" style="stroke:#181818;stroke-width:2.3438;" width="18.75" x="4663.3028" y="1189.9219"/><text fill="#000000" font-family="sans-serif" font-size="65.625" lengthAdjust="spacing" textLength="579.5059" x="4069.7344" y="1293.024">BenchmarkResult</text></g><!--entity BenchmarkSummary--><g class="entity" data-entity="BenchmarkSummary" data-source-line="26" data-uid="ent0017" id="entity_BenchmarkSummary"><rect fill="#F1F1F1" height="217.0166" rx="11.7188" ry="11.7188" style="stroke:#181818;stroke-width:2.3438;" width="878.421" x="3943.7344" y="2657.1094"/><rect fill="#F1F1F1" height="46.875" style="stroke:#181818;stroke-width:2.3438;" width="70.3125" x="4728.4054" y="2680.5469"/><rect fill="#F1F1F1" height="9.375" style="stroke:#181818;stroke-width:2.3438;" width="18.75" x="4719.0304" y="2689.9219"/><rect fill="#F1F1F1" height="9.375" style="stroke:#181818;stroke-width:2.3438;" width="18.75" x="4719.0304" y="2708.6719"/><text fill="#000000" font-family="sans-serif" font-size="65.625" lengthAdjust="spacing" textLength="690.921" x="4014.0469" y="2811.774">BenchmarkSummary</text></g><!--entity IBenchmarkSummary--><g class="entity" data-entity="IBenchmarkSummary" data-source-line="27" data-uid="ent0018" id="entity_IBenchmarkSummary"><rect fill="#F1F1F1" height="217.0166" rx="11.7188" ry="11.7188" style="stroke:#181818;stroke-width:2.3438;" width="897.7753" x="5186.625" y="2657.1094"/><rect fill="#F1F1F1" height="46.875" style="stroke:#181818;stroke-width:2.3438;" width="70.3125" x="5990.6503" y="2680.5469"/><rect fill="#F1F1F1" height="9.375" style="stroke:#181818;stroke-width:2.3438;" width="18.75" x="5981.2753" y="2689.9219"/><rect fill="#F1F1F1" height="9.375" style="stroke:#181818;stroke-width:2.3438;" width="18.75" x="5981.2753" y="2708.6719"/><text fill="#000000" font-family="sans-serif" font-size="65.625" lengthAdjust="spacing" textLength="710.2753" x="5256.9375" y="2811.774">IBenchmarkSummary</text></g><!--entity ComparerResolver--><g class="entity" data-entity="ComparerResolver" data-source-line="28" data-uid="ent0019" id="entity_ComparerResolver"><rect fill="#F1F1F1" height="217.0166" rx="11.7188" ry="11.7188" style="stroke:#181818;stroke-width:2.3438;" width="798.3444" x="3983.7656" y="2277.4219"/><rect fill="#F1F1F1" height="46.875" style="stroke:#181818;stroke-width:2.3438;" width="70.3125" x="4688.36" y="2300.8594"/><rect fill="#F1F1F1" height="9.375" style="stroke:#181818;stroke-width:2.3438;" width="18.75" x="4678.985" y="2310.2344"/><rect fill="#F1F1F1" height="9.375" style="stroke:#181818;stroke-width:2.3438;" width="18.75" x="4678.985" y="2328.9844"/><text fill="#000000" font-family="sans-serif" font-size="65.625" lengthAdjust="spacing" textLength="610.8444" x="4054.0781" y="2432.0865">ComparerResolver</text></g><!--entity ComparerHelper--><g class="entity" data-entity="ComparerHelper" data-source-line="29" data-uid="ent0020" id="entity_ComparerHelper"><rect fill="#F1F1F1" height="217.0166" rx="11.7188" ry="11.7188" style="stroke:#181818;stroke-width:2.3438;" width="730.5725" x="5270.2031" y="2277.4219"/><rect fill="#F1F1F1" height="46.875" style="stroke:#181818;stroke-width:2.3438;" width="70.3125" x="5907.0256" y="2300.8594"/><rect fill="#F1F1F1" height="9.375" style="stroke:#181818;stroke-width:2.3438;" width="18.75" x="5897.6506" y="2310.2344"/><rect fill="#F1F1F1" height="9.375" style="stroke:#181818;stroke-width:2.3438;" width="18.75" x="5897.6506" y="2328.9844"/><text fill="#000000" font-family="sans-serif" font-size="65.625" lengthAdjust="spacing" textLength="543.0725" x="5340.5156" y="2432.0865">ComparerHelper</text></g><!--entity TestCaseProviderRegistryBuilder--><g class="entity" data-entity="TestCaseProviderRegistryBuilder" data-source-line="30" data-uid="ent0021" id="entity_TestCaseProviderRegistryBuilder"><rect fill="#F1F1F1" height="217.0166" rx="11.7188" ry="11.7188" style="stroke:#181818;stroke-width:2.3438;" width="1264.9612" x="2314.3125" y="1518.0469"/><rect fill="#F1F1F1" height="46.875" style="stroke:#181818;stroke-width:2.3438;" width="70.3125" x="3485.5237" y="1541.4844"/><rect fill="#F1F1F1" height="9.375" style="stroke:#181818;stroke-width:2.3438;" width="18.75" x="3476.1487" y="1550.8594"/><rect fill="#F1F1F1" height="9.375" style="stroke:#181818;stroke-width:2.3438;" width="18.75" x="3476.1487" y="1569.6094"/><text fill="#000000" font-family="sans-serif" font-size="65.625" lengthAdjust="spacing" textLength="1077.4612" x="2384.625" y="1672.7115">TestCaseProviderRegistryBuilder</text></g><!--entity BenchmarkFormatter--><g class="entity" data-entity="BenchmarkFormatter" data-source-line="34" data-uid="ent0023" id="entity_BenchmarkFormatter"><rect fill="#F1F1F1" height="217.0166" rx="11.7188" ry="11.7188" style="stroke:#181818;stroke-width:2.3438;" width="889.1235" x="997.6406" y="3369.6094"/><rect fill="#F1F1F1" height="46.875" style="stroke:#181818;stroke-width:2.3438;" width="70.3125" x="1793.0142" y="3393.0469"/><rect fill="#F1F1F1" height="9.375" style="stroke:#181818;stroke-width:2.3438;" width="18.75" x="1783.6392" y="3402.4219"/><rect fill="#F1F1F1" height="9.375" style="stroke:#181818;stroke-width:2.3438;" width="18.75" x="1783.6392" y="3421.1719"/><text fill="#000000" font-family="sans-serif" font-size="65.625" lengthAdjust="spacing" textLength="701.6235" x="1067.9531" y="3524.274">BenchmarkFormatter</text></g><!--entity GenerateDocumentationIndex--><g class="entity" data-entity="GenerateDocumentationIndex" data-source-line="35" data-uid="ent0024" id="entity_GenerateDocumentationIndex"><rect fill="#F1F1F1" height="217.0166" rx="11.7188" ry="11.7188" style="stroke:#181818;stroke-width:2.3438;" width="1181.7123" x="851.3438" y="3749.2969"/><rect fill="#F1F1F1" height="46.875" style="stroke:#181818;stroke-width:2.3438;" width="70.3125" x="1939.3061" y="3772.7344"/><rect fill="#F1F1F1" height="9.375" style="stroke:#181818;stroke-width:2.3438;" width="18.75" x="1929.9311" y="3782.1094"/><rect fill="#F1F1F1" height="9.375" style="stroke:#181818;stroke-width:2.3438;" width="18.75" x="1929.9311" y="3800.8594"/><text fill="#000000" font-family="sans-serif" font-size="65.625" lengthAdjust="spacing" textLength="994.2123" x="921.6563" y="3903.9615">GenerateDocumentationIndex</text></g><!--entity StrategyPlaybook.md--><g class="entity" data-entity="StrategyPlaybook.md" data-source-line="36" data-uid="ent0025" id="entity_StrategyPlaybook.md"><rect fill="#F1F1F1" height="217.0166" rx="11.7188" ry="11.7188" style="stroke:#181818;stroke-width:2.3438;" width="891.9434" x="2500.8281" y="3749.2969"/><rect fill="#F1F1F1" height="46.875" style="stroke:#181818;stroke-width:2.3438;" width="70.3125" x="3299.0215" y="3772.7344"/><rect fill="#F1F1F1" height="9.375" style="stroke:#181818;stroke-width:2.3438;" width="18.75" x="3289.6465" y="3782.1094"/><rect fill="#F1F1F1" height="9.375" style="stroke:#181818;stroke-width:2.3438;" width="18.75" x="3289.6465" y="3800.8594"/><text fill="#000000" font-family="sans-serif" font-size="65.625" lengthAdjust="spacing" textLength="704.4434" x="2571.1406" y="3903.9615">StrategyPlaybook.md</text></g><!--entity Markdown Problem Descriptions--><g class="entity" data-entity="Markdown Problem Descriptions" data-source-line="37" data-uid="ent0026" id="entity_Markdown Problem Descriptions"><rect fill="#F1F1F1" height="217.0166" rx="11.7188" ry="11.7188" style="stroke:#181818;stroke-width:2.3438;" width="1246.9528" x="2323.3125" y="3369.6094"/><rect fill="#F1F1F1" height="46.875" style="stroke:#181818;stroke-width:2.3438;" width="70.3125" x="3476.5153" y="3393.0469"/><rect fill="#F1F1F1" height="9.375" style="stroke:#181818;stroke-width:2.3438;" width="18.75" x="3467.1403" y="3402.4219"/><rect fill="#F1F1F1" height="9.375" style="stroke:#181818;stroke-width:2.3438;" width="18.75" x="3467.1403" y="3421.1719"/><text fill="#000000" font-family="sans-serif" font-size="65.625" lengthAdjust="spacing" textLength="1059.4528" x="2393.625" y="3524.274">Markdown Problem Descriptions</text></g><!--link Program to ProblemStrategyFactory--><g class="link" data-entity-1="Program" data-entity-2="ProblemStrategyFactory" data-source-line="41" data-uid="lnk27" id="link_Program_ProblemStrategyFactory"><path d="M337.5,1526.1094 C337.5,1413.9844 337.5,1256.25 337.5,1256.25 C337.5,1256.25 625.7813,1256.25 919.875,1256.25" fill="none" id="Program-to-ProblemStrategyFactory" style="stroke:#181818;stroke-width:4.6875;"/><polygon fill="#181818" points="948,1256.25,905.8125,1237.5,924.5625,1256.25,905.8125,1275,948,1256.25" style="stroke:#181818;stroke-width:4.6875;"/></g><!--link Program to ProblemTestCaseFactory--><g class="link" data-entity-1="Program" data-entity-2="ProblemTestCaseFactory" data-source-line="42" data-uid="lnk28" id="link_Program_ProblemTestCaseFactory"><path d="M572.4375,1635.9375 C679.5938,1635.9375 782.6719,1635.9375 910.3594,1635.9375" fill="none" id="Program-to-ProblemTestCaseFactory" style="stroke:#181818;stroke-width:4.6875;"/><polygon fill="#181818" points="938.4844,1635.9375,896.2969,1617.1875,915.0469,1635.9375,896.2969,1654.6875,938.4844,1635.9375" style="stroke:#181818;stroke-width:4.6875;"/></g><!--link Program to ProblemTest--><g class="link" data-entity-1="Program" data-entity-2="ProblemTest" data-source-line="43" data-uid="lnk29" id="link_Program_ProblemTest"><path d="M412.5,1745.0625 C412.5,1854.2813 412.5,2006.25 412.5,2006.25 C412.5,2006.25 1946.7188,2006.25 2618.0156,2006.25" fill="none" id="Program-to-ProblemTest" style="stroke:#181818;stroke-width:4.6875;"/><polygon fill="#181818" points="2646.1406,2006.25,2603.9531,1987.5,2622.7031,2006.25,2603.9531,2025,2646.1406,2006.25" style="stroke:#181818;stroke-width:4.6875;"/></g><!--link Program to BenchmarkFormatter--><g class="link" data-entity-1="Program" data-entity-2="BenchmarkFormatter" data-source-line="44" data-uid="lnk30" id="link_Program_BenchmarkFormatter"><path d="M257.8125,1745.6719 C257.8125,2142.2344 257.8125,3478.125 257.8125,3478.125 C257.8125,3478.125 632.25,3478.125 968.0156,3478.125" fill="none" id="Program-to-BenchmarkFormatter" style="stroke:#181818;stroke-width:4.6875;"/><polygon fill="#181818" points="996.1406,3478.125,953.9531,3459.375,972.7031,3478.125,953.9531,3496.875,996.1406,3478.125" style="stroke:#181818;stroke-width:4.6875;"/></g><!--link ProblemStrategyFactory to StrategyRegistryBuilder--><g class="link" data-entity-1="ProblemStrategyFactory" data-entity-2="StrategyRegistryBuilder" data-source-line="47" data-uid="lnk31" id="link_ProblemStrategyFactory_StrategyRegistryBuilder"><path d="M1937.2031,1251.5625 C2209.9219,1251.5625 2493.75,1251.5625 2493.75,1251.5625 C2493.75,1251.5625 2493.75,931.5 2493.75,747.8906" fill="none" id="ProblemStrategyFactory-to-StrategyRegistryBuilder" style="stroke:#181818;stroke-width:4.6875;"/><polygon fill="#181818" points="2493.75,719.7656,2475,761.9531,2493.75,743.2031,2512.5,761.9531,2493.75,719.7656" style="stroke:#181818;stroke-width:4.6875;"/></g><!--link StrategyRegistryBuilder to Strategy Implementations--><g class="link" data-entity-1="StrategyRegistryBuilder" data-entity-2="Strategy Implementations" data-source-line="48" data-uid="lnk32" id="link_StrategyRegistryBuilder_Strategy Implementations"><path d="M3435,571.875 C3571.6406,571.875 3692.5313,571.875 3831.0938,571.875" fill="none" id="StrategyRegistryBuilder-to-Strategy Implementations" style="stroke:#181818;stroke-width:4.6875;"/><polygon fill="#181818" points="3859.2188,571.875,3817.0313,553.125,3835.7813,571.875,3817.0313,590.625,3859.2188,571.875" style="stroke:#181818;stroke-width:4.6875;"/></g><!--link Strategy Implementations to IProblemSolution--><g class="link" data-entity-1="Strategy Implementations" data-entity-2="IProblemSolution" data-source-line="49" data-uid="lnk33" id="link_Strategy Implementations_IProblemSolution"><path d="M4906.4063,498.5156 C5249.3437,498.5156 5634.375,498.5156 5634.375,498.5156 C5634.375,498.5156 5634.375,483.0469 5634.375,436.6875" fill="none" id="Strategy Implementations-to-IProblemSolution" style="stroke:#181818;stroke-width:4.6875;"/><polygon fill="#181818" points="5634.375,408.5625,5615.625,450.75,5634.375,432,5653.125,450.75,5634.375,408.5625" style="stroke:#181818;stroke-width:4.6875;"/></g><!--link Strategy Implementations to IProblemStrategy--><g class="link" data-entity-1="Strategy Implementations" data-entity-2="IProblemStrategy" data-source-line="50" data-uid="lnk34" id="link_Strategy Implementations_IProblemStrategy"><path d="M4906.875,607.0313 C5023.5469,607.0313 5116.9219,607.0313 5226.5156,607.0313" fill="none" id="Strategy Implementations-to-IProblemStrategy" style="stroke:#181818;stroke-width:4.6875;"/><polygon fill="#181818" points="5254.6406,607.0313,5212.4531,588.2813,5231.2031,607.0313,5212.4531,625.7813,5254.6406,607.0313" style="stroke:#181818;stroke-width:4.6875;"/></g><!--link ProblemTestCaseFactory to TestCaseProviderRegistryBuilder--><g class="link" data-entity-1="ProblemTestCaseFactory" data-entity-2="TestCaseProviderRegistryBuilder" data-source-line="53" data-uid="lnk35" id="link_ProblemTestCaseFactory_TestCaseProviderRegistryBuilder"><path d="M1945.3125,1631.25 C2063.2031,1631.25 2162.1563,1631.25 2284.9688,1631.25" fill="none" id="ProblemTestCaseFactory-to-TestCaseProviderRegistryBuilder" style="stroke:#181818;stroke-width:4.6875;"/><polygon fill="#181818" points="2313.0938,1631.25,2270.9063,1612.5,2289.6563,1631.25,2270.9063,1650,2313.0938,1631.25" style="stroke:#181818;stroke-width:4.6875;"/></g><!--link TestCaseProviderRegistryBuilder to TestCase--><g class="link" data-entity-1="TestCaseProviderRegistryBuilder" data-entity-2="TestCase" data-source-line="54" data-uid="lnk36" id="link_TestCaseProviderRegistryBuilder_TestCase"><path d="M3580.875,1590.375 C3777.75,1590.375 3955.0313,1590.375 4108.6875,1590.375" fill="none" id="TestCaseProviderRegistryBuilder-to-TestCase" style="stroke:#181818;stroke-width:4.6875;"/><polygon fill="#181818" points="4136.8125,1590.375,4094.625,1571.625,4113.375,1590.375,4094.625,1609.125,4136.8125,1590.375" style="stroke:#181818;stroke-width:4.6875;"/></g><!--link ProblemTest to TestCase--><g class="link" data-entity-1="ProblemTest" data-entity-2="TestCase" data-source-line="55" data-uid="lnk37" id="link_ProblemTest_TestCase"><path d="M3246.4688,1941.1406 C3464.5781,1941.1406 3721.875,1941.1406 3721.875,1941.1406 C3721.875,1941.1406 3721.875,1662.75 3721.875,1662.75 C3721.875,1662.75 3920.7188,1662.75 4108.6406,1662.75" fill="none" id="ProblemTest-to-TestCase" style="stroke:#181818;stroke-width:4.6875;"/><polygon fill="#181818" points="4136.7656,1662.75,4094.5781,1644,4113.3281,1662.75,4094.5781,1681.5,4136.7656,1662.75" style="stroke:#181818;stroke-width:4.6875;"/></g><!--link ProblemTest to TestResult--><g class="link" data-entity-1="ProblemTest" data-entity-2="TestResult" data-source-line="56" data-uid="lnk38" id="link_ProblemTest_TestResult"><path d="M3247.875,1984.5469 C3504.0938,1984.5469 3840.5625,1984.5469 4086.7969,1984.5469" fill="none" id="ProblemTest-to-TestResult" style="stroke:#181818;stroke-width:4.6875;"/><polygon fill="#181818" points="4114.9219,1984.5469,4072.7344,1965.7969,4091.4844,1984.5469,4072.7344,2003.2969,4114.9219,1984.5469" style="stroke:#181818;stroke-width:4.6875;"/></g><!--link ProblemTest to BenchmarkSummary--><g class="link" data-entity-1="ProblemTest" data-entity-2="BenchmarkSummary" data-source-line="57" data-uid="lnk39" id="link_ProblemTest_BenchmarkSummary"><path d="M3248.3438,2071.3594 C3548.7656,2071.3594 3965.625,2071.3594 3965.625,2071.3594 C3965.625,2071.3594 3965.625,2431.7344 3965.625,2627.4844" fill="none" id="ProblemTest-to-BenchmarkSummary" style="stroke:#181818;stroke-width:4.6875;"/><polygon fill="#181818" points="3965.625,2655.6094,3984.375,2613.4219,3965.625,2632.1719,3946.875,2613.4219,3965.625,2655.6094" style="stroke:#181818;stroke-width:4.6875;"/></g><!--link BenchmarkSummary to IBenchmarkSummary--><g class="link" data-entity-1="BenchmarkSummary" data-entity-2="IBenchmarkSummary" data-source-line="58" data-uid="lnk40" id="link_BenchmarkSummary_IBenchmarkSummary"><path d="M4822.7812,2765.625 C4940.4844,2765.625 5039.7656,2765.625 5157.9844,2765.625" fill="none" id="BenchmarkSummary-to-IBenchmarkSummary" style="stroke:#181818;stroke-width:4.6875;"/><polygon fill="#181818" points="5186.1094,2765.625,5143.9219,2746.875,5162.6719,2765.625,5143.9219,2784.375,5186.1094,2765.625" style="stroke:#181818;stroke-width:4.6875;"/></g><!--link ProblemTest to ComparerResolver--><g class="link" data-entity-1="ProblemTest" data-entity-2="ComparerResolver" data-source-line="59" data-uid="lnk41" id="link_ProblemTest_ComparerResolver"><path d="M3247.875,2027.9531 C3577.3594,2027.9531 4059.375,2027.9531 4059.375,2027.9531 C4059.375,2027.9531 4059.375,2143.1719 4059.375,2248.4531" fill="none" id="ProblemTest-to-ComparerResolver" style="stroke:#181818;stroke-width:4.6875;"/><polygon fill="#181818" points="4059.375,2276.5781,4078.125,2234.3906,4059.375,2253.1406,4040.625,2234.3906,4059.375,2276.5781" style="stroke:#181818;stroke-width:4.6875;"/></g><!--link ComparerResolver to ComparerHelper--><g class="link" data-entity-1="ComparerResolver" data-entity-2="ComparerHelper" data-source-line="60" data-uid="lnk42" id="link_ComparerResolver_ComparerHelper"><path d="M4784.4375,2385.9375 C4939.6875,2385.9375 5088.0938,2385.9375 5239.9687,2385.9375" fill="none" id="ComparerResolver-to-ComparerHelper" style="stroke:#181818;stroke-width:4.6875;"/><polygon fill="#181818" points="5268.0937,2385.9375,5225.9062,2367.1875,5244.6562,2385.9375,5225.9062,2404.6875,5268.0937,2385.9375" style="stroke:#181818;stroke-width:4.6875;"/></g><!--link StrategyBenchmark to BenchmarkResult--><g class="link" data-entity-1="StrategyBenchmark" data-entity-2="BenchmarkResult" data-source-line="62" data-uid="lnk43" id="link_StrategyBenchmark_BenchmarkResult"><path d="M3369.9375,1246.875 C3568.5,1246.875 3775.3594,1246.875 3969,1246.875" fill="none" id="StrategyBenchmark-to-BenchmarkResult" style="stroke:#181818;stroke-width:4.6875;"/><polygon fill="#181818" points="3997.125,1246.875,3954.9375,1228.125,3973.6875,1246.875,3954.9375,1265.625,3997.125,1246.875" style="stroke:#181818;stroke-width:4.6875;"/></g><!--link StrategyBenchmark to IProblemStrategy--><g class="link" data-entity-1="StrategyBenchmark" data-entity-2="IProblemStrategy" data-source-line="63" data-uid="lnk44" id="link_StrategyBenchmark_IProblemStrategy"><path d="M2948.4375,1136.0625 C2948.4375,990.4687 2948.4375,753.0469 2948.4375,753.0469 C2948.4375,753.0469 4485.375,753.0469 5226.6563,753.0469" fill="none" id="StrategyBenchmark-to-IProblemStrategy" style="stroke:#181818;stroke-width:4.6875;"/><polygon fill="#181818" points="5254.7813,753.0469,5212.5938,734.2969,5231.3438,753.0469,5212.5938,771.7969,5254.7813,753.0469" style="stroke:#181818;stroke-width:4.6875;"/></g><!--link GenerateDocumentationIndex to StrategyPlaybook.md--><g class="link" data-entity-1="GenerateDocumentationIndex" data-entity-2="StrategyPlaybook.md" data-source-line="66" data-uid="lnk45" id="link_GenerateDocumentationIndex_StrategyPlaybook.md"><path d="M2034.7031,3857.8125 C2189.2969,3857.8125 2325.2344,3857.8125 2470.9219,3857.8125" fill="none" id="GenerateDocumentationIndex-to-StrategyPlaybook.md" style="stroke:#181818;stroke-width:4.6875;"/><polygon fill="#181818" points="2499.0469,3857.8125,2456.8594,3839.0625,2475.6094,3857.8125,2456.8594,3876.5625,2499.0469,3857.8125" style="stroke:#181818;stroke-width:4.6875;"/></g><!--link GenerateDocumentationIndex to Markdown Problem Descriptions--><g class="link" data-entity-1="GenerateDocumentationIndex" data-entity-2="Markdown Problem Descriptions" data-source-line="67" data-uid="lnk46" id="link_GenerateDocumentationIndex_Markdown Problem Descriptions"><path d="M1987.5,3747.9844 C1987.5,3635.8594 1987.5,3478.125 1987.5,3478.125 C1987.5,3478.125 2110.9219,3478.125 2293.5469,3478.125" fill="none" id="GenerateDocumentationIndex-to-Markdown Problem Descriptions" style="stroke:#181818;stroke-width:4.6875;"/><polygon fill="#181818" points="2321.6719,3478.125,2279.4844,3459.375,2298.2344,3478.125,2279.4844,3496.875,2321.6719,3478.125" style="stroke:#181818;stroke-width:4.6875;"/></g><!--link BenchmarkFormatter to IBenchmarkSummary--><g class="link" data-entity-1="BenchmarkFormatter" data-entity-2="IBenchmarkSummary" data-source-line="68" data-uid="lnk47" id="link_BenchmarkFormatter_IBenchmarkSummary"><path d="M1443.75,3367.5 C1443.75,3126.5156 1443.75,2575.7813 1443.75,2575.7813 C1443.75,2575.7813 5221.875,2575.7813 5221.875,2575.7813 C5221.875,2575.7813 5221.875,2585.2969 5221.875,2627.0625" fill="none" id="BenchmarkFormatter-to-IBenchmarkSummary" style="stroke:#181818;stroke-width:4.6875;"/><polygon fill="#181818" points="5221.875,2655.1875,5240.625,2613,5221.875,2631.75,5203.125,2613,5221.875,2655.1875" style="stroke:#181818;stroke-width:4.6875;"/></g><!--SRC=[ZLJ1JkCm4BtdAqOSu0G28OxT0o2W4WXKzhRgmIH3OjMn8zi18iI_upIsDwvjogdfUpFFRyOpLXlAEo992weXbNYdl8PNmXGMoZECSjH3Xo2aRiICg3eAvwUd1SDN3Lg0f7MZeQ8IIqq5BrH96CBPoKLHTAJSa1hXu56M3IejoHXn09y5mBydAMgZjxRVBmpRvp42w-66b5h8OKxzDUbNHA6dlcRoBW_koO3IwZjmXJKrHm-NFMKLolMSWsNR6N7aUkjCRScbSoDOFw8XQ3D30wCxk2EIerB_otE-WoClaPTDI-HcYxgo_9yLgfvD6JuoXJtthVcPMhHCebUYDHU6qcGBzcOBT-0Tiiv2pe8n_4QhCNwdN_D2hqNP-tR18KmwhcRluqR8bcXjJxX5ZcFnGVAIL_WHTEQ9aU55YCr9Mstn1oDaXfE3RILSeoebxUnD6Lj7i5Wi81WkM26RxhAXdHhvmayQ71__oSzQEYoQktnOnANQOJs74vindR8vAMTdEyk4UV7SvwafCrwANsVuZR6rpvVbXyftEp-fxftMlH6XpZeuxxUasyW47UzY3Da69K9ZlNYDOoYCTBjT9DwS7O- -ZbnazXB3Xo1nYpyiVJYBmThlJzlpAgIMBjlkRm00]--></g></svg>