<svg xmlns="http://www.w3.org/2000/svg" xmlns:xlink="http://www.w3.org/1999/xlink" contentStyleType="text/css" data-diagram-type="DESCRIPTION" height="3548.4375px" preserveAspectRatio="none" style="width:6389px;height:3548px;background:#FFFFFF;" version="1.1" viewBox="0 0 6389 3548" width="6389.0625px" zoomAndPan="magnify"><defs/><g><!--cluster Orchestration--><g class="cluster" data-entity="Orchestration" data-source-line="7" data-uid="ent0002" id="cluster_Orchestration"><path d="M397.2188,2681.25 L912.9353,2681.25 A17.5781,17.5781 0 0 1 924.6541,2692.9688 L957.4666,2785.7666 L2755.4063,2785.7666 A11.7188,11.7188 0 0 1 2767.125,2797.4854 L2767.125,3503.9063 A11.7188,11.7188 0 0 1 2755.4063,3515.625 L397.2188,3515.625 A11.7188,11.7188 0 0 1 385.5,3503.9063 L385.5,2692.9688 A11.7188,11.7188 0 0 1 397.2188,2681.25" fill="none" style="stroke:#000000;stroke-width:7.0313;"/><line style="stroke:#000000;stroke-width:7.0313;" x1="385.5" x2="957.4666" y1="2785.7666" y2="2785.7666"/><text fill="#000000" font-family="sans-serif" font-size="65.625" font-weight="bold" lengthAdjust="spacing" textLength="511.0291" x="404.25" y="2751.5396">Orchestration</text></g><!--cluster Strategy Layer--><g class="cluster" data-entity="Strategy Layer" data-source-line="13" data-uid="ent0006" id="cluster_Strategy Layer"><path d="M3031.0313,2681.25 L3585.232,2681.25 A17.5781,17.5781 0 0 1 3596.9507,2692.9688 L3629.7632,2785.7666 L6347.5313,2785.7666 A11.7188,11.7188 0 0 1 6359.25,2797.4854 L6359.25,3503.9063 A11.7188,11.7188 0 0 1 6347.5313,3515.625 L3031.0313,3515.625 A11.7188,11.7188 0 0 1 3019.3125,3503.9063 L3019.3125,2692.9688 A11.7188,11.7188 0 0 1 3031.0313,2681.25" fill="none" style="stroke:#000000;stroke-width:7.0313;"/><line style="stroke:#000000;stroke-width:7.0313;" x1="3019.3125" x2="3629.7632" y1="2785.7666" y2="2785.7666"/><text fill="#000000" font-family="sans-serif" font-size="65.625" font-weight="bold" lengthAdjust="spacing" textLength="549.5132" x="3038.0625" y="2751.5396">Strategy Layer</text></g><!--cluster Test Harness--><g class="cluster" data-entity="Test Harness" data-source-line="20" data-uid="ent0011" id="cluster_Test Harness"><path d="M1705.0313,975 L2193.1904,975 A17.5781,17.5781 0 0 1 2204.9092,986.7188 L2237.7217,1079.5166 L5150.2031,1079.5166 A11.7188,11.7188 0 0 1 5161.9219,1091.2354 L5161.9219,2557.0313 A11.7188,11.7188 0 0 1 5150.2031,2568.75 L1705.0313,2568.75 A11.7188,11.7188 0 0 1 1693.3125,2557.0313 L1693.3125,986.7188 A11.7188,11.7188 0 0 1 1705.0313,975" fill="none" style="stroke:#000000;stroke-width:7.0313;"/><line style="stroke:#000000;stroke-width:7.0313;" x1="1693.3125" x2="2237.7217" y1="1079.5166" y2="1079.5166"/><text fill="#000000" font-family="sans-serif" font-size="65.625" font-weight="bold" lengthAdjust="spacing" textLength="483.4717" x="1712.0625" y="1045.2896">Test Harness</text></g><!--cluster Documentation & Helpers--><g class="cluster" data-entity="Documentation . Helpers" data-source-line="30" data-uid="ent0019" id="cluster_Documentation . Helpers"><path d="M39.8438,28.125 L998.4009,28.125 A17.5781,17.5781 0 0 1 1010.1196,39.8438 L1042.9321,132.6416 L2876.3438,132.6416 A11.7188,11.7188 0 0 1 2888.0625,144.3604 L2888.0625,850.7813 A11.7188,11.7188 0 0 1 2876.3438,862.5 L39.8438,862.5 A11.7188,11.7188 0 0 1 28.125,850.7813 L28.125,39.8438 A11.7188,11.7188 0 0 1 39.8438,28.125" fill="none" style="stroke:#000000;stroke-width:7.0313;"/><line style="stroke:#000000;stroke-width:7.0313;" x1="28.125" x2="1042.9321" y1="132.6416" y2="132.6416"/><text fill="#000000" font-family="sans-serif" font-size="65.625" font-weight="bold" lengthAdjust="spacing" textLength="953.8696" x="46.875" y="98.4146">Documentation &amp; Helpers</text></g><!--entity Program--><g class="entity" data-entity="Program" data-source-line="8" data-uid="ent0003" id="entity_Program"><rect fill="#F1F1F1" height="217.0166" rx="11.7188" ry="11.7188" style="stroke:#181818;stroke-width:2.3438;" width="466.983" x="460.5" y="2844.6094"/><rect fill="#F1F1F1" height="46.875" style="stroke:#181818;stroke-width:2.3438;" width="70.3125" x="833.733" y="2868.0469"/><rect fill="#F1F1F1" height="9.375" style="stroke:#181818;stroke-width:2.3438;" width="18.75" x="824.358" y="2877.4219"/><rect fill="#F1F1F1" height="9.375" style="stroke:#181818;stroke-width:2.3438;" width="18.75" x="824.358" y="2896.1719"/><text fill="#000000" font-family="sans-serif" font-size="65.625" lengthAdjust="spacing" textLength="279.483" x="530.8125" y="2999.274">Program</text></g><!--entity ProblemStrategyFactory--><g class="entity" data-entity="ProblemStrategyFactory" data-source-line="9" data-uid="ent0004" id="entity_ProblemStrategyFactory"><rect fill="#F1F1F1" height="217.0166" rx="11.7188" ry="11.7188" style="stroke:#181818;stroke-width:2.3438;" width="985.318" x="1696.9219" y="3224.2969"/><rect fill="#F1F1F1" height="46.875" style="stroke:#181818;stroke-width:2.3438;" width="70.3125" x="2588.4899" y="3247.7344"/><rect fill="#F1F1F1" height="9.375" style="stroke:#181818;stroke-width:2.3438;" width="18.75" x="2579.1149" y="3257.1094"/><rect fill="#F1F1F1" height="9.375" style="stroke:#181818;stroke-width:2.3438;" width="18.75" x="2579.1149" y="3275.8594"/><text fill="#000000" font-family="sans-serif" font-size="65.625" lengthAdjust="spacing" textLength="797.818" x="1767.2344" y="3378.9615">ProblemStrategyFactory</text></g><!--entity ProblemTestCaseFactory--><g class="entity" data-entity="ProblemTestCaseFactory" data-source-line="10" data-uid="ent0005" id="entity_ProblemTestCaseFactory"><rect fill="#F1F1F1" height="217.0166" rx="11.7188" ry="11.7188" style="stroke:#181818;stroke-width:2.3438;" width="1005.1208" x="1686.9844" y="2844.6094"/><rect fill="#F1F1F1" height="46.875" style="stroke:#181818;stroke-width:2.3438;" width="70.3125" x="2598.3552" y="2868.0469"/><rect fill="#F1F1F1" height="9.375" style="stroke:#181818;stroke-width:2.3438;" width="18.75" x="2588.9802" y="2877.4219"/><rect fill="#F1F1F1" height="9.375" style="stroke:#181818;stroke-width:2.3438;" width="18.75" x="2588.9802" y="2896.1719"/><text fill="#000000" font-family="sans-serif" font-size="65.625" lengthAdjust="spacing" textLength="817.6208" x="1757.2969" y="2999.274">ProblemTestCaseFactory</text></g><!--entity Strategy Registrars--><g class="entity" data-entity="Strategy Registrars" data-source-line="14" data-uid="ent0007" id="entity_Strategy Registrars"><rect fill="#F1F1F1" height="217.0166" rx="11.7188" ry="11.7188" style="stroke:#181818;stroke-width:2.3438;" width="823.6908" x="3094.3125" y="3224.2969"/><rect fill="#F1F1F1" height="46.875" style="stroke:#181818;stroke-width:2.3438;" width="70.3125" x="3824.2533" y="3247.7344"/><rect fill="#F1F1F1" height="9.375" style="stroke:#181818;stroke-width:2.3438;" width="18.75" x="3814.8783" y="3257.1094"/><rect fill="#F1F1F1" height="9.375" style="stroke:#181818;stroke-width:2.3438;" width="18.75" x="3814.8783" y="3275.8594"/><text fill="#000000" font-family="sans-serif" font-size="65.625" lengthAdjust="spacing" textLength="636.1908" x="3164.625" y="3378.9615">Strategy Registrars</text></g><!--entity Strategy Implementations--><g class="entity" data-entity="Strategy Implementations" data-source-line="15" data-uid="ent0008" id="entity_Strategy Implementations"><rect fill="#F1F1F1" height="217.0166" rx="11.7188" ry="11.7188" style="stroke:#181818;stroke-width:2.3438;" width="1044.8227" x="4199.25" y="3224.2969"/><rect fill="#F1F1F1" height="46.875" style="stroke:#181818;stroke-width:2.3438;" width="70.3125" x="5150.3227" y="3247.7344"/><rect fill="#F1F1F1" height="9.375" style="stroke:#181818;stroke-width:2.3438;" width="18.75" x="5140.9477" y="3257.1094"/><rect fill="#F1F1F1" height="9.375" style="stroke:#181818;stroke-width:2.3438;" width="18.75" x="5140.9477" y="3275.8594"/><text fill="#000000" font-family="sans-serif" font-size="65.625" lengthAdjust="spacing" textLength="857.3227" x="4269.5625" y="3378.9615">Strategy Implementations</text></g><!--entity IProblemSolution--><g class="entity" data-entity="IProblemSolution" data-source-line="16" data-uid="ent0009" id="entity_IProblemSolution"><rect fill="#F1F1F1" height="217.0166" rx="11.7188" ry="11.7188" style="stroke:#181818;stroke-width:2.3438;" width="745.0882" x="5532.2344" y="3224.2969"/><rect fill="#F1F1F1" height="46.875" style="stroke:#181818;stroke-width:2.3438;" width="70.3125" x="6183.5726" y="3247.7344"/><rect fill="#F1F1F1" height="9.375" style="stroke:#181818;stroke-width:2.3438;" width="18.75" x="6174.1976" y="3257.1094"/><rect fill="#F1F1F1" height="9.375" style="stroke:#181818;stroke-width:2.3438;" width="18.75" x="6174.1976" y="3275.8594"/><text fill="#000000" font-family="sans-serif" font-size="65.625" lengthAdjust="spacing" textLength="557.5882" x="5602.5469" y="3378.9615">IProblemSolution</text></g><!--entity IProblemStrategy--><g class="entity" data-entity="IProblemStrategy" data-source-line="17" data-uid="ent0010" id="entity_IProblemStrategy"><rect fill="#F1F1F1" height="217.0166" rx="11.7188" ry="11.7188" style="stroke:#181818;stroke-width:2.3438;" width="758.931" x="5525.2969" y="2844.6094"/><rect fill="#F1F1F1" height="46.875" style="stroke:#181818;stroke-width:2.3438;" width="70.3125" x="6190.4778" y="2868.0469"/><rect fill="#F1F1F1" height="9.375" style="stroke:#181818;stroke-width:2.3438;" width="18.75" x="6181.1028" y="2877.4219"/><rect fill="#F1F1F1" height="9.375" style="stroke:#181818;stroke-width:2.3438;" width="18.75" x="6181.1028" y="2896.1719"/><text fill="#000000" font-family="sans-serif" font-size="65.625" lengthAdjust="spacing" textLength="571.431" x="5595.6094" y="2999.274">IProblemStrategy</text></g><!--entity ProblemTest--><g class="entity" data-entity="ProblemTest" data-source-line="21" data-uid="ent0012" id="entity_ProblemTest"><rect fill="#F1F1F1" height="217.0166" rx="11.7188" ry="11.7188" style="stroke:#181818;stroke-width:2.3438;" width="598.7778" x="1890.1875" y="2089.9219"/><rect fill="#F1F1F1" height="46.875" style="stroke:#181818;stroke-width:2.3438;" width="70.3125" x="2395.2153" y="2113.3594"/><rect fill="#F1F1F1" height="9.375" style="stroke:#181818;stroke-width:2.3438;" width="18.75" x="2385.8403" y="2122.7344"/><rect fill="#F1F1F1" height="9.375" style="stroke:#181818;stroke-width:2.3438;" width="18.75" x="2385.8403" y="2141.4844"/><text fill="#000000" font-family="sans-serif" font-size="65.625" lengthAdjust="spacing" textLength="411.2778" x="1960.5" y="2244.5865">ProblemTest</text></g><!--entity StrategyBenchmark--><g class="entity" data-entity="StrategyBenchmark" data-source-line="22" data-uid="ent0013" id="entity_StrategyBenchmark"><rect fill="#F1F1F1" height="217.0166" rx="11.7188" ry="11.7188" style="stroke:#181818;stroke-width:2.3438;" width="842.4683" x="1768.3125" y="1138.3594"/><rect fill="#F1F1F1" height="46.875" style="stroke:#181818;stroke-width:2.3438;" width="70.3125" x="2517.0308" y="1161.7969"/><rect fill="#F1F1F1" height="9.375" style="stroke:#181818;stroke-width:2.3438;" width="18.75" x="2507.6558" y="1171.1719"/><rect fill="#F1F1F1" height="9.375" style="stroke:#181818;stroke-width:2.3438;" width="18.75" x="2507.6558" y="1189.9219"/><text fill="#000000" font-family="sans-serif" font-size="65.625" lengthAdjust="spacing" textLength="654.9683" x="1838.625" y="1293.024">StrategyBenchmark</text></g><!--entity TestCase--><g class="entity" data-entity="TestCase" data-source-line="23" data-uid="ent0014" id="entity_TestCase"><rect fill="#F1F1F1" height="217.0166" rx="11.7188" ry="11.7188" style="stroke:#181818;stroke-width:2.3438;" width="488.4842" x="3261.8906" y="2277.4219"/><rect fill="#F1F1F1" height="46.875" style="stroke:#181818;stroke-width:2.3438;" width="70.3125" x="3656.6248" y="2300.8594"/><rect fill="#F1F1F1" height="9.375" style="stroke:#181818;stroke-width:2.3438;" width="18.75" x="3647.2498" y="2310.2344"/><rect fill="#F1F1F1" height="9.375" style="stroke:#181818;stroke-width:2.3438;" width="18.75" x="3647.2498" y="2328.9844"/><text fill="#000000" font-family="sans-serif" font-size="65.625" lengthAdjust="spacing" textLength="300.9842" x="3332.2031" y="2432.0865">TestCase</text></g><!--entity TestResult--><g class="entity" data-entity="TestResult" data-source-line="24" data-uid="ent0015" id="entity_TestResult"><rect fill="#F1F1F1" height="217.0166" rx="11.7188" ry="11.7188" style="stroke:#181818;stroke-width:2.3438;" width="533.6014" x="3239.3437" y="1897.7344"/><rect fill="#F1F1F1" height="46.875" style="stroke:#181818;stroke-width:2.3438;" width="70.3125" x="3679.1951" y="1921.1719"/><rect fill="#F1F1F1" height="9.375" style="stroke:#181818;stroke-width:2.3438;" width="18.75" x="3669.8201" y="1930.5469"/><rect fill="#F1F1F1" height="9.375" style="stroke:#181818;stroke-width:2.3438;" width="18.75" x="3669.8201" y="1949.2969"/><text fill="#000000" font-family="sans-serif" font-size="65.625" lengthAdjust="spacing" textLength="346.1014" x="3309.6562" y="2052.399">TestResult</text></g><!--entity BenchmarkResult--><g class="entity" data-entity="BenchmarkResult" data-source-line="25" data-uid="ent0016" id="entity_BenchmarkResult"><rect fill="#F1F1F1" height="217.0166" rx="11.7188" ry="11.7188" style="stroke:#181818;stroke-width:2.3438;" width="767.0059" x="3122.625" y="1138.3594"/><rect fill="#F1F1F1" height="46.875" style="stroke:#181818;stroke-width:2.3438;" width="70.3125" x="3795.8809" y="1161.7969"/><rect fill="#F1F1F1" height="9.375" style="stroke:#181818;stroke-width:2.3438;" width="18.75" x="3786.5059" y="1171.1719"/><rect fill="#F1F1F1" height="9.375" style="stroke:#181818;stroke-width:2.3438;" width="18.75" x="3786.5059" y="1189.9219"/><text fill="#000000" font-family="sans-serif" font-size="65.625" lengthAdjust="spacing" textLength="579.5059" x="3192.9375" y="1293.024">BenchmarkResult</text></g><!--entity ComparerResolver--><g class="entity" data-entity="ComparerResolver" data-source-line="26" data-uid="ent0017" id="entity_ComparerResolver"><rect fill="#F1F1F1" height="217.0166" rx="11.7188" ry="11.7188" style="stroke:#181818;stroke-width:2.3438;" width="798.3444" x="3106.9688" y="1518.0469"/><rect fill="#F1F1F1" height="46.875" style="stroke:#181818;stroke-width:2.3438;" width="70.3125" x="3811.5632" y="1541.4844"/><rect fill="#F1F1F1" height="9.375" style="stroke:#181818;stroke-width:2.3438;" width="18.75" x="3802.1882" y="1550.8594"/><rect fill="#F1F1F1" height="9.375" style="stroke:#181818;stroke-width:2.3438;" width="18.75" x="3802.1882" y="1569.6094"/><text fill="#000000" font-family="sans-serif" font-size="65.625" lengthAdjust="spacing" textLength="610.8444" x="3177.2813" y="1672.7115">ComparerResolver</text></g><!--entity ComparerHelper--><g class="entity" data-entity="ComparerHelper" data-source-line="27" data-uid="ent0018" id="entity_ComparerHelper"><rect fill="#F1F1F1" height="217.0166" rx="11.7188" ry="11.7188" style="stroke:#181818;stroke-width:2.3438;" width="730.5725" x="4356.375" y="1518.0469"/><rect fill="#F1F1F1" height="46.875" style="stroke:#181818;stroke-width:2.3438;" width="70.3125" x="4993.1975" y="1541.4844"/><rect fill="#F1F1F1" height="9.375" style="stroke:#181818;stroke-width:2.3438;" width="18.75" x="4983.8225" y="1550.8594"/><rect fill="#F1F1F1" height="9.375" style="stroke:#181818;stroke-width:2.3438;" width="18.75" x="4983.8225" y="1569.6094"/><text fill="#000000" font-family="sans-serif" font-size="65.625" lengthAdjust="spacing" textLength="543.0725" x="4426.6875" y="1672.7115">ComparerHelper</text></g><!--entity GenerateDocumentationIndex--><g class="entity" data-entity="GenerateDocumentationIndex" data-source-line="31" data-uid="ent0020" id="entity_GenerateDocumentationIndex"><rect fill="#F1F1F1" height="217.0166" rx="11.7188" ry="11.7188" style="stroke:#181818;stroke-width:2.3438;" width="1181.7123" x="103.125" y="383.6719"/><rect fill="#F1F1F1" height="46.875" style="stroke:#181818;stroke-width:2.3438;" width="70.3125" x="1191.0873" y="407.1094"/><rect fill="#F1F1F1" height="9.375" style="stroke:#181818;stroke-width:2.3438;" width="18.75" x="1181.7123" y="416.4844"/><rect fill="#F1F1F1" height="9.375" style="stroke:#181818;stroke-width:2.3438;" width="18.75" x="1181.7123" y="435.2344"/><text fill="#000000" font-family="sans-serif" font-size="65.625" lengthAdjust="spacing" textLength="994.2123" x="173.4375" y="538.3365">GenerateDocumentationIndex</text></g><!--entity StrategyPlaybook.md--><g class="entity" data-entity="StrategyPlaybook.md" data-source-line="32" data-uid="ent0021" id="entity_StrategyPlaybook.md"><rect fill="#F1F1F1" height="217.0166" rx="11.7188" ry="11.7188" style="stroke:#181818;stroke-width:2.3438;" width="891.9434" x="1743.6094" y="571.1719"/><rect fill="#F1F1F1" height="46.875" style="stroke:#181818;stroke-width:2.3438;" width="70.3125" x="2541.8027" y="594.6094"/><rect fill="#F1F1F1" height="9.375" style="stroke:#181818;stroke-width:2.3438;" width="18.75" x="2532.4277" y="603.9844"/><rect fill="#F1F1F1" height="9.375" style="stroke:#181818;stroke-width:2.3438;" width="18.75" x="2532.4277" y="622.7344"/><text fill="#000000" font-family="sans-serif" font-size="65.625" lengthAdjust="spacing" textLength="704.4434" x="1813.9219" y="725.8365">StrategyPlaybook.md</text></g><!--entity Markdown Problem Descriptions--><g class="entity" data-entity="Markdown Problem Descriptions" data-source-line="33" data-uid="ent0022" id="entity_Markdown Problem Descriptions"><rect fill="#F1F1F1" height="217.0166" rx="11.7188" ry="11.7188" style="stroke:#181818;stroke-width:2.3438;" width="1246.9528" x="1566.0938" y="191.4844"/><rect fill="#F1F1F1" height="46.875" style="stroke:#181818;stroke-width:2.3438;" width="70.3125" x="2719.2966" y="214.9219"/><rect fill="#F1F1F1" height="9.375" style="stroke:#181818;stroke-width:2.3438;" width="18.75" x="2709.9216" y="224.2969"/><rect fill="#F1F1F1" height="9.375" style="stroke:#181818;stroke-width:2.3438;" width="18.75" x="2709.9216" y="243.0469"/><text fill="#000000" font-family="sans-serif" font-size="65.625" lengthAdjust="spacing" textLength="1059.4528" x="1636.4063" y="346.149">Markdown Problem Descriptions</text></g><!--link Program to ProblemStrategyFactory--><g class="link" data-entity-1="Program" data-entity-2="ProblemStrategyFactory" data-source-line="36" data-uid="lnk23" id="link_Program_ProblemStrategyFactory"><path d="M692.0625,3062.9531 C692.0625,3175.0781 692.0625,3332.8125 692.0625,3332.8125 C692.0625,3332.8125 1230.75,3332.8125 1666.9688,3332.8125" fill="none" id="Program-to-ProblemStrategyFactory" style="stroke:#181818;stroke-width:4.6875;"/><polygon fill="#181818" points="1695.0938,3332.8125,1652.9063,3314.0625,1671.6563,3332.8125,1652.9063,3351.5625,1695.0938,3332.8125" style="stroke:#181818;stroke-width:4.6875;"/></g><!--link Program to ProblemTestCaseFactory--><g class="link" data-entity-1="Program" data-entity-2="ProblemTestCaseFactory" data-source-line="37" data-uid="lnk24" id="link_Program_ProblemTestCaseFactory"><path d="M929.2969,2953.125 C1131.2813,2953.125 1401.1875,2953.125 1656.7031,2953.125" fill="none" id="Program-to-ProblemTestCaseFactory" style="stroke:#181818;stroke-width:4.6875;"/><polygon fill="#181818" points="1684.8281,2953.125,1642.6406,2934.375,1661.3906,2953.125,1642.6406,2971.875,1684.8281,2953.125" style="stroke:#181818;stroke-width:4.6875;"/></g><!--link Program to ProblemTest--><g class="link" data-entity-1="Program" data-entity-2="ProblemTest" data-source-line="38" data-uid="lnk25" id="link_Program_ProblemTest"><path d="M692.0625,2843.3906 C692.0625,2634.0938 692.0625,2198.4375 692.0625,2198.4375 C692.0625,2198.4375 1422.8906,2198.4375 1860.1875,2198.4375" fill="none" id="Program-to-ProblemTest" style="stroke:#181818;stroke-width:4.6875;"/><polygon fill="#181818" points="1888.3125,2198.4375,1846.125,2179.6875,1864.875,2198.4375,1846.125,2217.1875,1888.3125,2198.4375" style="stroke:#181818;stroke-width:4.6875;"/></g><!--link ProblemStrategyFactory to Strategy Registrars--><g class="link" data-entity-1="ProblemStrategyFactory" data-entity-2="Strategy Registrars" data-source-line="40" data-uid="lnk26" id="link_ProblemStrategyFactory_Strategy Registrars"><path d="M2683.5469,3332.8125 C2818.5469,3332.8125 2935.2656,3332.8125 3065.2031,3332.8125" fill="none" id="ProblemStrategyFactory-to-Strategy Registrars" style="stroke:#181818;stroke-width:4.6875;"/><polygon fill="#181818" points="3093.3281,3332.8125,3051.1406,3314.0625,3069.8906,3332.8125,3051.1406,3351.5625,3093.3281,3332.8125" style="stroke:#181818;stroke-width:4.6875;"/></g><!--link Strategy Registrars to Strategy Implementations--><g class="link" data-entity-1="Strategy Registrars" data-entity-2="Strategy Implementations" data-source-line="41" data-uid="lnk27" id="link_Strategy Registrars_Strategy Implementations"><path d="M3919.3594,3332.8125 C4008.7969,3332.8125 4076.4375,3332.8125 4169.5313,3332.8125" fill="none" id="Strategy Registrars-to-Strategy Implementations" style="stroke:#181818;stroke-width:4.6875;"/><polygon fill="#181818" points="4197.6563,3332.8125,4155.4688,3314.0625,4174.2188,3332.8125,4155.4688,3351.5625,4197.6563,3332.8125" style="stroke:#181818;stroke-width:4.6875;"/></g><!--link Strategy Implementations to IProblemSolution--><g class="link" data-entity-1="Strategy Implementations" data-entity-2="IProblemSolution" data-source-line="42" data-uid="lnk28" id="link_Strategy Implementations_IProblemSolution"><path d="M5245.7344,3332.8125 C5341.5469,3332.8125 5411.625,3332.8125 5502,3332.8125" fill="none" id="Strategy Implementations-to-IProblemSolution" style="stroke:#181818;stroke-width:4.6875;"/><polygon fill="#181818" points="5530.125,3332.8125,5487.9375,3314.0625,5506.6875,3332.8125,5487.9375,3351.5625,5530.125,3332.8125" style="stroke:#181818;stroke-width:4.6875;"/></g><!--link Strategy Implementations to IProblemStrategy--><g class="link" data-entity-1="Strategy Implementations" data-entity-2="IProblemStrategy" data-source-line="43" data-uid="lnk29" id="link_Strategy Implementations_IProblemStrategy"><path d="M5163.9375,3222.2344 C5163.9375,3121.8281 5163.9375,2989.3125 5163.9375,2989.3125 C5163.9375,2989.3125 5313.8437,2989.3125 5495.3906,2989.3125" fill="none" id="Strategy Implementations-to-IProblemStrategy" style="stroke:#181818;stroke-width:4.6875;"/><polygon fill="#181818" points="5523.5156,2989.3125,5481.3281,2970.5625,5500.0781,2989.3125,5481.3281,3008.0625,5523.5156,2989.3125" style="stroke:#181818;stroke-width:4.6875;"/></g><!--link ProblemTestCaseFactory to TestCase--><g class="link" data-entity-1="ProblemTestCaseFactory" data-entity-2="TestCase" data-source-line="45" data-uid="lnk30" id="link_ProblemTestCaseFactory_TestCase"><path d="M2665.5,2842.6406 C2665.5,2681.4375 2665.5,2400.7031 2665.5,2400.7031 C2665.5,2400.7031 2984.4844,2400.7031 3232.5938,2400.7031" fill="none" id="ProblemTestCaseFactory-to-TestCase" style="stroke:#181818;stroke-width:4.6875;"/><polygon fill="#181818" points="3260.7188,2400.7031,3218.5313,2381.9531,3237.2813,2400.7031,3218.5313,2419.4531,3260.7188,2400.7031" style="stroke:#181818;stroke-width:4.6875;"/></g><!--link ProblemTest to TestCase--><g class="link" data-entity-1="ProblemTest" data-entity-2="TestCase" data-source-line="47" data-uid="lnk31" id="link_ProblemTest_TestCase"><path d="M2490.1875,2236.7813 C2855.8125,2236.7813 3424.875,2236.7813 3424.875,2236.7813 C3424.875,2236.7813 3424.875,2225.4844 3424.875,2247.8438" fill="none" id="ProblemTest-to-TestCase" style="stroke:#181818;stroke-width:4.6875;"/><polygon fill="#181818" points="3424.875,2275.9688,3443.625,2233.7813,3424.875,2252.5313,3406.125,2233.7813,3424.875,2275.9688" style="stroke:#181818;stroke-width:4.6875;"/></g><!--link ProblemTest to TestResult--><g class="link" data-entity-1="ProblemTest" data-entity-2="TestResult" data-source-line="48" data-uid="lnk32" id="link_ProblemTest_TestResult"><path d="M2489.7656,2196.0938 C2900.9531,2196.0938 3588.9375,2196.0938 3588.9375,2196.0938 C3588.9375,2196.0938 3588.9375,2186.5781 3588.9375,2144.8125" fill="none" id="ProblemTest-to-TestResult" style="stroke:#181818;stroke-width:4.6875;"/><polygon fill="#181818" points="3588.9375,2116.6875,3570.1875,2158.875,3588.9375,2140.125,3607.6875,2158.875,3588.9375,2116.6875" style="stroke:#181818;stroke-width:4.6875;"/></g><!--link ProblemTest to ComparerResolver--><g class="link" data-entity-1="ProblemTest" data-entity-2="ComparerResolver" data-source-line="49" data-uid="lnk33" id="link_ProblemTest_ComparerResolver"><path d="M2490.9375,2155.4063 C2779.6406,2155.4063 3171.75,2155.4063 3171.75,2155.4063 C3171.75,2155.4063 3171.75,1919.1563 3171.75,1764.2813" fill="none" id="ProblemTest-to-ComparerResolver" style="stroke:#181818;stroke-width:4.6875;"/><polygon fill="#181818" points="3171.75,1736.1563,3153,1778.3438,3171.75,1759.5938,3190.5,1778.3438,3171.75,1736.1563" style="stroke:#181818;stroke-width:4.6875;"/></g><!--link ComparerResolver to ComparerHelper--><g class="link" data-entity-1="ComparerResolver" data-entity-2="ComparerHelper" data-source-line="50" data-uid="lnk34" id="link_ComparerResolver_ComparerHelper"><path d="M3907.5,1626.5625 C4052.0156,1626.5625 4186.0781,1626.5625 4327.4531,1626.5625" fill="none" id="ComparerResolver-to-ComparerHelper" style="stroke:#181818;stroke-width:4.6875;"/><polygon fill="#181818" points="4355.5781,1626.5625,4313.3906,1607.8125,4332.1406,1626.5625,4313.3906,1645.3125,4355.5781,1626.5625" style="stroke:#181818;stroke-width:4.6875;"/></g><!--link StrategyBenchmark to BenchmarkResult--><g class="link" data-entity-1="StrategyBenchmark" data-entity-2="BenchmarkResult" data-source-line="52" data-uid="lnk35" id="link_StrategyBenchmark_BenchmarkResult"><path d="M2611.5469,1210.6875 C2775.5156,1210.6875 2933.9063,1210.6875 3094.0781,1210.6875" fill="none" id="StrategyBenchmark-to-BenchmarkResult" style="stroke:#181818;stroke-width:4.6875;"/><polygon fill="#181818" points="3122.2031,1210.6875,3080.0156,1191.9375,3098.7656,1210.6875,3080.0156,1229.4375,3122.2031,1210.6875" style="stroke:#181818;stroke-width:4.6875;"/></g><!--link StrategyBenchmark to IProblemStrategy--><g class="link" data-entity-1="StrategyBenchmark" data-entity-2="IProblemStrategy" data-source-line="53" data-uid="lnk36" id="link_StrategyBenchmark_IProblemStrategy"><path d="M2612.8125,1283.0625 C2788.1719,1283.0625 2951.4375,1283.0625 2951.4375,1283.0625 C2951.4375,1283.0625 2951.4375,2916.9375 2951.4375,2916.9375 C2951.4375,2916.9375 4696.6875,2916.9375 5495.0625,2916.9375" fill="none" id="StrategyBenchmark-to-IProblemStrategy" style="stroke:#181818;stroke-width:4.6875;"/><polygon fill="#181818" points="5523.1875,2916.9375,5481,2898.1875,5499.75,2916.9375,5481,2935.6875,5523.1875,2916.9375" style="stroke:#181818;stroke-width:4.6875;"/></g><!--link GenerateDocumentationIndex to StrategyPlaybook.md--><g class="link" data-entity-1="GenerateDocumentationIndex" data-entity-2="StrategyPlaybook.md" data-source-line="55" data-uid="lnk37" id="link_GenerateDocumentationIndex_StrategyPlaybook.md"><path d="M1104.5625,602.7656 C1104.5625,650.0156 1104.5625,694.4531 1104.5625,694.4531 C1104.5625,694.4531 1414.9688,694.4531 1713.8438,694.4531" fill="none" id="GenerateDocumentationIndex-to-StrategyPlaybook.md" style="stroke:#181818;stroke-width:4.6875;"/><polygon fill="#181818" points="1741.9688,694.4531,1699.7813,675.7031,1718.5313,694.4531,1699.7813,713.2031,1741.9688,694.4531" style="stroke:#181818;stroke-width:4.6875;"/></g><!--link GenerateDocumentationIndex to Markdown Problem Descriptions--><g class="link" data-entity-1="GenerateDocumentationIndex" data-entity-2="Markdown Problem Descriptions" data-source-line="56" data-uid="lnk38" id="link_GenerateDocumentationIndex_Markdown Problem Descriptions"><path d="M1286.1563,489.8438 C1469.7656,489.8438 1624.875,489.8438 1624.875,489.8438 C1624.875,489.8438 1624.875,480.3281 1624.875,438.5625" fill="none" id="GenerateDocumentationIndex-to-Markdown Problem Descriptions" style="stroke:#181818;stroke-width:4.6875;"/><polygon fill="#181818" points="1624.875,410.4375,1606.125,452.625,1624.875,433.875,1643.625,452.625,1624.875,410.4375" style="stroke:#181818;stroke-width:4.6875;"/></g><!--SRC=[ZLAnJiCm4Dtz5IS6jbP5Y9M1Lj1A8Ah2XZgupZMnujYHxG8HujznwiIDIKBPalVUtRtpFPDpML9D2p0PJTG7bodigJ18J604bsYh4a5fcwaEaPGShcSp8d1lmIhGFCqi95mZirn9OXWL25VJ6q9AodAQ8bmyQvQXiPhMYWlu8W1lQwrIrs_RVEy45Y-r0jFgdZAhTDMbNbtvd1eCr7UdVLi7ZxH2tVGFu0PJNi_MPXlXgw9qZL7QeojFhbedIXngD0QRodXuxGoML4iqvhHQwpaQUOUIPGNL-H5jLme_6pG7uIk2ieFDLU4kWDf1IhoZZi0bYhA6kiuMYXt2Vd09NjEQV429jQr8jP89VaQUru9MEwNoQP4SyITdoaL6GhCaBD0mpSlc3TtyS5cOJ6x7RpiiwzrvNBRreuQQU-rW0WRHN_fUCiOfNzcFpRyhGgR8s1FuWbDQ8c6F7I7R70tG_LpreLZPXeqC9DihU_aTLGuzn1_HZ2yLXVDysPdi_W00]--></g></svg>