<svg xmlns="http://www.w3.org/2000/svg" xmlns:xlink="http://www.w3.org/1999/xlink" contentStyleType="text/css" data-diagram-type="DESCRIPTION" height="5020.3125px" preserveAspectRatio="none" style="width:6225px;height:5020px;background:#FFFFFF;" version="1.1" viewBox="0 0 6225 5020" width="6225px" zoomAndPan="magnify"><defs/><g><!--cluster Orchestration--><g class="cluster" data-entity="Orchestration" data-source-line="7" data-uid="ent0002" id="cluster_Orchestration"><path d="M39.8438,2310.9375 L555.5603,2310.9375 A17.5781,17.5781 0 0 1 567.2791,2322.6563 L600.0916,2415.4541 L2008.0781,2415.4541 A11.7188,11.7188 0 0 1 2019.7969,2427.1729 L2019.7969,3133.5938 A11.7188,11.7188 0 0 1 2008.0781,3145.3125 L39.8438,3145.3125 A11.7188,11.7188 0 0 1 28.125,3133.5938 L28.125,2322.6563 A11.7188,11.7188 0 0 1 39.8438,2310.9375" fill="none" style="stroke:#000000;stroke-width:7.0313;"/><line style="stroke:#000000;stroke-width:7.0313;" x1="28.125" x2="600.0916" y1="2415.4541" y2="2415.4541"/><text fill="#000000" font-family="sans-serif" font-size="65.625" font-weight="bold" lengthAdjust="spacing" textLength="511.0291" x="46.875" y="2381.2271">Orchestration</text></g><!--cluster Strategy Layer--><g class="cluster" data-entity="Strategy Layer" data-source-line="13" data-uid="ent0006" id="cluster_Strategy Layer"><path d="M2397.3281,28.125 L2951.5289,28.125 A17.5781,17.5781 0 0 1 2963.2476,39.8438 L2996.0601,132.6416 L6132.6094,132.6416 A11.7188,11.7188 0 0 1 6144.3281,144.3604 L6144.3281,471.0938 A11.7188,11.7188 0 0 1 6132.6094,482.8125 L2397.3281,482.8125 A11.7188,11.7188 0 0 1 2385.6094,471.0938 L2385.6094,39.8438 A11.7188,11.7188 0 0 1 2397.3281,28.125" fill="none" style="stroke:#000000;stroke-width:7.0313;"/><line style="stroke:#000000;stroke-width:7.0313;" x1="2385.6094" x2="2996.0601" y1="132.6416" y2="132.6416"/><text fill="#000000" font-family="sans-serif" font-size="65.625" font-weight="bold" lengthAdjust="spacing" textLength="549.5132" x="2404.3594" y="98.4146">Strategy Layer</text></g><!--cluster Test Harness--><g class="cluster" data-entity="Test Harness" data-source-line="19" data-uid="ent0010" id="cluster_Test Harness"><path d="M2251.0313,2301.5625 L2739.1904,2301.5625 A17.5781,17.5781 0 0 1 2750.9092,2313.2813 L2783.7217,2406.0791 L6181.3594,2406.0791 A11.7188,11.7188 0 0 1 6193.0781,2417.7979 L6193.0781,3503.9063 A11.7188,11.7188 0 0 1 6181.3594,3515.625 L2251.0313,3515.625 A11.7188,11.7188 0 0 1 2239.3125,3503.9063 L2239.3125,2313.2813 A11.7188,11.7188 0 0 1 2251.0313,2301.5625" fill="none" style="stroke:#000000;stroke-width:7.0313;"/><line style="stroke:#000000;stroke-width:7.0313;" x1="2239.3125" x2="2783.7217" y1="2406.0791" y2="2406.0791"/><text fill="#000000" font-family="sans-serif" font-size="65.625" font-weight="bold" lengthAdjust="spacing" textLength="483.4717" x="2258.0625" y="2371.8521">Test Harness</text></g><!--cluster Validation & Comparison--><g class="cluster" data-entity="Validation . Comparison" data-source-line="28" data-uid="ent0017" id="cluster_Validation . Comparison"><path d="M5188.6875,595.3125 L6111.9007,595.3125 A17.5781,17.5781 0 0 1 6123.6194,607.0313 L6156.4319,699.8291 L6154.3125,699.8291 A11.7188,11.7188 0 0 1 6166.0313,711.5479 L6166.0313,2177.3438 A11.7188,11.7188 0 0 1 6154.3125,2189.0625 L5188.6875,2189.0625 A11.7188,11.7188 0 0 1 5176.9688,2177.3438 L5176.9688,607.0313 A11.7188,11.7188 0 0 1 5188.6875,595.3125" fill="none" style="stroke:#000000;stroke-width:7.0313;"/><line style="stroke:#000000;stroke-width:7.0313;" x1="5176.9688" x2="6156.4319" y1="699.8291" y2="699.8291"/><text fill="#000000" font-family="sans-serif" font-size="65.625" font-weight="bold" lengthAdjust="spacing" textLength="918.5257" x="5195.7188" y="665.6021">Validation &amp; Comparison</text></g><!--cluster Documentation--><g class="cluster" data-entity="Documentation" data-source-line="35" data-uid="ent0022" id="cluster_Documentation"><path d="M788.0625,3773.4375 L1358.8618,3773.4375 A17.5781,17.5781 0 0 1 1370.5805,3785.1563 L1403.393,3877.9541 L3456.0469,3877.9541 A11.7188,11.7188 0 0 1 3467.7656,3889.6729 L3467.7656,4975.7813 A11.7188,11.7188 0 0 1 3456.0469,4987.5 L788.0625,4987.5 A11.7188,11.7188 0 0 1 776.3438,4975.7813 L776.3438,3785.1563 A11.7188,11.7188 0 0 1 788.0625,3773.4375" fill="none" style="stroke:#000000;stroke-width:7.0313;"/><line style="stroke:#000000;stroke-width:7.0313;" x1="776.3438" x2="1403.393" y1="3877.9541" y2="3877.9541"/><text fill="#000000" font-family="sans-serif" font-size="65.625" font-weight="bold" lengthAdjust="spacing" textLength="566.1118" x="795.0938" y="3843.7271">Documentation</text></g><!--entity Program--><g class="entity" data-entity="Program" data-source-line="8" data-uid="ent0003" id="entity_Program"><rect fill="#F1F1F1" height="217.0166" rx="11.7188" ry="11.7188" style="stroke:#181818;stroke-width:2.3438;" width="466.983" x="103.125" y="2853.9844"/><rect fill="#F1F1F1" height="46.875" style="stroke:#181818;stroke-width:2.3438;" width="70.3125" x="476.358" y="2877.4219"/><rect fill="#F1F1F1" height="9.375" style="stroke:#181818;stroke-width:2.3438;" width="18.75" x="466.983" y="2886.7969"/><rect fill="#F1F1F1" height="9.375" style="stroke:#181818;stroke-width:2.3438;" width="18.75" x="466.983" y="2905.5469"/><text fill="#000000" font-family="sans-serif" font-size="65.625" lengthAdjust="spacing" textLength="279.483" x="173.4375" y="3008.649">Program</text></g><!--entity ProblemStrategyFactory--><g class="entity" data-entity="ProblemStrategyFactory" data-source-line="9" data-uid="ent0004" id="entity_ProblemStrategyFactory"><rect fill="#F1F1F1" height="217.0166" rx="11.7188" ry="11.7188" style="stroke:#181818;stroke-width:2.3438;" width="985.318" x="949.5469" y="2474.2969"/><rect fill="#F1F1F1" height="46.875" style="stroke:#181818;stroke-width:2.3438;" width="70.3125" x="1841.1149" y="2497.7344"/><rect fill="#F1F1F1" height="9.375" style="stroke:#181818;stroke-width:2.3438;" width="18.75" x="1831.7399" y="2507.1094"/><rect fill="#F1F1F1" height="9.375" style="stroke:#181818;stroke-width:2.3438;" width="18.75" x="1831.7399" y="2525.8594"/><text fill="#000000" font-family="sans-serif" font-size="65.625" lengthAdjust="spacing" textLength="797.818" x="1019.8594" y="2628.9615">ProblemStrategyFactory</text></g><!--entity ProblemTestCaseFactory--><g class="entity" data-entity="ProblemTestCaseFactory" data-source-line="10" data-uid="ent0005" id="entity_ProblemTestCaseFactory"><rect fill="#F1F1F1" height="217.0166" rx="11.7188" ry="11.7188" style="stroke:#181818;stroke-width:2.3438;" width="1005.1208" x="939.6563" y="2853.9844"/><rect fill="#F1F1F1" height="46.875" style="stroke:#181818;stroke-width:2.3438;" width="70.3125" x="1851.0271" y="2877.4219"/><rect fill="#F1F1F1" height="9.375" style="stroke:#181818;stroke-width:2.3438;" width="18.75" x="1841.6521" y="2886.7969"/><rect fill="#F1F1F1" height="9.375" style="stroke:#181818;stroke-width:2.3438;" width="18.75" x="1841.6521" y="2905.5469"/><text fill="#000000" font-family="sans-serif" font-size="65.625" lengthAdjust="spacing" textLength="817.6208" x="1009.9688" y="3008.649">ProblemTestCaseFactory</text></g><!--entity StrategyRegistryBuilder--><g class="entity" data-entity="StrategyRegistryBuilder" data-source-line="14" data-uid="ent0007" id="entity_StrategyRegistryBuilder"><rect fill="#F1F1F1" height="217.0166" rx="11.7188" ry="11.7188" style="stroke:#181818;stroke-width:2.3438;" width="972.3724" x="2460.6094" y="191.4844"/><rect fill="#F1F1F1" height="46.875" style="stroke:#181818;stroke-width:2.3438;" width="70.3125" x="3339.2318" y="214.9219"/><rect fill="#F1F1F1" height="9.375" style="stroke:#181818;stroke-width:2.3438;" width="18.75" x="3329.8568" y="224.2969"/><rect fill="#F1F1F1" height="9.375" style="stroke:#181818;stroke-width:2.3438;" width="18.75" x="3329.8568" y="243.0469"/><text fill="#000000" font-family="sans-serif" font-size="65.625" lengthAdjust="spacing" textLength="784.8724" x="2530.9219" y="346.149">StrategyRegistryBuilder</text></g><!--entity Strategy Implementations--><g class="entity" data-entity="Strategy Implementations" data-source-line="15" data-uid="ent0008" id="entity_Strategy Implementations"><rect fill="#F1F1F1" height="217.0166" rx="11.7188" ry="11.7188" style="stroke:#181818;stroke-width:2.3438;" width="1044.8227" x="3860.5313" y="191.4844"/><rect fill="#F1F1F1" height="46.875" style="stroke:#181818;stroke-width:2.3438;" width="70.3125" x="4811.6039" y="214.9219"/><rect fill="#F1F1F1" height="9.375" style="stroke:#181818;stroke-width:2.3438;" width="18.75" x="4802.2289" y="224.2969"/><rect fill="#F1F1F1" height="9.375" style="stroke:#181818;stroke-width:2.3438;" width="18.75" x="4802.2289" y="243.0469"/><text fill="#000000" font-family="sans-serif" font-size="65.625" lengthAdjust="spacing" textLength="857.3227" x="3930.8438" y="346.149">Strategy Implementations</text></g><!--entity Strategy Metadata--><g class="entity" data-entity="Strategy Metadata" data-source-line="16" data-uid="ent0009" id="entity_Strategy Metadata"><rect fill="#F1F1F1" height="217.0166" rx="11.7188" ry="11.7188" style="stroke:#181818;stroke-width:2.3438;" width="800.2991" x="5269.0313" y="191.4844"/><rect fill="#F1F1F1" height="46.875" style="stroke:#181818;stroke-width:2.3438;" width="70.3125" x="5975.5803" y="214.9219"/><rect fill="#F1F1F1" height="9.375" style="stroke:#181818;stroke-width:2.3438;" width="18.75" x="5966.2053" y="224.2969"/><rect fill="#F1F1F1" height="9.375" style="stroke:#181818;stroke-width:2.3438;" width="18.75" x="5966.2053" y="243.0469"/><text fill="#000000" font-family="sans-serif" font-size="65.625" lengthAdjust="spacing" textLength="612.7991" x="5339.3438" y="346.149">Strategy Metadata</text></g><!--entity ProblemTest--><g class="entity" data-entity="ProblemTest" data-source-line="20" data-uid="ent0011" id="entity_ProblemTest"><rect fill="#F1F1F1" height="217.0166" rx="11.7188" ry="11.7188" style="stroke:#181818;stroke-width:2.3438;" width="598.7778" x="2647.4063" y="3224.2969"/><rect fill="#F1F1F1" height="46.875" style="stroke:#181818;stroke-width:2.3438;" width="70.3125" x="3152.434" y="3247.7344"/><rect fill="#F1F1F1" height="9.375" style="stroke:#181818;stroke-width:2.3438;" width="18.75" x="3143.059" y="3257.1094"/><rect fill="#F1F1F1" height="9.375" style="stroke:#181818;stroke-width:2.3438;" width="18.75" x="3143.059" y="3275.8594"/><text fill="#000000" font-family="sans-serif" font-size="65.625" lengthAdjust="spacing" textLength="411.2778" x="2717.7188" y="3378.9615">ProblemTest</text></g><!--entity StrategyBenchmark--><g class="entity" data-entity="StrategyBenchmark" data-source-line="21" data-uid="ent0012" id="entity_StrategyBenchmark"><rect fill="#F1F1F1" height="217.0166" rx="11.7188" ry="11.7188" style="stroke:#181818;stroke-width:2.3438;" width="842.4683" x="2525.5781" y="2464.9219"/><rect fill="#F1F1F1" height="46.875" style="stroke:#181818;stroke-width:2.3438;" width="70.3125" x="3274.2964" y="2488.3594"/><rect fill="#F1F1F1" height="9.375" style="stroke:#181818;stroke-width:2.3438;" width="18.75" x="3264.9214" y="2497.7344"/><rect fill="#F1F1F1" height="9.375" style="stroke:#181818;stroke-width:2.3438;" width="18.75" x="3264.9214" y="2516.4844"/><text fill="#000000" font-family="sans-serif" font-size="65.625" lengthAdjust="spacing" textLength="654.9683" x="2595.8906" y="2619.5865">StrategyBenchmark</text></g><!--entity ComparerResolver--><g class="entity" data-entity="ComparerResolver" data-source-line="22" data-uid="ent0013" id="entity_ComparerResolver"><rect fill="#F1F1F1" height="217.0166" rx="11.7188" ry="11.7188" style="stroke:#181818;stroke-width:2.3438;" width="798.3444" x="3983.7656" y="2657.1094"/><rect fill="#F1F1F1" height="46.875" style="stroke:#181818;stroke-width:2.3438;" width="70.3125" x="4688.36" y="2680.5469"/><rect fill="#F1F1F1" height="9.375" style="stroke:#181818;stroke-width:2.3438;" width="18.75" x="4678.985" y="2689.9219"/><rect fill="#F1F1F1" height="9.375" style="stroke:#181818;stroke-width:2.3438;" width="18.75" x="4678.985" y="2708.6719"/><text fill="#000000" font-family="sans-serif" font-size="65.625" lengthAdjust="spacing" textLength="610.8444" x="4054.0781" y="2811.774">ComparerResolver</text></g><!--entity BenchmarkSummary--><g class="entity" data-entity="BenchmarkSummary" data-source-line="23" data-uid="ent0014" id="entity_BenchmarkSummary"><rect fill="#F1F1F1" height="217.0166" rx="11.7188" ry="11.7188" style="stroke:#181818;stroke-width:2.3438;" width="878.421" x="3943.7344" y="3224.2969"/><rect fill="#F1F1F1" height="46.875" style="stroke:#181818;stroke-width:2.3438;" width="70.3125" x="4728.4054" y="3247.7344"/><rect fill="#F1F1F1" height="9.375" style="stroke:#181818;stroke-width:2.3438;" width="18.75" x="4719.0304" y="3257.1094"/><rect fill="#F1F1F1" height="9.375" style="stroke:#181818;stroke-width:2.3438;" width="18.75" x="4719.0304" y="3275.8594"/><text fill="#000000" font-family="sans-serif" font-size="65.625" lengthAdjust="spacing" textLength="690.921" x="4014.0469" y="3378.9615">BenchmarkSummary</text></g><!--entity IBenchmarkSummary--><g class="entity" data-entity="IBenchmarkSummary" data-source-line="24" data-uid="ent0015" id="entity_IBenchmarkSummary"><rect fill="#F1F1F1" height="217.0166" rx="11.7188" ry="11.7188" style="stroke:#181818;stroke-width:2.3438;" width="897.7753" x="5220.2813" y="3224.2969"/><rect fill="#F1F1F1" height="46.875" style="stroke:#181818;stroke-width:2.3438;" width="70.3125" x="6024.3065" y="3247.7344"/><rect fill="#F1F1F1" height="9.375" style="stroke:#181818;stroke-width:2.3438;" width="18.75" x="6014.9315" y="3257.1094"/><rect fill="#F1F1F1" height="9.375" style="stroke:#181818;stroke-width:2.3438;" width="18.75" x="6014.9315" y="3275.8594"/><text fill="#000000" font-family="sans-serif" font-size="65.625" lengthAdjust="spacing" textLength="710.2753" x="5290.5938" y="3378.9615">IBenchmarkSummary</text></g><!--entity TestCaseProviderRegistryBuilder--><g class="entity" data-entity="TestCaseProviderRegistryBuilder" data-source-line="25" data-uid="ent0016" id="entity_TestCaseProviderRegistryBuilder"><rect fill="#F1F1F1" height="217.0166" rx="11.7188" ry="11.7188" style="stroke:#181818;stroke-width:2.3438;" width="1264.9612" x="2314.3125" y="2844.6094"/><rect fill="#F1F1F1" height="46.875" style="stroke:#181818;stroke-width:2.3438;" width="70.3125" x="3485.5237" y="2868.0469"/><rect fill="#F1F1F1" height="9.375" style="stroke:#181818;stroke-width:2.3438;" width="18.75" x="3476.1487" y="2877.4219"/><rect fill="#F1F1F1" height="9.375" style="stroke:#181818;stroke-width:2.3438;" width="18.75" x="3476.1487" y="2896.1719"/><text fill="#000000" font-family="sans-serif" font-size="65.625" lengthAdjust="spacing" textLength="1077.4612" x="2384.625" y="2999.274">TestCaseProviderRegistryBuilder</text></g><!--entity ComparerHelper--><g class="entity" data-entity="ComparerHelper" data-source-line="29" data-uid="ent0018" id="entity_ComparerHelper"><rect fill="#F1F1F1" height="217.0166" rx="11.7188" ry="11.7188" style="stroke:#181818;stroke-width:2.3438;" width="730.5725" x="5303.9063" y="1897.7344"/><rect fill="#F1F1F1" height="46.875" style="stroke:#181818;stroke-width:2.3438;" width="70.3125" x="5940.7288" y="1921.1719"/><rect fill="#F1F1F1" height="9.375" style="stroke:#181818;stroke-width:2.3438;" width="18.75" x="5931.3538" y="1930.5469"/><rect fill="#F1F1F1" height="9.375" style="stroke:#181818;stroke-width:2.3438;" width="18.75" x="5931.3538" y="1949.2969"/><text fill="#000000" font-family="sans-serif" font-size="65.625" lengthAdjust="spacing" textLength="543.0725" x="5374.2188" y="2052.399">ComparerHelper</text></g><!--entity TestCase--><g class="entity" data-entity="TestCase" data-source-line="30" data-uid="ent0019" id="entity_TestCase"><rect fill="#F1F1F1" height="217.0166" rx="11.7188" ry="11.7188" style="stroke:#181818;stroke-width:2.3438;" width="488.4842" x="5424.9375" y="1138.3594"/><rect fill="#F1F1F1" height="46.875" style="stroke:#181818;stroke-width:2.3438;" width="70.3125" x="5819.6717" y="1161.7969"/><rect fill="#F1F1F1" height="9.375" style="stroke:#181818;stroke-width:2.3438;" width="18.75" x="5810.2967" y="1171.1719"/><rect fill="#F1F1F1" height="9.375" style="stroke:#181818;stroke-width:2.3438;" width="18.75" x="5810.2967" y="1189.9219"/><text fill="#000000" font-family="sans-serif" font-size="65.625" lengthAdjust="spacing" textLength="300.9842" x="5495.25" y="1293.024">TestCase</text></g><!--entity TestResult--><g class="entity" data-entity="TestResult" data-source-line="31" data-uid="ent0020" id="entity_TestResult"><rect fill="#F1F1F1" height="217.0166" rx="11.7188" ry="11.7188" style="stroke:#181818;stroke-width:2.3438;" width="533.6014" x="5402.3906" y="1518.0469"/><rect fill="#F1F1F1" height="46.875" style="stroke:#181818;stroke-width:2.3438;" width="70.3125" x="5842.242" y="1541.4844"/><rect fill="#F1F1F1" height="9.375" style="stroke:#181818;stroke-width:2.3438;" width="18.75" x="5832.867" y="1550.8594"/><rect fill="#F1F1F1" height="9.375" style="stroke:#181818;stroke-width:2.3438;" width="18.75" x="5832.867" y="1569.6094"/><text fill="#000000" font-family="sans-serif" font-size="65.625" lengthAdjust="spacing" textLength="346.1014" x="5472.7031" y="1672.7115">TestResult</text></g><!--entity BenchmarkResult--><g class="entity" data-entity="BenchmarkResult" data-source-line="32" data-uid="ent0021" id="entity_BenchmarkResult"><rect fill="#F1F1F1" height="217.0166" rx="11.7188" ry="11.7188" style="stroke:#181818;stroke-width:2.3438;" width="767.0059" x="5285.6719" y="758.6719"/><rect fill="#F1F1F1" height="46.875" style="stroke:#181818;stroke-width:2.3438;" width="70.3125" x="5958.9278" y="782.1094"/><rect fill="#F1F1F1" height="9.375" style="stroke:#181818;stroke-width:2.3438;" width="18.75" x="5949.5528" y="791.4844"/><rect fill="#F1F1F1" height="9.375" style="stroke:#181818;stroke-width:2.3438;" width="18.75" x="5949.5528" y="810.2344"/><text fill="#000000" font-family="sans-serif" font-size="65.625" lengthAdjust="spacing" textLength="579.5059" x="5355.9844" y="913.3365">BenchmarkResult</text></g><!--entity BenchmarkFormatter--><g class="entity" data-entity="BenchmarkFormatter" data-source-line="36" data-uid="ent0023" id="entity_BenchmarkFormatter"><rect fill="#F1F1F1" height="217.0166" rx="11.7188" ry="11.7188" style="stroke:#181818;stroke-width:2.3438;" width="889.1235" x="997.6406" y="3936.7969"/><rect fill="#F1F1F1" height="46.875" style="stroke:#181818;stroke-width:2.3438;" width="70.3125" x="1793.0142" y="3960.2344"/><rect fill="#F1F1F1" height="9.375" style="stroke:#181818;stroke-width:2.3438;" width="18.75" x="1783.6392" y="3969.6094"/><rect fill="#F1F1F1" height="9.375" style="stroke:#181818;stroke-width:2.3438;" width="18.75" x="1783.6392" y="3988.3594"/><text fill="#000000" font-family="sans-serif" font-size="65.625" lengthAdjust="spacing" textLength="701.6235" x="1067.9531" y="4091.4615">BenchmarkFormatter</text></g><!--entity GenerateDocumentationIndex--><g class="entity" data-entity="GenerateDocumentationIndex" data-source-line="37" data-uid="ent0024" id="entity_GenerateDocumentationIndex"><rect fill="#F1F1F1" height="217.0166" rx="11.7188" ry="11.7188" style="stroke:#181818;stroke-width:2.3438;" width="1181.7123" x="851.3438" y="4316.4844"/><rect fill="#F1F1F1" height="46.875" style="stroke:#181818;stroke-width:2.3438;" width="70.3125" x="1939.3061" y="4339.9219"/><rect fill="#F1F1F1" height="9.375" style="stroke:#181818;stroke-width:2.3438;" width="18.75" x="1929.9311" y="4349.2969"/><rect fill="#F1F1F1" height="9.375" style="stroke:#181818;stroke-width:2.3438;" width="18.75" x="1929.9311" y="4368.0469"/><text fill="#000000" font-family="sans-serif" font-size="65.625" lengthAdjust="spacing" textLength="994.2123" x="921.6563" y="4471.149">GenerateDocumentationIndex</text></g><!--entity StrategyPlaybook.md--><g class="entity" data-entity="StrategyPlaybook.md" data-source-line="38" data-uid="ent0025" id="entity_StrategyPlaybook.md"><rect fill="#F1F1F1" height="217.0166" rx="11.7188" ry="11.7188" style="stroke:#181818;stroke-width:2.3438;" width="891.9434" x="2500.8281" y="4696.1719"/><rect fill="#F1F1F1" height="46.875" style="stroke:#181818;stroke-width:2.3438;" width="70.3125" x="3299.0215" y="4719.6094"/><rect fill="#F1F1F1" height="9.375" style="stroke:#181818;stroke-width:2.3438;" width="18.75" x="3289.6465" y="4728.9844"/><rect fill="#F1F1F1" height="9.375" style="stroke:#181818;stroke-width:2.3438;" width="18.75" x="3289.6465" y="4747.7344"/><text fill="#000000" font-family="sans-serif" font-size="65.625" lengthAdjust="spacing" textLength="704.4434" x="2571.1406" y="4850.8365">StrategyPlaybook.md</text></g><!--entity Problem Descriptions--><g class="entity" data-entity="Problem Descriptions" data-source-line="39" data-uid="ent0026" id="entity_Problem Descriptions"><rect fill="#F1F1F1" height="217.0166" rx="11.7188" ry="11.7188" style="stroke:#181818;stroke-width:2.3438;" width="887.2009" x="2503.2188" y="4316.4844"/><rect fill="#F1F1F1" height="46.875" style="stroke:#181818;stroke-width:2.3438;" width="70.3125" x="3296.6697" y="4339.9219"/><rect fill="#F1F1F1" height="9.375" style="stroke:#181818;stroke-width:2.3438;" width="18.75" x="3287.2947" y="4349.2969"/><rect fill="#F1F1F1" height="9.375" style="stroke:#181818;stroke-width:2.3438;" width="18.75" x="3287.2947" y="4368.0469"/><text fill="#000000" font-family="sans-serif" font-size="65.625" lengthAdjust="spacing" textLength="699.7009" x="2573.5313" y="4471.149">Problem Descriptions</text></g><!--entity PlantUML Diagrams--><g class="entity" data-entity="PlantUML Diagrams" data-source-line="40" data-uid="ent0027" id="entity_PlantUML Diagrams"><rect fill="#F1F1F1" height="217.0166" rx="11.7188" ry="11.7188" style="stroke:#181818;stroke-width:2.3438;" width="830.8685" x="2531.3438" y="3936.7969"/><rect fill="#F1F1F1" height="46.875" style="stroke:#181818;stroke-width:2.3438;" width="70.3125" x="3268.4623" y="3960.2344"/><rect fill="#F1F1F1" height="9.375" style="stroke:#181818;stroke-width:2.3438;" width="18.75" x="3259.0873" y="3969.6094"/><rect fill="#F1F1F1" height="9.375" style="stroke:#181818;stroke-width:2.3438;" width="18.75" x="3259.0873" y="3988.3594"/><text fill="#000000" font-family="sans-serif" font-size="65.625" lengthAdjust="spacing" textLength="643.3685" x="2601.6563" y="4091.4615">PlantUML Diagrams</text></g><!--link Program to ProblemStrategyFactory--><g class="link" data-entity-1="Program" data-entity-2="ProblemStrategyFactory" data-source-line="44" data-uid="lnk28" id="link_Program_ProblemStrategyFactory"><path d="M338.3906,2852.6719 C338.3906,2740.5469 338.3906,2582.8125 338.3906,2582.8125 C338.3906,2582.8125 626.3906,2582.8125 920.2969,2582.8125" fill="none" id="Program-to-ProblemStrategyFactory" style="stroke:#181818;stroke-width:4.6875;"/><polygon fill="#181818" points="948.4219,2582.8125,906.2344,2564.0625,924.9844,2582.8125,906.2344,2601.5625,948.4219,2582.8125" style="stroke:#181818;stroke-width:4.6875;"/></g><!--link Program to ProblemTestCaseFactory--><g class="link" data-entity-1="Program" data-entity-2="ProblemTestCaseFactory" data-source-line="45" data-uid="lnk29" id="link_Program_ProblemTestCaseFactory"><path d="M572.4375,2962.5 C679.5938,2962.5 782.6719,2962.5 910.3594,2962.5" fill="none" id="Program-to-ProblemTestCaseFactory" style="stroke:#181818;stroke-width:4.6875;"/><polygon fill="#181818" points="938.4844,2962.5,896.2969,2943.75,915.0469,2962.5,896.2969,2981.25,938.4844,2962.5" style="stroke:#181818;stroke-width:4.6875;"/></g><!--link Program to ProblemTest--><g class="link" data-entity-1="Program" data-entity-2="ProblemTest" data-source-line="46" data-uid="lnk30" id="link_Program_ProblemTest"><path d="M413.3906,3071.625 C413.3906,3180.8437 413.3906,3332.8125 413.3906,3332.8125 C413.3906,3332.8125 1947.0469,3332.8125 2618.1094,3332.8125" fill="none" id="Program-to-ProblemTest" style="stroke:#181818;stroke-width:4.6875;"/><polygon fill="#181818" points="2646.2344,3332.8125,2604.0469,3314.0625,2622.7969,3332.8125,2604.0469,3351.5625,2646.2344,3332.8125" style="stroke:#181818;stroke-width:4.6875;"/></g><!--link Program to BenchmarkFormatter--><g class="link" data-entity-1="Program" data-entity-2="BenchmarkFormatter" data-source-line="47" data-uid="lnk31" id="link_Program_BenchmarkFormatter"><path d="M258.7031,3072.2813 C258.7031,3347.5781 258.7031,4045.3125 258.7031,4045.3125 C258.7031,4045.3125 632.8594,4045.3125 968.3438,4045.3125" fill="none" id="Program-to-BenchmarkFormatter" style="stroke:#181818;stroke-width:4.6875;"/><polygon fill="#181818" points="996.4688,4045.3125,954.2813,4026.5625,973.0313,4045.3125,954.2813,4064.0625,996.4688,4045.3125" style="stroke:#181818;stroke-width:4.6875;"/></g><!--link ProblemStrategyFactory to StrategyRegistryBuilder--><g class="link" data-entity-1="ProblemStrategyFactory" data-entity-2="StrategyRegistryBuilder" data-source-line="50" data-uid="lnk32" id="link_ProblemStrategyFactory_StrategyRegistryBuilder"><path d="M1936.0781,2578.125 C2209.5,2578.125 2494.6406,2578.125 2494.6406,2578.125 C2494.6406,2578.125 2494.6406,893.0625 2494.6406,438" fill="none" id="ProblemStrategyFactory-to-StrategyRegistryBuilder" style="stroke:#181818;stroke-width:4.6875;"/><polygon fill="#181818" points="2494.6406,409.875,2475.8906,452.0625,2494.6406,433.3125,2513.3906,452.0625,2494.6406,409.875" style="stroke:#181818;stroke-width:4.6875;"/></g><!--link StrategyRegistryBuilder to Strategy Implementations--><g class="link" data-entity-1="StrategyRegistryBuilder" data-entity-2="Strategy Implementations" data-source-line="51" data-uid="lnk33" id="link_StrategyRegistryBuilder_Strategy Implementations"><path d="M3435,300 C3571.6406,300 3692.5313,300 3831.0938,300" fill="none" id="StrategyRegistryBuilder-to-Strategy Implementations" style="stroke:#181818;stroke-width:4.6875;"/><polygon fill="#181818" points="3859.2188,300,3817.0313,281.25,3835.7813,300,3817.0313,318.75,3859.2188,300" style="stroke:#181818;stroke-width:4.6875;"/></g><!--link Strategy Implementations to Strategy Metadata--><g class="link" data-entity-1="Strategy Implementations" data-entity-2="Strategy Metadata" data-source-line="52" data-uid="lnk34" id="link_Strategy Implementations_Strategy Metadata"><path d="M4906.125,263.8125 C5026.4063,263.8125 5124.4219,263.8125 5238.7031,263.8125" fill="none" id="Strategy Implementations-to-Strategy Metadata" style="stroke:#181818;stroke-width:4.6875;"/><polygon fill="#181818" points="5266.8281,263.8125,5224.6406,245.0625,5243.3906,263.8125,5224.6406,282.5625,5266.8281,263.8125" style="stroke:#181818;stroke-width:4.6875;"/></g><!--link ProblemTestCaseFactory to TestCaseProviderRegistryBuilder--><g class="link" data-entity-1="ProblemTestCaseFactory" data-entity-2="TestCaseProviderRegistryBuilder" data-source-line="55" data-uid="lnk35" id="link_ProblemTestCaseFactory_TestCaseProviderRegistryBuilder"><path d="M1945.3125,2957.8125 C2063.2031,2957.8125 2162.1563,2957.8125 2284.9688,2957.8125" fill="none" id="ProblemTestCaseFactory-to-TestCaseProviderRegistryBuilder" style="stroke:#181818;stroke-width:4.6875;"/><polygon fill="#181818" points="2313.0938,2957.8125,2270.9063,2939.0625,2289.6563,2957.8125,2270.9063,2976.5625,2313.0938,2957.8125" style="stroke:#181818;stroke-width:4.6875;"/></g><!--link TestCaseProviderRegistryBuilder to TestCase--><g class="link" data-entity-1="TestCaseProviderRegistryBuilder" data-entity-2="TestCase" data-source-line="56" data-uid="lnk36" id="link_TestCaseProviderRegistryBuilder_TestCase"><path d="M3507.1406,2842.8281 C3507.1406,2459.7656 3507.1406,1210.6875 3507.1406,1210.6875 C3507.1406,1210.6875 4828.4531,1210.6875 5395.125,1210.6875" fill="none" id="TestCaseProviderRegistryBuilder-to-TestCase" style="stroke:#181818;stroke-width:4.6875;"/><polygon fill="#181818" points="5423.25,1210.6875,5381.0625,1191.9375,5399.8125,1210.6875,5381.0625,1229.4375,5423.25,1210.6875" style="stroke:#181818;stroke-width:4.6875;"/></g><!--link ProblemTest to TestCase--><g class="link" data-entity-1="ProblemTest" data-entity-2="TestCase" data-source-line="57" data-uid="lnk37" id="link_ProblemTest_TestCase"><path d="M3248.1563,3267.7031 C3438.0938,3267.7031 3647.7656,3267.7031 3647.7656,3267.7031 C3647.7656,3267.7031 3647.7656,1283.0625 3647.7656,1283.0625 C3647.7656,1283.0625 4856.4844,1283.0625 5395.2188,1283.0625" fill="none" id="ProblemTest-to-TestCase" style="stroke:#181818;stroke-width:4.6875;"/><polygon fill="#181818" points="5423.3438,1283.0625,5381.1563,1264.3125,5399.9063,1283.0625,5381.1563,1301.8125,5423.3438,1283.0625" style="stroke:#181818;stroke-width:4.6875;"/></g><!--link ProblemTest to TestResult--><g class="link" data-entity-1="ProblemTest" data-entity-2="TestResult" data-source-line="58" data-uid="lnk38" id="link_ProblemTest_TestResult"><path d="M3247.2188,3311.1094 C3463.7344,3311.1094 3718.0781,3311.1094 3718.0781,3311.1094 C3718.0781,3311.1094 3718.0781,1626.5625 3718.0781,1626.5625 C3718.0781,1626.5625 4839.4688,1626.5625 5373.8438,1626.5625" fill="none" id="ProblemTest-to-TestResult" style="stroke:#181818;stroke-width:4.6875;"/><polygon fill="#181818" points="5401.9688,1626.5625,5359.7813,1607.8125,5378.5313,1626.5625,5359.7813,1645.3125,5401.9688,1626.5625" style="stroke:#181818;stroke-width:4.6875;"/></g><!--link ProblemTest to ComparerResolver--><g class="link" data-entity-1="ProblemTest" data-entity-2="ComparerResolver" data-source-line="59" data-uid="lnk39" id="link_ProblemTest_ComparerResolver"><path d="M3248.25,3354.5156 C3489.75,3354.5156 3788.3906,3354.5156 3788.3906,3354.5156 C3788.3906,3354.5156 3788.3906,2767.9688 3788.3906,2767.9688 C3788.3906,2767.9688 3847.3594,2767.9688 3954.9375,2767.9688" fill="none" id="ProblemTest-to-ComparerResolver" style="stroke:#181818;stroke-width:4.6875;"/><polygon fill="#181818" points="3983.0625,2767.9688,3940.875,2749.2188,3959.625,2767.9688,3940.875,2786.7188,3983.0625,2767.9688" style="stroke:#181818;stroke-width:4.6875;"/></g><!--link ProblemTest to BenchmarkSummary--><g class="link" data-entity-1="ProblemTest" data-entity-2="BenchmarkSummary" data-source-line="60" data-uid="lnk40" id="link_ProblemTest_BenchmarkSummary"><path d="M3247.875,3397.9219 C3448.9688,3397.9219 3688.7344,3397.9219 3913.7344,3397.9219" fill="none" id="ProblemTest-to-BenchmarkSummary" style="stroke:#181818;stroke-width:4.6875;"/><polygon fill="#181818" points="3941.8594,3397.9219,3899.6719,3379.1719,3918.4219,3397.9219,3899.6719,3416.6719,3941.8594,3397.9219" style="stroke:#181818;stroke-width:4.6875;"/></g><!--link BenchmarkSummary to IBenchmarkSummary--><g class="link" data-entity-1="BenchmarkSummary" data-entity-2="IBenchmarkSummary" data-source-line="61" data-uid="lnk41" id="link_BenchmarkSummary_IBenchmarkSummary"><path d="M4823.8125,3332.8125 C4951.0781,3332.8125 5061.9375,3332.8125 5189.8594,3332.8125" fill="none" id="BenchmarkSummary-to-IBenchmarkSummary" style="stroke:#181818;stroke-width:4.6875;"/><polygon fill="#181818" points="5217.9844,3332.8125,5175.7969,3314.0625,5194.5469,3332.8125,5175.7969,3351.5625,5217.9844,3332.8125" style="stroke:#181818;stroke-width:4.6875;"/></g><!--link ComparerResolver to ComparerHelper--><g class="link" data-entity-1="ComparerResolver" data-entity-2="ComparerHelper" data-source-line="62" data-uid="lnk42" id="link_ComparerResolver_ComparerHelper"><path d="M4784.2969,2765.625 C5161.3594,2765.625 5668.0781,2765.625 5668.0781,2765.625 C5668.0781,2765.625 5668.0781,2355.4219 5668.0781,2144.8125" fill="none" id="ComparerResolver-to-ComparerHelper" style="stroke:#181818;stroke-width:4.6875;"/><polygon fill="#181818" points="5668.0781,2116.6875,5649.3281,2158.875,5668.0781,2140.125,5686.8281,2158.875,5668.0781,2116.6875" style="stroke:#181818;stroke-width:4.6875;"/></g><!--link StrategyBenchmark to BenchmarkResult--><g class="link" data-entity-1="StrategyBenchmark" data-entity-2="BenchmarkResult" data-source-line="64" data-uid="lnk43" id="link_StrategyBenchmark_BenchmarkResult"><path d="M2944.6406,2462.8125 C2944.6406,2084.7188 2944.6406,867.1875 2944.6406,867.1875 C2944.6406,867.1875 4505.4375,867.1875 5256.4688,867.1875" fill="none" id="StrategyBenchmark-to-BenchmarkResult" style="stroke:#181818;stroke-width:4.6875;"/><polygon fill="#181818" points="5284.5938,867.1875,5242.4063,848.4375,5261.1563,867.1875,5242.4063,885.9375,5284.5938,867.1875" style="stroke:#181818;stroke-width:4.6875;"/></g><!--link StrategyBenchmark to Strategy Metadata--><g class="link" data-entity-1="StrategyBenchmark" data-entity-2="Strategy Metadata" data-source-line="65" data-uid="lnk44" id="link_StrategyBenchmark_Strategy Metadata"><path d="M3370.0313,2561.0156 C3987.7031,2561.0156 5063.3906,2561.0156 5063.3906,2561.0156 C5063.3906,2561.0156 5063.3906,336.1875 5063.3906,336.1875 C5063.3906,336.1875 5126.7656,336.1875 5238.6563,336.1875" fill="none" id="StrategyBenchmark-to-Strategy Metadata" style="stroke:#181818;stroke-width:4.6875;"/><polygon fill="#181818" points="5266.7813,336.1875,5224.5938,317.4375,5243.3438,336.1875,5224.5938,354.9375,5266.7813,336.1875" style="stroke:#181818;stroke-width:4.6875;"/></g><!--link BenchmarkFormatter to IBenchmarkSummary--><g class="link" data-entity-1="BenchmarkFormatter" data-entity-2="IBenchmarkSummary" data-source-line="68" data-uid="lnk45" id="link_BenchmarkFormatter_IBenchmarkSummary"><path d="M1439.9531,3935.25 C1439.9531,3695.5313 1439.9531,3147.6563 1439.9531,3147.6563 C1439.9531,3147.6563 5246.2031,3147.6563 5246.2031,3147.6563 C5246.2031,3147.6563 5246.2031,3154.9687 5246.2031,3194.8594" fill="none" id="BenchmarkFormatter-to-IBenchmarkSummary" style="stroke:#181818;stroke-width:4.6875;"/><polygon fill="#181818" points="5246.2031,3222.9844,5264.9531,3180.7969,5246.2031,3199.5469,5227.4531,3180.7969,5246.2031,3222.9844" style="stroke:#181818;stroke-width:4.6875;"/></g><!--link GenerateDocumentationIndex to StrategyPlaybook.md--><g class="link" data-entity-1="GenerateDocumentationIndex" data-entity-2="StrategyPlaybook.md" data-source-line="69" data-uid="lnk46" id="link_GenerateDocumentationIndex_StrategyPlaybook.md"><path d="M1439.9531,4534.8281 C1439.9531,4646.9531 1439.9531,4804.6875 1439.9531,4804.6875 C1439.9531,4804.6875 2026.4531,4804.6875 2470.6406,4804.6875" fill="none" id="GenerateDocumentationIndex-to-StrategyPlaybook.md" style="stroke:#181818;stroke-width:4.6875;"/><polygon fill="#181818" points="2498.7656,4804.6875,2456.5781,4785.9375,2475.3281,4804.6875,2456.5781,4823.4375,2498.7656,4804.6875" style="stroke:#181818;stroke-width:4.6875;"/></g><!--link GenerateDocumentationIndex to Problem Descriptions--><g class="link" data-entity-1="GenerateDocumentationIndex" data-entity-2="Problem Descriptions" data-source-line="70" data-uid="lnk47" id="link_GenerateDocumentationIndex_Problem Descriptions"><path d="M2034.7031,4425 C2190.1406,4425 2326.9688,4425 2473.2656,4425" fill="none" id="GenerateDocumentationIndex-to-Problem Descriptions" style="stroke:#181818;stroke-width:4.6875;"/><polygon fill="#181818" points="2501.3906,4425,2459.2031,4406.25,2477.9531,4425,2459.2031,4443.75,2501.3906,4425" style="stroke:#181818;stroke-width:4.6875;"/></g><!--link GenerateDocumentationIndex to PlantUML Diagrams--><g class="link" data-entity-1="GenerateDocumentationIndex" data-entity-2="PlantUML Diagrams" data-source-line="71" data-uid="lnk48" id="link_GenerateDocumentationIndex_PlantUML Diagrams"><path d="M1988.3906,4315.1719 C1988.3906,4203.0469 1988.3906,4045.3125 1988.3906,4045.3125 C1988.3906,4045.3125 2242.8281,4045.3125 2501.0625,4045.3125" fill="none" id="GenerateDocumentationIndex-to-PlantUML Diagrams" style="stroke:#181818;stroke-width:4.6875;"/><polygon fill="#181818" points="2529.1875,4045.3125,2487,4026.5625,2505.75,4045.3125,2487,4064.0625,2529.1875,4045.3125" style="stroke:#181818;stroke-width:4.6875;"/></g><!--SRC=[ZLJ1Rjim3BtxAuWUjbEB3iEEsQ4DsWPeiIBTTXboO2tM5Y9BXgHqCuRz- -JOKgnOQdgAeqS-FbAFCbikMzJOWAcHgTzSLl22mb1X0YAu9Dkr14hRMaq0rdBuV7bP27gnO1LeNjKM6DTKMgvaOKeK19yklXH5Y-KMAuApRxgioLYDVSGP_2q0VZrgLJc-pVZzBAXvwYEewcwmj4ftK-YxIxz6Gm7wDw7tUN2F7UcHtn-kgUAkT7UruuAHtamnM3Mj8oTfzyfC33wGHOOMusAz4hX3BScOGojUOyHmHRAi6zJR_UcrQjm4IQ_9AF4wAWaXJxl6_GmzhvAdVWIksYjdFSzHOrELFr5mjcyAFi1GcPimUo_bZaGx2l7iuO-JkHCs5kdFffMMgjo52Oxy8U56wGQj7MlSagH-Cb7AIZBw4utjKM3thDJsec5J2y2IJAbvUxWf5oZjZuTxM7BilMJsoZx2Oh60o7Am9Z7SSCrRq-D5y1-Sdt_DEp0TDdDZFco6fMOpQevzd16TaZamPnsVHUAy-JRaeQFCmwgChKotv8r6ZWSvq9vq-ic8c6SJrNilwCsUWEUhd0YQB_7yQ8XCxFkyH5pPRswHU6oEoeS-Sf7vMumMDNMD2JFdMtfZ_MCXqGDmEYtzFhmZR_vy_0S0]--></g></svg>