<svg xmlns="http://www.w3.org/2000/svg" xmlns:xlink="http://www.w3.org/1999/xlink" contentStyleType="text/css" data-diagram-type="DESCRIPTION" height="3482.8125px" preserveAspectRatio="none" style="width:6206px;height:3482px;background:#FFFFFF;" version="1.1" viewBox="0 0 6206 3482" width="6206.25px" zoomAndPan="magnify"><defs/><g><!--cluster Orchestration--><g class="cluster" data-entity="Orchestration" data-source-line="7" data-uid="ent0002" id="cluster_Orchestration"><path d="M397.2188,2564.0625 L912.9353,2564.0625 A17.5781,17.5781 0 0 1 924.6541,2575.7813 L957.4666,2668.5791 L2634.4688,2668.5791 A11.7188,11.7188 0 0 1 2646.1875,2680.2979 L2646.1875,3386.7188 A11.7188,11.7188 0 0 1 2634.4688,3398.4375 L397.2188,3398.4375 A11.7188,11.7188 0 0 1 385.5,3386.7188 L385.5,2575.7813 A11.7188,11.7188 0 0 1 397.2188,2564.0625" fill="none" style="stroke:#000000;stroke-width:7.0313;"/><line style="stroke:#000000;stroke-width:7.0313;" x1="385.5" x2="957.4666" y1="2668.5791" y2="2668.5791"/><text fill="#000000" font-family="sans-serif" font-size="65.625" font-weight="bold" lengthAdjust="spacing" textLength="511.0291" x="404.25" y="2634.3521">Orchestration</text></g><!--cluster Strategy Layer--><g class="cluster" data-entity="Strategy Layer" data-source-line="13" data-uid="ent0006" id="cluster_Strategy Layer"><path d="M2789.1563,2995.3125 L3343.357,2995.3125 A17.5781,17.5781 0 0 1 3355.0757,3007.0313 L3387.8882,3099.8291 L6166.3125,3099.8291 A11.7188,11.7188 0 0 1 6178.0313,3111.5479 L6178.0313,3438.2813 A11.7188,11.7188 0 0 1 6166.3125,3450 L2789.1563,3450 A11.7188,11.7188 0 0 1 2777.4375,3438.2813 L2777.4375,3007.0313 A11.7188,11.7188 0 0 1 2789.1563,2995.3125" fill="none" style="stroke:#000000;stroke-width:7.0313;"/><line style="stroke:#000000;stroke-width:7.0313;" x1="2777.4375" x2="3387.8882" y1="3099.8291" y2="3099.8291"/><text fill="#000000" font-family="sans-serif" font-size="65.625" font-weight="bold" lengthAdjust="spacing" textLength="549.5132" x="2796.1875" y="3065.6021">Strategy Layer</text></g><!--cluster Test Harness--><g class="cluster" data-entity="Test Harness" data-source-line="19" data-uid="ent0010" id="cluster_Test Harness"><path d="M1584.1406,1354.6875 L2072.2998,1354.6875 A17.5781,17.5781 0 0 1 2084.0186,1366.4063 L2116.8311,1459.2041 L3726.75,1459.2041 A11.7188,11.7188 0 0 1 3738.4688,1470.9229 L3738.4688,2177.3438 A11.7188,11.7188 0 0 1 3726.75,2189.0625 L1584.1406,2189.0625 A11.7188,11.7188 0 0 1 1572.4219,2177.3438 L1572.4219,1366.4063 A11.7188,11.7188 0 0 1 1584.1406,1354.6875" fill="none" style="stroke:#000000;stroke-width:7.0313;"/><line style="stroke:#000000;stroke-width:7.0313;" x1="1572.4219" x2="2116.8311" y1="1459.2041" y2="1459.2041"/><text fill="#000000" font-family="sans-serif" font-size="65.625" font-weight="bold" lengthAdjust="spacing" textLength="483.4717" x="1591.1719" y="1424.9771">Test Harness</text></g><!--cluster Validation & Comparison--><g class="cluster" data-entity="Validation . Comparison" data-source-line="25" data-uid="ent0014" id="cluster_Validation . Comparison"><path d="M4006.6406,1185.9375 L4929.8538,1185.9375 A17.5781,17.5781 0 0 1 4941.5726,1197.6563 L4974.3851,1290.4541 L4972.2656,1290.4541 A11.7188,11.7188 0 0 1 4983.9844,1302.1729 L4983.9844,2767.9688 A11.7188,11.7188 0 0 1 4972.2656,2779.6875 L4006.6406,2779.6875 A11.7188,11.7188 0 0 1 3994.9219,2767.9688 L3994.9219,1197.6563 A11.7188,11.7188 0 0 1 4006.6406,1185.9375" fill="none" style="stroke:#000000;stroke-width:7.0313;"/><line style="stroke:#000000;stroke-width:7.0313;" x1="3994.9219" x2="4974.3851" y1="1290.4541" y2="1290.4541"/><text fill="#000000" font-family="sans-serif" font-size="65.625" font-weight="bold" lengthAdjust="spacing" textLength="918.5257" x="4013.6719" y="1256.2271">Validation &amp; Comparison</text></g><!--cluster Documentation--><g class="cluster" data-entity="Documentation" data-source-line="32" data-uid="ent0019" id="cluster_Documentation"><path d="M39.8438,28.125 L610.643,28.125 A17.5781,17.5781 0 0 1 622.3618,39.8438 L655.1743,132.6416 L2577.8906,132.6416 A11.7188,11.7188 0 0 1 2589.6094,144.3604 L2589.6094,1230.4688 A11.7188,11.7188 0 0 1 2577.8906,1242.1875 L39.8438,1242.1875 A11.7188,11.7188 0 0 1 28.125,1230.4688 L28.125,39.8438 A11.7188,11.7188 0 0 1 39.8438,28.125" fill="none" style="stroke:#000000;stroke-width:7.0313;"/><line style="stroke:#000000;stroke-width:7.0313;" x1="28.125" x2="655.1743" y1="132.6416" y2="132.6416"/><text fill="#000000" font-family="sans-serif" font-size="65.625" font-weight="bold" lengthAdjust="spacing" textLength="566.1118" x="46.875" y="98.4146">Documentation</text></g><!--entity Program--><g class="entity" data-entity="Program" data-source-line="8" data-uid="ent0003" id="entity_Program"><rect fill="#F1F1F1" height="217.0166" rx="11.7188" ry="11.7188" style="stroke:#181818;stroke-width:2.3438;" width="466.983" x="460.5" y="2727.4219"/><rect fill="#F1F1F1" height="46.875" style="stroke:#181818;stroke-width:2.3438;" width="70.3125" x="833.733" y="2750.8594"/><rect fill="#F1F1F1" height="9.375" style="stroke:#181818;stroke-width:2.3438;" width="18.75" x="824.358" y="2760.2344"/><rect fill="#F1F1F1" height="9.375" style="stroke:#181818;stroke-width:2.3438;" width="18.75" x="824.358" y="2778.9844"/><text fill="#000000" font-family="sans-serif" font-size="65.625" lengthAdjust="spacing" textLength="279.483" x="530.8125" y="2882.0865">Program</text></g><!--entity ProblemStrategyFactory--><g class="entity" data-entity="ProblemStrategyFactory" data-source-line="9" data-uid="ent0004" id="entity_ProblemStrategyFactory"><rect fill="#F1F1F1" height="217.0166" rx="11.7188" ry="11.7188" style="stroke:#181818;stroke-width:2.3438;" width="985.318" x="1575.9844" y="3107.1094"/><rect fill="#F1F1F1" height="46.875" style="stroke:#181818;stroke-width:2.3438;" width="70.3125" x="2467.5524" y="3130.5469"/><rect fill="#F1F1F1" height="9.375" style="stroke:#181818;stroke-width:2.3438;" width="18.75" x="2458.1774" y="3139.9219"/><rect fill="#F1F1F1" height="9.375" style="stroke:#181818;stroke-width:2.3438;" width="18.75" x="2458.1774" y="3158.6719"/><text fill="#000000" font-family="sans-serif" font-size="65.625" lengthAdjust="spacing" textLength="797.818" x="1646.2969" y="3261.774">ProblemStrategyFactory</text></g><!--entity ProblemTestCaseFactory--><g class="entity" data-entity="ProblemTestCaseFactory" data-source-line="10" data-uid="ent0005" id="entity_ProblemTestCaseFactory"><rect fill="#F1F1F1" height="217.0166" rx="11.7188" ry="11.7188" style="stroke:#181818;stroke-width:2.3438;" width="1005.1208" x="1566.0938" y="2727.4219"/><rect fill="#F1F1F1" height="46.875" style="stroke:#181818;stroke-width:2.3438;" width="70.3125" x="2477.4646" y="2750.8594"/><rect fill="#F1F1F1" height="9.375" style="stroke:#181818;stroke-width:2.3438;" width="18.75" x="2468.0896" y="2760.2344"/><rect fill="#F1F1F1" height="9.375" style="stroke:#181818;stroke-width:2.3438;" width="18.75" x="2468.0896" y="2778.9844"/><text fill="#000000" font-family="sans-serif" font-size="65.625" lengthAdjust="spacing" textLength="817.6208" x="1636.4063" y="2882.0865">ProblemTestCaseFactory</text></g><!--entity Strategy Registrars--><g class="entity" data-entity="Strategy Registrars" data-source-line="14" data-uid="ent0007" id="entity_Strategy Registrars"><rect fill="#F1F1F1" height="217.0166" rx="11.7188" ry="11.7188" style="stroke:#181818;stroke-width:2.3438;" width="823.6908" x="2852.4375" y="3158.6719"/><rect fill="#F1F1F1" height="46.875" style="stroke:#181818;stroke-width:2.3438;" width="70.3125" x="3582.3783" y="3182.1094"/><rect fill="#F1F1F1" height="9.375" style="stroke:#181818;stroke-width:2.3438;" width="18.75" x="3573.0033" y="3191.4844"/><rect fill="#F1F1F1" height="9.375" style="stroke:#181818;stroke-width:2.3438;" width="18.75" x="3573.0033" y="3210.2344"/><text fill="#000000" font-family="sans-serif" font-size="65.625" lengthAdjust="spacing" textLength="636.1908" x="2922.75" y="3313.3365">Strategy Registrars</text></g><!--entity Strategy Implementations--><g class="entity" data-entity="Strategy Implementations" data-source-line="15" data-uid="ent0008" id="entity_Strategy Implementations"><rect fill="#F1F1F1" height="217.0166" rx="11.7188" ry="11.7188" style="stroke:#181818;stroke-width:2.3438;" width="1044.8227" x="3964.6875" y="3158.6719"/><rect fill="#F1F1F1" height="46.875" style="stroke:#181818;stroke-width:2.3438;" width="70.3125" x="4915.7602" y="3182.1094"/><rect fill="#F1F1F1" height="9.375" style="stroke:#181818;stroke-width:2.3438;" width="18.75" x="4906.3852" y="3191.4844"/><rect fill="#F1F1F1" height="9.375" style="stroke:#181818;stroke-width:2.3438;" width="18.75" x="4906.3852" y="3210.2344"/><text fill="#000000" font-family="sans-serif" font-size="65.625" lengthAdjust="spacing" textLength="857.3227" x="4035" y="3313.3365">Strategy Implementations</text></g><!--entity Strategy Metadata--><g class="entity" data-entity="Strategy Metadata" data-source-line="16" data-uid="ent0009" id="entity_Strategy Metadata"><rect fill="#F1F1F1" height="217.0166" rx="11.7188" ry="11.7188" style="stroke:#181818;stroke-width:2.3438;" width="800.2991" x="5302.7344" y="3158.6719"/><rect fill="#F1F1F1" height="46.875" style="stroke:#181818;stroke-width:2.3438;" width="70.3125" x="6009.2834" y="3182.1094"/><rect fill="#F1F1F1" height="9.375" style="stroke:#181818;stroke-width:2.3438;" width="18.75" x="5999.9084" y="3191.4844"/><rect fill="#F1F1F1" height="9.375" style="stroke:#181818;stroke-width:2.3438;" width="18.75" x="5999.9084" y="3210.2344"/><text fill="#000000" font-family="sans-serif" font-size="65.625" lengthAdjust="spacing" textLength="612.7991" x="5373.0469" y="3313.3365">Strategy Metadata</text></g><!--entity ProblemTest--><g class="entity" data-entity="ProblemTest" data-source-line="20" data-uid="ent0011" id="entity_ProblemTest"><rect fill="#F1F1F1" height="217.0166" rx="11.7188" ry="11.7188" style="stroke:#181818;stroke-width:2.3438;" width="598.7778" x="1769.25" y="1897.7344"/><rect fill="#F1F1F1" height="46.875" style="stroke:#181818;stroke-width:2.3438;" width="70.3125" x="2274.2778" y="1921.1719"/><rect fill="#F1F1F1" height="9.375" style="stroke:#181818;stroke-width:2.3438;" width="18.75" x="2264.9028" y="1930.5469"/><rect fill="#F1F1F1" height="9.375" style="stroke:#181818;stroke-width:2.3438;" width="18.75" x="2264.9028" y="1949.2969"/><text fill="#000000" font-family="sans-serif" font-size="65.625" lengthAdjust="spacing" textLength="411.2778" x="1839.5625" y="2052.399">ProblemTest</text></g><!--entity StrategyBenchmark--><g class="entity" data-entity="StrategyBenchmark" data-source-line="21" data-uid="ent0012" id="entity_StrategyBenchmark"><rect fill="#F1F1F1" height="217.0166" rx="11.7188" ry="11.7188" style="stroke:#181818;stroke-width:2.3438;" width="842.4683" x="1647.4219" y="1518.0469"/><rect fill="#F1F1F1" height="46.875" style="stroke:#181818;stroke-width:2.3438;" width="70.3125" x="2396.1401" y="1541.4844"/><rect fill="#F1F1F1" height="9.375" style="stroke:#181818;stroke-width:2.3438;" width="18.75" x="2386.7651" y="1550.8594"/><rect fill="#F1F1F1" height="9.375" style="stroke:#181818;stroke-width:2.3438;" width="18.75" x="2386.7651" y="1569.6094"/><text fill="#000000" font-family="sans-serif" font-size="65.625" lengthAdjust="spacing" textLength="654.9683" x="1717.7344" y="1672.7115">StrategyBenchmark</text></g><!--entity ComparerResolver--><g class="entity" data-entity="ComparerResolver" data-source-line="22" data-uid="ent0013" id="entity_ComparerResolver"><rect fill="#F1F1F1" height="217.0166" rx="11.7188" ry="11.7188" style="stroke:#181818;stroke-width:2.3438;" width="798.3444" x="2865.1406" y="1705.5469"/><rect fill="#F1F1F1" height="46.875" style="stroke:#181818;stroke-width:2.3438;" width="70.3125" x="3569.735" y="1728.9844"/><rect fill="#F1F1F1" height="9.375" style="stroke:#181818;stroke-width:2.3438;" width="18.75" x="3560.36" y="1738.3594"/><rect fill="#F1F1F1" height="9.375" style="stroke:#181818;stroke-width:2.3438;" width="18.75" x="3560.36" y="1757.1094"/><text fill="#000000" font-family="sans-serif" font-size="65.625" lengthAdjust="spacing" textLength="610.8444" x="2935.4531" y="1860.2115">ComparerResolver</text></g><!--entity ComparerHelper--><g class="entity" data-entity="ComparerHelper" data-source-line="26" data-uid="ent0015" id="entity_ComparerHelper"><rect fill="#F1F1F1" height="217.0166" rx="11.7188" ry="11.7188" style="stroke:#181818;stroke-width:2.3438;" width="730.5725" x="4121.8125" y="1728.9844"/><rect fill="#F1F1F1" height="46.875" style="stroke:#181818;stroke-width:2.3438;" width="70.3125" x="4758.635" y="1752.4219"/><rect fill="#F1F1F1" height="9.375" style="stroke:#181818;stroke-width:2.3438;" width="18.75" x="4749.26" y="1761.7969"/><rect fill="#F1F1F1" height="9.375" style="stroke:#181818;stroke-width:2.3438;" width="18.75" x="4749.26" y="1780.5469"/><text fill="#000000" font-family="sans-serif" font-size="65.625" lengthAdjust="spacing" textLength="543.0725" x="4192.125" y="1883.649">ComparerHelper</text></g><!--entity TestCase--><g class="entity" data-entity="TestCase" data-source-line="27" data-uid="ent0016" id="entity_TestCase"><rect fill="#F1F1F1" height="217.0166" rx="11.7188" ry="11.7188" style="stroke:#181818;stroke-width:2.3438;" width="488.4842" x="4242.8438" y="2488.3594"/><rect fill="#F1F1F1" height="46.875" style="stroke:#181818;stroke-width:2.3438;" width="70.3125" x="4637.5779" y="2511.7969"/><rect fill="#F1F1F1" height="9.375" style="stroke:#181818;stroke-width:2.3438;" width="18.75" x="4628.2029" y="2521.1719"/><rect fill="#F1F1F1" height="9.375" style="stroke:#181818;stroke-width:2.3438;" width="18.75" x="4628.2029" y="2539.9219"/><text fill="#000000" font-family="sans-serif" font-size="65.625" lengthAdjust="spacing" textLength="300.9842" x="4313.1563" y="2643.024">TestCase</text></g><!--entity TestResult--><g class="entity" data-entity="TestResult" data-source-line="28" data-uid="ent0017" id="entity_TestResult"><rect fill="#F1F1F1" height="217.0166" rx="11.7188" ry="11.7188" style="stroke:#181818;stroke-width:2.3438;" width="533.6014" x="4220.2969" y="2108.6719"/><rect fill="#F1F1F1" height="46.875" style="stroke:#181818;stroke-width:2.3438;" width="70.3125" x="4660.1483" y="2132.1094"/><rect fill="#F1F1F1" height="9.375" style="stroke:#181818;stroke-width:2.3438;" width="18.75" x="4650.7733" y="2141.4844"/><rect fill="#F1F1F1" height="9.375" style="stroke:#181818;stroke-width:2.3438;" width="18.75" x="4650.7733" y="2160.2344"/><text fill="#000000" font-family="sans-serif" font-size="65.625" lengthAdjust="spacing" textLength="346.1014" x="4290.6094" y="2263.3365">TestResult</text></g><!--entity BenchmarkResult--><g class="entity" data-entity="BenchmarkResult" data-source-line="29" data-uid="ent0018" id="entity_BenchmarkResult"><rect fill="#F1F1F1" height="217.0166" rx="11.7188" ry="11.7188" style="stroke:#181818;stroke-width:2.3438;" width="767.0059" x="4103.5781" y="1349.2969"/><rect fill="#F1F1F1" height="46.875" style="stroke:#181818;stroke-width:2.3438;" width="70.3125" x="4776.834" y="1372.7344"/><rect fill="#F1F1F1" height="9.375" style="stroke:#181818;stroke-width:2.3438;" width="18.75" x="4767.459" y="1382.1094"/><rect fill="#F1F1F1" height="9.375" style="stroke:#181818;stroke-width:2.3438;" width="18.75" x="4767.459" y="1400.8594"/><text fill="#000000" font-family="sans-serif" font-size="65.625" lengthAdjust="spacing" textLength="579.5059" x="4173.8906" y="1503.9615">BenchmarkResult</text></g><!--entity GenerateDocumentationIndex--><g class="entity" data-entity="GenerateDocumentationIndex" data-source-line="33" data-uid="ent0020" id="entity_GenerateDocumentationIndex"><rect fill="#F1F1F1" height="217.0166" rx="11.7188" ry="11.7188" style="stroke:#181818;stroke-width:2.3438;" width="1181.7123" x="103.125" y="571.1719"/><rect fill="#F1F1F1" height="46.875" style="stroke:#181818;stroke-width:2.3438;" width="70.3125" x="1191.0873" y="594.6094"/><rect fill="#F1F1F1" height="9.375" style="stroke:#181818;stroke-width:2.3438;" width="18.75" x="1181.7123" y="603.9844"/><rect fill="#F1F1F1" height="9.375" style="stroke:#181818;stroke-width:2.3438;" width="18.75" x="1181.7123" y="622.7344"/><text fill="#000000" font-family="sans-serif" font-size="65.625" lengthAdjust="spacing" textLength="994.2123" x="173.4375" y="725.8365">GenerateDocumentationIndex</text></g><!--entity StrategyPlaybook.md--><g class="entity" data-entity="StrategyPlaybook.md" data-source-line="34" data-uid="ent0021" id="entity_StrategyPlaybook.md"><rect fill="#F1F1F1" height="217.0166" rx="11.7188" ry="11.7188" style="stroke:#181818;stroke-width:2.3438;" width="891.9434" x="1622.6719" y="950.8594"/><rect fill="#F1F1F1" height="46.875" style="stroke:#181818;stroke-width:2.3438;" width="70.3125" x="2420.8652" y="974.2969"/><rect fill="#F1F1F1" height="9.375" style="stroke:#181818;stroke-width:2.3438;" width="18.75" x="2411.4902" y="983.6719"/><rect fill="#F1F1F1" height="9.375" style="stroke:#181818;stroke-width:2.3438;" width="18.75" x="2411.4902" y="1002.4219"/><text fill="#000000" font-family="sans-serif" font-size="65.625" lengthAdjust="spacing" textLength="704.4434" x="1692.9844" y="1105.524">StrategyPlaybook.md</text></g><!--entity Problem Descriptions--><g class="entity" data-entity="Problem Descriptions" data-source-line="35" data-uid="ent0022" id="entity_Problem Descriptions"><rect fill="#F1F1F1" height="217.0166" rx="11.7188" ry="11.7188" style="stroke:#181818;stroke-width:2.3438;" width="887.2009" x="1625.0625" y="571.1719"/><rect fill="#F1F1F1" height="46.875" style="stroke:#181818;stroke-width:2.3438;" width="70.3125" x="2418.5134" y="594.6094"/><rect fill="#F1F1F1" height="9.375" style="stroke:#181818;stroke-width:2.3438;" width="18.75" x="2409.1384" y="603.9844"/><rect fill="#F1F1F1" height="9.375" style="stroke:#181818;stroke-width:2.3438;" width="18.75" x="2409.1384" y="622.7344"/><text fill="#000000" font-family="sans-serif" font-size="65.625" lengthAdjust="spacing" textLength="699.7009" x="1695.375" y="725.8365">Problem Descriptions</text></g><!--entity PlantUML Diagrams--><g class="entity" data-entity="PlantUML Diagrams" data-source-line="36" data-uid="ent0023" id="entity_PlantUML Diagrams"><rect fill="#F1F1F1" height="217.0166" rx="11.7188" ry="11.7188" style="stroke:#181818;stroke-width:2.3438;" width="830.8685" x="1653.2344" y="191.4844"/><rect fill="#F1F1F1" height="46.875" style="stroke:#181818;stroke-width:2.3438;" width="70.3125" x="2390.3529" y="214.9219"/><rect fill="#F1F1F1" height="9.375" style="stroke:#181818;stroke-width:2.3438;" width="18.75" x="2380.9779" y="224.2969"/><rect fill="#F1F1F1" height="9.375" style="stroke:#181818;stroke-width:2.3438;" width="18.75" x="2380.9779" y="243.0469"/><text fill="#000000" font-family="sans-serif" font-size="65.625" lengthAdjust="spacing" textLength="643.3685" x="1723.5469" y="346.149">PlantUML Diagrams</text></g><!--link Program to ProblemStrategyFactory--><g class="link" data-entity-1="Program" data-entity-2="ProblemStrategyFactory" data-source-line="39" data-uid="lnk24" id="link_Program_ProblemStrategyFactory"><path d="M693.6563,2945.7656 C693.6563,3057.8906 693.6563,3215.625 693.6563,3215.625 C693.6563,3215.625 1151.8594,3215.625 1546.0313,3215.625" fill="none" id="Program-to-ProblemStrategyFactory" style="stroke:#181818;stroke-width:4.6875;"/><polygon fill="#181818" points="1574.1563,3215.625,1531.9688,3196.875,1550.7188,3215.625,1531.9688,3234.375,1574.1563,3215.625" style="stroke:#181818;stroke-width:4.6875;"/></g><!--link Program to ProblemTestCaseFactory--><g class="link" data-entity-1="Program" data-entity-2="ProblemTestCaseFactory" data-source-line="40" data-uid="lnk25" id="link_Program_ProblemTestCaseFactory"><path d="M928.7344,2835.9375 C1102.8281,2835.9375 1318.4531,2835.9375 1535.9531,2835.9375" fill="none" id="Program-to-ProblemTestCaseFactory" style="stroke:#181818;stroke-width:4.6875;"/><polygon fill="#181818" points="1564.0781,2835.9375,1521.8906,2817.1875,1540.6406,2835.9375,1521.8906,2854.6875,1564.0781,2835.9375" style="stroke:#181818;stroke-width:4.6875;"/></g><!--link Program to ProblemTest--><g class="link" data-entity-1="Program" data-entity-2="ProblemTest" data-source-line="41" data-uid="lnk26" id="link_Program_ProblemTest"><path d="M693.6563,2725.7813 C693.6563,2500.0781 693.6563,2006.25 693.6563,2006.25 C693.6563,2006.25 1335.8906,2006.25 1740.4688,2006.25" fill="none" id="Program-to-ProblemTest" style="stroke:#181818;stroke-width:4.6875;"/><polygon fill="#181818" points="1768.5938,2006.25,1726.4063,1987.5,1745.1563,2006.25,1726.4063,2025,1768.5938,2006.25" style="stroke:#181818;stroke-width:4.6875;"/></g><!--link ProblemStrategyFactory to Strategy Registrars--><g class="link" data-entity-1="ProblemStrategyFactory" data-entity-2="Strategy Registrars" data-source-line="43" data-uid="lnk27" id="link_ProblemStrategyFactory_Strategy Registrars"><path d="M2563.5938,3241.4063 C2659.3125,3241.4063 2730.5625,3241.4063 2823.3281,3241.4063" fill="none" id="ProblemStrategyFactory-to-Strategy Registrars" style="stroke:#181818;stroke-width:4.6875;"/><polygon fill="#181818" points="2851.4531,3241.4063,2809.2656,3222.6563,2828.0156,3241.4063,2809.2656,3260.1563,2851.4531,3241.4063" style="stroke:#181818;stroke-width:4.6875;"/></g><!--link Strategy Registrars to Strategy Implementations--><g class="link" data-entity-1="Strategy Registrars" data-entity-2="Strategy Implementations" data-source-line="44" data-uid="lnk28" id="link_Strategy Registrars_Strategy Implementations"><path d="M3678.2813,3267.1875 C3769.7344,3267.1875 3839.6719,3267.1875 3934.8281,3267.1875" fill="none" id="Strategy Registrars-to-Strategy Implementations" style="stroke:#181818;stroke-width:4.6875;"/><polygon fill="#181818" points="3962.9531,3267.1875,3920.7656,3248.4375,3939.5156,3267.1875,3920.7656,3285.9375,3962.9531,3267.1875" style="stroke:#181818;stroke-width:4.6875;"/></g><!--link Strategy Implementations to Strategy Metadata--><g class="link" data-entity-1="Strategy Implementations" data-entity-2="Strategy Metadata" data-source-line="45" data-uid="lnk29" id="link_Strategy Implementations_Strategy Metadata"><path d="M5011.5,3267.1875 C5108.5313,3267.1875 5180.3438,3267.1875 5273.0625,3267.1875" fill="none" id="Strategy Implementations-to-Strategy Metadata" style="stroke:#181818;stroke-width:4.6875;"/><polygon fill="#181818" points="5301.1875,3267.1875,5259,3248.4375,5277.75,3267.1875,5259,3285.9375,5301.1875,3267.1875" style="stroke:#181818;stroke-width:4.6875;"/></g><!--link ProblemTestCaseFactory to TestCase--><g class="link" data-entity-1="ProblemTestCaseFactory" data-entity-2="TestCase" data-source-line="47" data-uid="lnk30" id="link_ProblemTestCaseFactory_TestCase"><path d="M2545.2188,2726.1563 C2545.2188,2678.3906 2545.2188,2633.0625 2545.2188,2633.0625 C2545.2188,2633.0625 3690.4688,2633.0625 4213.0313,2633.0625" fill="none" id="ProblemTestCaseFactory-to-TestCase" style="stroke:#181818;stroke-width:4.6875;"/><polygon fill="#181818" points="4241.1563,2633.0625,4198.9688,2614.3125,4217.7188,2633.0625,4198.9688,2651.8125,4241.1563,2633.0625" style="stroke:#181818;stroke-width:4.6875;"/></g><!--link ProblemTest to TestCase--><g class="link" data-entity-1="ProblemTest" data-entity-2="TestCase" data-source-line="49" data-uid="lnk31" id="link_ProblemTest_TestCase"><path d="M2067.0938,2115.7969 C2067.0938,2277.375 2067.0938,2560.6875 2067.0938,2560.6875 C2067.0938,2560.6875 3598.3594,2560.6875 4213.5938,2560.6875" fill="none" id="ProblemTest-to-TestCase" style="stroke:#181818;stroke-width:4.6875;"/><polygon fill="#181818" points="4241.7188,2560.6875,4199.5313,2541.9375,4218.2813,2560.6875,4199.5313,2579.4375,4241.7188,2560.6875" style="stroke:#181818;stroke-width:4.6875;"/></g><!--link ProblemTest to TestResult--><g class="link" data-entity-1="ProblemTest" data-entity-2="TestResult" data-source-line="50" data-uid="lnk32" id="link_ProblemTest_TestResult"><path d="M2369.9063,2027.3438 C3017.8594,2027.3438 4485.8438,2027.3438 4485.8438,2027.3438 C4485.8438,2027.3438 4485.8438,2036.8594 4485.8438,2078.625" fill="none" id="ProblemTest-to-TestResult" style="stroke:#181818;stroke-width:4.6875;"/><polygon fill="#181818" points="4485.8438,2106.75,4504.5938,2064.5625,4485.8438,2083.3125,4467.0938,2064.5625,4485.8438,2106.75" style="stroke:#181818;stroke-width:4.6875;"/></g><!--link ProblemTest to ComparerResolver--><g class="link" data-entity-1="ProblemTest" data-entity-2="ComparerResolver" data-source-line="51" data-uid="lnk33" id="link_ProblemTest_ComparerResolver"><path d="M2067.0938,1895.8125 C2067.0938,1854.0469 2067.0938,1816.4063 2067.0938,1816.4063 C2067.0938,1816.4063 2487.7969,1816.4063 2835.8438,1816.4063" fill="none" id="ProblemTest-to-ComparerResolver" style="stroke:#181818;stroke-width:4.6875;"/><polygon fill="#181818" points="2863.9688,1816.4063,2821.7813,1797.6563,2840.5313,1816.4063,2821.7813,1835.1563,2863.9688,1816.4063" style="stroke:#181818;stroke-width:4.6875;"/></g><!--link ComparerResolver to ComparerHelper--><g class="link" data-entity-1="ComparerResolver" data-entity-2="ComparerHelper" data-source-line="52" data-uid="lnk34" id="link_ComparerResolver_ComparerHelper"><path d="M3664.6875,1825.7813 C3811.6406,1825.7813 3949.0313,1825.7813 4092.8438,1825.7813" fill="none" id="ComparerResolver-to-ComparerHelper" style="stroke:#181818;stroke-width:4.6875;"/><polygon fill="#181818" points="4120.9688,1825.7813,4078.7813,1807.0313,4097.5313,1825.7813,4078.7813,1844.5313,4120.9688,1825.7813" style="stroke:#181818;stroke-width:4.6875;"/></g><!--link StrategyBenchmark to BenchmarkResult--><g class="link" data-entity-1="StrategyBenchmark" data-entity-2="BenchmarkResult" data-source-line="54" data-uid="lnk35" id="link_StrategyBenchmark_BenchmarkResult"><path d="M2491.3125,1542.1875 C2946.2344,1542.1875 3635.4375,1542.1875 4074.8906,1542.1875" fill="none" id="StrategyBenchmark-to-BenchmarkResult" style="stroke:#181818;stroke-width:4.6875;"/><polygon fill="#181818" points="4103.0156,1542.1875,4060.8281,1523.4375,4079.5781,1542.1875,4060.8281,1560.9375,4103.0156,1542.1875" style="stroke:#181818;stroke-width:4.6875;"/></g><!--link StrategyBenchmark to Strategy Metadata--><g class="link" data-entity-1="StrategyBenchmark" data-entity-2="Strategy Metadata" data-source-line="55" data-uid="lnk36" id="link_StrategyBenchmark_Strategy Metadata"><path d="M2491.0781,1635.9375 C3449.1563,1635.9375 5704.5938,1635.9375 5704.5938,1635.9375 C5704.5938,1635.9375 5704.5938,2761.0781 5704.5938,3128.2031" fill="none" id="StrategyBenchmark-to-Strategy Metadata" style="stroke:#181818;stroke-width:4.6875;"/><polygon fill="#181818" points="5704.5938,3156.3281,5723.3438,3114.1406,5704.5938,3132.8906,5685.8438,3114.1406,5704.5938,3156.3281" style="stroke:#181818;stroke-width:4.6875;"/></g><!--link GenerateDocumentationIndex to StrategyPlaybook.md--><g class="link" data-entity-1="GenerateDocumentationIndex" data-entity-2="StrategyPlaybook.md" data-source-line="57" data-uid="lnk37" id="link_GenerateDocumentationIndex_StrategyPlaybook.md"><path d="M1106.1563,789.5156 C1106.1563,901.6406 1106.1563,1059.375 1106.1563,1059.375 C1106.1563,1059.375 1341.7031,1059.375 1593.0938,1059.375" fill="none" id="GenerateDocumentationIndex-to-StrategyPlaybook.md" style="stroke:#181818;stroke-width:4.6875;"/><polygon fill="#181818" points="1621.2188,1059.375,1579.0313,1040.625,1597.7813,1059.375,1579.0313,1078.125,1621.2188,1059.375" style="stroke:#181818;stroke-width:4.6875;"/></g><!--link GenerateDocumentationIndex to Problem Descriptions--><g class="link" data-entity-1="GenerateDocumentationIndex" data-entity-2="Problem Descriptions" data-source-line="58" data-uid="lnk38" id="link_GenerateDocumentationIndex_Problem Descriptions"><path d="M1286.9531,679.6875 C1399.5938,679.6875 1487.5312,679.6875 1594.6406,679.6875" fill="none" id="GenerateDocumentationIndex-to-Problem Descriptions" style="stroke:#181818;stroke-width:4.6875;"/><polygon fill="#181818" points="1622.7656,679.6875,1580.5781,660.9375,1599.3281,679.6875,1580.5781,698.4375,1622.7656,679.6875" style="stroke:#181818;stroke-width:4.6875;"/></g><!--link GenerateDocumentationIndex to PlantUML Diagrams--><g class="link" data-entity-1="GenerateDocumentationIndex" data-entity-2="PlantUML Diagrams" data-source-line="59" data-uid="lnk39" id="link_GenerateDocumentationIndex_PlantUML Diagrams"><path d="M693.6563,569.8594 C693.6563,457.7344 693.6563,300 693.6563,300 C693.6563,300 1219.5469,300 1624.2656,300" fill="none" id="GenerateDocumentationIndex-to-PlantUML Diagrams" style="stroke:#181818;stroke-width:4.6875;"/><polygon fill="#181818" points="1652.3906,300,1610.2031,281.25,1628.9531,300,1610.2031,318.75,1652.3906,300" style="stroke:#181818;stroke-width:4.6875;"/></g><!--SRC=[ZL8xJyCm4DxpAquTs5g142i3hQ2LMb6Lnu8wN9DhOiMn8zi58iH_9u_6ZHi7s9Bx7dU- -tJAH8uACz09HlA3YHZso3K5sYAS2J95JY2LIMG7Y786rvUN0QUz0ID1iJWn4355eM5I13f4Jd0rkGc27CCKOuBHemeJqaPXnHZ1Lm3mjbOoBlssn-yTf-ofOb1St6Def2gwq7Cfdw8c2trtx5iTBB4WTVItnGt5hEgjzDQfBxAyD2PXwgdEm1KPZD2WswYQ0kQe16bzUaOxd-DmHo9CCbHfNPtAhDmUgGrfoTz9kRQlo5bKJm4Nq52PjejgjNFYUQKiI-qsx4_fU-3D0BPnM-jscidmO9zyz7yWGTNC3hOG4Nqw3rfpB7PIffCiwXu6PgH3nVBJ3akYC2-h9SmOLXVMzGZstZ0UtmvVt4_hNN-OjcrQ-SmRhZSNtkePlvUNOUXCUGfJCFIYHd6wgqFieGDWUt4Ft0zWl-GosxW5daWtp5xI1fdUJVoIErVb9EzlcJ-O_z3rS_i3]--></g></svg>